<svg width="135" height="88" viewBox="0 0 135 88" fill="none" xmlns="http://www.w3.org/2000/svg">
<path d="M11.3952 28.9986C5.64466 30.5314 2.22547 36.4357 3.75825 42.1862L10.014 65.6562C11.5468 71.4068 17.4511 74.826 23.2017 73.2932L59.4956 63.6192L72.4928 71.1459C74.2095 72.1401 76.4071 71.5543 77.4012 69.8376L84.9279 56.8404L120.943 47.2408C126.693 45.7081 130.113 39.8038 128.58 34.0532L122.324 10.5832C120.791 4.83266 114.887 1.41348 109.136 2.94625L11.3952 28.9986Z" fill="#E6008C"/>
<path d="M29.8147 50.8036L32.0885 50.1975L32.7878 52.8212L25.4999 54.7637L24.8005 52.1401L27.191 51.5029L25.3676 44.662L22.8565 46.6426L22.1105 43.8441L26.9241 39.9591L29.8147 50.8036ZM35.1051 37.7577C36.1157 37.4884 37.0494 37.5032 37.9062 37.8021C38.7725 38.0846 39.5429 38.6842 40.2173 39.6006C40.8883 40.5042 41.4345 41.7463 41.8558 43.327C42.2771 44.9076 42.4217 46.2568 42.2894 47.3745C42.1571 48.4921 41.7873 49.3955 41.18 50.0847C40.5823 50.7575 39.7781 51.2286 38.7675 51.4979C37.7699 51.7638 36.8379 51.7555 35.9716 51.473C35.1148 51.174 34.3509 50.5728 33.6799 49.6693C33.0089 48.7657 32.4627 47.5236 32.0414 45.9429C31.6201 44.3623 31.4756 43.0131 31.6078 41.8955C31.7367 40.7649 32.1 39.8632 32.6977 39.1904C33.305 38.5012 34.1075 38.0236 35.1051 37.7577ZM35.8562 40.5757C35.027 40.7968 34.5256 41.2843 34.3519 42.0383C34.1782 42.7923 34.2761 43.8625 34.6456 45.2488C35.0151 46.6351 35.4629 47.6121 35.9888 48.1796C36.5148 48.7471 37.1923 48.9204 38.0215 48.6994C38.8637 48.4749 39.3716 47.9856 39.5453 47.2316C39.719 46.4776 39.6211 45.4074 39.2516 44.0211C38.8821 42.6348 38.4344 41.6578 37.9084 41.0903C37.3825 40.5228 36.6984 40.3513 35.8562 40.5757ZM46.5684 34.7022C47.579 34.4329 48.5127 34.4477 49.3695 34.7466C50.2358 35.0292 51.0062 35.6287 51.6806 36.5452C52.3517 37.4487 52.8978 38.6908 53.3191 40.2715C53.7405 41.8522 53.885 43.2013 53.7527 44.319C53.6204 45.4366 53.2507 46.34 52.6434 47.0292C52.0456 47.702 51.2414 48.1731 50.2308 48.4424C49.2332 48.7084 48.3012 48.7 47.4349 48.4175C46.5781 48.1186 45.8142 47.5173 45.1432 46.6138C44.4722 45.7102 43.926 44.4681 43.5047 42.8875C43.0834 41.3068 42.9389 39.9576 43.0712 38.84C43.2 37.7094 43.5633 36.8077 44.1611 36.1349C44.7683 35.4457 45.5708 34.9682 46.5684 34.7022ZM47.3196 37.5203C46.4904 37.7413 45.9889 38.2288 45.8152 38.9828C45.6415 39.7368 45.7394 40.807 46.1089 42.1933C46.4785 43.5796 46.9262 44.5566 47.4521 45.1241C47.9781 45.6916 48.6557 45.8649 49.4849 45.6439C50.327 45.4194 50.835 44.9302 51.0087 44.1761C51.1824 43.4221 51.0844 42.352 50.7149 40.9656C50.3454 39.5793 49.8977 38.6024 49.3717 38.0348C48.8458 37.4673 48.1617 37.2958 47.3196 37.5203ZM62.6057 30.4276C63.6163 30.1582 64.55 30.173 65.4068 30.472C66.2731 30.7545 67.0434 31.354 67.7179 32.2705C68.3889 33.1741 68.9351 34.4162 69.3564 35.9968C69.7777 37.5775 69.9222 38.9267 69.79 40.0443C69.6577 41.162 69.2879 42.0654 68.6806 42.7546C68.0829 43.4274 67.2787 43.8984 66.2681 44.1678C65.2704 44.4337 64.3385 44.4254 63.4722 44.1429C62.6154 43.8439 61.8515 43.2427 61.1805 42.3391C60.5095 41.4356 59.9633 40.1935 59.542 38.6128C59.1207 37.0322 58.9761 35.683 59.1084 34.5653C59.2372 33.4347 59.6005 32.533 60.1983 31.8603C60.8056 31.1711 61.6081 30.6935 62.6057 30.4276ZM63.3568 33.2456C62.5276 33.4666 62.0262 33.9542 61.8525 34.7082C61.6788 35.4622 61.7767 36.5324 62.1462 37.9187C62.5157 39.305 62.9635 40.2819 63.4894 40.8495C64.0153 41.417 64.6929 41.5903 65.5221 41.3692C66.3643 41.1448 66.8722 40.6555 67.0459 39.9015C67.2196 39.1475 67.1217 38.0773 66.7522 36.691C66.3827 35.3047 65.9349 34.3277 65.409 33.7602C64.883 33.1927 64.199 33.0211 63.3568 33.2456ZM74.069 27.3721C75.0796 27.1028 76.0133 27.1176 76.8701 27.4165C77.7364 27.699 78.5068 28.2986 79.1812 29.215C79.8522 30.1186 80.3984 31.3607 80.8197 32.9414C81.241 34.522 81.3856 35.8712 81.2533 36.9889C81.121 38.1065 80.7512 39.0099 80.1439 39.6991C79.5462 40.3719 78.742 40.843 77.7314 41.1123C76.7338 41.3782 75.8018 41.3699 74.9355 41.0874C74.0787 40.7884 73.3148 40.1872 72.6438 39.2837C71.9728 38.3801 71.4266 37.138 71.0053 35.5573C70.584 33.9767 70.4395 32.6275 70.5717 31.5099C70.7006 30.3792 71.0639 29.4776 71.6616 28.8048C72.2689 28.1156 73.0714 27.638 74.069 27.3721ZM74.8201 30.1901C73.9909 30.4112 73.4895 30.8987 73.3158 31.6527C73.1421 32.4067 73.24 33.4769 73.6095 34.8632C73.979 36.2495 74.4268 37.2265 74.9527 37.794C75.4787 38.3615 76.1562 38.5348 76.9854 38.3138C77.8276 38.0893 78.3355 37.6 78.5092 36.846C78.6829 36.092 78.585 35.0218 78.2155 33.6355C77.846 32.2492 77.3983 31.2722 76.8723 30.7047C76.3464 30.1372 75.6623 29.9657 74.8201 30.1901ZM85.5323 24.3166C86.5429 24.0473 87.4766 24.0621 88.3334 24.361C89.1997 24.6436 89.9701 25.2431 90.6445 26.1596C91.3156 27.0631 91.8617 28.3052 92.2831 29.8859C92.7044 31.4666 92.8489 32.8157 92.7166 33.9334C92.5843 35.051 92.2146 35.9544 91.6073 36.6436C91.0095 37.3164 90.2053 37.7875 89.1947 38.0568C88.1971 38.3228 87.2651 38.3144 86.3988 38.0319C85.542 37.733 84.7781 37.1317 84.1071 36.2282C83.4361 35.3246 82.8899 34.0825 82.4686 32.5019C82.0473 30.9212 81.9028 29.572 82.0351 28.4544C82.1639 27.3238 82.5272 26.4221 83.125 25.7493C83.7322 25.0601 84.5347 24.5826 85.5323 24.3166ZM86.2835 27.1346C85.4543 27.3557 84.9528 27.8432 84.7791 28.5972C84.6054 29.3512 84.7033 30.4214 85.0728 31.8077C85.4424 33.194 85.8901 34.171 86.416 34.7385C86.942 35.306 87.6196 35.4793 88.4488 35.2583C89.2909 35.0338 89.7989 34.5446 89.9726 33.7905C90.1463 33.0365 90.0483 31.9664 89.6788 30.58C89.3093 29.1937 88.8616 28.2168 88.3356 27.6492C87.8097 27.0817 87.1256 26.9102 86.2835 27.1346ZM99.5483 32.841L99.0355 30.9169L100.124 30.6268L99.8907 29.7523L98.8024 30.0424L98.2636 28.0212L99.352 27.7311L97.6581 21.376L101.817 20.2675C103.462 19.8289 104.774 19.8817 105.752 20.426C106.729 20.9702 107.398 21.9161 107.757 23.2636C108.109 24.5851 107.992 25.7058 107.404 26.6256C106.813 27.5324 105.695 28.2052 104.05 28.6437L102.475 29.0633L102.709 29.9379L106.129 29.0262L106.642 30.9502L103.221 31.8619L103.765 33.9025L101.181 34.5915L100.637 32.5509L99.5483 32.841ZM102.533 23.0323L100.978 23.4468L101.937 27.0421L103.492 26.6277C104.217 26.4343 104.728 26.1386 105.024 25.7404C105.321 25.3423 105.384 24.8258 105.215 24.1909C105.049 23.569 104.729 23.1755 104.255 23.0105C103.794 22.842 103.22 22.8493 102.533 23.0323Z" fill="white"/>
</svg>
