<svg width="45" height="45" viewBox="0 0 45 45" fill="none" xmlns="http://www.w3.org/2000/svg">
<path d="M22.8557 44.1806C35.052 44.1806 44.939 34.2917 44.939 22.0932C44.939 9.89471 35.052 0.00585938 22.8557 0.00585938C10.6595 0.00585938 0.772461 9.89471 0.772461 22.0932C0.772461 34.2917 10.6595 44.1806 22.8557 44.1806Z" fill="#FFC800"/>
<path d="M32.3596 38.5494C24.86 42.8777 16.7266 43.6534 11.5312 41.0607C18.1828 45.0248 26.7231 45.3676 33.9015 41.2236C41.0798 37.0752 45.0545 29.507 44.9474 21.7632C44.5962 27.5614 39.8592 34.2211 32.3596 38.5494Z" fill="black"/>
<path d="M25.6566 1.62606C27.1771 4.25734 23.5023 9.2285 17.4461 12.7212C11.3899 16.2138 5.25232 16.9166 3.73185 14.2811C3.6676 14.1568 3.60764 14.0197 3.56481 13.8782C3.17077 12.6526 3.6419 11.067 4.7769 9.39563C4.96107 9.13422 5.14953 8.87709 5.34226 8.62425C7.05547 6.39151 9.22696 4.45447 11.8139 2.96313C14.4009 1.46749 17.1634 0.558971 19.9517 0.190419C20.2772 0.143279 20.5941 0.108996 20.9025 0.0875688C22.9155 -0.062423 24.5216 0.32327 25.3868 1.27465C25.4896 1.39035 25.5795 1.50606 25.6566 1.62606Z" fill="black"/>
<path d="M35.0449 4.47578C37.7004 9.0741 32.3423 17.1351 23.0824 22.4834C13.8225 27.8316 4.16002 28.4402 1.50883 23.8419C1.06768 23.0748 0.83211 22.222 0.784997 21.3049C0.669355 24.3947 1.20045 27.5359 2.43824 30.5186C2.62241 30.9643 2.82372 31.4057 3.03787 31.8429C3.04643 31.86 3.05928 31.8814 3.06785 31.8986C3.86877 33.2828 5.05089 34.3713 6.52425 35.1598C11.7196 37.9411 20.504 36.9854 28.7189 32.2414C36.9294 27.4974 42.1504 20.3706 42.3432 14.4824C42.3988 12.8196 42.0519 11.2554 41.2596 9.8712C40.9597 9.42123 40.6471 8.97982 40.3173 8.55984C38.3685 6.03998 35.9443 4.03438 33.2503 2.60303C33.9998 3.09586 34.608 3.71725 35.0449 4.47578C35.0449 4.47578 35.0492 4.48007 35.0492 4.48435L35.0449 4.47578Z" fill="black"/>
<path d="M22.8601 44.1806C35.0564 44.1806 44.9434 34.2917 44.9434 22.0932C44.9434 9.89471 35.0564 0.00585938 22.8601 0.00585938C10.6639 0.00585938 0.776855 9.89471 0.776855 22.0932C0.776855 34.2917 10.6639 44.1806 22.8601 44.1806Z" fill="url(#paint0_radial_516_430)"/>
<defs>
<radialGradient id="paint0_radial_516_430" cx="0" cy="0" r="1" gradientUnits="userSpaceOnUse" gradientTransform="translate(22.8581 22.0951) scale(22.0827 22.0954)">
<stop offset="0.5" stop-color="white" stop-opacity="0"/>
<stop offset="1" stop-color="white" stop-opacity="0.35"/>
</radialGradient>
</defs>
</svg>
