<svg width="122" height="119" viewBox="0 0 122 119" fill="none" xmlns="http://www.w3.org/2000/svg">
<path d="M96.31 43.0624L75.4552 24.4018C74.5357 23.5784 73.4156 23.0125 72.2075 22.7613C70.9994 22.5101 69.7459 22.5823 68.573 22.9706L42.5514 31.5894C41.3326 31.9901 40.2399 32.7052 39.3832 33.6628C38.5266 34.6205 37.9362 35.7868 37.6715 37.0445L32.092 63.7719C31.829 65.0292 31.9009 66.333 32.3004 67.5522C32.7 68.7714 33.4131 69.863 34.368 70.717L54.6556 88.884C55.6092 89.735 56.7697 90.3196 58.0208 90.5792C59.272 90.8389 60.5699 90.7645 61.7848 90.3635L87.6945 81.793C88.9139 81.3933 90.0071 80.6784 90.8639 79.7207C91.7207 78.7629 92.3107 77.596 92.5744 76.3379L98.2807 49.0223C98.5054 47.9434 98.443 46.8248 98.0996 45.7789C97.7563 44.7331 97.1441 43.7969 96.3246 43.0644" fill="#6432C8"/>
<path d="M53.5062 57.5749C52.3333 56.5276 51.7243 55.3339 51.679 53.994C51.6481 52.638 52.307 51.2049 53.6556 49.6946C55.0186 48.1683 56.3683 47.3521 57.7048 47.246C59.0556 47.1239 60.3175 47.5865 61.4904 48.6338C62.6632 49.6812 63.2651 50.8828 63.296 52.2388C63.3412 53.5788 62.6824 55.0119 61.3194 56.5382C59.9708 58.0485 58.621 58.8647 57.2702 58.9868C55.9337 59.0929 54.6791 58.6222 53.5062 57.5749ZM68.8158 55.5652L71.2499 57.7388L49.5064 67.7781L47.0723 65.6045L68.8158 55.5652ZM55.9811 54.8034C56.8808 55.6069 57.8328 55.4462 58.8371 54.3216C59.8558 53.1808 59.9152 52.2088 59.0155 51.4053C58.1157 50.6019 57.1566 50.7705 56.1379 51.9113C55.1336 53.0359 55.0813 54 55.9811 54.8034ZM56.7837 74.6664C55.6108 73.6191 55.0018 72.4254 54.9565 71.0855C54.9256 69.7295 55.5845 68.2964 56.9331 66.7861C58.2961 65.2598 59.6458 64.4436 60.9823 64.3375C62.3331 64.2154 63.595 64.678 64.7679 65.7253C65.9407 66.7727 66.5426 67.9743 66.5735 69.3303C66.6187 70.6703 65.9599 72.1034 64.5969 73.6297C63.2483 75.14 61.8985 75.9562 60.5477 76.0783C59.2112 76.1844 57.9566 75.7137 56.7837 74.6664ZM59.2586 71.8949C60.1583 72.6984 61.1103 72.5377 62.1146 71.4131C63.1333 70.2724 63.1927 69.3003 62.293 68.4968C61.3933 67.6934 60.4341 67.862 59.4154 69.0028C58.4111 70.1274 58.3588 71.0915 59.2586 71.8949Z" fill="white"/>
<path d="M66.3908 38.2376L65.328 37.2884C65.4926 36.9714 65.5398 36.6532 65.4696 36.3338C65.4098 36.0139 65.2068 35.6994 64.8608 35.3903C64.5971 35.1549 64.3018 35.0047 63.9748 34.9397C63.6532 34.8797 63.3192 34.922 62.9727 35.0668C62.6263 35.2116 62.2838 35.4735 61.9454 35.8525C61.6118 36.226 61.3902 36.5958 61.2805 36.9618C61.1757 37.3224 61.1713 37.6591 61.2672 37.9718C61.3686 38.2894 61.5512 38.5659 61.8148 38.8014C62.1609 39.1104 62.4962 39.2766 62.8209 39.2999C63.1511 39.3282 63.4619 39.2455 63.7535 39.0516L64.8163 40.0008C64.1589 40.549 63.4678 40.8254 62.7431 40.8299C62.0288 40.8338 61.3613 40.5586 60.7406 40.0043C60.3232 39.6315 60.0241 39.2312 59.8435 38.8033C59.6677 38.3699 59.5904 37.9258 59.6117 37.4708C59.6433 37.0153 59.7611 36.5627 59.9652 36.1131C60.1747 35.6683 60.4585 35.2455 60.8166 34.8445C61.1747 34.4435 61.5628 34.1139 61.9811 33.8555C62.4049 33.6021 62.8413 33.434 63.2904 33.3512C63.7449 33.2734 64.195 33.3001 64.6405 33.4313C65.0909 33.5571 65.5249 33.8064 65.9423 34.1792C66.563 34.7334 66.9092 35.3684 66.981 36.0841C67.0631 36.7992 66.8664 37.517 66.3908 38.2376ZM66.1773 44.6666L66.6219 41.5983L64.9003 43.5262L63.8621 42.5992L67.5261 38.4961L68.5643 39.4231L66.9015 41.2852L69.932 40.6445L71.069 41.6598L67.9396 42.2122L67.4215 45.7776L66.1773 44.6666ZM72.6115 43.0372L70.4704 45.4348L74.1687 44.4277L75.1491 45.3033L71.4851 49.4064L70.447 48.4793L72.6027 46.0653L68.9145 47.1109L67.9093 46.2133L71.5733 42.1101L72.6115 43.0372ZM71.052 50.8856L72.9649 48.7434L73.3769 49.1112C73.7934 49.0981 74.2846 48.8852 74.8507 48.4725C75.4222 48.0646 76.0516 47.4814 76.7389 46.7228L79.5814 49.2611L76.9033 52.2602L77.5295 52.8194L75.6165 54.9616L74.6031 54.0566L75.5301 53.0185L72.9925 50.7524L72.0654 51.7905L71.052 50.8856ZM76.5925 48.5618C76.2234 48.9529 75.8607 49.2707 75.5042 49.5151C75.1526 49.7541 74.7868 49.926 74.4068 50.0309L75.8651 51.3332L77.5647 49.4299L76.5925 48.5618ZM79.3891 56.4644L79.8336 53.396L78.112 55.324L77.0738 54.397L80.7378 50.2938L81.776 51.2209L80.1132 53.0829L83.1437 52.4422L84.2807 53.4575L81.1513 54.01L80.6332 57.5754L79.3891 56.4644ZM84.0429 60.6646C83.8067 60.4537 83.6656 60.2191 83.6197 59.9609C83.5793 59.7077 83.6533 59.4479 83.8417 59.1817C83.5362 59.3137 83.226 59.3625 82.9112 59.3282C82.6012 59.2884 82.2979 59.136 82.0013 58.8711C81.6278 58.5376 81.4219 58.1711 81.3837 57.7717C81.3559 57.3717 81.5014 56.9931 81.8202 56.6361C82.0458 56.3834 82.2764 56.2191 82.5121 56.1432C82.7532 56.0722 83.0162 56.0652 83.301 56.1221C83.5859 56.179 83.9021 56.2837 84.2497 56.4361L85.6051 57.0245C85.7046 56.8468 85.7184 56.6765 85.6466 56.5136C85.5853 56.3502 85.4667 56.19 85.2909 56.0331C85.0877 55.8516 84.8962 55.7398 84.7165 55.6978C84.5417 55.6504 84.3765 55.6806 84.2209 55.7884L83.3723 55.0306C83.6848 54.747 84.0057 54.5645 84.3349 54.4833C84.669 54.3967 85.0008 54.4066 85.3301 54.5131C85.6644 54.6142 85.9826 54.7996 86.2847 55.0694C86.7736 55.5059 87.0511 55.9857 87.1171 56.5087C87.1881 57.0263 86.9827 57.5438 86.5008 58.0613L85.2842 59.374C85.161 59.5009 85.0996 59.6139 85.1 59.713C85.1058 59.8169 85.1665 59.9204 85.2818 60.0234L85.356 60.0896L84.5025 61.0454C84.4262 60.9871 84.3496 60.9237 84.2727 60.855C84.1909 60.7918 84.1143 60.7283 84.0429 60.6646ZM83.0526 57.2627C82.9397 57.389 82.9085 57.529 82.959 57.6826C83.0198 57.8356 83.1326 57.9857 83.2973 58.1329C83.4566 58.2751 83.6221 58.3883 83.7938 58.4725C83.9703 58.5512 84.1155 58.5821 84.2293 58.5652L85.0468 57.6663L84.0855 57.2669C83.8185 57.1568 83.6039 57.0985 83.4419 57.092C83.2902 57.085 83.1605 57.1418 83.0526 57.2627Z" fill="white"/>
</svg>
