<svg width="1024" height="1024" viewBox="0 0 1024 1024" fill="none" xmlns="http://www.w3.org/2000/svg">
<rect width="1024" height="1024" fill="white"/>
<g clip-path="url(#clip0_210_6248)">
<path fill-rule="evenodd" clip-rule="evenodd" d="M722.989 683.78C751.275 675.544 759.779 641.081 783.859 632.219C806.327 665.787 784.844 727.284 742.771 735.788C732.567 737.847 720.214 733.819 716.543 724.33L722.989 683.78Z" fill="#EC1849"/>
<path fill-rule="evenodd" clip-rule="evenodd" d="M741.697 723.524C740.713 723.882 740.533 723.972 740.802 723.882C741.071 723.793 741.339 723.614 741.697 723.524ZM786.813 629.086C781.173 623.088 773.386 622.73 764.882 628.638C756.378 634.457 748.5 642.871 742.145 650.838C735.252 659.61 728.539 668.204 718.244 673.396C718.065 673.485 717.528 673.664 717.17 673.843C716.364 674.112 715.648 674.381 714.843 674.649C708.935 676.439 705.175 682.526 706.876 688.524C708.487 694.253 715.022 698.192 720.93 696.401C731.134 693.268 740.086 687.002 747.516 679.393C756.109 670.621 762.107 658.805 772.132 651.375C772.401 651.286 773.654 657.015 773.744 657.462C773.833 658.089 773.923 658.715 774.012 659.342C774.012 659.252 773.923 659.073 773.923 658.984C774.37 661.043 774.46 663.191 774.46 665.25C774.46 665.877 774.46 666.414 774.46 667.04C773.923 686.286 765.777 709.112 748.59 719.944C746.173 721.466 743.577 722.808 740.981 723.882C735.61 726.031 725.853 728.179 722.451 721.555C722.541 721.734 722.541 722.003 722.63 722.182C720.214 716.721 714.843 712.783 708.666 714.483C703.295 715.916 698.282 722.719 700.699 728.358C704.28 736.773 709.919 742.591 718.602 745.903C738.206 753.602 759.869 742.412 773.207 728.537C788.872 712.066 797.376 688.972 797.286 666.593C797.286 654.24 795.764 638.485 786.813 629.086Z" fill="#004C4A"/>
<path fill-rule="evenodd" clip-rule="evenodd" d="M478.791 240.142C482.372 235.219 484.251 229.132 485.147 223.134C488.459 200.666 478.523 177.303 461.425 161.906C444.417 146.599 421.054 138.901 397.959 138.453C385.695 138.184 371.104 141.407 366.449 152.596C361.705 164.054 370.657 177.124 381.756 182.942C392.856 188.761 405.836 190.014 417.652 194.4C442.716 203.71 460.978 228.416 462.499 254.644L478.791 240.142Z" fill="#EC1849"/>
<path fill-rule="evenodd" clip-rule="evenodd" d="M574.304 263.416C593.191 226.984 631.593 206.574 664.893 183.211C676.62 174.975 689.152 163.517 687.809 149.105C686.556 135.32 671.965 125.921 658.358 126.368C644.752 126.816 632.578 134.783 622.194 143.734C589.342 172.379 569.022 215.347 567.232 259.299L574.304 263.416Z" fill="#EC1849"/>
<path fill-rule="evenodd" clip-rule="evenodd" d="M668.116 167.098C661.312 173.006 653.346 177.482 645.916 182.494C637.77 188.044 629.624 193.505 621.478 199.144C607.335 209.08 593.46 219.912 581.823 232.713C582.36 230.385 582.987 228.058 583.703 225.551C587.104 213.467 590.953 204.247 596.951 193.326C603.038 182.226 609.394 173.364 617.539 164.502C625.864 155.371 634.458 147.405 645.11 141.855C654.151 137.2 670.085 136.126 676.082 146.151C681.185 154.566 674.024 162.085 668.116 167.098ZM688.704 126.01C677.425 115.985 662.566 112.941 648.064 116.343C633.652 119.744 621.12 129.233 610.378 139.169C600.084 148.658 591.132 159.579 583.434 171.305C566.247 197.533 556.49 228.505 555.147 259.925C554.879 265.565 559.534 270.398 564.815 271.294C565.621 272.368 566.695 273.263 567.948 274.069C573.14 277.112 580.749 275.411 583.703 269.951C595.519 247.662 615.212 231.638 635.711 217.495C646.453 210.065 657.463 203.083 668.205 195.743C679.394 188.134 691.21 179.361 696.85 166.561C703.026 152.507 700.431 136.215 688.704 126.01Z" fill="#004C4A"/>
<path fill-rule="evenodd" clip-rule="evenodd" d="M444.865 197.444C435.466 189.745 424.992 184.374 413.266 181.062C407.179 179.361 400.913 178.019 394.826 176.049C388.828 174.17 383.905 171.305 379.519 166.829C379.608 166.829 379.608 166.919 379.608 166.919C377.37 163.875 374.953 159.4 377.191 155.729C384.442 144.092 403.956 148.568 414.877 150.896C420.427 152.059 426.156 153.76 431.438 155.819C440.389 159.31 450.146 165.666 457.218 173.006C465.185 181.241 470.824 191.446 473.42 202.904C475.658 212.751 475.658 224.477 469.929 233.697C465.185 219.733 456.591 206.932 444.865 197.444ZM451.041 252.137C451.22 253.301 451.041 252.495 451.041 252.137V252.137ZM497.41 206.664C495.799 193.415 491.323 180.704 483.804 169.515C468.586 147.046 443.522 132.545 416.578 128.159C404.135 126.1 390.708 125.026 378.355 128.696C364.838 132.724 354.365 142.571 353.112 156.893C351.858 170.768 361.526 183.479 372.536 190.909C388.291 201.382 408.611 200.487 424.545 210.692C433.944 216.689 441.374 225.551 445.939 235.667C447.64 239.516 449.162 243.633 450.146 247.662C450.504 249.094 450.773 250.616 451.041 252.137C451.131 253.301 451.22 254.375 451.31 255.539C451.757 261.715 456.323 266.907 462.857 266.907C468.765 266.907 474.852 261.715 474.405 255.539C474.315 254.554 474.226 253.57 474.136 252.585H487.832V248.199C488.28 247.662 488.817 247.124 489.175 246.498C496.963 235.129 499.021 220.001 497.41 206.664Z" fill="#004C4A"/>
<path fill-rule="evenodd" clip-rule="evenodd" d="M723.973 505.107C719.766 423.648 703.027 306.652 614.138 271.025C532.231 238.173 436.54 249.452 356.066 280.961C284.006 309.158 255.092 363.226 252.138 437.613C252.138 437.613 410.491 430.273 488.996 426.692C522.295 425.17 561.055 425.976 581.375 452.025C599.368 475.12 599.278 513.432 601.516 541.092C604.918 583.702 611.184 630.429 596.414 671.785C576.094 728.716 523.549 727.284 471.182 728C392.767 728.985 314.262 728 235.936 725.046C253.302 783.5 307.727 825.661 366.449 844.549C442.895 869.076 554.61 872.657 631.683 847.861C694.523 827.631 720.84 770.43 725.942 709.112C731.582 641.349 727.464 572.781 723.973 505.107Z" fill="#EC1849"/>
<path d="M508.779 874.626C505.377 874.626 502.065 874.626 498.663 874.537C450.146 873.642 402.166 866.301 363.495 853.948C331.807 843.743 302.715 827.631 279.262 807.132C253.481 784.574 235.22 757.182 226.448 727.911C225.552 724.867 226.179 721.555 228.059 719.049C230.028 716.542 233.072 715.11 236.205 715.2C314.083 718.064 393.035 719.049 471.003 718.154L476.195 718.064C526.413 717.527 569.738 716.99 587.015 668.473C599.368 633.741 596.056 594.354 592.744 556.31C592.296 551.476 591.938 546.642 591.58 541.898C591.312 538.138 591.043 534.2 590.774 530.082C589.253 505.824 587.283 475.657 573.498 458.022C556.669 436.449 523.101 434.927 489.354 436.449L252.586 447.46C249.811 447.549 247.126 446.564 245.156 444.595C243.187 442.626 242.113 439.94 242.292 437.255C243.903 396.436 252.944 363.584 269.862 336.729C288.213 307.637 315.247 286.422 352.485 271.831C395.631 254.912 441.105 244.618 483.983 242.112C532.679 239.158 577.705 245.871 617.808 261.984C659.88 278.813 690.942 314.35 710.098 367.612C723.346 404.403 730.866 447.907 733.82 504.66L734.357 515.223C737.669 579.047 741.16 645.109 735.7 710.008C729.344 786.006 693.448 838.283 634.637 857.26C599.099 868.629 555.774 874.626 508.779 874.626ZM249.99 735.341C258.763 756.108 273.085 775.533 292.152 792.183C313.635 810.891 340.311 825.751 369.493 835.15C447.64 860.214 556.669 861.647 628.639 838.462C655.763 829.69 677.067 812.95 692.016 788.692C705.354 767.029 713.41 739.995 716.096 708.307C721.377 644.751 717.976 579.405 714.664 516.207L714.126 505.644C711.351 451.667 703.922 408.699 691.569 374.236C674.382 326.525 647.08 294.836 610.468 280.156C573.05 265.117 530.889 258.94 485.147 261.715C444.328 264.132 400.913 273.979 359.646 290.092C299.044 313.813 268.072 357.586 262.612 427.319L488.548 416.845C527.577 415.055 566.784 417.293 589.163 445.938C606.619 468.317 608.767 501.885 610.557 528.829C610.826 532.857 611.094 536.706 611.363 540.376C611.721 545.121 612.169 549.865 612.527 554.699C615.928 594.891 619.509 636.426 605.724 675.186C595.877 702.936 577.974 720.75 551.209 729.701C528.561 737.31 502.154 737.578 476.553 737.847L471.361 737.937C397.78 738.742 323.482 737.847 249.99 735.341Z" fill="#004C4A"/>
<path fill-rule="evenodd" clip-rule="evenodd" d="M414.609 319.274C413.266 327.241 413.445 334.939 415.772 342.727C417.473 348.366 423.829 352.484 429.737 350.604C435.466 348.724 439.494 342.816 437.614 336.819C437.256 335.565 436.898 334.402 436.629 333.149C435.913 329.926 436.54 334.402 436.361 331.09C436.271 329.836 436.271 328.583 436.271 327.33C436.271 326.972 436.629 323.749 436.45 325.271C437.435 319.453 434.929 312.918 428.573 311.486C423.113 310.143 415.593 313.008 414.609 319.274Z" fill="#004C4A"/>
<path fill-rule="evenodd" clip-rule="evenodd" d="M360.81 322.944V339.146C360.81 345.323 366.36 351.231 372.984 350.962C379.608 350.694 385.158 345.77 385.158 339.146V322.944C385.158 316.767 379.608 310.859 372.984 311.128C366.36 311.396 360.81 316.32 360.81 322.944Z" fill="#004C4A"/>
<path fill-rule="evenodd" clip-rule="evenodd" d="M377.191 849.562C374.416 862.184 371.641 874.805 368.866 887.427C367.613 893.245 370.746 899.332 377.549 901.033C383.636 902.555 391.603 899.243 392.946 893.335C395.721 880.713 398.496 868.092 401.271 855.47C402.524 849.651 399.391 843.564 392.588 841.864C386.501 840.342 378.534 843.654 377.191 849.562Z" fill="#004C4A"/>
<path fill-rule="evenodd" clip-rule="evenodd" d="M414.519 870.24C413.713 879.281 413.534 888.322 413.892 897.453C414.161 903.719 418.905 909 425.171 909C431.079 909 436.719 903.719 436.45 897.453C436.092 888.411 436.361 879.281 437.077 870.24C437.614 863.974 431.527 858.692 425.798 858.692C419.263 858.692 415.056 863.974 414.519 870.24Z" fill="#004C4A"/>
<path fill-rule="evenodd" clip-rule="evenodd" d="M547.36 869.076C547.897 878.654 548.434 888.143 548.971 897.721C549.329 903.808 554.342 909 561.145 909C567.501 909 573.677 903.808 573.319 897.721C572.782 888.143 572.245 878.654 571.708 869.076C571.35 862.989 566.337 857.797 559.534 857.797C553.268 857.797 547.002 862.989 547.36 869.076Z" fill="#004C4A"/>
<path fill-rule="evenodd" clip-rule="evenodd" d="M583.255 867.734C585.493 877.759 588.089 887.695 590.953 897.632C595.071 911.596 618.703 905.688 614.496 891.634C611.542 881.787 609.036 871.762 606.798 861.736C605.455 855.739 597.846 852.337 591.759 853.859C585.045 855.559 581.912 861.736 583.255 867.734Z" fill="#004C4A"/>
<path fill-rule="evenodd" clip-rule="evenodd" d="M302.625 611.72C307.101 617.001 316.5 617.181 323.303 615.122C330.285 613.063 337.088 609.751 343.802 606.886C347.025 605.544 350.247 604.29 353.47 603.216C352.306 605.185 351.142 607.155 349.979 609.124C347.204 613.868 343.534 618.523 341.654 623.715C339.774 628.728 341.027 634.188 345.145 637.68C350.158 641.976 357.766 641.976 362.779 637.59C366.539 634.278 368.329 629.534 369.672 624.789C370.388 622.372 370.836 619.956 371.462 617.539C371.731 616.464 373.163 612.168 373.7 611.183C376.654 622.193 376.296 633.741 380.861 644.393C382.831 648.958 385.695 654.329 390.708 655.941C402.435 659.79 408.432 644.751 408.79 635.71C409.148 626.401 407.626 616.554 405.836 607.423C405.568 606.081 403.419 596.413 402.703 594.265C406.105 595.965 409.954 597.935 412.997 599.725C417.115 602.142 421.501 604.29 426.067 605.633C438.062 609.214 450.236 607.065 461.246 601.694C471.003 597.04 483.267 585.761 475.21 574.213C472.793 570.722 468.944 568.305 464.916 566.873C460.082 565.083 454.622 564.277 449.52 563.561C434.75 561.502 419.621 559.175 404.941 563.292C404.851 563.292 411.744 556.31 414.877 552.192C415.683 550.85 416.488 549.507 417.294 548.164C418.01 547.001 418.458 545.926 418.726 544.763C419.8 545.747 421.054 546.553 422.486 547.001C424.097 547.806 425.798 548.254 427.678 548.164C427.946 548.164 428.304 548.164 428.662 548.164C431.079 548.164 433.317 547.538 435.466 546.284C436.361 545.568 437.256 544.852 438.151 544.136C439.852 542.435 440.926 540.466 441.642 538.139L442.09 534.558C442.179 532.678 441.732 530.977 440.926 529.366C440.389 527.665 439.494 526.233 438.151 524.98C436.898 523.637 435.466 522.742 433.854 522.205C432.243 521.399 430.542 520.952 428.662 521.041C428.304 521.041 428.036 521.041 427.678 521.041C425.261 521.041 423.023 521.668 420.875 522.921C419.979 523.637 419.084 524.353 418.189 525.069C416.488 526.77 415.414 528.739 414.698 531.067L414.609 531.783C412.102 529.545 408.79 528.202 405.389 528.113C407.716 526.233 409.238 523.369 409.238 520.146C409.238 514.417 404.493 509.762 398.764 509.941C393.304 510.12 388.828 514.865 388.918 520.325C389.007 525.517 392.946 529.724 397.959 530.261C396.437 531.335 395.094 532.678 394.02 534.558C393.304 535.722 392.588 536.975 391.872 538.139L383.189 555.057C371.462 534.289 361.616 507.614 334.672 503.944C328.764 503.138 322.05 503.944 318.022 508.33C311.577 515.491 314.889 526.591 318.917 534.021C321.871 539.571 325.63 544.584 330.106 548.97C334.403 553.267 343.354 559.085 347.293 563.65C337.088 568.753 326.884 574.213 317.574 581.016C313.277 584.149 308.623 587.461 305.042 591.579C302.088 594.981 299.94 599.367 299.85 603.843C300.029 607.244 301.014 609.84 302.625 611.72Z" fill="#004C4A"/>
</g>
<defs>
<clipPath id="clip0_210_6248">
<rect width="571.286" height="794" fill="white" transform="translate(226 115)"/>
</clipPath>
</defs>
</svg>
