<svg xmlns="http://www.w3.org/2000/svg" viewBox="0 0 1277.46 1277.46">
  <defs>
    <style>
      .cls-1 {
        fill: #ffb536;
      }

      .cls-2 {
        fill: #ffc32b;
      }

      .cls-3 {
        fill: #ffce54;
      }

      .cls-4 {
        fill: #ffb13b;
      }

      .cls-5 {
        fill: #ffe836;
      }
    </style>
  </defs>
  <g id="Слой_2" data-name="Слой 2">
    <g id="_лой_1" data-name="—лой_1">
      <g>
        <g>
          <path class="cls-1" d="M67.56,681.78c0-343.72,278.64-622.36,622.37-622.36a619.62,619.62,0,0,1,374,124.87C952.65,80.15,803.15,16.36,638.73,16.36,295,16.36,16.36,295,16.36,638.73c0,203.36,97.55,383.93,248.39,497.5C143.42,1022.66,67.56,861.09,67.56,681.78Z"/>
          <path class="cls-2" d="M1261.1,638.73c0-179.31-75.85-340.87-197.19-454.44a619.62,619.62,0,0,0-374-124.87C346.2,59.42,67.56,338.06,67.56,681.78c0,179.31,75.86,340.88,197.19,454.45a619.62,619.62,0,0,0,374,124.87C982.46,1261.1,1261.1,982.46,1261.1,638.73Z"/>
        </g>
        <path class="cls-3" d="M689.93,59.42C346.2,59.42,67.56,338.06,67.56,681.78a619.34,619.34,0,0,0,77.8,301.39L1019,153.46A619.36,619.36,0,0,0,689.93,59.42Z"/>
        <g>
          <rect class="cls-4" x="382.16" y="782.23" width="365.6" height="68.57"/>
          <rect class="cls-4" x="382.16" y="657.64" width="365.6" height="68.57"/>
          <path class="cls-4" d="M474,1017.51V297.77H672.37c64.2,0,114.23,5.33,148.72,15.83,32,9.75,58.44,31.61,80.81,66.83,22.65,35.67,34.13,81,34.13,134.7,0,52-9.27,95.13-27.54,128.29-18,32.71-42.16,55.62-73.79,70-32.61,14.85-84.79,22.39-155.07,22.39H599.7v281.67ZM599.7,646.93h72.67c53.2,0,88.89-14,106.08-41.69,15.22-24.51,22.94-56,22.94-93.73,0-32.27-6.1-59.19-18.13-80C770.59,409.56,755,395,736.79,388.28c-16.09-6-37.15-8.85-64.42-8.85H599.7Z"/>
        </g>
        <g>
          <rect class="cls-5" x="361.8" y="763.33" width="365.6" height="68.57"/>
          <rect class="cls-5" x="361.8" y="638.73" width="365.6" height="68.57"/>
          <path class="cls-5" d="M453.62,998.6V278.86H652c64.19,0,114.23,5.33,148.72,15.84,32,9.74,58.44,31.6,80.81,66.82,22.64,35.67,34.13,81,34.13,134.7,0,52-9.27,95.13-27.54,128.29-18,32.71-42.16,55.62-73.79,70-32.62,14.85-84.79,22.39-155.08,22.39H579.33V998.6ZM579.33,628H652c53.2,0,88.88-14,106.08-41.69,15.22-24.51,22.93-56,22.93-93.73,0-32.26-6.1-59.18-18.12-80-12.68-21.93-28.31-36.47-46.48-43.21-16.08-6-37.14-8.85-64.41-8.85H579.33Z"/>
        </g>
        <path class="cls-5" d="M638.73,1277.46c-170.61,0-331-66.44-451.65-187.08S0,809.34,0,638.73s66.44-331,187.08-451.65S468.12,0,638.73,0s331,66.44,451.65,187.08,187.08,281,187.08,451.65-66.44,331-187.08,451.65S809.34,1277.46,638.73,1277.46Zm0-1238.11c-330.5,0-599.38,268.88-599.38,599.38s268.88,599.39,599.38,599.39,599.39-268.89,599.39-599.39S969.23,39.35,638.73,39.35Z"/>
      </g>
    </g>
  </g>
</svg>
