<svg xmlns="http://www.w3.org/2000/svg" xmlns:xlink="http://www.w3.org/1999/xlink" viewBox="0 0 380 363.89">
  <defs>
    <style>
      .cls-1 {
        fill: url(#Безымянный_градиент_15);
      }

      .cls-2 {
        fill: url(#Безымянный_градиент_18);
      }

      .cls-3 {
        fill: url(#Безымянный_градиент_15-2);
      }

      .cls-4 {
        stroke: #ffe99f;
        stroke-miterlimit: 10;
        fill: url(#Безымянный_градиент_7);
      }

      .cls-5 {
        fill: #fff;
        opacity: 0.3;
      }
    </style>
    <linearGradient id="Безымянный_градиент_15" data-name="Безымянный градиент 15" x1="129.21" y1="23.47" x2="276.63" y2="372.41" gradientUnits="userSpaceOnUse">
      <stop offset="0.37" stop-color="#ffd656"/>
      <stop offset="1" stop-color="#c74059"/>
    </linearGradient>
    <linearGradient id="Безымянный_градиент_18" data-name="Безымянный градиент 18" x1="82.04" y1="231.85" x2="138.07" y2="345.2" gradientUnits="userSpaceOnUse">
      <stop offset="0" stop-color="#ffd656"/>
      <stop offset="1" stop-color="#c74059"/>
    </linearGradient>
    <linearGradient id="Безымянный_градиент_15-2" x1="47.92" y1="119.58" x2="118.32" y2="170.21" xlink:href="#Безымянный_градиент_15"/>
    <linearGradient id="Безымянный_градиент_7" data-name="Безымянный градиент 7" x1="140.44" y1="55.85" x2="258.82" y2="336.07" gradientUnits="userSpaceOnUse">
      <stop offset="0.47" stop-color="#fdc800"/>
      <stop offset="0.97" stop-color="#c74059"/>
    </linearGradient>
  </defs>
  <g id="Слой_2" data-name="Слой 2">
    <g id="Слой_2-2" data-name="Слой 2">
      <path class="cls-1" d="M309.05,224.75a25.35,25.35,0,0,0-7.28,22.4l14.94,87.1c3.55,20.67-18.15,36.44-36.72,26.68L259.22,350l-57.44-30.2a25.3,25.3,0,0,0-23.56,0l-66.55,35L100,360.93c-18.57,9.76-40.27-6-36.72-26.68l4.1-23.94c14.18-54.13,45.32-84.26,75.18-104.52S182,180.92,182,180.92c8.63-4.16,15.81-6.85,19-9.46-1.24,2.8-8.51,5.3-17.68,9.72,0,0-8.29,4-34.06,21.49S96.68,246,84.38,292.51c-.09.31-.15.62-.21.94a33,33,0,0,0-.48,5.63c0,23.24,25.15,39.52,46.89,28.08l44.72-23.51a32,32,0,0,1,29.77,0l44.72,23.51c23.46,12.34,50.89-7.58,46.41-33.71l-8.54-49.8a32,32,0,0,1,9.2-28.31L333,180.07c19-18.5,8.51-50.74-17.72-54.55l-50-7.27a32,32,0,0,1-24.08-17.5l-22.36-45.3c-11.74-23.77-45.63-23.77-57.37,0l-22.36,45.3a32,32,0,0,1-24.08,17.5l-50,7.27c-26.23,3.81-36.71,36.05-17.72,54.55L61.62,194q-6.61,4.22-13.13,8.88L7.67,163.07c-15-14.64-6.73-40.15,14-43.16l87.45-12.71A25.34,25.34,0,0,0,128.2,93.35l39.1-79.24c9.29-18.81,36.11-18.81,45.39,0L251.8,93.35a25.32,25.32,0,0,0,19.06,13.85l87.44,12.71c20.76,3,29.05,28.52,14,43.16Z"/>
      <path class="cls-2" d="M178.93,319.81l-66.55,35-11.66,6.13c-18.57,9.76-40.27-6-36.72-26.68l4.1-23.94c14.18-54.13,45.32-84.26,75.18-104.52"/>
      <path class="cls-3" d="M129.34,113c-4.66,9.44-3.86,4.33-14.28,5.84l-50,7.27c-26.23,3.81-36.71,36.05-17.72,54.55l14.28,13.92q-6.61,4.22-13.13,8.88L7.67,163.61c-15-14.64-6.73-40.15,14-43.16l87.45-12.71A25.34,25.34,0,0,0,128.2,93.89"/>
      <path class="cls-4" d="M333,180.07l-36.17,35.27a32,32,0,0,0-9.2,28.31l8.54,49.8c4.48,26.13-22.95,46.05-46.41,33.71l-44.72-23.51a32,32,0,0,0-29.77,0l-44.72,23.51c-21.74,11.44-46.89-4.84-46.89-28.08a33,33,0,0,1,.48-5.63c.06-.32.12-.63.21-.94,12.3-46.48,39.12-72.39,64.82-89.84s34.06-21.49,34.06-21.49c9.17-4.42,16.44-6.92,17.68-9.72,1.18-1,1.8-1.93,1.72-3-.44-5.83-23.2-8.52-26.84-8.94-31.91-3.77-74,8.81-114.2,34.42L47.34,180.07c-19-18.5-8.51-50.74,17.72-54.55l50-7.27a32,32,0,0,0,24.08-17.5l22.36-45.3c11.74-23.77,45.63-23.77,57.37,0l22.36,45.3a32,32,0,0,0,24.08,17.5l50,7.27C341.54,129.33,352,161.57,333,180.07Z"/>
    </g>
    <g id="Слой_4" data-name="Слой 4">
      <polygon class="cls-5" points="296.86 215.34 145.25 89.75 161.5 55.45 318.52 194.22 296.86 215.34"/>
    </g>
  </g>
</svg>
