<?xml version="1.0" standalone="no"?>
<!DOCTYPE svg PUBLIC "-//W3C//DTD SVG 20010904//EN"
 "http://www.w3.org/TR/2001/REC-SVG-20010904/DTD/svg10.dtd">
<svg version="1.0" xmlns="http://www.w3.org/2000/svg"
 width="400.000000pt" height="400.000000pt" viewBox="0 0 400.000000 400.000000"
 preserveAspectRatio="xMidYMid meet">
<metadata>
Created by potrace 1.14, written by Peter Selinger 2001-2017
</metadata>
<g transform="translate(0.000000,400.000000) scale(0.100000,-0.100000)"
fill="#000000" stroke="none">
<path d="M1530 3415 c-192 -25 -289 -44 -388 -76 l-64 -21 6 -102 c4 -55 9
-121 11 -146 2 -25 7 -88 10 -140 9 -147 15 -214 19 -218 2 -2 60 10 127 27
138 33 213 47 307 57 l62 6 -2 -543 c-2 -491 2 -689 17 -934 11 -179 32 -379
50 -480 13 -71 25 -132 30 -155 4 -14 7 -31 7 -37 2 -16 -9 -17 138 11 69 14
138 27 154 30 25 4 54 10 151 31 6 1 45 8 87 15 42 8 75 16 73 20 -2 3 -6 33
-10 65 -3 33 -8 71 -10 85 -3 14 -7 57 -11 95 -3 39 -7 86 -9 105 -27 262 -39
564 -50 1284 l-7 409 69 -7 c111 -12 239 -41 383 -89 74 -24 136 -44 138 -42
1 1 9 58 17 126 9 68 17 140 20 159 7 53 24 198 31 261 l6 55 -99 32 c-173 55
-325 88 -488 108 -27 3 -61 8 -75 11 -53 11 -607 10 -700 -2z"/>
</g>
</svg>
