<svg width="17" height="13" viewBox="0 0 17 13" fill="none" xmlns="http://www.w3.org/2000/svg">
<path d="M16.2917 0H4.41858C4.17965 0 3.95686 0.120428 3.82597 0.320311L0.115721 5.98699C-0.0385737 6.22266 -0.0385737 6.52734 0.115721 6.76301L3.82597 12.4297C3.95686 12.6296 4.17965 12.75 4.41858 12.75H16.2917C16.6829 12.75 17 12.4329 17 12.0417V0.708322C17 0.317123 16.6829 0 16.2917 0ZM15.5833 11.3333H4.80148L1.55501 6.375L4.80148 1.41668H15.5834V11.3333H15.5833Z" fill="black"/>
<path d="M6.5824 9.70922C6.85902 9.98583 7.30752 9.98583 7.58414 9.70922L9.91659 7.37677L12.249 9.70922C12.5257 9.98583 12.9742 9.98583 13.2508 9.70922C13.5274 9.4326 13.5274 8.98409 13.2508 8.70748L10.9183 6.37503L13.2508 4.04257C13.5274 3.76596 13.5274 3.31745 13.2508 3.04084C12.9742 2.76422 12.5257 2.76422 12.249 3.04084L9.91659 5.37329L7.58414 3.04084C7.30752 2.76422 6.85902 2.76422 6.5824 3.04084C6.30579 3.31745 6.30579 3.76596 6.5824 4.04257L8.91489 6.37503L6.58243 8.70748C6.30578 8.98413 6.30579 9.4326 6.5824 9.70922Z" fill="black"/>
</svg>
