<svg width="24" height="33" viewBox="0 0 24 33" fill="none" xmlns="http://www.w3.org/2000/svg">
<path d="M3.21813 22H0.746538L4.51252 11.0909H7.48482L11.2455 22H8.77388L6.04128 13.5838H5.95605L3.21813 22ZM3.06365 17.712H8.90172V19.5124H3.06365V17.712Z" fill="white"/>
<path d="M11.9897 14V3.09091H16.3576C17.1601 3.09091 17.8295 3.20987 18.3657 3.4478C18.9019 3.68572 19.305 4.01598 19.5749 4.43857C19.8448 4.8576 19.9797 5.34055 19.9797 5.88743C19.9797 6.31357 19.8945 6.68821 19.724 7.01136C19.5536 7.33097 19.3192 7.59375 19.0209 7.79972C18.7262 8.00213 18.3888 8.14595 18.0088 8.23118V8.33771C18.4243 8.35547 18.8132 8.47266 19.1754 8.68928C19.5411 8.90589 19.8377 9.20952 20.0649 9.60014C20.2922 9.98722 20.4059 10.4489 20.4059 10.9851C20.4059 11.5639 20.262 12.0806 19.9744 12.5352C19.6903 12.9862 19.2695 13.343 18.712 13.6058C18.1544 13.8686 17.4673 14 16.6505 14H11.9897ZM14.2961 12.1143H16.1764C16.8192 12.1143 17.288 11.9918 17.5827 11.7468C17.8774 11.4982 18.0248 11.168 18.0248 10.756C18.0248 10.4542 17.952 10.1879 17.8064 9.95703C17.6608 9.72621 17.4531 9.5451 17.1832 9.41371C16.9169 9.28232 16.599 9.21662 16.2297 9.21662H14.2961V12.1143ZM14.2961 7.65589H16.006C16.322 7.65589 16.6026 7.60085 16.8476 7.49077C17.0962 7.37713 17.2915 7.21733 17.4335 7.01136C17.5791 6.8054 17.6519 6.55859 17.6519 6.27095C17.6519 5.87678 17.5117 5.55895 17.2311 5.31747C16.9541 5.07599 16.56 4.95526 16.0486 4.95526H14.2961V7.65589Z" fill="white"/>
<path d="M22.9339 21.9102H20.6008C20.5581 21.6083 20.4711 21.3402 20.3398 21.1058C20.2084 20.8679 20.0397 20.6655 19.8337 20.4986C19.6278 20.3317 19.3898 20.2038 19.1199 20.1151C18.8536 20.0263 18.5642 19.9819 18.2517 19.9819C17.6871 19.9819 17.1952 20.1222 16.7762 20.4027C16.3572 20.6797 16.0322 21.0845 15.8014 21.6172C15.5706 22.1463 15.4552 22.7891 15.4552 23.5455C15.4552 24.3232 15.5706 24.9766 15.8014 25.5057C16.0358 26.0348 16.3625 26.4343 16.7815 26.7042C17.2006 26.9741 17.6853 27.109 18.2357 27.109C18.5447 27.109 18.8305 27.0682 19.0933 26.9865C19.3596 26.9048 19.5958 26.7859 19.8018 26.6296C20.0077 26.4698 20.1782 26.2763 20.3131 26.049C20.4516 25.8217 20.5475 25.5625 20.6008 25.2713L22.9339 25.282C22.8735 25.7827 22.7226 26.2656 22.4811 26.7308C22.2432 27.1925 21.9218 27.6062 21.517 27.9719C21.1157 28.3342 20.6363 28.6218 20.0787 28.8349C19.5248 29.0444 18.898 29.1491 18.1984 29.1491C17.2254 29.1491 16.3554 28.929 15.5883 28.4886C14.8248 28.0483 14.2211 27.4109 13.7773 26.5763C13.3369 25.7418 13.1167 24.7315 13.1167 23.5455C13.1167 22.3558 13.3405 21.3438 13.7879 20.5092C14.2354 19.6747 14.8426 19.0391 15.6096 18.6023C16.3767 18.1619 17.2396 17.9418 18.1984 17.9418C18.8305 17.9418 19.4165 18.0305 19.9562 18.2081C20.4996 18.3857 20.9807 18.6449 21.3998 18.9858C21.8188 19.3232 22.1597 19.7369 22.4225 20.2269C22.6888 20.717 22.8593 21.2781 22.9339 21.9102Z" fill="white"/>
</svg>
