<svg width="270" height="205" viewBox="0 0 270 205" fill="none" xmlns="http://www.w3.org/2000/svg">
<rect width="270" height="154" rx="77" fill="#F0F0F0"/>
<path d="M183.626 187.192C183.137 190.471 179.1 191.766 176.795 189.383L143.29 154.749C141.229 152.618 142.121 149.064 144.943 148.159L185.556 135.132C188.379 134.226 191.172 136.599 190.734 139.531L183.626 187.192Z" fill="#F0F0F0"/>
<path d="M81.5657 43.96H75.6577V63H82.2097C86.1577 63 88.4817 60.928 88.4817 57.512C88.4817 55.272 87.2497 53.62 85.1777 53.144C86.7737 52.416 87.5857 51.044 87.5857 49.168C87.5857 46.088 85.5417 43.96 81.5657 43.96ZM81.2577 52.052H78.5977V47.18H81.2577C83.4977 47.18 84.5337 47.824 84.5337 49.56C84.5337 51.268 83.4977 52.052 81.2577 52.052ZM81.9297 59.78H78.5977V54.488H81.9297C84.2817 54.488 85.4297 55.188 85.4297 57.064C85.4297 58.912 84.2817 59.78 81.9297 59.78ZM106.02 49.28H103.192V63H106.02V49.28ZM94.1484 49.28H91.2924V63H96.5004C99.3844 63 101.652 61.46 101.652 58.24C101.652 55.076 99.5524 53.9 96.4444 53.9H94.1484V49.28ZM96.3604 56.196C98.1804 56.196 98.9084 56.896 98.9084 58.184C98.9084 59.556 97.9844 60.144 96.3044 60.144H94.1484V56.196H96.3604ZM116.505 49.616C114.461 49.616 112.753 50.428 111.717 52.108C111.969 49.084 112.837 47.544 115.721 47.096L121.209 46.256V43.288L115.273 44.1C110.373 44.8 108.861 48.356 108.861 54.516C108.861 60.34 111.409 63.28 115.693 63.28C119.977 63.28 122.469 60.312 122.469 56.224C122.469 52.136 120.117 49.616 116.505 49.616ZM115.861 52.444C118.157 52.444 119.613 53.648 119.613 56.224C119.613 58.8 118.101 60.256 115.693 60.256C113.257 60.256 111.829 58.576 111.829 55.58V54.012C112.697 52.948 114.153 52.444 115.861 52.444ZM137.017 58.632H134.441C133.909 59.724 132.761 60.452 130.857 60.452C128.757 60.452 127.357 59.108 127.133 56.84H137.297C137.297 56.728 137.325 56.364 137.325 56.252C137.325 51.912 134.721 49 130.857 49C126.993 49 124.305 52.024 124.305 56.14C124.305 60.256 126.965 63.28 130.801 63.28C134.525 63.28 136.429 61.152 137.017 58.632ZM130.857 51.828C132.985 51.828 134.189 53.116 134.469 54.964H127.189C127.553 52.976 128.869 51.828 130.857 51.828ZM142.598 51.688V49.28H139.882V68.6H142.738V61.04C143.606 62.524 145.006 63.252 147.078 63.252C150.746 63.252 153.266 60.312 153.266 56.028C153.266 51.744 150.718 49.028 147.05 49.028C144.838 49.028 143.354 50.064 142.598 51.688ZM146.462 60.228C144.586 60.228 143.326 59.808 142.738 58.632V53.704C143.326 52.556 144.586 52.052 146.434 52.052C149.066 52.052 150.41 53.508 150.41 56.056C150.41 58.576 149.066 60.228 146.462 60.228ZM158.789 49.28H155.933V63H158.649L164.613 53.816V63H167.441V49.28H164.725L158.789 58.352V49.28ZM169.854 49.28V52.248H173.998V63H176.854V52.248H180.998V49.28H169.854ZM195.041 58.632H192.465C191.933 59.724 190.785 60.452 188.881 60.452C186.781 60.452 185.381 59.108 185.157 56.84H195.321C195.321 56.728 195.349 56.364 195.349 56.252C195.349 51.912 192.745 49 188.881 49C185.017 49 182.329 52.024 182.329 56.14C182.329 60.256 184.989 63.28 188.825 63.28C192.549 63.28 194.453 61.152 195.041 58.632ZM188.881 51.828C191.009 51.828 192.213 53.116 192.493 54.964H185.213C185.577 52.976 186.893 51.828 188.881 51.828ZM90.2176 94.036C89.7976 95.296 89.0696 95.772 88.0056 95.772C87.3896 95.772 86.8856 95.688 86.4096 95.548V98.46C86.9136 98.628 87.5576 98.768 88.3696 98.768C90.3296 98.768 91.5336 97.676 92.4576 94.932L97.6936 79.28H95.0056L91.5896 89.78L88.2016 79.28H85.1216L89.6856 93H90.5256L90.2176 94.036ZM102.417 81.688V79.28H99.7006V98.6H102.557V91.04C103.425 92.524 104.825 93.252 106.897 93.252C110.565 93.252 113.085 90.312 113.085 86.028C113.085 81.744 110.537 79.028 106.869 79.028C104.657 79.028 103.173 80.064 102.417 81.688ZM106.281 90.228C104.405 90.228 103.145 89.808 102.557 88.632V83.704C103.145 82.556 104.405 82.052 106.253 82.052C108.885 82.052 110.229 83.508 110.229 86.056C110.229 88.576 108.885 90.228 106.281 90.228ZM121.771 79C117.627 79 114.967 82.08 114.967 86.112C114.967 90.172 117.627 93.28 121.771 93.28C125.915 93.28 128.575 90.172 128.575 86.112C128.575 82.08 125.915 79 121.771 79ZM121.771 82.08C124.151 82.08 125.719 83.676 125.719 86.112C125.719 88.576 124.151 90.2 121.771 90.2C119.391 90.2 117.823 88.576 117.823 86.112C117.823 83.676 119.391 82.08 121.771 82.08ZM136.997 93C140.105 93 141.925 91.572 141.925 88.884C141.925 87.176 140.917 86.084 139.517 85.72C140.609 85.3 141.309 84.264 141.309 82.892C141.309 80.624 139.629 79.28 136.745 79.28H131.173V93H136.997ZM133.945 81.94H136.577C137.977 81.94 138.593 82.416 138.593 83.48C138.593 84.572 137.865 85.048 136.493 85.048H133.945V81.94ZM133.945 86.84H136.689C138.369 86.84 139.181 87.344 139.181 88.576C139.181 89.78 138.397 90.312 136.633 90.312H133.945V86.84ZM156.418 88.632H153.842C153.31 89.724 152.162 90.452 150.258 90.452C148.158 90.452 146.758 89.108 146.534 86.84H156.698C156.698 86.728 156.726 86.364 156.726 86.252C156.726 81.912 154.122 79 150.258 79C146.394 79 143.706 82.024 143.706 86.14C143.706 90.256 146.366 93.28 150.202 93.28C153.926 93.28 155.83 91.152 156.418 88.632ZM150.258 81.828C152.386 81.828 153.59 83.116 153.87 84.964H146.59C146.954 82.976 148.27 81.828 150.258 81.828ZM167.767 93H170.623V79.28H167.767V84.46H162.139V79.28H159.283V93H162.139V87.4H167.767V93ZM176.904 79.28H174.048V93H179.256C182.14 93 184.408 91.46 184.408 88.24C184.408 85.076 182.308 83.9 179.2 83.9H176.904V79.28ZM179.116 86.196C180.936 86.196 181.664 86.896 181.664 88.184C181.664 89.556 180.74 90.144 179.06 90.144H176.904V86.196H179.116ZM75.009 109C70.949 109 68.401 112.108 68.401 116.112C68.401 120.144 70.949 123.28 75.009 123.28C78.341 123.28 80.581 121.348 81.141 118.268H78.593C78.229 119.388 77.109 120.2 75.037 120.2C72.685 120.2 71.257 118.52 71.257 116.112C71.257 113.732 72.685 112.08 75.037 112.08C77.109 112.08 78.229 112.864 78.593 114.04H81.141C80.581 110.96 78.341 109 75.009 109ZM82.2778 119.976V122.944C82.6698 123.084 83.2858 123.168 83.8738 123.168C86.3658 123.168 87.2618 121.32 87.6818 116.504C87.7938 115.188 87.8778 113.592 87.9338 112.22H91.6858V123H94.5138V109.28H85.5538C85.4698 112.024 85.3578 114.236 85.1618 116C84.8538 118.772 84.3778 120.06 83.2018 120.06C82.8378 120.06 82.5018 120.004 82.2778 119.976ZM103.943 109C99.7993 109 97.1393 112.08 97.1393 116.112C97.1393 120.172 99.7993 123.28 103.943 123.28C108.087 123.28 110.747 120.172 110.747 116.112C110.747 112.08 108.087 109 103.943 109ZM103.943 112.08C106.323 112.08 107.891 113.676 107.891 116.112C107.891 118.576 106.323 120.2 103.943 120.2C101.563 120.2 99.9953 118.576 99.9953 116.112C99.9953 113.676 101.563 112.08 103.943 112.08ZM114.676 123L119.268 116.364V123H122.04V116.364L126.632 123H130.132L124.952 115.664L130.076 109.28H126.856L122.04 115.636V109.28H119.268V115.636L114.48 109.28H111.26L116.384 115.636L111.204 123H114.676ZM140.505 123H143.361V109.28H140.505V114.46H134.877V109.28H132.021V123H134.877V117.4H140.505V123ZM152.807 109C148.663 109 146.003 112.08 146.003 116.112C146.003 120.172 148.663 123.28 152.807 123.28C156.951 123.28 159.611 120.172 159.611 116.112C159.611 112.08 156.951 109 152.807 109ZM152.807 112.08C155.187 112.08 156.755 113.676 156.755 116.112C156.755 118.576 155.187 120.2 152.807 120.2C150.427 120.2 148.859 118.576 148.859 116.112C148.859 113.676 150.427 112.08 152.807 112.08ZM168.032 109C163.972 109 161.424 112.108 161.424 116.112C161.424 120.144 163.972 123.28 168.032 123.28C171.364 123.28 173.604 121.348 174.164 118.268H171.616C171.252 119.388 170.132 120.2 168.06 120.2C165.708 120.2 164.28 118.52 164.28 116.112C164.28 113.732 165.708 112.08 168.06 112.08C170.132 112.08 171.252 112.864 171.616 114.04H174.164C173.604 110.96 171.364 109 168.032 109ZM175.637 109.28V112.248H179.781V123H182.637V112.248H186.781V109.28H175.637ZM192.025 109.28H189.169V123H191.885L197.849 113.816V123H200.677V109.28H197.961L192.025 118.352V109.28Z" fill="black"/>
</svg>
