<svg width="270" height="205" fill="none" xmlns="http://www.w3.org/2000/svg"><rect width="270" height="154" rx="77" fill="#F0F0F0"/><path d="M183.626 187.192c-.489 3.279-4.526 4.574-6.831 2.191l-33.505-34.634c-2.061-2.131-1.169-5.685 1.653-6.59l40.613-13.027c2.823-.906 5.616 1.467 5.178 4.399l-7.108 47.661Z" fill="#F0F0F0"/><path d="M58.556 43.4h-4.22V57h4.68c2.82 0 4.48-1.48 4.48-3.92 0-1.6-.88-2.78-2.36-3.12 1.14-.52 1.72-1.5 1.72-2.84 0-2.2-1.46-3.72-4.3-3.72Zm-.22 5.78h-1.9V45.7h1.9c1.6 0 2.34.46 2.34 1.7 0 1.22-.74 1.78-2.34 1.78Zm.48 5.52h-2.38v-3.78h2.38c1.68 0 2.5.5 2.5 1.84 0 1.32-.82 1.94-2.5 1.94Zm17.208-7.5h-2.02V57h2.02v-9.8Zm-8.48 0h-2.04V57h3.72c2.06 0 3.68-1.1 3.68-3.4 0-2.26-1.5-3.1-3.72-3.1h-1.64v-3.3Zm1.58 4.94c1.3 0 1.82.5 1.82 1.42 0 .98-.66 1.4-1.86 1.4h-1.54v-2.82h1.58Zm14.388-4.7c-1.46 0-2.68.58-3.42 1.78.18-2.16.8-3.26 2.86-3.58l3.92-.6v-2.12l-4.24.58c-3.5.5-4.58 3.04-4.58 7.44 0 4.16 1.82 6.26 4.88 6.26 3.06 0 4.84-2.12 4.84-5.04s-1.68-4.72-4.26-4.72Zm-.46 2.02c1.64 0 2.68.86 2.68 2.7 0 1.84-1.08 2.88-2.8 2.88-1.74 0-2.76-1.2-2.76-3.34v-1.12c.62-.76 1.66-1.12 2.88-1.12Zm15.112 4.42h-1.84c-.38.78-1.2 1.3-2.56 1.3-1.5 0-2.5-.96-2.66-2.58h7.26c0-.08.02-.34.02-.42 0-3.1-1.86-5.18-4.62-5.18s-4.68 2.16-4.68 5.1c0 2.94 1.9 5.1 4.64 5.1 2.66 0 4.02-1.52 4.44-3.32Zm-4.4-4.86c1.52 0 2.38.92 2.58 2.24h-5.2c.26-1.42 1.2-2.24 2.62-2.24Zm8.387-.1V47.2h-1.94V61h2.04v-5.4c.62 1.06 1.62 1.58 3.1 1.58 2.62 0 4.42-2.1 4.42-5.16s-1.82-5-4.44-5c-1.58 0-2.64.74-3.18 1.9Zm2.76 6.1c-1.34 0-2.24-.3-2.66-1.14v-3.52c.42-.82 1.32-1.18 2.64-1.18 1.88 0 2.84 1.04 2.84 2.86 0 1.8-.96 2.98-2.82 2.98Zm8.805-7.82h-2.04V57h1.94l4.26-6.56V57h2.02v-9.8h-1.94l-4.24 6.48V47.2Zm7.903 0v2.12h2.96V57h2.04v-7.68h2.96V47.2h-7.96Zm17.991 6.68h-1.84c-.38.78-1.2 1.3-2.56 1.3-1.5 0-2.5-.96-2.66-2.58h7.26c0-.08.02-.34.02-.42 0-3.1-1.86-5.18-4.62-5.18s-4.68 2.16-4.68 5.1c0 2.94 1.9 5.1 4.64 5.1 2.66 0 4.02-1.52 4.44-3.32Zm-4.4-4.86c1.52 0 2.38.92 2.58 2.24h-5.2c.26-1.42 1.2-2.24 2.62-2.24Zm13.969 8.72c-.3.9-.82 1.24-1.58 1.24-.44 0-.8-.06-1.14-.16v2.08c.36.12.82.22 1.4.22 1.4 0 2.26-.78 2.92-2.74l3.74-11.18h-1.92l-2.44 7.5-2.42-7.5h-2.2l3.26 9.8h.6l-.22.74Zm8.714-8.82V47.2h-1.94V61h2.04v-5.4c.62 1.06 1.62 1.58 3.1 1.58 2.62 0 4.42-2.1 4.42-5.16s-1.82-5-4.44-5c-1.58 0-2.64.74-3.18 1.9Zm2.76 6.1c-1.34 0-2.24-.3-2.66-1.14v-3.52c.42-.82 1.32-1.18 2.64-1.18 1.88 0 2.84 1.04 2.84 2.86 0 1.8-.96 2.98-2.82 2.98ZM171.718 47c-2.96 0-4.86 2.2-4.86 5.08 0 2.9 1.9 5.12 4.86 5.12 2.96 0 4.86-2.22 4.86-5.12 0-2.88-1.9-5.08-4.86-5.08Zm0 2.2c1.7 0 2.82 1.14 2.82 2.88 0 1.76-1.12 2.92-2.82 2.92-1.7 0-2.82-1.16-2.82-2.92 0-1.74 1.12-2.88 2.82-2.88Zm10.875 7.8c2.22 0 3.52-1.02 3.52-2.94 0-1.22-.72-2-1.72-2.26.78-.3 1.28-1.04 1.28-2.02 0-1.62-1.2-2.58-3.26-2.58h-3.98V57h4.16Zm-2.18-7.9h1.88c1 0 1.44.34 1.44 1.1 0 .78-.52 1.12-1.5 1.12h-1.82V49.1Zm0 3.5h1.96c1.2 0 1.78.36 1.78 1.24 0 .86-.56 1.24-1.82 1.24h-1.92V52.6Zm16.052 1.28h-1.84c-.38.78-1.2 1.3-2.56 1.3-1.5 0-2.5-.96-2.66-2.58h7.26c0-.08.02-.34.02-.42 0-3.1-1.86-5.18-4.62-5.18s-4.68 2.16-4.68 5.1c0 2.94 1.9 5.1 4.64 5.1 2.66 0 4.02-1.52 4.44-3.32Zm-4.4-4.86c1.52 0 2.38.92 2.58 2.24h-5.2c.26-1.42 1.2-2.24 2.62-2.24ZM204.571 57h2.04v-9.8h-2.04v3.7h-4.02v-3.7h-2.04V57h2.04v-4h4.02v4Zm6.527-9.8h-2.04V57h3.72c2.06 0 3.68-1.1 3.68-3.4 0-2.26-1.5-3.1-3.72-3.1h-1.64v-3.3Zm1.58 4.94c1.3 0 1.82.5 1.82 1.42 0 .98-.66 1.4-1.86 1.4h-1.54v-2.82h1.58ZM92.134 69c-2.9 0-4.72 2.22-4.72 5.08 0 2.88 1.82 5.12 4.72 5.12 2.38 0 3.98-1.38 4.38-3.58h-1.82c-.26.8-1.06 1.38-2.54 1.38-1.68 0-2.7-1.2-2.7-2.92 0-1.7 1.02-2.88 2.7-2.88 1.48 0 2.28.56 2.54 1.4h1.82c-.4-2.2-2-3.6-4.38-3.6Zm5.192 7.84v2.12c.28.1.72.16 1.14.16 1.78 0 2.42-1.32 2.72-4.76.08-.94.14-2.08.18-3.06h2.68V79h2.02v-9.8h-6.4c-.06 1.96-.14 3.54-.28 4.8-.22 1.98-.56 2.9-1.4 2.9-.26 0-.5-.04-.66-.06ZM112.802 69c-2.96 0-4.86 2.2-4.86 5.08 0 2.9 1.9 5.12 4.86 5.12 2.96 0 4.86-2.22 4.86-5.12 0-2.88-1.9-5.08-4.86-5.08Zm0 2.2c1.7 0 2.82 1.14 2.82 2.88 0 1.76-1.12 2.92-2.82 2.92-1.7 0-2.82-1.16-2.82-2.92 0-1.74 1.12-2.88 2.82-2.88Zm7.666 7.8 3.28-4.74V79h1.98v-4.74l3.28 4.74h2.5l-3.7-5.24 3.66-4.56h-2.3l-3.44 4.54V69.2h-1.98v4.54l-3.42-4.54h-2.3l3.66 4.54-3.7 5.26h2.48Zm18.449 0h2.04v-9.8h-2.04v3.7h-4.02v-3.7h-2.04V79h2.04v-4h4.02v4Zm8.787-10c-2.96 0-4.86 2.2-4.86 5.08 0 2.9 1.9 5.12 4.86 5.12 2.96 0 4.86-2.22 4.86-5.12 0-2.88-1.9-5.08-4.86-5.08Zm0 2.2c1.7 0 2.82 1.14 2.82 2.88 0 1.76-1.12 2.92-2.82 2.92-1.7 0-2.82-1.16-2.82-2.92 0-1.74 1.12-2.88 2.82-2.88ZM158.58 69c-2.9 0-4.72 2.22-4.72 5.08 0 2.88 1.82 5.12 4.72 5.12 2.38 0 3.98-1.38 4.38-3.58h-1.82c-.26.8-1.06 1.38-2.54 1.38-1.68 0-2.7-1.2-2.7-2.92 0-1.7 1.02-2.88 2.7-2.88 1.48 0 2.28.56 2.54 1.4h1.82c-.4-2.2-2-3.6-4.38-3.6Zm5.432.2v2.12h2.96V79h2.04v-7.68h2.96V69.2h-7.96Zm11.705 0h-2.04V79h1.94l4.26-6.56V79h2.02v-9.8h-1.94l-4.24 6.48V69.2ZM33.302 101h2.04v-9.8h-2.04v3.7h-4.02v-3.7h-2.04v9.8h2.04v-4h4.02v4Zm11.527.04c.3 0 .66-.02.96-.04v-1.92h-.3c-.5 0-.72-.24-.72-.96l.06-3.48c.02-2.48-1.46-3.64-3.7-3.64-1.92 0-3.48 1.06-3.74 3.22h1.76c.16-.8.86-1.16 1.9-1.16.92 0 1.66.3 1.78 1.22l-2.7 1c-1.86.68-2.86 1.38-2.86 3.1 0 1.74 1.14 2.7 2.88 2.7 1.34 0 2.26-.6 2.84-1.7.12 1.12.8 1.66 1.84 1.66Zm-5.58-3.1c0-.74.52-1.1 1.82-1.6l1.78-.68-.04 2.7c-.36.4-1.12.68-2 .68-.94 0-1.56-.34-1.56-1.1ZM48.66 101l3.28-4.74V101h1.98v-4.74l3.28 4.74h2.5l-3.7-5.24 3.66-4.56h-2.3l-3.44 4.54V91.2h-1.98v4.54l-3.42-4.54h-2.3l3.66 4.54-3.7 5.26h2.48Zm19.234.04c.3 0 .66-.02.96-.04v-1.92h-.3c-.5 0-.72-.24-.72-.96l.06-3.48c.02-2.48-1.46-3.64-3.7-3.64-1.92 0-3.48 1.06-3.74 3.22h1.76c.16-.8.86-1.16 1.9-1.16.92 0 1.66.3 1.78 1.22l-2.7 1c-1.86.68-2.86 1.38-2.86 3.1 0 1.74 1.14 2.7 2.88 2.7 1.34 0 2.26-.6 2.84-1.7.12 1.12.8 1.66 1.84 1.66Zm-5.58-3.1c0-.74.52-1.1 1.82-1.6l1.78-.68-.04 2.7c-.36.4-1.12.68-2 .68-.94 0-1.56-.34-1.56-1.1Zm7-6.74v2.12h2.96V101h2.04v-7.68h2.96V91.2h-7.96Zm11.705 0h-2.04v9.8h1.94l4.26-6.56V101h2.02v-9.8h-1.94l-4.24 6.48V91.2Zm17.164 6.68h-1.84c-.38.78-1.2 1.3-2.56 1.3-1.5 0-2.5-.96-2.66-2.58h7.26c0-.08.02-.34.02-.42 0-3.1-1.86-5.18-4.62-5.18s-4.68 2.16-4.68 5.1c0 2.94 1.9 5.1 4.64 5.1 2.66 0 4.02-1.52 4.44-3.32Zm-4.4-4.86c1.52 0 2.38.92 2.58 2.24h-5.2c.26-1.42 1.2-2.24 2.62-2.24Zm8.426 7.98v-7l2.92 5.56h.86l2.92-5.56v7h2.02v-9.8h-2.62l-2.68 5.24-2.68-5.24h-2.72v9.8h1.98Zm22.088 0h2.04v-9.8h-2.04v3.7h-4.02v-3.7h-2.04v9.8h2.04v-4h4.02v4Zm11.527.04c.3 0 .66-.02.96-.04v-1.92h-.3c-.5 0-.72-.24-.72-.96l.06-3.48c.02-2.48-1.46-3.64-3.7-3.64-1.92 0-3.48 1.06-3.74 3.22h1.76c.16-.8.86-1.16 1.9-1.16.92 0 1.66.3 1.78 1.22l-2.7 1c-1.86.68-2.86 1.38-2.86 3.1 0 1.74 1.14 2.7 2.88 2.7 1.34 0 2.26-.6 2.84-1.7.12 1.12.8 1.66 1.84 1.66Zm-5.58-3.1c0-.74.52-1.1 1.82-1.6l1.78-.68-.04 2.7c-.36.4-1.12.68-2 .68-.94 0-1.56-.34-1.56-1.1ZM148.62 101h2.48l-3.82-5.26 3.78-4.54h-2.28l-3.6 4.54V91.2h-2.04v9.8h2.04v-4.74l3.44 4.74Zm7.668-10c-2.96 0-4.86 2.2-4.86 5.08 0 2.9 1.9 5.12 4.86 5.12 2.96 0 4.86-2.22 4.86-5.12 0-2.88-1.9-5.08-4.86-5.08Zm0 2.2c1.7 0 2.82 1.14 2.82 2.88 0 1.76-1.12 2.92-2.82 2.92-1.7 0-2.82-1.16-2.82-2.92 0-1.74 1.12-2.88 2.82-2.88Zm5.638 5.64v2.12c.28.1.72.16 1.14.16 1.78 0 2.42-1.32 2.72-4.76.08-.94.14-2.08.18-3.06h2.68v7.7h2.02v-9.8h-6.4c-.06 1.96-.14 3.54-.28 4.8-.22 1.98-.56 2.9-1.4 2.9-.26 0-.5-.04-.66-.06Zm16.315-2.32v-1.96h-5.4v1.96h5.4Zm6.345 4.48c2.22 0 3.52-1.02 3.52-2.94 0-1.22-.72-2-1.72-2.26.78-.3 1.28-1.04 1.28-2.02 0-1.62-1.2-2.58-3.26-2.58h-3.98v9.8h4.16Zm-2.18-7.9h1.88c1 0 1.44.34 1.44 1.1 0 .78-.52 1.12-1.5 1.12h-1.82V93.1Zm0 3.5h1.96c1.2 0 1.78.36 1.78 1.24 0 .86-.56 1.24-1.82 1.24h-1.92V96.6Zm11.831-5.6c-2.96 0-4.86 2.2-4.86 5.08 0 2.9 1.9 5.12 4.86 5.12 2.96 0 4.86-2.22 4.86-5.12 0-2.88-1.9-5.08-4.86-5.08Zm0 2.2c1.7 0 2.82 1.14 2.82 2.88 0 1.76-1.12 2.92-2.82 2.92-1.7 0-2.82-1.16-2.82-2.92 0-1.74 1.12-2.88 2.82-2.88Zm16.619-1.76c-1.46 0-2.68.58-3.42 1.78.18-2.16.8-3.26 2.86-3.58l3.92-.6v-2.12l-4.24.58c-3.5.5-4.58 3.04-4.58 7.44 0 4.16 1.82 6.26 4.88 6.26 3.06 0 4.84-2.12 4.84-5.04s-1.68-4.72-4.26-4.72Zm-.46 2.02c1.64 0 2.68.86 2.68 2.7 0 1.84-1.08 2.88-2.8 2.88-1.74 0-2.76-1.2-2.76-3.34v-1.12c.62-.76 1.66-1.12 2.88-1.12Zm9.135 8.28c-.3.9-.82 1.24-1.58 1.24-.44 0-.8-.06-1.14-.16v2.08c.36.12.82.22 1.4.22 1.4 0 2.26-.78 2.92-2.74l3.74-11.18h-1.92l-2.44 7.5-2.42-7.5h-2.2l3.26 9.8h.6l-.22.74Zm12.253-.74h2.48l-3.82-5.26 3.78-4.54h-2.28l-3.6 4.54V91.2h-2.04v9.8h2.04v-4.74l3.44 4.74Zm7.958 0c2.22 0 3.52-1.02 3.52-2.94 0-1.22-.72-2-1.72-2.26.78-.3 1.28-1.04 1.28-2.02 0-1.62-1.2-2.58-3.26-2.58h-3.98v9.8h4.16Zm-2.18-7.9h1.88c1 0 1.44.34 1.44 1.1 0 .78-.52 1.12-1.5 1.12h-1.82V93.1Zm0 3.5h1.96c1.2 0 1.78.36 1.78 1.24 0 .86-.56 1.24-1.82 1.24h-1.92V96.6ZM103.179 123c2.22 0 3.52-1.02 3.52-2.94 0-1.22-.72-2-1.72-2.26.78-.3 1.28-1.04 1.28-2.02 0-1.62-1.2-2.58-3.26-2.58h-3.98v9.8h4.16Zm-2.18-7.9h1.88c1 0 1.44.34 1.44 1.1 0 .78-.52 1.12-1.5 1.12h-1.82v-2.22Zm0 3.5h1.96c1.2 0 1.78.36 1.78 1.24 0 .86-.56 1.24-1.82 1.24h-1.92v-2.48Zm16.555-5.6c-2.9 0-4.72 2.22-4.72 5.08 0 2.88 1.82 5.12 4.72 5.12 2.38 0 3.98-1.38 4.38-3.58h-1.82c-.26.8-1.06 1.38-2.54 1.38-1.68 0-2.7-1.2-2.7-2.92 0-1.7 1.02-2.88 2.7-2.88 1.48 0 2.28.56 2.54 1.4h1.82c-.4-2.2-2-3.6-4.38-3.6Zm5.192 7.84v2.12c.28.1.72.16 1.14.16 1.78 0 2.42-1.32 2.72-4.76.08-.94.14-2.08.18-3.06h2.68v7.7h2.02v-9.8h-6.4c-.06 1.96-.14 3.54-.28 4.8-.22 1.98-.56 2.9-1.4 2.9-.26 0-.5-.04-.66-.06Zm15.476-7.84c-2.96 0-4.86 2.2-4.86 5.08 0 2.9 1.9 5.12 4.86 5.12 2.96 0 4.86-2.22 4.86-5.12 0-2.88-1.9-5.08-4.86-5.08Zm0 2.2c1.7 0 2.82 1.14 2.82 2.88 0 1.76-1.12 2.92-2.82 2.92-1.7 0-2.82-1.16-2.82-2.92 0-1.74 1.12-2.88 2.82-2.88Zm10.875 7.8c2.22 0 3.52-1.02 3.52-2.94 0-1.22-.72-2-1.72-2.26.78-.3 1.28-1.04 1.28-2.02 0-1.62-1.2-2.58-3.26-2.58h-3.98v9.8h4.16Zm-2.18-7.9h1.88c1 0 1.44.34 1.44 1.1 0 .78-.52 1.12-1.5 1.12h-1.82v-2.22Zm0 3.5h1.96c1.2 0 1.78.36 1.78 1.24 0 .86-.56 1.24-1.82 1.24h-1.92v-2.48Zm14.572 4.44c.3 0 .66-.02.96-.04v-1.92h-.3c-.5 0-.72-.24-.72-.96l.06-3.48c.02-2.48-1.46-3.64-3.7-3.64-1.92 0-3.48 1.06-3.74 3.22h1.76c.16-.8.86-1.16 1.9-1.16.92 0 1.66.3 1.78 1.22l-2.7 1c-1.86.68-2.86 1.38-2.86 3.1 0 1.74 1.14 2.7 2.88 2.7 1.34 0 2.26-.6 2.84-1.7.12 1.12.8 1.66 1.84 1.66Zm-5.58-3.1c0-.74.52-1.1 1.82-1.6l1.78-.68-.04 2.7c-.36.4-1.12.68-2 .68-.94 0-1.56-.34-1.56-1.1Zm7.032 3.06h2.18l2.22-3.54 2.12 3.54h2.46l-3.32-5.12 3.14-4.68h-2.18l-2.04 3.24-1.98-3.24h-2.46l3.16 4.82-3.3 4.98Z" fill="#000"/></svg>