<svg xmlns="http://www.w3.org/2000/svg" xmlns:xlink="http://www.w3.org/1999/xlink" viewBox="0 0 1645.36 1710.03"><defs><radialGradient id="Ѕезым_нный_градиент_2-85" cx="758" cy="898.29" r="1304.37" xlink:href="#Ѕезым_нный_градиент_2"/><radialGradient id="Ѕезым_нный_градиент_2-170" cx="758" cy="898.29" r="1304.37" xlink:href="#Ѕезым_нный_градиент_2"/><radialGradient id="Ѕезым_нный_градиент_2-2" cx="758" cy="898.29" r="1304.37" xlink:href="#Ѕезым_нный_градиент_2"/><radialGradient id="Ѕезым_нный_градиент_2-3" cx="758" cy="898.29" r="1304.37" xlink:href="#Ѕезым_нный_градиент_2"/><radialGradient id="Ѕезым_нный_градиент_2-4" cx="758" cy="898.29" r="1304.38" xlink:href="#Ѕезым_нный_градиент_2"/><radialGradient id="Ѕезым_нный_градиент_2-5" cx="758" cy="898.29" r="1304.37" xlink:href="#Ѕезым_нный_градиент_2"/><radialGradient id="Ѕезым_нный_градиент_2-6" cx="758" cy="898.29" r="1304.37" xlink:href="#Ѕезым_нный_градиент_2"/><radialGradient id="Ѕезым_нный_градиент_2-7" cx="758" cy="898.29" r="1304.37" xlink:href="#Ѕезым_нный_градиент_2"/><radialGradient id="Ѕезым_нный_градиент_2-8" cx="758" cy="898.29" r="1304.37" xlink:href="#Ѕезым_нный_градиент_2"/><radialGradient id="Ѕезым_нный_градиент_2-9" cx="758" cy="898.29" r="1304.37" xlink:href="#Ѕезым_нный_градиент_2"/><radialGradient id="Ѕезым_нный_градиент_2-10" cx="758" cy="898.29" r="1304.37" xlink:href="#Ѕезым_нный_градиент_2"/><radialGradient id="Ѕезым_нный_градиент_2-11" cx="758" cy="898.29" r="1304.37" xlink:href="#Ѕезым_нный_градиент_2"/><radialGradient id="Ѕезым_нный_градиент_2-12" cx="757.99" cy="898.29" r="1304.38" xlink:href="#Ѕезым_нный_градиент_2"/><radialGradient id="Ѕезым_нный_градиент_2-13" cx="758" cy="898.29" r="1304.37" xlink:href="#Ѕезым_нный_градиент_2"/><radialGradient id="Ѕезым_нный_градиент_2-14" cx="758" cy="898.29" r="1304.37" xlink:href="#Ѕезым_нный_градиент_2"/><radialGradient id="Ѕезым_нный_градиент_2-15" cx="758" cy="898.29" r="1304.37" xlink:href="#Ѕезым_нный_градиент_2"/><radialGradient id="Ѕезым_нный_градиент_2-16" cx="757.99" cy="898.29" r="1304.37" xlink:href="#Ѕезым_нный_градиент_2"/><radialGradient id="Ѕезым_нный_градиент_2-17" cx="758" cy="898.29" r="1304.37" xlink:href="#Ѕезым_нный_градиент_2"/><radialGradient id="Ѕезым_нный_градиент_2-18" cx="757.99" cy="898.29" r="1304.37" xlink:href="#Ѕезым_нный_градиент_2"/><radialGradient id="Ѕезым_нный_градиент_2-19" cx="758" cy="898.29" r="1304.37" xlink:href="#Ѕезым_нный_градиент_2"/><radialGradient id="Ѕезым_нный_градиент_2-20" cx="758" cy="898.29" r="1304.37" xlink:href="#Ѕезым_нный_градиент_2"/><radialGradient id="Ѕезым_нный_градиент_2-21" cx="758" cy="898.29" r="1304.37" xlink:href="#Ѕезым_нный_градиент_2"/><radialGradient id="Ѕезым_нный_градиент_2-22" cx="758" cy="898.29" r="1304.38" xlink:href="#Ѕезым_нный_градиент_2"/><radialGradient id="Ѕезым_нный_градиент_2-23" cx="758" cy="898.29" r="1304.38" xlink:href="#Ѕезым_нный_градиент_2"/><radialGradient id="Ѕезым_нный_градиент_2-24" cx="758" cy="898.29" r="1304.37" xlink:href="#Ѕезым_нный_градиент_2"/><radialGradient id="Ѕезым_нный_градиент_2-25" cx="758" cy="898.29" r="1304.38" xlink:href="#Ѕезым_нный_градиент_2"/><radialGradient id="Ѕезым_нный_градиент_2-26" cx="758" cy="898.29" r="1304.37" xlink:href="#Ѕезым_нный_градиент_2"/><radialGradient id="Ѕезым_нный_градиент_2-27" cx="758" cy="898.29" r="1304.36" xlink:href="#Ѕезым_нный_градиент_2"/><radialGradient id="Ѕезым_нный_градиент_2-28" cx="758" cy="898.29" r="1304.37" xlink:href="#Ѕезым_нный_градиент_2"/><radialGradient id="Ѕезым_нный_градиент_2-29" cx="758" cy="898.29" r="1304.37" xlink:href="#Ѕезым_нный_градиент_2"/><radialGradient id="Ѕезым_нный_градиент_2-30" cx="757.99" cy="898.29" r="1304.37" xlink:href="#Ѕезым_нный_градиент_2"/><radialGradient id="Ѕезым_нный_градиент_2-31" cx="758" cy="898.29" r="1304.37" xlink:href="#Ѕезым_нный_градиент_2"/><radialGradient id="Ѕезым_нный_градиент_2-32" cx="758" cy="898.29" r="1304.21" xlink:href="#Ѕезым_нный_градиент_2"/><radialGradient id="Ѕезым_нный_градиент_2-33" cx="758" cy="898.29" r="1304.37" xlink:href="#Ѕезым_нный_градиент_2"/><radialGradient id="Ѕезым_нный_градиент_2-34" cx="757.99" cy="898.29" r="1304.37" xlink:href="#Ѕезым_нный_градиент_2"/><radialGradient id="Ѕезым_нный_градиент_2-35" cx="757.99" cy="898.29" r="1304.37" xlink:href="#Ѕезым_нный_градиент_2"/><radialGradient id="Ѕезым_нный_градиент_2-36" cx="758" cy="898.29" r="1304.37" xlink:href="#Ѕезым_нный_градиент_2"/><radialGradient id="Ѕезым_нный_градиент_2-37" cx="757.99" cy="898.29" r="1304.37" xlink:href="#Ѕезым_нный_градиент_2"/><radialGradient id="Ѕезым_нный_градиент_2-38" cx="758" cy="898.29" r="1304.38" xlink:href="#Ѕезым_нный_градиент_2"/><radialGradient id="Ѕезым_нный_градиент_2-39" cx="757.99" cy="898.29" r="1304.37" xlink:href="#Ѕезым_нный_градиент_2"/><radialGradient id="Ѕезым_нный_градиент_2-40" cx="758" cy="898.29" r="1304.38" xlink:href="#Ѕезым_нный_градиент_2"/><radialGradient id="Ѕезым_нный_градиент_2-41" cx="758" cy="898.29" r="1304.37" xlink:href="#Ѕезым_нный_градиент_2"/><radialGradient id="Ѕезым_нный_градиент_2-42" cx="758" cy="898.29" r="1304.38" xlink:href="#Ѕезым_нный_градиент_2"/><radialGradient id="Ѕезым_нный_градиент_2-43" cx="758" cy="898.29" r="1304.37" xlink:href="#Ѕезым_нный_градиент_2"/><radialGradient id="Ѕезым_нный_градиент_2-44" cx="758" cy="898.29" r="1304.37" xlink:href="#Ѕезым_нный_градиент_2"/><radialGradient id="Ѕезым_нный_градиент_2-45" cx="758" cy="898.29" r="1304.38" xlink:href="#Ѕезым_нный_градиент_2"/><radialGradient id="Ѕезым_нный_градиент_2-46" cx="758" cy="898.29" r="1304.38" xlink:href="#Ѕезым_нный_градиент_2"/><radialGradient id="Ѕезым_нный_градиент_2-47" cx="757.99" cy="898.29" r="1304.37" xlink:href="#Ѕезым_нный_градиент_2"/><radialGradient id="Ѕезым_нный_градиент_2-48" cx="758" cy="898.29" r="1304.38" xlink:href="#Ѕезым_нный_градиент_2"/><radialGradient id="Ѕезым_нный_градиент_2-49" cx="758" cy="898.29" r="1304.37" xlink:href="#Ѕезым_нный_градиент_2"/><radialGradient id="Ѕезым_нный_градиент_2-50" cx="758" cy="898.29" r="1304.36" xlink:href="#Ѕезым_нный_градиент_2"/><radialGradient id="Ѕезым_нный_градиент_2-51" cx="758" cy="898.29" r="1304.37" xlink:href="#Ѕезым_нный_градиент_2"/><radialGradient id="Ѕезым_нный_градиент_2-52" cx="758" cy="898.29" r="1304.37" xlink:href="#Ѕезым_нный_градиент_2"/><radialGradient id="Ѕезым_нный_градиент_2-53" cx="758" cy="898.29" r="1304.37" xlink:href="#Ѕезым_нный_градиент_2"/><radialGradient id="Ѕезым_нный_градиент_2-54" cx="758" cy="898.29" r="1304.37" xlink:href="#Ѕезым_нный_градиент_2"/><radialGradient id="Ѕезым_нный_градиент_2-55" cx="757.99" cy="898.29" r="1304.37" xlink:href="#Ѕезым_нный_градиент_2"/><radialGradient id="Ѕезым_нный_градиент_2-56" cx="758" cy="898.29" r="1304.37" xlink:href="#Ѕезым_нный_градиент_2"/><radialGradient id="Ѕезым_нный_градиент_2-57" cx="758" cy="898.29" r="1304.37" xlink:href="#Ѕезым_нный_градиент_2"/><radialGradient id="Ѕезым_нный_градиент_2-58" cx="758" cy="898.29" r="1304.37" xlink:href="#Ѕезым_нный_градиент_2"/><radialGradient id="Ѕезым_нный_градиент_2-59" cx="758" cy="898.29" r="1304.24" xlink:href="#Ѕезым_нный_градиент_2"/><radialGradient id="Ѕезым_нный_градиент_2-60" cx="758" cy="898.29" r="1304.38" xlink:href="#Ѕезым_нный_градиент_2"/><radialGradient id="Ѕезым_нный_градиент_2-61" cx="758" cy="898.28" r="1304.4" xlink:href="#Ѕезым_нный_градиент_2"/><radialGradient id="Ѕезым_нный_градиент_2-62" cx="758" cy="898.29" r="1304.37" xlink:href="#Ѕезым_нный_градиент_2"/><radialGradient id="Ѕезым_нный_градиент_2-63" cx="758" cy="898.29" r="1304.37" xlink:href="#Ѕезым_нный_градиент_2"/><radialGradient id="Ѕезым_нный_градиент_2-65" cx="758" cy="898.29" r="1304.37" xlink:href="#Ѕезым_нный_градиент_2"/><radialGradient id="Ѕезым_нный_градиент_2-66" cx="758" cy="898.29" r="1304.37" xlink:href="#Ѕезым_нный_градиент_2"/><radialGradient id="Ѕезым_нный_градиент_2-67" cx="758" cy="898.29" r="1304.37" xlink:href="#Ѕезым_нный_градиент_2"/><radialGradient id="Ѕезым_нный_градиент_2-68" cx="757.99" cy="898.29" r="1304.37" xlink:href="#Ѕезым_нный_градиент_2"/><radialGradient id="Ѕезым_нный_градиент_2-69" cx="758" cy="898.29" r="1304.37" xlink:href="#Ѕезым_нный_градиент_2"/><radialGradient id="Ѕезым_нный_градиент_2-70" cx="758" cy="898.29" r="1304.38" xlink:href="#Ѕезым_нный_градиент_2"/><radialGradient id="Ѕезым_нный_градиент_2-71" cx="758" cy="898.29" r="1304.37" xlink:href="#Ѕезым_нный_градиент_2"/><radialGradient id="Ѕезым_нный_градиент_2-72" cx="758" cy="898.29" r="1304.38" xlink:href="#Ѕезым_нный_градиент_2"/><radialGradient id="Ѕезым_нный_градиент_2-73" cx="758" cy="898.29" r="1304.37" xlink:href="#Ѕезым_нный_градиент_2"/><radialGradient id="Ѕезым_нный_градиент_2-74" cx="758" cy="898.29" r="1304.37" xlink:href="#Ѕезым_нный_градиент_2"/><radialGradient id="Ѕезым_нный_градиент_2-75" cx="758" cy="898.29" r="1304.38" xlink:href="#Ѕезым_нный_градиент_2"/><radialGradient id="Ѕезым_нный_градиент_2-76" cx="758" cy="898.29" r="1304.37" xlink:href="#Ѕезым_нный_градиент_2"/><radialGradient id="Ѕезым_нный_градиент_2-77" cx="758" cy="898.29" r="1304.37" xlink:href="#Ѕезым_нный_градиент_2"/><radialGradient id="Ѕезым_нный_градиент_2-78" cx="758" cy="898.29" r="1304.38" xlink:href="#Ѕезым_нный_градиент_2"/><radialGradient id="Ѕезым_нный_градиент_2-79" cx="758" cy="898.3" r="1304.35" xlink:href="#Ѕезым_нный_градиент_2"/><radialGradient id="Ѕезым_нный_градиент_2-80" cx="757.99" cy="898.29" r="1304.37" xlink:href="#Ѕезым_нный_градиент_2"/><radialGradient id="Ѕезым_нный_градиент_2-81" cx="758" cy="898.29" r="1304.37" xlink:href="#Ѕезым_нный_градиент_2"/><radialGradient id="Ѕезым_нный_градиент_2-82" cx="758" cy="898.29" r="1304.37" xlink:href="#Ѕезым_нный_градиент_2"/><radialGradient id="Ѕезым_нный_градиент_2-83" cx="758" cy="898.29" r="1304.37" xlink:href="#Ѕезым_нный_градиент_2"/><radialGradient id="Ѕезым_нный_градиент_2-84" cx="758" cy="898.29" r="1304.37" xlink:href="#Ѕезым_нный_градиент_2"/><radialGradient id="Ѕезым_нный_градиент_2" data-name="Ѕезым€нный градиент 2" cx="758" cy="898.29" r="1304.37" gradientUnits="userSpaceOnUse"><stop offset=".25" stop-color="#fff"/><stop offset=".25" stop-color="#fffffe"/><stop offset=".45" stop-color="#fee3b9"/><stop offset=".64" stop-color="#fccd83"/><stop offset=".8" stop-color="#fcbd5c"/><stop offset=".92" stop-color="#fbb444"/><stop offset="1" stop-color="#fbb03b"/></radialGradient><radialGradient id="Ѕезым_нный_градиент_2-86" cx="757.99" cy="898.29" r="1304.37" xlink:href="#Ѕезым_нный_градиент_2"/><radialGradient id="Ѕезым_нный_градиент_2-87" cx="758" cy="898.29" r="1304.37" xlink:href="#Ѕезым_нный_градиент_2"/><radialGradient id="Ѕезым_нный_градиент_2-88" cx="758" cy="898.29" r="1304.37" xlink:href="#Ѕезым_нный_градиент_2"/><radialGradient id="Ѕезым_нный_градиент_2-89" cx="758" cy="898.29" r="1304.37" xlink:href="#Ѕезым_нный_градиент_2"/><radialGradient id="Ѕезым_нный_градиент_2-90" cx="758" cy="898.29" r="1304.37" xlink:href="#Ѕезым_нный_градиент_2"/><radialGradient id="Ѕезым_нный_градиент_2-91" cx="758" cy="898.29" r="1304.37" xlink:href="#Ѕезым_нный_градиент_2"/><radialGradient id="Ѕезым_нный_градиент_2-92" cx="758" cy="898.29" r="1304.37" xlink:href="#Ѕезым_нный_градиент_2"/><radialGradient id="Ѕезым_нный_градиент_2-93" cx="758" cy="898.29" r="1304.37" xlink:href="#Ѕезым_нный_градиент_2"/><radialGradient id="Ѕезым_нный_градиент_2-94" cx="758" cy="898.29" r="1304.37" xlink:href="#Ѕезым_нный_градиент_2"/><radialGradient id="Ѕезым_нный_градиент_2-95" cx="757.99" cy="898.29" r="1304.38" xlink:href="#Ѕезым_нный_градиент_2"/><radialGradient id="Ѕезым_нный_градиент_2-96" cx="757.99" cy="898.29" r="1304.38" xlink:href="#Ѕезым_нный_градиент_2"/><radialGradient id="Ѕезым_нный_градиент_2-97" cx="758" cy="898.29" r="1304.37" xlink:href="#Ѕезым_нный_градиент_2"/><radialGradient id="Ѕезым_нный_градиент_2-98" cx="758" cy="898.29" r="1304.36" xlink:href="#Ѕезым_нный_градиент_2"/><radialGradient id="Ѕезым_нный_градиент_2-99" cx="758" cy="898.29" r="1304.37" xlink:href="#Ѕезым_нный_градиент_2"/><radialGradient id="Ѕезым_нный_градиент_2-100" cx="758" cy="898.29" r="1304.37" xlink:href="#Ѕезым_нный_градиент_2"/><radialGradient id="Ѕезым_нный_градиент_2-101" cx="758" cy="898.29" r="1304.37" xlink:href="#Ѕезым_нный_градиент_2"/><radialGradient id="Ѕезым_нный_градиент_2-102" cx="758" cy="898.29" r="1304.37" xlink:href="#Ѕезым_нный_градиент_2"/><radialGradient id="Ѕезым_нный_градиент_2-103" cx="758" cy="898.29" r="1304.37" xlink:href="#Ѕезым_нный_градиент_2"/><radialGradient id="Ѕезым_нный_градиент_2-104" cx="758" cy="898.29" r="1304.38" xlink:href="#Ѕезым_нный_градиент_2"/><radialGradient id="Ѕезым_нный_градиент_2-105" cx="758" cy="898.29" r="1304.37" xlink:href="#Ѕезым_нный_градиент_2"/><radialGradient id="Ѕезым_нный_градиент_2-106" cx="758" cy="898.29" r="1304.37" xlink:href="#Ѕезым_нный_градиент_2"/><radialGradient id="Ѕезым_нный_градиент_2-107" cx="758" cy="898.29" r="1304.37" xlink:href="#Ѕезым_нный_градиент_2"/><radialGradient id="Ѕезым_нный_градиент_2-108" cx="758" cy="898.29" r="1304.37" xlink:href="#Ѕезым_нный_градиент_2"/><radialGradient id="Ѕезым_нный_градиент_2-109" cx="758" cy="898.29" r="1304.37" xlink:href="#Ѕезым_нный_градиент_2"/><radialGradient id="Ѕезым_нный_градиент_2-110" cx="758" cy="898.29" r="1304.37" xlink:href="#Ѕезым_нный_градиент_2"/><radialGradient id="Ѕезым_нный_градиент_2-111" cx="757.99" cy="898.29" r="1304.38" xlink:href="#Ѕезым_нный_градиент_2"/><radialGradient id="Ѕезым_нный_градиент_2-112" cx="758" cy="898.29" r="1304.37" xlink:href="#Ѕезым_нный_градиент_2"/><radialGradient id="Ѕезым_нный_градиент_2-113" cx="758" cy="898.29" r="1304.37" xlink:href="#Ѕезым_нный_градиент_2"/><radialGradient id="Ѕезым_нный_градиент_2-114" cx="758" cy="898.29" r="1304.37" xlink:href="#Ѕезым_нный_градиент_2"/><radialGradient id="Ѕезым_нный_градиент_2-115" cx="758" cy="898.29" r="1304.37" xlink:href="#Ѕезым_нный_градиент_2"/><radialGradient id="Ѕезым_нный_градиент_2-116" cx="758" cy="898.29" r="1304.37" xlink:href="#Ѕезым_нный_градиент_2"/><radialGradient id="Ѕезым_нный_градиент_2-117" cx="758" cy="898.29" r="1304.37" xlink:href="#Ѕезым_нный_градиент_2"/><radialGradient id="Ѕезым_нный_градиент_2-118" cx="758" cy="898.29" r="1304.37" xlink:href="#Ѕезым_нный_градиент_2"/><radialGradient id="Ѕезым_нный_градиент_2-119" cx="758" cy="898.29" r="1304.37" xlink:href="#Ѕезым_нный_градиент_2"/><radialGradient id="Ѕезым_нный_градиент_2-120" cx="758" cy="898.29" r="1304.38" xlink:href="#Ѕезым_нный_градиент_2"/><radialGradient id="Ѕезым_нный_градиент_2-121" cx="758" cy="898.29" r="1304.37" xlink:href="#Ѕезым_нный_градиент_2"/><radialGradient id="Ѕезым_нный_градиент_2-122" cx="757.99" cy="898.29" r="1304.38" xlink:href="#Ѕезым_нный_градиент_2"/><radialGradient id="Ѕезым_нный_градиент_2-123" cx="758" cy="898.29" r="1304.37" xlink:href="#Ѕезым_нный_градиент_2"/><radialGradient id="Ѕезым_нный_градиент_2-124" cx="758" cy="898.29" r="1304.37" xlink:href="#Ѕезым_нный_градиент_2"/><radialGradient id="Ѕезым_нный_градиент_2-125" cx="758" cy="898.29" r="1304.37" xlink:href="#Ѕезым_нный_градиент_2"/><radialGradient id="Ѕезым_нный_градиент_2-126" cx="758" cy="898.29" r="1304.37" xlink:href="#Ѕезым_нный_градиент_2"/><radialGradient id="Ѕезым_нный_градиент_2-127" cx="758" cy="898.29" r="1304.37" xlink:href="#Ѕезым_нный_градиент_2"/><radialGradient id="Ѕезым_нный_градиент_2-128" cx="758" cy="898.29" r="1304.38" xlink:href="#Ѕезым_нный_градиент_2"/><radialGradient id="Ѕезым_нный_градиент_2-129" cx="758" cy="898.29" r="1304.37" xlink:href="#Ѕезым_нный_градиент_2"/><radialGradient id="Ѕезым_нный_градиент_2-130" cx="758" cy="898.29" r="1304.37" xlink:href="#Ѕезым_нный_градиент_2"/><radialGradient id="Ѕезым_нный_градиент_2-131" cx="758" cy="898.3" r="1304.38" xlink:href="#Ѕезым_нный_градиент_2"/><radialGradient id="Ѕезым_нный_градиент_2-133" cx="758" cy="898.29" r="1304.38" xlink:href="#Ѕезым_нный_градиент_2"/><radialGradient id="Ѕезым_нный_градиент_2-134" cx="758" cy="898.29" r="1304.37" xlink:href="#Ѕезым_нный_градиент_2"/><radialGradient id="Ѕезым_нный_градиент_2-135" cx="758" cy="898.29" r="1304.38" xlink:href="#Ѕезым_нный_градиент_2"/><radialGradient id="Ѕезым_нный_градиент_2-136" cx="758" cy="898.29" r="1304.37" xlink:href="#Ѕезым_нный_градиент_2"/><radialGradient id="Ѕезым_нный_градиент_2-137" cx="758" cy="898.29" r="1304.37" xlink:href="#Ѕезым_нный_градиент_2"/><radialGradient id="Ѕезым_нный_градиент_2-138" cx="758" cy="898.29" r="1304.38" xlink:href="#Ѕезым_нный_градиент_2"/><radialGradient id="Ѕезым_нный_градиент_2-139" cx="758" cy="898.29" r="1304.37" xlink:href="#Ѕезым_нный_градиент_2"/><radialGradient id="Ѕезым_нный_градиент_2-140" cx="758" cy="898.29" r="1304.37" xlink:href="#Ѕезым_нный_градиент_2"/><radialGradient id="Ѕезым_нный_градиент_2-141" cx="758" cy="898.29" r="1304.37" xlink:href="#Ѕезым_нный_градиент_2"/><radialGradient id="Ѕезым_нный_градиент_2-142" cx="758" cy="898.29" r="1304.36" xlink:href="#Ѕезым_нный_градиент_2"/><radialGradient id="Ѕезым_нный_градиент_2-143" cx="758" cy="898.29" r="1304.37" xlink:href="#Ѕезым_нный_градиент_2"/><radialGradient id="Ѕезым_нный_градиент_2-144" cx="757.99" cy="898.29" r="1304.37" xlink:href="#Ѕезым_нный_градиент_2"/><radialGradient id="Ѕезым_нный_градиент_2-145" cx="758" cy="898.29" r="1304.37" xlink:href="#Ѕезым_нный_градиент_2"/><radialGradient id="Ѕезым_нный_градиент_2-146" cx="758" cy="898.29" r="1304.38" xlink:href="#Ѕезым_нный_градиент_2"/><radialGradient id="Ѕезым_нный_градиент_2-147" cx="758" cy="898.29" r="1304.36" xlink:href="#Ѕезым_нный_градиент_2"/><radialGradient id="Ѕезым_нный_градиент_2-148" cx="758" cy="898.29" r="1304.38" xlink:href="#Ѕезым_нный_градиент_2"/><radialGradient id="Ѕезым_нный_градиент_2-149" cx="758" cy="898.29" r="1304.37" xlink:href="#Ѕезым_нный_градиент_2"/><radialGradient id="Ѕезым_нный_градиент_2-150" cx="758" cy="898.29" r="1304.38" xlink:href="#Ѕезым_нный_градиент_2"/><radialGradient id="Ѕезым_нный_градиент_2-151" cx="758" cy="898.29" r="1304.37" xlink:href="#Ѕезым_нный_градиент_2"/><radialGradient id="Ѕезым_нный_градиент_2-152" cx="758" cy="898.29" r="1304.37" xlink:href="#Ѕезым_нный_градиент_2"/><radialGradient id="Ѕезым_нный_градиент_2-153" cx="758" cy="898.29" r="1304.38" xlink:href="#Ѕезым_нный_градиент_2"/><radialGradient id="Ѕезым_нный_градиент_2-154" cx="758" cy="898.29" r="1304.37" xlink:href="#Ѕезым_нный_градиент_2"/><radialGradient id="Ѕезым_нный_градиент_2-155" cx="758" cy="898.29" r="1304.37" xlink:href="#Ѕезым_нный_градиент_2"/><radialGradient id="Ѕезым_нный_градиент_2-156" cx="758" cy="898.29" r="1304.37" xlink:href="#Ѕезым_нный_градиент_2"/><radialGradient id="Ѕезым_нный_градиент_2-157" cx="757.99" cy="898.29" r="1304.37" xlink:href="#Ѕезым_нный_градиент_2"/><radialGradient id="Ѕезым_нный_градиент_2-158" cx="757.99" cy="898.29" r="1304.37" xlink:href="#Ѕезым_нный_градиент_2"/><radialGradient id="Ѕезым_нный_градиент_2-159" cx="758" cy="898.29" r="1304.38" xlink:href="#Ѕезым_нный_градиент_2"/><radialGradient id="Ѕезым_нный_градиент_2-160" cx="758" cy="898.29" r="1304.36" xlink:href="#Ѕезым_нный_градиент_2"/><radialGradient id="Ѕезым_нный_градиент_2-161" cx="757.99" cy="898.29" r="1304.37" xlink:href="#Ѕезым_нный_градиент_2"/><radialGradient id="Ѕезым_нный_градиент_2-162" cx="758" cy="898.29" r="1304.37" xlink:href="#Ѕезым_нный_градиент_2"/><radialGradient id="Ѕезым_нный_градиент_2-163" cx="758" cy="898.29" r="1304.37" xlink:href="#Ѕезым_нный_градиент_2"/><radialGradient id="Ѕезым_нный_градиент_2-164" cx="758" cy="898.29" r="1304.38" xlink:href="#Ѕезым_нный_градиент_2"/><radialGradient id="Ѕезым_нный_градиент_2-165" cx="758" cy="898.29" r="1304.38" xlink:href="#Ѕезым_нный_градиент_2"/><radialGradient id="Ѕезым_нный_градиент_2-166" cx="758" cy="898.29" r="1304.37" xlink:href="#Ѕезым_нный_градиент_2"/><radialGradient id="Ѕезым_нный_градиент_2-167" cx="758" cy="898.29" r="1304.37" xlink:href="#Ѕезым_нный_градиент_2"/><radialGradient id="Ѕезым_нный_градиент_2-168" cx="758" cy="898.29" r="1304.37" xlink:href="#Ѕезым_нный_градиент_2"/><radialGradient id="Ѕезым_нный_градиент_2-169" cx="758" cy="898.29" r="1304.37" xlink:href="#Ѕезым_нный_градиент_2"/><style>.cls-46,.cls-65{mix-blend-mode:multiply}.cls-46{fill:url(#Ѕезым_нный_градиент_2-45)}.cls-65{fill:url(#Ѕезым_нный_градиент_2-65)}</style></defs><g style="isolation:isolate"><g id="Слой_2" data-name="Слой 2"><g id="_лой_1" data-name="—лой_1"><path d="M798.44 366.27c2.84.1 5.66.2 8.5.37l-.1 1.8-1.32 25.61-.27 4.88-1.39 27.07-2.24 42.79L779.7 891.2l-21.92-422.41-3.89-74.74-1.33-25.58-.1-1.86 5.56-.27q10.72-.4 21.55-.41c6.3 0 12.6.07 18.87.34Z" style="fill:url(#Ѕезым_нный_градиент_2);opacity:.42;mix-blend-mode:multiply"/><path d="M820.36 108.21 814 230.82l-.65 12.47-1.55 30.25-1 18.67c-3.25-.17-6.47-.34-9.72-.44l-.14 3.93q4.83.15 9.66.41l-2.54 48.68-.14 3q-4.41-.26-8.84-.41-20.94-.7-41.84.2c-1.93.07-3.83.14-5.76.27l-2.68-51.76-.2-3.93-1-18.67-3.53-68.2-5-97.1Z" style="fill:url(#Ѕезым_нный_градиент_2-2);opacity:.42;mix-blend-mode:multiply"/><path d="M757.24 347.6c-1.93.07-3.83.14-5.76.27-7 .34-14 .85-21 1.53l-4.71-51.67-.34-3.93-1.7-18.6-1.39-15.2-2.47-27.34-2.34-25.58 26.56-1.76 7.26-.47 2.81 68.33.78 18.7.17 3.93Z" style="fill:url(#Ѕезым_нный_градиент_2-3);mix-blend-mode:multiply"/><path d="m779.7 891.2-38.28-421.26-6.78-74.53-2.3-25.48-.17-1.9c6.74-.61 13.52-1.08 20.29-1.42l5.56-.27.07 1.86 1 25.62 3.11 74.77Z" style="fill:url(#Ѕезым_нный_градиент_2-4);mix-blend-mode:multiply"/><path d="M810.6 296.11q15 .75 29.92 2.33l-5 48.49-2.21 21.71-2.79 27.36-.51 4.85-2.77 26.93-4.38 42.69L779.7 891.2l15.08-422.71 1.52-42.83 1-27.1.17-4.85.91-25.68.07-1.76c2.84.1 5.66.2 8.5.37l1-18.83q-4.41-.26-8.84-.41l.14-3 1.72-48.72q4.8.17 9.63.43Z" style="fill:url(#Ѕезым_нный_градиент_2-5);mix-blend-mode:multiply"/><path d="m847.22 233.09-1.28 12.71-3.12 30.2-1.9 18.56c-10-1.05-20-1.79-30.12-2.3-3.25-.17-6.47-.34-9.72-.44l.68-18.7 1.08-30.26.44-12.73 10.71.74Z" style="fill:url(#Ѕезым_нный_градиент_2-6);mix-blend-mode:multiply"/><path style="fill:url(#Ѕезым_нный_градиент_2-7);mix-blend-mode:multiply" d="m779.7 891.2 232.69-636.42 31.51 12.43L779.7 891.2z"/><path d="M998.83 480q5.24 2.74 10.37 5.69L779.7 891.2l192.44-424.31q9.24 4.17 18.22 8.74c2.85 1.43 5.64 2.92 8.47 4.37Z" style="fill:url(#Ѕезым_нный_градиент_2-8);mix-blend-mode:multiply"/><path d="m1060.22 395.58-11 19.38-1.43 2.54-10.16 17.95-15.11 26.7c-3.62-2.07-7.28-4.07-10.94-6-3-1.59-6-3.15-9-4.68q-9.55-4.87-19.28-9.25l9.42-20.7 3.28-7.25 8.51-18.76 1.22-2.68 9.18-20.26 22 11.18Z" style="fill:url(#Ѕезым_нный_градиент_2-9);mix-blend-mode:multiply"/><path style="fill:url(#Ѕезым_нный_градиент_2-10);mix-blend-mode:multiply" d="m779.7 891.2 126.68-613.47 94.37 27.35L779.7 891.2z"/><path d="M1151.19 522.42 1133 540.48l-3.46 3.42-19.24 19.1-30.39 30.22L779.7 891.2l282.86-314.61 28.63-31.84 18.09-20.13 3.32-3.66 17.08-19c1.15 1 2.3 2.06 3.45 3.12a538.84 538.84 0 0 1 18.06 17.34Z" style="fill:url(#Ѕезым_нный_градиент_2-11);mix-blend-mode:multiply"/><path d="M1415.59 259.92 1249 425.29l-8.91 8.84-10.6 10.5-11 10.91-13.21 13.15-2.82 2.81-34.46 34.22-2.24 2.17q-9.09-9.19-18.7-18c-.85-.78-1.73-1.56-2.57-2.34-.34-.34-.72-.64-1-.95l2.06-2.3 32.45-36.07 15.11-16.84 10.37-11.52 10-11.11 8.34-9.32 157-174.55Z" style="fill:url(#Ѕезым_нный_градиент_2-12);mix-blend-mode:multiply"/><path d="m1171.86 544.51-19.18 17-3.66 3.26-20.29 17.92-32.12 28.39L779.7 891.2l306.07-292 31-29.58 19.62-18.7 3.52-3.36 18.53-17.68q6.92 7.2 13.42 14.63Z" style="fill:url(#Ѕезым_нный_градиент_2-13);mix-blend-mode:multiply"/><path d="m1314.76 418.21-39.6 35-9.36 8.3-11.21 9.89-11.59 10.23-14 12.37-2.92 2.58-36.42 32.18-2.33 2.07c-4.51-5.15-9.19-10.2-14-15.18l2.27-2.17 35.18-33.48 2.82-2.71 13.51-12.91 11.22-10.67 10.81-10.3 9.08-8.64 38.21-36.49Z" style="fill:url(#Ѕезым_нный_градиент_2-14);mix-blend-mode:multiply"/><path d="m1208.68 588.38-1.32 1-21 14.81c-2-2.78-4-5.52-6-8.27-7.35-10-15.08-19.65-23.07-29l19.44-16.7 1.29-1.09q16.33 18.87 30.66 39.25Z" style="fill:url(#Ѕезым_нный_градиент_2-15);mix-blend-mode:multiply"/><path d="m1392.21 458.86-72.27 51-22.42 15.86-12.61 8.87-15.31 10.85-3.15 2.2-42.25 29.81q-14.84-21.09-31.74-40.72l2.37-2 36.86-31.73 3-2.54 14.23-12.2 11.68-10.06 11.35-9.72 9.49-8.17 67.08-57.59Z" style="fill:url(#Ѕезым_нный_градиент_2-16);mix-blend-mode:multiply"/><path d="M1137.61 665.9q1.11 1.68 2.13 3.36L779.7 891.2l349.94-237.53c2.75 4 5.42 8.1 8 12.2Z" style="fill:url(#Ѕезым_нный_градиент_2-17);mix-blend-mode:multiply"/><path d="m1239.28 607.9-12.61 7.79-1.42.85-21.82 13.46c-.81-1.32-1.62-2.64-2.5-4-3-4.84-6.14-9.62-9.39-14.36l21.24-14.43 1.39-.92c3.39 5 6.68 10.06 9.86 15.18l12.47-7.86Z" style="fill:url(#Ѕезым_нный_градиент_2-18);mix-blend-mode:multiply"/><path d="M469.1 356.31c-2.27 1.32-4.54 2.68-6.81 4-2.44 1.46-4.85 2.92-7.25 4.41l-8-13-8-13-6.37-10.33-31-50.24L464 243.83l8.91 18.3 17 34.76 5.36 11 6.67 13.69 6.67 13.72q-20.12 9.7-39.51 21.01Z" style="fill:url(#Ѕезым_нный_градиент_2-19);mix-blend-mode:multiply"/><path d="m779.7 891.2-222-360-22.53-36.56-14.27-23.07-2.48-4.07-26-42.21-15.31-24.83L466.93 384c2.3-1.45 4.64-2.88 7-4.23 2.16-1.36 4.37-2.64 6.57-3.9 12.43-7.25 25.14-14 38-20.29l21.28 43.6 1.49 3.05 9 18.53 11.18 23L594.28 511Z" style="fill:url(#Ѕезым_нный_градиент_2-20);mix-blend-mode:multiply"/><path style="fill:url(#Ѕезым_нный_градиент_2-21);mix-blend-mode:multiply" d="M779.7 891.2 439.69 425.3l42.33-28.12L779.7 891.2z"/><path style="fill:url(#Ѕезым_нный_градиент_2-22);mix-blend-mode:multiply" d="M779.7 891.2 443.78 499.08l40.18-31.13L779.7 891.2z"/><path style="fill:url(#Ѕезым_нный_градиент_2-23);mix-blend-mode:multiply" d="M779.7 891.2 366.04 456.52l22.62-20.46L779.7 891.2z"/><path d="m295.12 800.64 26.67 5a8.72 8.72 0 0 0-.24 1.32c-.14.58-.24 1.15-.34 1.76a447.327 447.327 0 0 0-4.88 34.39l-27-2.78-4.81-.51-24.25-2.5-20.53-2.14-52.74-5.51-22.49-2.33-6.1-.61-.85-.1 6.2-42.63.51-3.52.61-4.17 6.85 1.29 18.16 3.4 4.1.78 52 9.69 20.29 3.79 24.06 4.51Z" style="fill:url(#Ѕезым_нный_градиент_2-24);mix-blend-mode:multiply"/><path d="M779.7 891.2 359 847.53c1.05-10.44 2.54-20.87 4.4-31.24.1-.54.2-1 .31-1.59s.13-.81.2-1.19Z" style="fill:url(#Ѕезым_нный_градиент_2-25);mix-blend-mode:multiply"/><path d="m299.09 781.63 26.39 6c-.71 3.12-1.39 6.23-2 9.38-.31 1.56-.65 3.09-.92 4.65-.27 1.32-.54 2.64-.74 4a8.72 8.72 0 0 0-.24 1.32c-.14.58-.24 1.15-.34 1.76l-26.66-4.77-4.81-.88-24.09-4.34-20.29-3.66-52.08-9.35-22.29-4-6.71-1.22h-.07l-8.36-1.52-27.07-4.85L57 761.17 63.73 728l55.49 12.67 15.72 3.56 26.77 6.09 15 3.43 18.05 4.13 4 .91 51.53 11.76 20.09 4.57 23.92 5.46Z" style="fill:url(#Ѕезым_нный_градиент_2-26);mix-blend-mode:multiply"/><path d="m779.7 891.2-416.31-74.91c.1-.54.2-1 .31-1.59s.13-.81.2-1.19c.24-1.22.47-2.44.71-3.62.27-1.39.54-2.81.81-4.2.61-2.85 1.22-5.66 1.87-8.51Z" style="fill:url(#Ѕезым_нный_градиент_2-27);mix-blend-mode:multiply"/><path d="M314.37 869.52q-.51 10.82-.51 21.68 0 12.81.68 25.51c.13 2 .23 4 .37 6l-27 1.83-4.84.34-24.12 1.62-20.6 1.39-4.51.31-48.51 3.28-22.64 1.52-15.42 1-14.9 1-12.4.85h-.07l-40 2.71v-94.79l75.75 5.15 7 .47 22.6 1.53 52.95 3.59 20.57 1.39 24.23 1.62 4.84.34 27 1.83c-.1 1.76-.2 3.49-.31 5.25-.03 1.53-.09 3.06-.16 4.58Z" style="fill:url(#Ѕезым_нный_градиент_2-28);mix-blend-mode:multiply"/><path d="m779.7 891.2-422 28.59c-.17-1.79-.27-3.59-.34-5.42a402.92 402.92 0 0 1-.23-42.85c.07-1.39.13-2.78.23-4.17.07-1.59.17-3.19.31-4.74Z" style="fill:url(#Ѕезым_нный_градиент_2-29);mix-blend-mode:multiply"/><path d="m288.75 847 27 2.44c-.34 3.42-.61 6.84-.85 10.26-.1 1.76-.2 3.49-.31 5.25l-27.06-1.52-4.85-.27-24.29-1.39-20.6-1.15-53-3-22.6-1.29-7.45-.41-74.85-4.22-8.37-.48 1.73-23.65 84.12 7.59 6.34.55 22.56 2 52.82 4.77 20.53 1.83 24.26 2.21Z" style="fill:url(#Ѕезым_нный_градиент_2-30);mix-blend-mode:multiply"/><path d="m779.7 891.2-422.31-23.85c.07-1.59.17-3.19.31-4.74q.3-4.68.71-9.36Z" style="fill:url(#Ѕезым_нный_градиент_2-31);mix-blend-mode:multiply"/><path d="M322.94 983q-3.56-17.58-5.66-35.4c-.34-2.51-.61-5-.88-7.49l-27 2.85-4.77.51-24 2.54-20.56 2.16-4.51.48-48.34 5.11-22.5 2.38-15.35 1.62-14.9 1.56-12.37 1.29L0 973.53l12.7 80.33 95.14-20.2 24.93-5.25 12.13-2.57 14.71-3.12 15.17-3.25 18-3.8c-.44-2.06-.88-4.16-1.29-6.23a604.64 604.64 0 0 1-8.26-53.87l4.2-.44c.27 2.74.61 5.49 1 8.23 1.86 15.11 4.3 30.22 7.38 45.23.37 2.07.78 4.14 1.26 6.2l47.39-10.06 4.61-1 16.67-3.53 3.46-.74 23.58-5 4.67-1 26.53-5.62c-.4-1.57-.74-3.2-1.04-4.84Z" style="fill:url(#Ѕезым_нный_градиент_2-32);opacity:.42;mix-blend-mode:multiply"/><path d="M779.7 891.2 365.93 979c-.34-1.46-.61-2.92-.91-4.37a431.083 431.083 0 0 1-5.19-32.15c-.27-2.27-.54-4.54-.74-6.81Z" style="fill:url(#Ѕезым_нный_градиент_2-33);opacity:.42;mix-blend-mode:multiply"/><path d="m198 1038.3-17.75 4.51-15.11 3.79-14.57 3.7-12 3-24.8 6.26-5.89-25.95-1.59-7.08 25.1-5 12.2-2.44 14.7-3 15.21-3.05 18-3.62c.41 2.07.85 4.17 1.29 6.23 1.54 7.61 3.3 15.17 5.21 22.65Z" style="fill:url(#Ѕезым_нный_градиент_2-34);mix-blend-mode:multiply"/><path d="m328 1005.44-26.25 6.64-4.61 1.15-26.88 6.77-21.11 5.32-47 11.89q-2.83-11.18-5.21-22.46c-.48-2.06-.89-4.13-1.26-6.2l47.5-9.55 4.57-.92 16.74-3.35 3.49-.71 23.61-4.75 4.71-.94 26.6-5.36c.3 1.63.64 3.26 1 4.85 1.28 5.93 2.6 11.79 4.1 17.62Z" style="fill:url(#Ѕезым_нный_градиент_2-35);mix-blend-mode:multiply"/><path d="M779.7 891.2 369.63 994.9c-1.36-5.28-2.58-10.6-3.7-15.95-.34-1.46-.61-2.92-.91-4.37Z" style="fill:url(#Ѕезым_нный_градиент_2-36);mix-blend-mode:multiply"/><path d="m317.28 947.61-26.93 3.29-4.78.61-24 2.91-3.45.41-17 2.1-4.54.54-48.21 5.89c-.34-2.74-.68-5.49-1-8.23l-4.2.44c.3 2.78.61 5.52.95 8.3l-18.3 2.24-15.29 1.89-14.88 1.83-12.33 1.49h-.3l-1-10.67-.14-1.62-1.66-19-.07-.64-.3-3.46-.75-8.47h.31l12.43-.71 14.91-.81 15.38-.85 22.63-1.22 48.55-2.68 4.51-.23 20.6-1.16 24.19-1.32 4.81-.27 27.07-1.49c.13 2 .23 4 .37 6 .41 5.82.88 11.62 1.49 17.41.32 2.5.59 4.97.93 7.48Z" style="fill:url(#Ѕезым_нный_градиент_2-37);mix-blend-mode:multiply"/><path d="m779.7 891.2-419.87 51.23c-.27-2.27-.54-4.54-.74-6.81-.58-5.29-1-10.54-1.36-15.83-.17-1.79-.27-3.59-.34-5.42Z" style="fill:url(#Ѕезым_нный_градиент_2-38);mix-blend-mode:multiply"/><path d="m301.26 772.38 26.29 6.51c-.34 1.39-.68 2.81-1 4.23 0 .21-.1.41-.14.65-.3 1.29-.6 2.57-.91 3.86-.71 3.12-1.39 6.23-2 9.38-.31 1.56-.65 3.09-.92 4.65l-26.59-5.22-4.78-1-24-4.71-20.23-4L195 776.65l-4-.78-18.19-3.55-7.36-1.46-7.75-1.52-27-5.29-16-3.12 4.5-20.29 2.85-12.77 15.82 3.93 26.66 6.64 14.94 3.69 22 5.45 51.26 12.74 20 4.95 6.06 1.52 17.76 4.41Z" style="fill:url(#Ѕезым_нный_градиент_2-39);mix-blend-mode:multiply"/><path d="m779.7 891.2-415.09-81.31c.27-1.39.54-2.81.81-4.2.61-2.85 1.22-5.66 1.87-8.51.27-1.18.54-2.33.81-3.52 0-.2.1-.41.14-.61.3-1.29.61-2.54.91-3.83Z" style="fill:url(#Ѕезым_нный_градиент_2-40);mix-blend-mode:multiply"/><path d="m318 718.48 25.33 9.52c-1.38 3.69-2.71 7.38-4 11.11-1.08 3-2.07 6.07-3.05 9.11-2.06 6.41-4 12.84-5.79 19.35l-26.09-7.18-4.67-1.39-17.31-4.75-6.4-1.76-19.89-5.49-4.07-1.12-21.41-5.88 7.59-23.48 8.06-24.87 20.77 7.76 3.86 1.46 19.32 7.21 23.14 8.68Z" style="fill:url(#Ѕезым_нный_градиент_2-41);mix-blend-mode:multiply"/><path d="M779.7 891.2 371.9 778.92c1.59-5.89 3.35-11.75 5.21-17.58.88-2.74 1.8-5.52 2.78-8.27q1.73-5 3.59-10.06Z" style="fill:url(#Ѕезым_нный_градиент_2-42);mix-blend-mode:multiply"/><path d="m296.89 791.53 26.56 5.47c-.31 1.56-.65 3.09-.92 4.65-.27 1.32-.54 2.64-.74 4a8.72 8.72 0 0 0-.24 1.32c-.14.58-.24 1.15-.34 1.76a447.327 447.327 0 0 0-4.88 34.39c-.2 2.1-.4 4.2-.57 6.34-.34 3.42-.61 6.84-.85 10.26-.1 1.76-.2 3.49-.31 5.25-.1 1.53-.16 3-.23 4.58l-27.07-1.29-4.88-.2-24.26-1.16-20.6-.94-53.05-2.48-22.6-1.05L154 862l.78-6.1.88-7 1.73-13.76 1-8.43 5.38-42.71.44-3.52 1.22-9.62.78-6.3 7.79 1.59 18.23 3.79 3.93.78L248 781.43l20.2 4.17 24 4.94Z" style="fill:url(#Ѕезым_нный_градиент_2-43);mix-blend-mode:multiply"/><path d="m779.7 891.2-422.54-19.68c.07-1.39.13-2.78.23-4.17.07-1.59.17-3.19.31-4.74q.3-4.68.71-9.36c.17-1.89.37-3.82.58-5.72 1.05-10.44 2.54-20.87 4.4-31.24.1-.54.2-1 .31-1.59s.13-.81.2-1.19c.24-1.22.47-2.44.71-3.62.27-1.39.54-2.81.81-4.2Z" style="fill:url(#Ѕезым_нный_градиент_2-44);mix-blend-mode:multiply"/><path class="cls-46" d="M256 507.79c-7.21 9.86-14.19 20-20.83 30.29l-10.23-6.61-197-127.76 28.77-41.81 189.46 138.7Z"/><path d="M779.7 891.2 388.8 637.75 366.07 623l-25-16.23-2.2-1.42-15.11-9.79-3.32-2.17-44.11-28.56L248 546.44q9.77-15.13 20.37-29.61l27.34 20 42.35 31 3.21 2.34 14.57 10.67 2.07 1.53L381.92 600l21.89 16Z" style="fill:url(#Ѕезым_нный_градиент_2-46);mix-blend-mode:multiply"/><path d="M279.07 478.17c-5.26 6.31-10.34 12.74-15.32 19.28L254 490l-42-32 16.84-21.21 40.83 33.68Z" style="fill:url(#Ѕезым_нный_градиент_2-47);mix-blend-mode:multiply"/><path d="M779.7 891.2 409.33 608.58l-21.51-16.43-25.75-19.65-17.52-13.39-41.74-31.84-26.93-20.57c4.88-6.37 9.83-12.64 14.94-18.8L317 509.45l40.48 33.43 17 14 25 20.57 20.9 17.24Z" style="fill:url(#Ѕезым_нный_градиент_2-48);mix-blend-mode:multiply"/><path d="M327.07 426Q305 447.54 285 471l-9.32-7.9-67.42-57.29 48.58-52 61.7 63.42Z" style="fill:url(#Ѕезым_нный_градиент_2-49);mix-blend-mode:multiply"/><path d="M779.7 891.2 424.61 589.57 404 572.05l-24.67-20.93-16.8-14.3-40-34-25.85-21.92q19.52-23 41.09-43.94l23.62 24.29L398 498.88l15.38 15.82 22.53 23.17 18.91 19.41Z" style="fill:url(#Ѕезым_нный_градиент_2-50);mix-blend-mode:multiply"/><path d="m405.64 1212.48-3.59 3.08L384 1231l-2.84 2.48-12.77 11-3.8 3.26-22.26 19.11-17.72 15.21-25.91 22.26-11.2 9.68-9.65 8.27-44.52 38.25-43.64-56.21 16.67-11.65 31.37-22 10.4-7.25 12.13-8.5 28-19.62 43.13-30.22 4-2.81 13.86-9.69 3-2.14 19.62-13.72 3.86-2.71q12.09 17.33 25.51 33.37c.31.41.68.85 1.05 1.26 1.11 1.27 2.2 2.56 3.35 3.85Z" style="fill:url(#Ѕезым_нный_градиент_2-51);mix-blend-mode:multiply"/><path d="m779.7 891.2-320.84 275.58-32.66 28c-1.05-1.22-2.1-2.41-3.11-3.63l-1-1.22q-12.66-15.2-24.05-31.54l35.2-24.66Z" style="fill:url(#Ѕезым_нный_градиент_2-52);mix-blend-mode:multiply"/><path d="m431.73 1240.7-3.29 3.29-12.74 12.8-3.93 4-2.74 2.71-11.83 11.89-3.55 3.59-20.91 21-30.39-33.06-4-4.38 22.63-19 3.8-3.18 12.9-10.88 2.88-2.4 18.2-15.31 3.62-3.05c1 1.28 2.14 2.57 3.29 3.86q9.15 10.77 19 21c2.33 2.31 4.65 4.71 7.06 7.12Z" style="fill:url(#Ѕезым_нный_градиент_2-53);mix-blend-mode:multiply"/><path d="M779.7 891.2 481.26 1191l-30.39 30.49c-2.27-2.24-4.51-4.54-6.71-6.85-6.2-6.4-12.16-13-18-19.78-1.05-1.22-2.1-2.41-3.11-3.63l33-27.74Z" style="fill:url(#Ѕезым_нный_градиент_2-54);mix-blend-mode:multiply"/><path d="m460 1266.72-3 3.59-12 14-29.27-27.55-7.76-7.28 13.32-12.84 3.35-3.22c2.34 2.44 4.71 4.84 7.12 7.25q13.59 13.61 28.24 26.05Z" style="fill:url(#Ѕезым_нный_градиент_2-55);mix-blend-mode:multiply"/><path d="m779.7 891.2-274.25 322.13-27.92 32.76q-13.81-11.74-26.66-24.63c-2.27-2.24-4.51-4.54-6.71-6.85l31-29.88Z" style="fill:url(#Ѕезым_нный_градиент_2-56);mix-blend-mode:multiply"/><path d="m480 1283-2.84 3.69-14.3 18.7-2.37 3.09-10.16 13.31-32.6 42.59-2.54 3.32-.1.13-6.27-5-.44-.37-7.08-5.69-1.93-1.56-8-6.47.1-.14 2.71-3.15 31.44-37.06 3.29-3.86 1.42-1.7 9.39-11 2.54-3 15.24-18 3-3.56c5.45 4.68 11 9.19 16.7 13.56.91.69 1.86 1.41 2.8 2.17Z" style="fill:url(#Ѕезым_нный_градиент_2-57);mix-blend-mode:multiply"/><path d="m779.7 891.2-257.08 336-26.15 34.18c-.91-.68-1.8-1.35-2.68-2.07q-8-6.19-15.75-12.8l27.85-32.83Z" style="fill:url(#Ѕезым_нный_градиент_2-58);mix-blend-mode:multiply"/><path d="M770 1356.94c-1.05 0-2.1 0-3.15-.07l1.18-42.62 11.69-423 22.7 422.58 2.27 42.58c-8.3.48-16.6.68-25 .68-3.24-.09-6.49-.09-9.69-.15Z" style="fill:url(#Ѕезым_нный_градиент_2-59);mix-blend-mode:multiply"/><path d="M767.17 1490.87c-1.36 0-2.71 0-4-.11l.1-4.13 1.35-48.48.14-5 .47-16.81.1-3.82.65-23.35.13-5.15 3.32.1q5.13.11 10.3.11 13.26 0 26.43-.75l.27 5.15 1.46 27.17 1.18 21.82 2.61 48.48.2 4.1c-10.7.61-21.48.88-32.28.88-4.17-.08-8.3-.08-12.43-.21Z" style="fill:url(#Ѕезым_нный_градиент_2-60);mix-blend-mode:multiply"/><path d="m813.24 1515.77-43.87.54h-2.75l-4.2.07.21-7.18c1.39.07 2.78.1 4.16.1 4.41.14 8.81.17 13.22.17q16.41 0 32.86-.88l.34 6.3Z" style="fill:url(#Ѕезым_нный_градиент_2-61);mix-blend-mode:multiply"/><path d="M762.63 1509.23c1.39.07 2.78.1 4.16.1l-.17 7v.07l-.47 23.45-1.8 85.54-33.84-1.49 3.83-56.81 1.89-28.57 2.07-30.45c4.2.3 8.44.54 12.67.71 2.1.13 4.17.2 6.27.27 1.76.11 3.59.15 5.39.18Z" style="fill:url(#Ѕезым_нный_градиент_2-62);mix-blend-mode:multiply"/><path d="m769.4 1384-.1 5.12-.51 23.38-.06 3.83-.34 16.8-.14 5-1 48.48-.1 4.17c-1.36 0-2.71 0-4-.11-1.77 0-3.53-.06-5.26-.13-2-.07-4.06-.17-6.06-.27-4.1-.17-8.2-.41-12.3-.68l.27-4.17 3.2-48.32.34-5 1.12-16.74.27-3.86 1.56-23.35.34-5.08c3.35.21 6.74.41 10.13.54 1.66.11 3.32.17 5 .21 1.42.06 2.88.1 4.3.13Z" style="fill:url(#Ѕезым_нный_градиент_2-63);mix-blend-mode:multiply"/><path class="cls-46" d="m779.7 891.2-8.84 423.12-.88 42.62c-1.05 0-2.1 0-3.15-.07-1.36 0-2.71-.06-4.07-.13-1.56-.07-3.15-.1-4.71-.21q-4.83-.19-9.55-.5l2.85-42.59Z"/><path class="cls-65" d="m936 1575-85.88 13.58-7.83 1.25-4.71-52.41-2.06-23.17-.65-7.18c2.34-.21 4.64-.41 7-.65 2-.2 4-.4 6.06-.64 6.47-.71 13-1.56 19.45-2.47l-2.64-18.31q-9.4 1.32-18.87 2.37l-5.9.61c-2.23.24-4.47.44-6.74.61l-.37-4.13-4.3-48.35-2-21.75-2.44-27.1-.44-5.09c1.87-.16 3.69-.33 5.52-.54 1.63-.13 3.26-.3 4.85-.47l-3-26.94c-1.49.14-3 .31-4.54.44-1.72.21-3.49.38-5.25.51l-3.79-42.48L779.7 891.2l94.3 412.55 9.52 41.67 6 26.43 1.12 4.84 6.1 26.7 4.84 21.14 11.79 51.56 10.88 47.54 2.78 12.26Z"/><path d="M821.27 1355.21c-3.39.31-6.84.58-10.26.82l-2.88-42.59L779.7 891.2l42.52 421.09 4.3 42.41c-1.72.21-3.52.38-5.25.51Z" style="fill:url(#Ѕезым_нный_градиент_2-66);mix-blend-mode:multiply"/><path d="M833.23 1488.63q-6.6.61-13.21 1l-.27-4.14-3.29-48.41-1.46-21.76-1.82-27.18-.34-5.08c3.62-.24 7.25-.51 10.87-.85 1.87-.16 3.69-.33 5.52-.54l.51 5.12 2.75 27.07 2.2 21.68 4.88 48.31.4 4.17c-2.23.24-4.47.44-6.74.61Z" style="fill:url(#Ѕезым_нный_градиент_2-67);mix-blend-mode:multiply"/><path d="m851 1596.94-23.61 2-4.06-60.41-1.6-23.85-.47-6.54c4.57-.3 9.11-.64 13.65-1.08 2.34-.21 4.64-.41 7-.65l.78 7.63 2.27 22.66 5.25 51.87Z" style="fill:url(#Ѕезым_нный_градиент_2-68);mix-blend-mode:multiply"/><path style="fill:url(#Ѕезым_нный_градиент_2-69);opacity:.42;mix-blend-mode:multiply" d="m779.7 891.2 280.63 732.11-77.33 25.12L779.7 891.2z"/><path style="fill:url(#Ѕезым_нный_градиент_2-70);mix-blend-mode:multiply" d="m779.7 891.2 270.54 631.43-31.46 12.57-239.08-644z"/><path style="fill:url(#Ѕезым_нный_градиент_2-71);mix-blend-mode:multiply" d="m779.7 891.2 181.88 636.06-42.73 10.69L779.7 891.2z"/><path d="M751 1508.79c2.1.13 4.17.2 6.27.27l-.3 7.66-.82 22.87-1 28.79-20.73-1.28-13.08-.82 1.39-16.19 1.08-12.47 1.29-14.91 1.36-15.55c4 .34 7.92.65 11.92.92 4.12.3 8.36.54 12.62.71Z" style="fill:url(#Ѕезым_нный_градиент_2-72);mix-blend-mode:multiply"/><path d="m761.78 1383.81-.17 5.15-.85 23.34-.17 3.83-.61 16.8-.16 5-1.77 48.48-.17 4.17c-2-.07-4.06-.17-6.06-.27-4.1-.17-8.2-.41-12.3-.68-3.86-.24-7.72-.51-11.55-.85l.37-4.2 4.17-48.31.44-5 1.46-16.74.3-3.83 2-23.34.44-5.08c3.15.3 6.31.54 9.49.74 3.35.21 6.74.41 10.13.54 1.69.15 3.35.21 5.01.25Z" style="fill:url(#Ѕезым_нный_градиент_2-73);mix-blend-mode:multiply"/><path d="m779.7 891.2-15.38 422.92-1.56 42.62c-1.56-.07-3.15-.1-4.71-.21q-4.83-.19-9.55-.5c-3-.21-6-.44-9-.72l3.69-42.51Z" style="fill:url(#Ѕезым_нный_градиент_2-74);mix-blend-mode:multiply"/><path d="M681.32 1374.32c14.29 2.91 28.83 5.18 43.5 6.78l-.58 5-2.61 23.31-.44 3.83-1.86 16.76-.58 5-2.47 22.16-31.44-5-18.77-3 5.46-26.73 3.35-16.46.74-3.8 4.71-23.07Z" style="fill:url(#Ѕезым_нный_градиент_2-75);mix-blend-mode:multiply"/><path d="m779.7 891.2-47.12 420.55-4.75 42.45c-13.85-1.53-27.58-3.66-41.09-6.41l8.53-41.94Z" style="fill:url(#Ѕезым_нный_градиент_2-76);mix-blend-mode:multiply"/><path d="M762.76 1356.74c-1.56-.07-3.15-.1-4.71-.21l2-42.58L779.7 891.2l46.65 420.61 4.67 42.45c-1.49.14-3 .31-4.54.44-1.72.21-3.49.38-5.25.51-3.39.31-6.84.58-10.26.82-2.1.13-4.2.23-6.34.33-8.3.48-16.6.68-25 .68-3.25 0-6.5 0-9.72-.1-1.05 0-2.1 0-3.15-.07-1.29-.03-2.64-.06-4-.13Z" style="fill:url(#Ѕезым_нный_градиент_2-77);mix-blend-mode:multiply"/><path d="M757.88 1490.63c-2-.07-4.06-.17-6.06-.27l.2-4.17 2.27-48.45.24-5 .78-16.84.17-3.79 1.08-23.35.24-5.15c1.66.11 3.32.17 5 .21 1.42.06 2.88.1 4.3.13l3.32.1q5.13.11 10.3.11 13.26 0 26.43-.75c2.23-.07 4.47-.2 6.71-.34 3.62-.24 7.25-.51 10.87-.85 1.87-.16 3.69-.33 5.52-.54 1.63-.13 3.26-.3 4.85-.47l.54 5 3 27.07L840 1435l5.35 48.24.48 4.17-5.9.61c-2.23.24-4.47.44-6.74.61q-6.6.61-13.21 1c-2.71.2-5.42.37-8.17.47-10.7.61-21.48.88-32.28.88-4.14 0-8.27 0-12.4-.13-1.36 0-2.71 0-4-.11-1.76-.01-3.52-.04-5.25-.11Z" style="fill:url(#Ѕезым_нный_градиент_2-78);mix-blend-mode:multiply"/><path d="m848.78 1513.8-6.16.21-7.08.2-13.83.44-8.5.27-43.84 1.39-2.75.1-9.68.31-6.34.2.37-8.13c2.1.13 4.17.2 6.27.27 1.8.1 3.59.14 5.39.17 1.39.07 2.78.1 4.16.1 4.41.14 8.81.17 13.22.17q16.41 0 32.86-.88c2.78-.14 5.59-.31 8.37-.51 4.57-.3 9.11-.64 13.65-1.08 2.34-.21 4.64-.41 7-.65 2-.2 4-.4 6.06-.64Z" style="fill:url(#Ѕезым_нный_градиент_2-79);mix-blend-mode:multiply"/><path d="m579.41 1341.93-1.9 4.27-9.62 21.68-8.4 18.87-21.65 48.76-9.18 20.66-6.31 14.13-11.11 25.07-95.4 214.63-45.84-22 107.4-208.9 12.53-24.4 7.08-13.72 10.34-20.12 24.42-47.53 9.42-18.33 13-25.24c2 1.08 4 2.1 6.06 3.08 6.32 3.23 12.69 6.25 19.16 9.09Z" style="fill:url(#Ѕезым_нный_градиент_2-80);mix-blend-mode:multiply"/><path d="m779.7 891.2-171.8 386.6-17.48 39.33c-6.1-2.67-12.17-5.52-18.16-8.5-1.9-1-3.8-1.9-5.69-2.88Z" style="fill:url(#Ѕезым_нный_градиент_2-81);mix-blend-mode:multiply"/><path d="M545.49 1325.3 532 1350.23l-9.79 18.13-25.41 47.06-10.74 19.89-7.32 13.58-13 24.16-25.14 46.65-23.6-13.32 26.9-45.63 13.92-23.62 7.86-13.31 11.49-19.52 27.17-46 10.47-17.78 14.4-24.4c5.34 3.18 10.79 6.23 16.28 9.18Z" style="fill:url(#Ѕезым_нный_градиент_2-82);mix-blend-mode:multiply"/><path d="m779.7 891.2-221.33 410.25c-5.19-2.82-10.34-5.7-15.42-8.71Z" style="fill:url(#Ѕезым_нный_градиент_2-83);mix-blend-mode:multiply"/><path d="m523.1 1312.46-14.7 24.15-10.71 17.62-27.85 45.7-11.76 19.32-8.08 13.21-14.26 23.44-46 75.59-59-39.84 52.92-70.78 16.43-22 9.35-12.46 11-14.74 2.54-3.42 32.08-42.89 10-13.42 2.34-3.12 16.87-22.6q18.82 14.09 38.83 26.24Z" style="fill:url(#Ѕезым_нный_градиент_2-84);mix-blend-mode:multiply"/><path d="m779.7 891.2-242.47 398.12q-18.91-11.53-36.66-24.8Z" style="fill:url(#Ѕезым_нный_градиент_2-85);mix-blend-mode:multiply"/><path d="m477.19 1280.75-2.88 3.69-14.43 18.56-2.37 3.08-8.95 11.49-18.26-14.88-.13-.1 9.38-11.08 2.54-3 15.25-17.92 3-3.56s.11.07.14.1c5.46 4.74 11.05 9.25 16.71 13.62Z" style="fill:url(#Ѕезым_нный_градиент_2-86);mix-blend-mode:multiply"/><path d="m779.7 891.2-259.48 334.12-26.43 34q-8-6.19-15.75-12.8l-.1-.1 27.85-32.83Z" style="fill:url(#Ѕезым_нный_градиент_2-87);mix-blend-mode:multiply"/><path style="fill:url(#Ѕезым_нный_градиент_2-88);mix-blend-mode:multiply" d="m779.7 891.2 548.99 466.22-48.67 51.89L779.7 891.2z"/><path d="m1247 1229.22-27.89 35.16-3.69 4.68-25.78-22.36-15.55-13.49-18.26-15.82-56.55-49L779.7 891.2l342.79 247.93 34.66 25.07c-1.83 2.61-3.76 5.18-5.69 7.72-4.91 6.54-10.06 12.95-15.35 19.25l20.74 17.48q8.43-10 16.26-20.4c2-2.71 4.07-5.42 6-8.16l4 2.91 14.6 10.57 5 3.63 16.7 12.06Z" style="fill:url(#Ѕезым_нный_градиент_2-89);mix-blend-mode:multiply"/><path d="M1177.28 1134c-2.2 3.6-4.44 7.15-6.74 10.68-4.27 6.6-8.71 13.11-13.39 19.51-1.83 2.61-3.76 5.18-5.69 7.72l-34.15-25.78L779.7 891.2Z" style="fill:url(#Ѕезым_нный_градиент_2-90);mix-blend-mode:multiply"/><path d="m1220.34 1160.34-22.6 33.23-6 8.78-14.71-11.11-4-3c2-2.71 4.07-5.42 6-8.16 4.91-6.78 9.62-13.65 14.13-20.67 2.47-3.72 4.81-7.48 7.11-11.28Z" style="fill:url(#Ѕезым_нный_градиент_2-91);mix-blend-mode:multiply"/><path d="M1189.41 1112.91c-.55 1-1.05 2-1.6 2.94q-4.92 8.89-10.19 17.59L779.7 891.2Z" style="fill:url(#Ѕезым_нный_градиент_2-92);mix-blend-mode:multiply"/><path d="m1307.44 1176.77-15.18 26.46-.23-.17-3.53-2.1-45.16-27.51-2.5-1.53-12.51-7.62-2.6-1.59-25-15.18c3.76-6.13 7.35-12.36 10.8-18.63.58-1.05 1.12-2.07 1.66-3.12l25.75 14 2.68 1.42 15.48 8.37 46.45 25.14 3.63 2Z" style="fill:url(#Ѕезым_нный_градиент_2-93);mix-blend-mode:multiply"/><path d="M1241.31 828c.14 1 .27 2.06.41 3.11l-42.62 5.56-419.4 54.53 413.57-88.46 42-9c2.48 11.26 4.48 22.72 6.04 34.26Z" style="fill:url(#Ѕезым_нный_градиент_2-94);mix-blend-mode:multiply"/><path d="M1300 819.92c.16 1.15.3 2.3.47 3.49l-27.1 3.52-4.78.64c-.1-1.11-.24-2.2-.41-3.28q-2.43-18.25-6.3-36.19l4.61-1 26.73-5.69q4.07 19.09 6.78 38.51Z" style="fill:url(#Ѕезым_нный_градиент_2-95);mix-blend-mode:multiply"/><path d="m1399.93 810.46-25.61 3.32-52.07 6.78c-.14-1.22-.31-2.4-.48-3.62q-2.74-20.24-7-40.19l47.47-10.13q3.66 17.28 6.37 34.83l3.89-.61q-2.68-17.62-6.44-35l18.27-3.93 6.2-1.32.81-.17 7.55 43.91.34 2Z" style="fill:url(#Ѕезым_нный_градиент_2-96);mix-blend-mode:multiply"/><path d="M1242.77 839.77c.34 3.19.64 6.37 1 9.55l-42.79 3.87-421.23 38 419.06-57.39 42.55-5.86c.14 1 .27 2.06.41 3.11.17 1.36.34 2.68.47 4 .15 1.6.32 3.16.53 4.72Z" style="fill:url(#Ѕезым_нный_градиент_2-97);mix-blend-mode:multiply"/><path d="m1302.7 844-2.2.2-25 2.27-4.74.45c-.34-3.39-.65-6.75-1-10.1-.2-1.66-.37-3.32-.61-5-.13-1.42-.3-2.85-.54-4.24-.1-1.11-.24-2.2-.41-3.28l4.75-.65 27.07-3.72c.16 1.15.3 2.3.47 3.49.2 1.49.37 3 .58 4.54l.61 5.28c.27 2.61.54 5.25.81 7.86.04.9.11 1.9.21 2.9Z" style="fill:url(#Ѕезым_нный_градиент_2-98);mix-blend-mode:multiply"/><path d="m1511.09 825.17-56.71 5.11-28.53 2.58-48.95 4.44-52.28 4.7c-.34-3.76-.71-7.49-1.12-11.22-.2-1.83-.4-3.66-.64-5.49-.17-1.55-.37-3.15-.61-4.74-.14-1.22-.31-2.4-.48-3.62l52-7.12 25.44-3.49 23.24-3.18 84.76-11.62Z" style="fill:url(#Ѕезым_нный_градиент_2-99);mix-blend-mode:multiply"/><path d="m1357.38 745.86-47 11.85c-.51-2-1-4-1.56-6-.44-1.76-.92-3.49-1.39-5.22l-21.35 5.86c.48 1.66.92 3.32 1.36 5 .51 1.93 1 3.86 1.49 5.76l-26.49 6.64-4.54 1.15c-.44-1.79-.92-3.59-1.43-5.38-.37-1.56-.78-3.12-1.25-4.68q-6-22-14.09-43.47l-25.34 9.56q7.62 20.28 13.31 41.06c.41 1.49.81 2.95 1.15 4.44.48 1.69.92 3.39 1.36 5.08L1189.85 788 779.7 891.2l392.5-157.57 69.42-27.85 25.3-10.16 20.64-8.3 45-18.06c1 2.37 1.9 4.74 2.82 7.12a593.31 593.31 0 0 1 18.83 57.35q.81 2.8 1.53 5.66c.56 2.13 1.1 4.3 1.64 6.47Z" style="fill:url(#Ѕезым_нный_градиент_2-100);mix-blend-mode:multiply"/><path d="m1459.9 720.07-51 12.84-22.6 5.7-7 1.72-18.12 4.58c-.55-2.17-1.12-4.37-1.7-6.54-.47-1.9-1-3.8-1.52-5.73q-8.09-29.31-19-57.69a705.6 705.6 0 0 0-2.82-7.15l17.42-7 14.26-5.73 14.06-5.62 11.42-4.61h.14l37.19-14.94 26.87 82.67Z" style="fill:url(#Ѕезым_нный_градиент_2-101);mix-blend-mode:multiply"/><path d="M1231.59 777.5c.81 3.35 1.62 6.71 2.37 10.06l-41.91 9.56L779.7 891.2l409-107.8 41.53-11c.48 1.71.92 3.41 1.36 5.1Z" style="fill:url(#Ѕезым_нный_градиент_2-102);mix-blend-mode:multiply"/><path d="m1360.46 758.7-47.29 10.8-21.51 4.92-26.66 6.06-4.57 1q-1.22-5.34-2.54-10.64c-.44-1.79-.92-3.59-1.43-5.38l4.58-1.19 26.39-7c.51 1.93 1 3.86 1.49 5.76l21.45-5.39c-.51-2-1-4-1.56-6l46.89-12.37c.61 2.17 1.15 4.34 1.69 6.51 1.08 4.35 2.09 8.61 3.07 12.92Z" style="fill:url(#Ѕезым_нный_градиент_2-103);mix-blend-mode:multiply"/><path d="m1471.25 733.42-59 13.45-23.31 5.36-6.4 1.45-18.23 4.14c-1-4.31-2-8.61-3.08-12.91-.55-2.17-1.12-4.37-1.7-6.54l18.09-4.78 7.39-2 22.09-5.83 50.41-13.28 8.13-2.14Z" style="fill:url(#Ѕезым_нный_градиент_2-104);mix-blend-mode:multiply"/><path d="m1148.31 683.79 65.22-36.69c6.27 11.14 12.09 22.53 17.48 34.08 1.12 2.44 2.24 4.88 3.32 7.35L1166 719 779.7 891.2l366.37-211.27c.78 1.28 1.5 2.57 2.24 3.86Z" style="fill:url(#Ѕезым_нный_градиент_2-105);opacity:.42;mix-blend-mode:multiply"/><path d="m1495.81 572-112.14 50h-.07l-11.24 5-13.83 6.13q-2.08-4.73-4.27-9.35-7.56-16.37-16.12-32.22-3-5.6-6.1-11.15l-13.42 7.59c2 3.59 4 7.21 6 10.84q8.28 15.49 15.72 31.47c1.39 3 2.78 6.07 4.13 9.12l-17.17 7.65-3.49 1.56-44.25 19.75-20.33 9c-1.15-2.61-2.3-5.18-3.52-7.76-.31-.68-.61-1.32-.92-2l-1.52.71q-8.13-17.28-17.38-33.88l-22.36 12.57c-.88-1.53-1.73-3.05-2.61-4.58l22.19-12.8 1.46-.85 16.43-9.45 2.85 5 45.06-25.34c-1-1.83-2.07-3.66-3.12-5.49l3.32-1.9 16.26-9.38 13.35-7.69 23.82-13.76 22.12-12.74 84.22-48.58Z" style="fill:url(#Ѕезым_нный_градиент_2-106);opacity:.42;mix-blend-mode:multiply"/><path d="m1253.85 624.4-16.57 9.32-1.39.81-22.36 12.57c-.88-1.53-1.73-3.05-2.61-4.58-2.44-4.2-4.91-8.4-7.49-12.53-.81-1.32-1.62-2.64-2.5-4l21.75-13.68 1.35-.85 12.47-7.86 3.62-2.27c3.76 6 7.39 12 10.88 18.06Z" style="fill:url(#Ѕезым_нный_градиент_2-107);mix-blend-mode:multiply"/><path d="m1378.39 554.34-22.4 12.6-24 13.48-13.37 7.58-16.36 9.21-3.35 1.87c-1-1.83-2.07-3.66-3.12-5.49q-5.74-10-11.89-19.75l3.22-2 15.92-10 13-8.2 23.24-14.64 21.72-13.77 13.62 22.87Z" style="fill:url(#Ѕезым_нный_градиент_2-108);mix-blend-mode:multiply"/><path d="m1393.4 644.79-3.05-7.18v-.07l-4.06-9.58-.38-.85-2.2-5.15-4.2-9.89-.3.13-11.21 5.22-13.73 6.37q2.19 4.62 4.27 9.35l-14.06 6.27c-1.35-3-2.74-6.1-4.13-9.12l-17.08 7.93-3.45 1.63-43.94 20.43-20.16 9.38c1.22 2.58 2.37 5.15 3.52 7.76 2.71 6 5.25 12.06 7.69 18.16l-25.3 10.16q-3.46-8.68-7.29-17.21c-1.08-2.47-2.2-4.91-3.32-7.35l-67.86 31.58L779.7 891.2l394.46-152.56 69.79-27 25.45-9.86 20.73-8 45.2-17.48c-.92-2.38-1.87-4.75-2.82-7.12-2.77-6.91-5.65-13.79-8.7-20.6l3.49-1.56c3.08 6.88 6 13.79 8.8 20.74 1 2.37 1.9 4.78 2.82 7.15l17.51-6.78 14.37-5.56 14.09-5.45 11.49-4.44.34-.13Z" style="fill:url(#Ѕезым_нный_градиент_2-109);mix-blend-mode:multiply"/><path d="M1243.72 849.32c.23 3 .47 6 .67 9l-42.79 3-421.9 29.88 419.87-51 42.62-5.14c.2 1.55.37 3.11.58 4.67.34 3.27.64 6.41.95 9.59Z" style="fill:url(#Ѕезым_нный_градиент_2-110);mix-blend-mode:multiply"/><path d="m1303.51 854.1-2.23.17-25 1.76-4.81.34c-.2-3.15-.44-6.33-.71-9.48-.34-3.39-.65-6.75-1-10.1-.2-1.66-.37-3.32-.61-5l4.78-.58L1301 828l.61 5.28c.27 2.61.54 5.25.81 7.86.1.95.17 1.93.27 2.88.31 3.34.59 6.69.82 10.08Z" style="fill:url(#Ѕезым_нный_градиент_2-111);mix-blend-mode:multiply"/><path d="m1455.63 843.33-28.8 2-49 3.49-52.37 3.69c-.24-3.52-.51-7-.85-10.53-.34-3.76-.71-7.49-1.12-11.22-.2-1.83-.4-3.66-.64-5.49L1375 819l26.13-3.15 22.66-2.75 28.63-3.49 2 20.7Z" style="fill:url(#Ѕезым_нный_градиент_2-112);mix-blend-mode:multiply"/><path d="M1245.07 870c.31 7 .48 14.09.48 21.17 0 6.81-.14 13.62-.45 20.39l-42.85-1.86-422.55-18.5 422.55-19.2Z" style="fill:url(#Ѕезым_нный_градиент_2-113);mix-blend-mode:multiply"/><path d="m1348.64 916.13-22.33-1-3.76-.17-18.26-.78-2.37-.1-24.87-1.08-4.88-.2c.31-7.18.48-14.36.48-21.58 0-7.49-.17-14.94-.51-22.39l4.85-.24 25-1.12 2.3-.1 18.33-.85 3.69-.17 22.3-1Z" style="fill:url(#Ѕезым_нный_градиент_2-114);mix-blend-mode:multiply"/><path d="M1242.19 835.1c.2 1.55.37 3.11.58 4.67l-42.69 4.74L779.7 891.2l407.88-111.84 41.5-11.38c.41 1.49.81 2.95 1.15 4.44.48 1.69.92 3.39 1.36 5.08.81 3.35 1.62 6.71 2.37 10.06.51 2.07 1 4.14 1.35 6.2a444.94 444.94 0 0 1 6 34.19c.14 1 .27 2.06.41 3.11.17 1.36.34 2.68.47 4.04Z" style="fill:url(#Ѕезым_нный_градиент_2-115);mix-blend-mode:multiply"/><path d="m1402.27 822.05-26.59 3-52.14 5.79c-.2-1.83-.4-3.66-.64-5.49-.17-1.55-.37-3.15-.61-4.74-.14-1.22-.31-2.4-.48-3.62q-2.74-20.24-7-40.19l-21.55 4.65q4.11 19.1 6.78 38.52c.16 1.15.3 2.3.47 3.49.2 1.49.37 3 .58 4.54l.61 5.28-27.18 3-4.74.54c-.2-1.66-.37-3.32-.61-5-.13-1.42-.3-2.85-.54-4.24-.1-1.11-.24-2.2-.41-3.28q-2.43-18.25-6.3-36.19c-.44-2.2-.91-4.34-1.42-6.54q-1.22-5.34-2.54-10.64c-.44-1.79-.92-3.59-1.43-5.38-.37-1.56-.78-3.12-1.25-4.68l4.54-1.25 26.32-7.22c.48 1.66.92 3.32 1.36 5 .51 1.93 1 3.86 1.49 5.76l21.45-5.39c-.51-2-1-4-1.56-6-.44-1.76-.92-3.49-1.39-5.22l46.75-12.81q.81 2.8 1.53 5.66c.61 2.17 1.15 4.34 1.69 6.51 1.09 4.27 2.1 8.53 3.08 12.84.61 2.64 1.19 5.28 1.77 7.92q3.66 17.28 6.37 34.83l3.89-.61q-2.68-17.62-6.44-35c-.57-2.67-1.15-5.32-1.76-8-1-4.31-2-8.61-3.08-12.91-.55-2.17-1.12-4.37-1.7-6.54-.47-1.9-1-3.8-1.52-5.73l18-4.94 7.83-2.14 1.15 6.07 1.35 7 2.61 13.62 1.6 8.33 8.36 43.74.38 2 1.83 9.49Z" style="fill:url(#Ѕезым_нный_градиент_2-116);mix-blend-mode:multiply"/><path d="M1229.72 1011.44q-3.4 12.75-7.55 25.31L779.7 891.2Z" style="fill:url(#Ѕезым_нный_градиент_2-117);mix-blend-mode:multiply"/><path d="m1645.36 1122.49-14.5 48.69-223-73.35-11.66-3.83-14.43-4.77-14.67-4.82-17.65-5.79-3.83-1.29-46-15.11-4.1-1.35-16.91-5.56-2.71-.88-28-9.21q4.41-13.28 8-26.77l28.53 7.62 2.64.72 17.28 4.6 4.1 1.09 46.79 12.5 3.86 1 18 4.78 15 4 14.61 3.93 11.89 3.19Z" style="fill:url(#Ѕезым_нный_градиент_2-118);mix-blend-mode:multiply"/><path d="M1219.19 1045.52c-1.93 5.59-4 11.11-6.17 16.57L779.7 891.2Z" style="fill:url(#Ѕезым_нный_градиент_2-119);mix-blend-mode:multiply"/><path d="m1453.5 1127.81-9.46 25.38-49.26-19.41-25.54-10.1-14.37-5.66-17.21-6.77-3.83-1.53-49-19.34-16.43-6.47-2.75-1.09-27.31-10.77c2.27-5.8 4.47-11.62 6.51-17.52l27.78 9.73 2.71.94 16.73 5.9 4.1 1.42 45.64 16 3.86 1.39 17.48 6.13 14.61 5.11 14.33 5 11.55 4Z" style="fill:url(#Ѕезым_нный_градиент_2-120);mix-blend-mode:multiply"/><path d="M1210.55 1068.29c-5.59 13.62-11.83 27-18.74 40L779.7 891.2Z" style="fill:url(#Ѕезым_нный_градиент_2-121);mix-blend-mode:multiply"/><path d="m1473.11 1176.23-30.11 64.44-78.36-41.27-24.29-12.84-13.62-7.15-16.4-8.64-3.62-1.93-46.76-24.63-15.55-8.2-2.67-1.39-25.93-13.62q10.92-20.68 19.82-42.35l27.17 11.15 2.71 1.12 16.36 6.7 48.79 20.06 3.79 1.59 17.11 7 14.3 5.89 25.38 10.44Z" style="fill:url(#Ѕезым_нный_градиент_2-122);mix-blend-mode:multiply"/><path d="M1187.81 1115.85q-4.92 8.89-10.19 17.59s0 .07-.07.1L779.7 891.2Z" style="fill:url(#Ѕезым_нный_градиент_2-123);mix-blend-mode:multiply"/><path d="m1252.66 1151.53-11.82 20.39-.07.14-12.5-7.62-2.61-1.59-25-15.18a.31.31 0 0 0 .07-.14c3.76-6.13 7.35-12.36 10.8-18.63l25.62 14.13 2.64 1.45Z" style="fill:url(#Ѕезым_нный_градиент_2-124);mix-blend-mode:multiply"/><path d="M1033.22 500.33q13.77 8.9 26.87 18.81l-25.78 34.18L779.7 891.2 1022 493.29c1.36.81 2.68 1.62 4 2.47 2.48 1.49 4.85 3.01 7.22 4.57Z" style="fill:url(#Ѕезым_нный_градиент_2-125);mix-blend-mode:multiply"/><path d="m1213.16 316-35.51 47.1-7.45 9.9-9.08 12-9.32 12.37-13.62 18-29.18 38.82-1.79 2.4-12.44 16.47-15.45 20.5-2.95 3.93Q1062.52 487 1048 477.57c-2.51-1.63-5-3.22-7.52-4.82-1.42-.88-2.88-1.76-4.34-2.6l16-26.19 10.74-17.61 1.52-2.51 15.25-25 29.75-48.85 7.86-12.91 6.43-10.54 30.7-50.41Z" style="fill:url(#Ѕезым_нный_градиент_2-126);mix-blend-mode:multiply"/><path d="M1022 493.29c1.36.81 2.68 1.62 4 2.47L779.7 891.2l210.66-415.57c2.85 1.43 5.66 2.92 8.47 4.41q5.24 2.74 10.37 5.69c4.3 2.44 8.61 4.95 12.8 7.56Z" style="fill:url(#Ѕезым_нный_градиент_2-127);mix-blend-mode:multiply"/><path d="m1084.72 401.68-15.62 25.07-1.56 2.5-10.91 17.48-16.19 26c-1.42-.88-2.88-1.76-4.34-2.6-4.47-2.74-9-5.39-13.55-8-3.62-2.07-7.28-4.07-10.94-6-3-1.59-6-3.15-9-4.68L1013 431l3.53-6.94 9.31-18.4 1.32-2.57 9.8-19.38 3.55-7 39.1 22Z" style="fill:url(#Ѕезым_нный_градиент_2-128);mix-blend-mode:multiply"/><path d="m1022.55 435.55-10.94 20.57c-3-1.59-6-3.15-9-4.68q-9.55-4.87-19.28-9.25l-11.18 24.7q9.24 4.17 18.22 8.74c2.85 1.43 5.66 2.92 8.47 4.41L779.7 891.2l177.67-430.74 10.33-25 8.88-21.55 4.33 2.07 11.83 5.55L1013 431Z" style="fill:url(#Ѕезым_нный_градиент_2-129);mix-blend-mode:multiply"/><path style="fill:url(#Ѕезым_нный_градиент_2-130);mix-blend-mode:multiply" d="m779.7 891.2 199.51-565.92 28.49 10.87-228 555.05z"/><path d="M600.89 299.09q-22.07 6.6-43.57 14.94l-2.2-5.69-.31-.78 41.77-14.16 2.34-.82 4-1.35 2 6.64c-1.36.4-2.71.78-4.03 1.22Z" style="fill:url(#Ѕезым_нный_градиент_2-131);mix-blend-mode:multiply"/><path class="cls-65" d="M626 369.35c-1.19.34-2.34.68-3.53 1q-19.41 5.85-38.35 13.15l-1.18-3.08-17.45-45.3q20.73-8 42-14.43c1.32-.41 2.6-.78 3.89-1.15L625 366.2Z"/><path d="M779.7 891.2 627.62 496.5l-26.9-69.86-9.22-23.85-.74-1.93q18.29-7.07 37-12.74c1.15-.34 2.27-.67 3.42-1l.57 2 7.25 24.51 21.18 71.76Z" style="fill:url(#Ѕезым_нный_градиент_2-133);mix-blend-mode:multiply"/><path d="M610.07 296.38c-1.73.47-3.46 1-5.15 1.49-1.36.4-2.71.78-4 1.22l-2-6.51-2.44-8.06-4.37-14.52-3.56-11.75-21.14-70 32.66-9L614 234.38l4 15.68 3 12 3.69 14.64 3.73 14.77c-4.14 1.05-8.2 2.14-12.3 3.25-2.05.51-4.05 1.08-6.05 1.66Z" style="fill:url(#Ѕезым_нный_градиент_2-134);mix-blend-mode:multiply"/><path d="M646.62 363.73c-3.62.88-7.21 1.83-10.8 2.81-1.8.48-3.56 1-5.32 1.49l-4.5 1.32c-1.19.34-2.34.68-3.53 1l-.94-3.15-14.06-46.51c1.32-.41 2.6-.78 3.89-1.15 1.66-.51 3.32-1 4.95-1.46 1.93-.54 3.89-1.09 5.82-1.59 3.94-1.12 7.9-2.14 11.86-3.15l11.89 47.19Z" style="fill:url(#Ѕезым_нный_градиент_2-135);mix-blend-mode:multiply"/><path d="m657.43 486.27-21.65-71.62-7.38-24.46-.61-2c1.15-.34 2.27-.67 3.42-1 1.46-.44 2.91-.88 4.4-1.25 1.7-.54 3.39-1 5.12-1.46 3.45-.95 6.94-1.86 10.43-2.74l.51 2 6.27 24.79 18.29 72.57L779.7 891.2Z" style="fill:url(#Ѕезым_нный_градиент_2-136);mix-blend-mode:multiply"/><path d="M508.56 335.27q-20.07 9.76-39.46 21c-2.27 1.32-4.54 2.68-6.81 4l-7.83-13.08-7.83-13.11-6.26-10.47v-.06l-20.6-34.42 53.16-27.07 24.33-12.4 7-3.6 15.79 37 4.81 11.24 6 14 3.26 7.59 2.74 6.43c-2.13.88-4.27 1.83-6.4 2.78-1.87.78-3.73 1.63-5.56 2.47-5.53 2.48-10.9 5.06-16.34 7.7Z" style="fill:url(#Ѕезым_нный_градиент_2-137);mix-blend-mode:multiply"/><path d="m779.7 891.2-217.06-363-22-36.86L526.69 468l-2.47-4-25.45-42.56-24.86-41.6c2.16-1.36 4.37-2.64 6.57-3.9 12.43-7.25 25.14-14 38-20.29l3.59-1.76c4-1.9 8.07-3.8 12.1-5.63 1.76-.81 3.56-1.59 5.35-2.37 2-.91 4.1-1.79 6.17-2.67l19.07 44.65 1.32 3.08q-2.83 1.17-5.62 2.44c-1.66.71-3.29 1.42-4.91 2.17l7.65 16.94c1.56-.75 3.15-1.42 4.75-2.1 1.79-.85 3.59-1.63 5.42-2.37l.81 1.89 10 23.52 29.37 68.81Z" style="fill:url(#Ѕезым_нный_градиент_2-138);mix-blend-mode:multiply"/><path d="M549.46 317.11c-4.24 1.7-8.44 3.42-12.64 5.25-2.13.88-4.27 1.83-6.4 2.78l-3-6.81-3.16-7.15-6.13-13.92-4.94-11.18-16-36.35-3.36-7.73 21.85-9.19 17.89 44.66 4.57 11.35L543.8 303l3.32 8.24Z" style="fill:url(#Ѕезым_нный_градиент_2-139);mix-blend-mode:multiply"/><path d="M577.2 386.26c-3.72 1.49-7.42 3.05-11.11 4.64q-2.83 1.17-5.62 2.44l-1.36-3.08-19.58-44.42c2-.91 4.1-1.79 6.17-2.67 4-1.73 8.09-3.43 12.19-5.05L576 383.18Z" style="fill:url(#Ѕезым_нный_градиент_2-140);mix-blend-mode:multiply"/><path d="M779.7 891.2 609.22 504.09l-30.15-68.54-10.3-23.34-.81-1.86c1.79-.85 3.59-1.63 5.42-2.37 3.55-1.56 7.14-3.05 10.74-4.48l.78 1.9 9.52 23.75 27.84 69.45Z" style="fill:url(#Ѕезым_нный_градиент_2-141);mix-blend-mode:multiply"/><path style="fill:url(#Ѕезым_нный_градиент_2-142);mix-blend-mode:multiply" d="M779.7 891.2 327.29 374.27l26.03-21.67L779.7 891.2z"/><path d="M455 364.75q-6.32 3.86-12.47 7.89c-2.81 1.83-5.59 3.66-8.34 5.56l-17.07-25.35-6.81-10.13-.17-.23 9.11-5.69 1.63-1.05 11.72-7.32 2.71-1.7.54-.34 4.44-2.77 7.18-4.51.17.27 6.1 10.54 7.69 13.21 7.63 13.18c-2.27 1.32-4.54 2.68-6.81 4-2.4 1.49-4.81 2.95-7.25 4.44Z" style="fill:url(#Ѕезым_нный_градиент_2-143);mix-blend-mode:multiply"/><path d="M616.1 294.68c-2 .55-4 1.12-6 1.7l-2-7.12-2.14-7.55-4.17-14.57-3.35-11.82-4.51-15.76 20.07-5.18 12.67-3.29 3.69 16 6.2 26.73 3.44 14.83c-2.65.58-5.25 1.22-7.86 1.87l-3.76.91a852.15 852.15 0 0 0-12.28 3.25Z" style="fill:url(#Ѕезым_нный_градиент_2-144);mix-blend-mode:multiply"/><path d="M656.86 361.22c-3.43.78-6.85 1.63-10.24 2.51-3.62.88-7.21 1.83-10.8 2.81-1.8.48-3.56 1-5.32 1.49l-.88-3.15-13.35-46.75c1.93-.54 3.89-1.09 5.82-1.59 3.94-1.12 7.9-2.14 11.86-3.15 1.19-.31 2.37-.58 3.59-.89 2.51-.61 5.05-1.22 7.59-1.79Z" style="fill:url(#Ѕезым_нный_градиент_2-145);mix-blend-mode:multiply"/><path d="m779.7 891.2-116-406.79-20.53-72-7-24.56-.54-2c1.7-.54 3.39-1 5.12-1.46 3.45-.95 6.94-1.86 10.43-2.74 3.26-.82 6.58-1.63 9.86-2.38l.48 2 5.76 24.94 16.9 72.87Z" style="fill:url(#Ѕезым_нный_градиент_2-146);mix-blend-mode:multiply"/><path d="M718.21 350.65q-24.19 2.75-48 7.66l-5.12-25 50.21-8Z" style="fill:url(#Ѕезым_нный_градиент_2-147);mix-blend-mode:multiply"/><path d="m779.7 891.2-85.1-414.35-15.05-73.31-5.15-25-.4-2q22.92-4.67 46.31-7.28l.24 1.9 2.88 25.44 8.47 74.36Z" style="fill:url(#Ѕезым_нный_градиент_2-148);mix-blend-mode:multiply"/><path d="M536.82 322.36c-2.13.88-4.27 1.83-6.4 2.78-1.87.78-3.73 1.63-5.56 2.47l-3.25-7.18 5.83-2.1 6.64-2.4 13-4.71 8-2.88 41.46-14.94 2.34-.85 9.12-3.29 6-2.17 2.07 7.59c-2 .55-4 1.12-6 1.7-1.73.47-3.46 1-5.15 1.49-1.36.4-2.71.78-4 1.22q-22.07 6.6-43.57 14.94c-2.61 1-5.25 2-7.86 3.08-4.27 1.7-8.49 3.42-12.67 5.25Z" style="fill:url(#Ѕезым_нный_градиент_2-149);mix-blend-mode:multiply"/><path d="M635.82 366.54c-1.8.48-3.56 1-5.32 1.49l-4.5 1.32c-1.19.34-2.34.68-3.53 1q-19.41 5.85-38.35 13.15c-2.3.91-4.61 1.8-6.88 2.71-3.72 1.49-7.42 3.05-11.11 4.64q-2.83 1.17-5.62 2.44c-1.66.71-3.29 1.42-4.91 2.17l-1.39-3.05-20-44.25c1.76-.81 3.56-1.59 5.35-2.37 2-.91 4.1-1.79 6.17-2.67 4-1.73 8.09-3.43 12.19-5.05 2.51-1 5-2 7.56-2.95q20.73-8 42-14.43c1.32-.41 2.6-.78 3.89-1.15 1.66-.51 3.32-1 4.95-1.46 1.93-.54 3.89-1.09 5.82-1.59L635 363.43Z" style="fill:url(#Ѕезым_нный_градиент_2-150);mix-blend-mode:multiply"/><path d="M779.7 891.2 605.43 505.79l-30.83-68.2-10.54-23.28-.85-1.86c1.56-.75 3.15-1.42 4.75-2.1 1.79-.85 3.59-1.63 5.42-2.37 3.55-1.56 7.14-3.05 10.74-4.48 2.2-.91 4.4-1.76 6.64-2.64q18.29-7.07 37-12.74c1.15-.34 2.27-.67 3.42-1 1.46-.44 2.91-.88 4.4-1.25 1.7-.54 3.39-1 5.12-1.46l.54 2 6.78 24.66 19.78 72.17Z" style="fill:url(#Ѕезым_нный_градиент_2-151);mix-blend-mode:multiply"/><path d="M841.57 298.55q16.77 1.72 33.5 4.47l-7.79 48-3.49 21.55-4.4 27.2-.78 4.78-4.34 26.76-6.88 42.32L779.7 891.2l43.91-420.68 4.47-42.66 2.81-26.93.51-4.84 2.85-27.35 2.27-21.74Z" style="fill:url(#Ѕезым_нный_градиент_2-152);mix-blend-mode:multiply"/><path d="m923.11 6.71-39.57 244-4.84 30-3 18.32q-16.7-2.66-33.7-4.41l1.93-18.57 3.15-30.12L872.74 0Z" style="fill:url(#Ѕезым_нный_градиент_2-153);mix-blend-mode:multiply"/><path style="fill:url(#Ѕезым_нный_градиент_2-154);mix-blend-mode:multiply" d="m934.57 194.06-14.17 63.69-5.01 22.6-1.56 7.12h-.03l-4 18.09-.88 4-10.57 47.46-4.71 21.31-6 26.9-1.01 4.68-5.9 26.46-9.32 41.94L779.7 891.2l75.96-416.07 7.72-42.22 4.85-26.66.88-4.74 4.95-27.11 3.93-21.48 8.74-47.87.71-4 3.35-18.26 5.46-29.88 11.72-64.23 26.6 5.38z"/><path style="fill:url(#Ѕезым_нный_градиент_2-155);mix-blend-mode:multiply" d="m779.7 891.2 173.04-729.47 68.37 19.69L779.7 891.2z"/><path style="fill:url(#Ѕезым_нный_градиент_2-156);mix-blend-mode:multiply" d="m779.7 891.2 183.16-507.85 22.13 8.54L779.7 891.2z"/><path d="M206.66 586.49a639.11 639.11 0 0 0-27.23 58.07l-11.29-4.64-54.64-22.47 30.28-64.4 52.15 27.75Z" style="fill:url(#Ѕезым_нный_градиент_2-157);mix-blend-mode:multiply"/><path d="M249.93 609.49q-13.93 26.18-25.24 53.67l-16.94-7-14.2-5.83q5.08-12.5 10.78-24.77c5-10.84 10.26-21.47 15.85-31.91l13.62 7.25Z" style="fill:url(#Ѕезым_нный_градиент_2-158);mix-blend-mode:multiply"/><path d="m325.68 699.17 24.94 10.54c-.61 1.45-1.25 2.94-1.83 4.44q-2.85 6.85-5.46 13.85c-1.38 3.69-2.71 7.38-4 11.11-1.08 3-2.07 6.07-3.05 9.11l-25.78-8.33-4.64-1.49-17.21-5.56-6.24-2-19.65-6.33-4-1.29-20.6-6.64-7.45-2.4L243 681.49l3.49-9.42 2.07-5.56L275.61 678l3.76 1.63 16.33 6.88 2.68 1.15 22.8 9.62Z" style="fill:url(#Ѕезым_нный_градиент_2-159);mix-blend-mode:multiply"/><path d="M779.7 891.2 377.11 761.34c.88-2.74 1.8-5.52 2.78-8.27q1.73-5 3.59-10.06c1.56-4.2 3.22-8.4 4.95-12.57.54-1.35 1.08-2.71 1.66-4Z" style="fill:url(#Ѕезым_нный_градиент_2-160);mix-blend-mode:multiply"/><path d="m313.76 730.24 25.61 8.84c-1.08 3-2.07 6.07-3.05 9.11-2.06 6.41-4 12.84-5.79 19.35-1 3.76-2 7.55-3 11.35-.34 1.39-.68 2.81-1 4.23l-26.32-6.3-4.78-1.12-18-4.3 1.35-4.61 3.63-12.5 6.27-21.48 3-10.19 17.48 6Z" style="fill:url(#Ѕезым_нный_градиент_2-161);mix-blend-mode:multiply"/><path d="m779.7 891.2-411.46-98.15c.3-1.29.61-2.54.91-3.83.88-3.42 1.76-6.88 2.75-10.3 1.59-5.89 3.35-11.75 5.21-17.58.88-2.74 1.8-5.52 2.78-8.27Z" style="fill:url(#Ѕезым_нный_градиент_2-162);mix-blend-mode:multiply"/><path d="m300 777.53 26.35 6.24c-.3 1.29-.6 2.57-.91 3.86-.71 3.12-1.39 6.23-2 9.38-.31 1.56-.65 3.09-.92 4.65-.27 1.32-.54 2.64-.74 4a8.72 8.72 0 0 0-.24 1.32l-26.66-4.88-4.81-.88-24.07-4.48-20.27-3.74-52-9.59-4.13-.75.33-1.69 1.09-5.12 1.25-5.93 2.54-12.09 1-5 4.1 1L251.35 766l20.06 4.78 23.85 5.66Z" style="fill:url(#Ѕезым_нный_градиент_2-163);mix-blend-mode:multiply"/><path d="m779.7 891.2-416-76.5c.06-.41.13-.81.2-1.19.24-1.22.47-2.44.71-3.62.27-1.39.54-2.81.81-4.2.61-2.85 1.22-5.66 1.87-8.51.27-1.18.54-2.33.81-3.52Z" style="fill:url(#Ѕезым_нный_градиент_2-164);mix-blend-mode:multiply"/><path style="fill:url(#Ѕезым_нный_градиент_2-165);mix-blend-mode:multiply" d="m779.7 891.2-541.26 313.42-23.66-44.98L779.7 891.2z"/><path style="fill:url(#Ѕезым_нный_градиент_2-166);mix-blend-mode:multiply" d="m779.7 891.2-380.84 184.1-67.35 32.56-21.61 10.47-3.26 1.56-15.31 7.42-4.37 2.1-47.43 22.93-22.8 11.01-7.9 3.83-13.41 6.47-11.32 5.49-65.56 31.68-14.02-30.83 66.94-28.63 11.52-4.95 13.76-5.86 31.34-13.41 48.41-20.7 20.09-8.61 25.44-10.88 68.78-29.4L779.7 891.2z"/><path d="m401.3 1207.36-3.62 3-18.26 15.24-2.88 2.41-13 10.84-3.82 3.19-40.42 33.77-26.26 21.92-11.35 9.46-9.76 8.16-30.55 25.55-35.07-48.28-16-22.06-4.67-6.44 33.73-21.12 10.71-6.71 12.56-7.89 29-18.2 44.59-28 4.13-2.61 14.4-9 3.08-1.93 20.3-12.77 4-2.51c1 1.59 2 3.15 3 4.71 3.49 5.39 7 10.7 10.67 15.92q12.07 17.31 25.49 33.35Z" style="fill:url(#Ѕезым_нный_градиент_2-167);mix-blend-mode:multiply"/><path d="m779.7 891.2-324.56 271.17-33.07 27.63q-12.66-15.2-24.05-31.54c-3.49-5-6.85-10-10.1-15.08-.95-1.45-1.9-2.91-2.85-4.4l36.42-22.87Z" style="fill:url(#Ѕезым_нный_градиент_2-168);mix-blend-mode:multiply"/><path d="m365.12 1158.07-4 2.57-20.16 13-3 2-14.29 9.19-4.1 2.64-44.28 28.49-28.73 18.5-12.47 8-10.64 6.84-33.07 21.31-7.08 4.54-12.55-20.15 41-24.49 10.84-6.44 12.78-7.66 29.34-17.51 45.16-27 4.2-2.54 14.57-8.71 3.12-1.86 20.6-12.3 4.1-2.44c1.86 3.15 3.76 6.24 5.69 9.32.97 1.63 1.99 3.14 2.97 4.7Z" style="fill:url(#Ѕезым_нный_градиент_2-169);mix-blend-mode:multiply"/><path d="M779.7 891.2 424 1120.12l-36.12 23.24c-.95-1.45-1.9-2.91-2.85-4.4-1.79-2.91-3.59-5.83-5.35-8.81l36.9-22.05Z" style="fill:url(#Ѕезым_нный_градиент_2-170);mix-blend-mode:multiply"/></g></g></g></svg>