<svg width="55" height="54" viewBox="0 0 55 54" fill="none" xmlns="http://www.w3.org/2000/svg">
<g clip-path="url(#clip0_1231_10399)">
<rect width="55" height="54" fill="#851025"/>
<path d="M38.8348 2.23934C36.2465 27.1207 8.99725 35.7803 -4.30383 37L-7 15.046L-1.60767 0.409835C12.9516 -9.34754 41.4231 -22.642 38.8348 2.23934Z" fill="#A91933"/>
<path d="M18 -2C19.5617 -2 20.5526 -1.02769 21.1196 0.345467C22.6877 4.14344 20.2024 8.19688 17.7064 11.4609C15.931 13.7825 13.5971 15.6173 10.922 16.7943L3.35373 20.1244C2.7945 20.3704 2.18022 20.4645 1.57299 20.397C-0.379551 20.18 -1.76278 18.3869 -1.47695 16.4433L0.5 3C4.83333 1.33333 14.4 -2 18 -2Z" fill="#B91E3A"/>
</g>
<defs>
<clipPath id="clip0_1231_10399">
<rect width="55" height="54" rx="10" fill="white"/>
</clipPath>
</defs>
</svg>
