<svg width="40" height="24" fill="none" xmlns="http://www.w3.org/2000/svg"><g clip-path="url(#a)" filter="url(#b)"><path d="M31.45 5.65c0 .124-.046.241-.129.328a.433.433 0 0 1-.313.136.433.433 0 0 1-.313-.136.474.474 0 0 1-.13-.327V3.15c0-.123.047-.241.13-.328a.433.433 0 0 1 .313-.135c.117 0 .23.048.313.135.083.087.13.205.13.328v2.5Zm0 4.354c0 .123-.046.24-.129.328a.433.433 0 0 1-.313.135.433.433 0 0 1-.313-.135.474.474 0 0 1-.13-.328V7.503c0-.123.047-.24.13-.327a.433.433 0 0 1 .313-.136c.117 0 .23.049.313.136.083.086.13.204.13.327v2.501Zm0 4.4c0 .123-.046.241-.129.328a.433.433 0 0 1-.313.136.433.433 0 0 1-.313-.136.474.474 0 0 1-.13-.327v-2.502c0-.123.047-.24.13-.327a.433.433 0 0 1 .313-.136c.117 0 .23.049.313.136.083.087.13.204.13.327v2.502Zm0 4.4c0 .123-.046.241-.129.328a.433.433 0 0 1-.313.136.433.433 0 0 1-.313-.136.474.474 0 0 1-.13-.327v-2.502c0-.122.047-.24.13-.327a.433.433 0 0 1 .313-.136c.117 0 .23.05.313.136.083.087.13.205.13.327v2.502ZM9.392 5.652c0 .123-.047.24-.13.327a.433.433 0 0 1-.313.136.433.433 0 0 1-.313-.136.474.474 0 0 1-.13-.327V3.15c0-.123.047-.241.13-.328a.433.433 0 0 1 .313-.135c.118 0 .23.048.313.135.083.087.13.205.13.328v2.5Zm0 4.353c0 .123-.047.24-.13.328a.433.433 0 0 1-.313.135.433.433 0 0 1-.313-.135.474.474 0 0 1-.13-.328V7.503c0-.123.047-.24.13-.327a.433.433 0 0 1 .313-.136c.118 0 .23.049.313.136.083.086.13.204.13.327v2.501Zm0 4.4c0 .123-.047.241-.13.328a.433.433 0 0 1-.313.136.433.433 0 0 1-.313-.136.474.474 0 0 1-.13-.327v-2.502c0-.123.047-.24.13-.327a.433.433 0 0 1 .313-.136c.118 0 .23.049.313.136.083.087.13.204.13.327v2.502Zm0 4.4c0 .123-.047.241-.13.328a.433.433 0 0 1-.313.136.433.433 0 0 1-.313-.136.474.474 0 0 1-.13-.327v-2.502c0-.122.047-.24.13-.327a.433.433 0 0 1 .313-.136c.118 0 .23.05.313.136.083.087.13.205.13.327v2.502Zm28.262-12.18h.576a1.74 1.74 0 0 0 1.25-.545c.333-.347.52-.818.521-1.308V1.853a1.902 1.902 0 0 0-.52-1.308A1.739 1.739 0 0 0 38.229 0H1.772C1.302.001.852.197.52.544.188.891.001 1.362 0 1.854V4.77c.001.49.189.961.52 1.308a1.74 1.74 0 0 0 1.252.545h.575c.47.001.92.196 1.252.543.332.348.52.818.52 1.309v5.048a1.902 1.902 0 0 1-.52 1.31 1.739 1.739 0 0 1-1.252.543h-.575c-.47.002-.92.197-1.251.544-.332.347-.52.817-.521 1.308v2.919c.001.49.189.961.52 1.308.333.347.783.543 1.252.544H38.23c.47-.002.919-.197 1.25-.544.333-.347.52-.817.521-1.308v-2.919a1.901 1.901 0 0 0-.52-1.307 1.738 1.738 0 0 0-1.251-.545h-.576a1.74 1.74 0 0 1-1.252-.544 1.902 1.902 0 0 1-.52-1.309V8.476c0-.491.188-.961.52-1.308a1.74 1.74 0 0 1 1.252-.544Z" fill="#F8F6D0"/><path d="M0 17.23v-.093a1.847 1.847 0 0 1 .352-1.112c.233-.319.561-.547.933-.648-.039.036-.075.071-.11.115a1.79 1.79 0 0 0-.849.675c-.21.311-.324.682-.326 1.062Z" fill="#F8F6D0"/><path d="M38.229 21.907H1.772a1.739 1.739 0 0 1-1.251-.543A1.901 1.901 0 0 1 0 20.055V17.23c.001-.381.114-.753.325-1.065.21-.312.507-.549.85-.678a1.777 1.777 0 0 0-.38.586c-.087.22-.132.456-.13.694v2.919c.001.49.188.96.52 1.308.332.347.782.543 1.251.544h36.456c.166-.008.33-.04.488-.093-.319.292-.727.454-1.151.458M3.499 14.914c.229-.206.406-.468.515-.763a1.86 1.86 0 0 1-.492.757l-.023.006ZM0 1.854v-.048A1.847 1.847 0 0 1 .352.694C.585.375.913.147 1.285.047l-.04.038C.884.203.57.439.344.756A1.917 1.917 0 0 0 0 1.853Z" fill="#F8F6D0"/><path d="M3.523 14.908a1.86 1.86 0 0 0 .492-.757c.072-.2.109-.41.11-.623V8.476a1.901 1.901 0 0 0-.522-1.309 1.738 1.738 0 0 0-1.251-.543h-.597A1.75 1.75 0 0 1 .5 6.054 1.915 1.915 0 0 1 0 4.724v-2.87c.001-.396.122-.78.346-1.098C.57.44.884.203 1.244.085a1.79 1.79 0 0 0-.43.61c-.1.233-.15.485-.15.74v2.918c.002.491.189.962.52 1.309.333.347.782.543 1.252.545h.576c.47.001.92.197 1.252.544.332.347.52.818.52 1.309v5.094a1.85 1.85 0 0 1-.344 1.102c-.228.317-.55.546-.917.652Z" fill="#F8F6D0"/><path d="M24.63 15.33c.177 0 .354-.092.53-.323.178-.23.22-.65.22-1.205 0-.601-.045-1.019-.22-1.204-.176-.228-.31-.324-.53-.324-.178 0-.355.092-.532.324-.177.232-.219.648-.219 1.204 0 .603.045 1.02.219 1.205.177.229.31.324.531.324Zm0 1.944a3.212 3.212 0 0 1-1.64-.417 2.945 2.945 0 0 1-1.153-1.204c-.31-.51-.438-1.158-.438-1.899 0-.74.134-1.343.438-1.899.31-.51.665-.927 1.152-1.205a3.212 3.212 0 0 1 1.64-.416 3.332 3.332 0 0 1 1.64.416c.487.278.887.696 1.152 1.205.31.509.442 1.158.442 1.899 0 .74-.132 1.389-.442 1.899a2.948 2.948 0 0 1-1.152 1.204 3.33 3.33 0 0 1-1.64.417Zm-8.815-7.825c.177 0 .354-.093.53-.325.178-.232.22-.648.22-1.204 0-.602-.044-1.018-.22-1.204-.176-.228-.31-.324-.53-.324-.179 0-.356.092-.533.324-.177.232-.219.649-.219 1.204 0 .603.044 1.019.22 1.204.174.185.353.325.532.325Zm-1.108 7.642 8.2-12.552h2.88L17.585 17.09h-2.879Zm1.108-5.743a3.207 3.207 0 0 1-1.64-.418 2.946 2.946 0 0 1-1.153-1.204c-.31-.555-.437-1.158-.437-1.898 0-.741.133-1.344.437-1.9.31-.51.665-.925 1.152-1.204a3.45 3.45 0 0 1 1.64-.417c.571 0 1.134.143 1.64.417a2.96 2.96 0 0 1 1.152 1.205c.31.51.443 1.158.443 1.899 0 .74-.134 1.389-.444 1.898a2.955 2.955 0 0 1-1.152 1.204 3.213 3.213 0 0 1-1.64.418h.002Z" fill="#FF9415"/><path d="M29.119 2.124H11.45v17.6h17.668v-17.6Z" fill="#F8F6D0"/></g><path d="M24.142 17.554a3.212 3.212 0 0 1-1.64-.417 2.95 2.95 0 0 1-1.152-1.204c-.31-.51-.443-1.158-.443-1.899 0-.74.133-1.343.443-1.899.31-.51.665-.927 1.152-1.205a3.212 3.212 0 0 1 1.64-.416 3.326 3.326 0 0 1 1.64.416c.487.277.887.696 1.152 1.205.31.509.438 1.158.438 1.9 0 .74-.134 1.388-.438 1.898a2.95 2.95 0 0 1-1.152 1.204 3.21 3.21 0 0 1-1.64.417Zm0-4.956c-.177 0-.355.093-.532.324-.177.23-.218.65-.218 1.205 0 .602.044 1.018.218 1.204.174.185.355.324.532.324.177 0 .354-.092.531-.324.177-.233.219-.649.219-1.204 0-.603-.045-1.019-.219-1.205-.177-.229-.31-.324-.531-.324Zm-7.044 4.77H14.22l8.195-12.55h2.88l-8.2 12.55m-1.772-5.743a3.2 3.2 0 0 1-1.64-.417 2.952 2.952 0 0 1-1.152-1.204c-.31-.51-.443-1.158-.443-1.899 0-.74.134-1.343.443-1.898.31-.51.665-.926 1.152-1.204a3.44 3.44 0 0 1 1.64-.418c.571 0 1.134.143 1.64.418.489.276.89.694 1.155 1.204.31.51.443 1.158.443 1.898 0 .741-.132 1.39-.443 1.9a2.94 2.94 0 0 1-1.151 1.198 3.089 3.089 0 0 1-1.64.418m0-4.956c-.177 0-.354.093-.532.325-.177.232-.218.648-.218 1.203 0 .603.045 1.019.218 1.204.174.185.398.325.532.325.177 0 .354-.093.531-.325.177-.232.219-.648.219-1.204 0-.602-.045-1.018-.219-1.203-.177-.229-.31-.325-.531-.325Z" fill="#FF9415"/><defs><clipPath id="a"><path fill="#fff" d="M0 0h40v22H0z"/></clipPath><filter id="b" x="0" y="0" width="40" height="24" filterUnits="userSpaceOnUse" color-interpolation-filters="sRGB"><feFlood flood-opacity="0" result="BackgroundImageFix"/><feColorMatrix in="SourceAlpha" values="0 0 0 0 0 0 0 0 0 0 0 0 0 0 0 0 0 0 127 0" result="hardAlpha"/><feOffset dy="2"/><feComposite in2="hardAlpha" operator="out"/><feColorMatrix values="0 0 0 0 0 0 0 0 0 0 0 0 0 0 0 0 0 0 0.25 0"/><feBlend in2="BackgroundImageFix" result="effect1_dropShadow_604_2298"/><feBlend in="SourceGraphic" in2="effect1_dropShadow_604_2298" result="shape"/></filter></defs></svg>