<svg width="30" height="39" fill="none" xmlns="http://www.w3.org/2000/svg"><g clip-path="url(#a)" filter="url(#b)" fill-rule="evenodd" clip-rule="evenodd" fill="#F8F6D0"><path d="M15 26.933c-1.988.002-3.932-.532-5.582-1.535a9.652 9.652 0 0 1-2.707-2.422 8.795 8.795 0 0 1-.926-1.52 8.072 8.072 0 0 1-.789-3.479V3.22a.21.21 0 0 1 .07-.155A.256.256 0 0 1 5.239 3H24.76a.258.258 0 0 1 .17.065c.045.041.07.097.07.155v14.757a8.04 8.04 0 0 1-.791 3.478 9.02 9.02 0 0 1-2.144 2.85 10.195 10.195 0 0 1-3.18 1.926c-1.23.466-2.551.704-3.885.702Zm0-11.107a.26.26 0 0 1 .143.041l2.613 1.706-1.002-2.746a.2.2 0 0 1 0-.137.222.222 0 0 1 .088-.111l2.614-1.692h-3.228a.26.26 0 0 1-.143-.041.221.221 0 0 1-.089-.11l-.995-2.75-.994 2.755a.217.217 0 0 1-.088.11.255.255 0 0 1-.142.04h-3.226l2.613 1.688a.222.222 0 0 1 .09.11.2.2 0 0 1 0 .138l-1.009 2.746 2.614-1.706a.237.237 0 0 1 .142-.041ZM25.69 19.287h-.198a8.48 8.48 0 0 0 .102-1.309v-.194h.102a2.783 2.783 0 0 0 1.862-.686 2.271 2.271 0 0 0 .783-1.674V8.518h-2.748V7.014h3.571c.11 0 .219.018.32.056a.843.843 0 0 1 .272.163.75.75 0 0 1 .181.244c.043.092.064.19.064.29v7.655c0 .517-.117 1.03-.343 1.505a4.031 4.031 0 0 1-1.593 1.716c-.705.42-1.53.643-2.374.643v.001ZM4.507 19.287h-.204c-1.139 0-2.231-.407-3.04-1.132a3.839 3.839 0 0 1-.935-1.25A3.517 3.517 0 0 1 0 15.422V7.769c0-.098.021-.196.063-.287a.75.75 0 0 1 .18-.244.841.841 0 0 1 .27-.163.908.908 0 0 1 .318-.057h3.571V8.52H1.663v6.904c.006.63.287 1.231.783 1.674.496.442 1.166.689 1.862.686h.102v.193c-.001.439.031.876.097 1.31Z"/><path d="M17.54 31.618h-5.083a.26.26 0 0 1-.173-.064.211.211 0 0 1-.072-.155V26.41a.2.2 0 0 1 .027-.099.262.262 0 0 1 .176-.117.274.274 0 0 1 .111.003c1.623.395 3.332.395 4.955 0a.268.268 0 0 1 .212.038c.03.02.053.047.07.078.016.03.025.063.024.097v4.989c0 .029-.006.058-.018.085a.22.22 0 0 1-.054.071.265.265 0 0 1-.174.063ZM21.787 37H8.207a.257.257 0 0 1-.171-.065.21.21 0 0 1-.071-.154v-1.795a.21.21 0 0 1 .07-.155.256.256 0 0 1 .172-.065h.964v-1.574c0-.03.006-.058.018-.085a.22.22 0 0 1 .054-.071.268.268 0 0 1 .173-.064H20.58a.245.245 0 0 1 .173.064.202.202 0 0 1 .071.156v1.573h.962c.065 0 .127.023.172.065a.21.21 0 0 1 .072.155v1.795a.21.21 0 0 1-.071.155.258.258 0 0 1-.172.065Z"/><path d="M18.846 33.412H11.15a.266.266 0 0 1-.172-.064.22.22 0 0 1-.052-.072.202.202 0 0 1-.018-.084v-1.795a.21.21 0 0 1 .07-.155.257.257 0 0 1 .172-.065h7.696a.267.267 0 0 1 .172.064.22.22 0 0 1 .053.072.203.203 0 0 1 .02.084v1.795a.211.211 0 0 1-.073.156.259.259 0 0 1-.172.064Z"/></g><defs><clipPath id="a"><path fill="#fff" d="M0 0h30v37H0z"/></clipPath><filter id="b" x="0" y="0" width="30" height="39" filterUnits="userSpaceOnUse" color-interpolation-filters="sRGB"><feFlood flood-opacity="0" result="BackgroundImageFix"/><feColorMatrix in="SourceAlpha" values="0 0 0 0 0 0 0 0 0 0 0 0 0 0 0 0 0 0 127 0" result="hardAlpha"/><feOffset dy="2"/><feComposite in2="hardAlpha" operator="out"/><feColorMatrix values="0 0 0 0 0 0 0 0 0 0 0 0 0 0 0 0 0 0 0.25 0"/><feBlend in2="BackgroundImageFix" result="effect1_dropShadow_521_3158"/><feBlend in="SourceGraphic" in2="effect1_dropShadow_521_3158" result="shape"/></filter></defs></svg>