<svg width="157" height="157" viewBox="0 0 157 157" fill="none" xmlns="http://www.w3.org/2000/svg">
<rect x="0.5" y="0.5" width="39" height="39" fill="#F4E5A2" stroke="black"/>
<rect x="39.5" y="0.5" width="39" height="39" fill="#F4E5A2" stroke="black"/>
<rect x="78.5" y="0.5" width="39" height="39" fill="#F4E5A2" stroke="black"/>
<rect x="117.5" y="0.5" width="39" height="39" fill="#F4E5A2" stroke="black"/>
<rect x="0.5" y="39.5" width="39" height="39" fill="#8BB4DB" stroke="black"/>
<rect x="39.5" y="39.5" width="39" height="39" fill="#8BB4DB" stroke="black"/>
<rect x="78.5" y="39.5" width="39" height="39" fill="#70C989" stroke="black"/>
<rect x="117.5" y="39.5" width="39" height="39" fill="#70C989" stroke="black"/>
<rect x="0.5" y="78.5" width="39" height="39" fill="#8BB4DB" stroke="black"/>
<rect x="39.5" y="78.5" width="39" height="39" fill="#408ACD"/>
<rect x="39.5" y="78.5" width="39" height="39" fill="black" fill-opacity="0.2"/>
<rect x="39.5" y="78.5" width="39" height="39" stroke="black"/>
<rect x="78.5" y="78.5" width="39" height="39" fill="#408ACD"/>
<rect x="78.5" y="78.5" width="39" height="39" fill="black" fill-opacity="0.2"/>
<rect x="78.5" y="78.5" width="39" height="39" stroke="black"/>
<rect x="117.5" y="78.5" width="39" height="39" fill="#70C989" stroke="black"/>
<rect x="0.5" y="117.5" width="39" height="39" fill="#8BB4DB" stroke="black"/>
<rect x="39.5" y="117.5" width="39" height="39" fill="#408ACD"/>
<rect x="39.5" y="117.5" width="39" height="39" fill="black" fill-opacity="0.2"/>
<rect x="39.5" y="117.5" width="39" height="39" stroke="black"/>
<rect x="78.5" y="117.5" width="39" height="39" fill="#408ACD"/>
<rect x="78.5" y="117.5" width="39" height="39" fill="black" fill-opacity="0.2"/>
<rect x="78.5" y="117.5" width="39" height="39" stroke="black"/>
<rect x="117.5" y="117.5" width="39" height="39" fill="#408ACD"/>
<rect x="117.5" y="117.5" width="39" height="39" fill="black" fill-opacity="0.2"/>
<rect x="117.5" y="117.5" width="39" height="39" stroke="black"/>
<path d="M16.5682 16.2727L18.8182 19.9034H18.8864L21.1364 16.2727H22.3807L19.6364 20.6364L22.3807 25H21.1364L18.8864 21.4375H18.8182L16.5682 25H15.3239L18.1364 20.6364L15.3239 16.2727H16.5682Z" fill="black"/>
<path d="M54.3068 25V24.0284H54.5625C54.9261 24.0284 55.2088 23.9119 55.4105 23.679C55.6122 23.446 55.7571 23.0696 55.8452 22.5497C55.9361 22.0298 55.9972 21.3409 56.0284 20.483L56.1818 16.2727H61.5V25H60.4432V17.2102H57.1875L57.0511 20.6875C57.017 21.6023 56.9332 22.3807 56.7997 23.0227C56.6662 23.6648 56.4318 24.1548 56.0966 24.4929C55.7614 24.831 55.2727 25 54.6307 25H54.3068Z" fill="black"/>
<path d="M94.0568 25V16.2727H99.3239V17.2102H95.1136V20.1591H99.0511V21.0966H95.1136V24.0625H99.392V25H94.0568Z" fill="black"/>
<path d="M133.057 25V16.2727H138.324V17.2102H134.114V19.9375H136.33C136.955 19.9375 137.482 20.0398 137.911 20.2443C138.342 20.4489 138.669 20.7372 138.891 21.1094C139.115 21.4815 139.227 21.9205 139.227 22.4261C139.227 22.9318 139.115 23.3778 138.891 23.7642C138.669 24.1506 138.342 24.4531 137.911 24.6719C137.482 24.8906 136.955 25 136.33 25H133.057ZM134.114 24.0795H136.33C136.727 24.0795 137.064 24 137.339 23.8409C137.618 23.679 137.828 23.4716 137.97 23.2188C138.115 22.9631 138.188 22.6932 138.188 22.4091C138.188 21.9915 138.027 21.6321 137.706 21.331C137.385 21.027 136.926 20.875 136.33 20.875H134.114V24.0795Z" fill="black"/>
<path d="M23.4205 59.6364C23.4205 60.5568 23.2543 61.3523 22.9219 62.0227C22.5895 62.6932 22.1335 63.2102 21.554 63.5739C20.9744 63.9375 20.3125 64.1193 19.5682 64.1193C18.8239 64.1193 18.1619 63.9375 17.5824 63.5739C17.0028 63.2102 16.5469 62.6932 16.2145 62.0227C15.8821 61.3523 15.7159 60.5568 15.7159 59.6364C15.7159 58.7159 15.8821 57.9205 16.2145 57.25C16.5469 56.5795 17.0028 56.0625 17.5824 55.6989C18.1619 55.3352 18.8239 55.1534 19.5682 55.1534C20.3125 55.1534 20.9744 55.3352 21.554 55.6989C22.1335 56.0625 22.5895 56.5795 22.9219 57.25C23.2543 57.9205 23.4205 58.7159 23.4205 59.6364ZM22.3977 59.6364C22.3977 58.8807 22.2713 58.2429 22.0185 57.723C21.7685 57.2031 21.429 56.8097 21 56.5426C20.5739 56.2756 20.0966 56.142 19.5682 56.142C19.0398 56.142 18.5611 56.2756 18.1321 56.5426C17.706 56.8097 17.3665 57.2031 17.1136 57.723C16.8636 58.2429 16.7386 58.8807 16.7386 59.6364C16.7386 60.392 16.8636 61.0298 17.1136 61.5497C17.3665 62.0696 17.706 62.4631 18.1321 62.7301C18.5611 62.9972 19.0398 63.1307 19.5682 63.1307C20.0966 63.1307 20.5739 62.9972 21 62.7301C21.429 62.4631 21.7685 62.0696 22.0185 61.5497C22.2713 61.0298 22.3977 60.392 22.3977 59.6364Z" fill="black"/>
<path d="M55.0568 64V55.2727H58.108C58.7159 55.2727 59.2173 55.3778 59.6122 55.5881C60.0071 55.7955 60.3011 56.0753 60.4943 56.4276C60.6875 56.777 60.7841 57.1648 60.7841 57.5909C60.7841 57.9659 60.7173 58.2756 60.5838 58.5199C60.4531 58.7642 60.2798 58.9574 60.0639 59.0994C59.8509 59.2415 59.6193 59.3466 59.3693 59.4148V59.5C59.6364 59.517 59.9048 59.6108 60.1747 59.7812C60.4446 59.9517 60.6705 60.196 60.8523 60.5142C61.0341 60.8324 61.125 61.2216 61.125 61.6818C61.125 62.1193 61.0256 62.5128 60.8267 62.8622C60.6278 63.2116 60.3139 63.4886 59.8849 63.6932C59.456 63.8977 58.8977 64 58.2102 64H55.0568ZM56.1136 63.0625H58.2102C58.9006 63.0625 59.3906 62.929 59.6804 62.6619C59.973 62.392 60.1193 62.0653 60.1193 61.6818C60.1193 61.3864 60.044 61.1136 59.8935 60.8636C59.7429 60.6108 59.5284 60.4091 59.25 60.2585C58.9716 60.1051 58.642 60.0284 58.2614 60.0284H56.1136V63.0625ZM56.1136 59.108H58.0739C58.392 59.108 58.679 59.0455 58.9347 58.9205C59.1932 58.7955 59.3977 58.6193 59.5483 58.392C59.7017 58.1648 59.7784 57.8977 59.7784 57.5909C59.7784 57.2074 59.6449 56.8821 59.3778 56.6151C59.1108 56.3452 58.6875 56.2102 58.108 56.2102H56.1136V59.108Z" fill="black"/>
<path d="M101.08 58H100.023C99.9602 57.696 99.8509 57.429 99.6946 57.1989C99.5412 56.9688 99.3537 56.7756 99.1321 56.6193C98.9134 56.4602 98.6705 56.3409 98.4034 56.2614C98.1364 56.1818 97.858 56.142 97.5682 56.142C97.0398 56.142 96.5611 56.2756 96.1321 56.5426C95.706 56.8097 95.3665 57.2031 95.1136 57.723C94.8636 58.2429 94.7386 58.8807 94.7386 59.6364C94.7386 60.392 94.8636 61.0298 95.1136 61.5497C95.3665 62.0696 95.706 62.4631 96.1321 62.7301C96.5611 62.9972 97.0398 63.1307 97.5682 63.1307C97.858 63.1307 98.1364 63.0909 98.4034 63.0114C98.6705 62.9318 98.9134 62.8139 99.1321 62.6577C99.3537 62.4986 99.5412 62.304 99.6946 62.0739C99.8509 61.8409 99.9602 61.5739 100.023 61.2727H101.08C101 61.7187 100.855 62.1179 100.645 62.4702C100.435 62.8224 100.173 63.1222 99.8608 63.3693C99.5483 63.6136 99.1974 63.7997 98.8082 63.9276C98.4219 64.0554 98.0085 64.1193 97.5682 64.1193C96.8239 64.1193 96.1619 63.9375 95.5824 63.5739C95.0028 63.2102 94.5469 62.6932 94.2145 62.0227C93.8821 61.3523 93.7159 60.5568 93.7159 59.6364C93.7159 58.7159 93.8821 57.9205 94.2145 57.25C94.5469 56.5795 95.0028 56.0625 95.5824 55.6989C96.1619 55.3352 96.8239 55.1534 97.5682 55.1534C98.0085 55.1534 98.4219 55.2173 98.8082 55.3452C99.1974 55.473 99.5483 55.6605 99.8608 55.9077C100.173 56.152 100.435 56.4503 100.645 56.8026C100.855 57.152 101 57.5511 101.08 58Z" fill="black"/>
<path d="M133.517 64.1193V63.1307H134.062C134.273 63.1307 134.449 63.0895 134.591 63.0071C134.736 62.9247 134.855 62.8182 134.949 62.6875C135.045 62.5568 135.125 62.4205 135.188 62.2784L135.324 61.9545L132.307 55.2727H133.449L135.852 60.6932L138.051 55.2727H139.176L136.159 62.5852C136.04 62.858 135.903 63.1108 135.75 63.3438C135.599 63.5767 135.393 63.7642 135.132 63.9062C134.874 64.0483 134.523 64.1193 134.08 64.1193H133.517Z" fill="black"/>
<path d="M15.3068 103V102.028H15.5625C15.9261 102.028 16.2088 101.912 16.4105 101.679C16.6122 101.446 16.7571 101.07 16.8452 100.55C16.9361 100.03 16.9972 99.3409 17.0284 98.483L17.1818 94.2727H22.5V103H21.4432V95.2102H18.1875L18.0511 98.6875C18.017 99.6023 17.9332 100.381 17.7997 101.023C17.6662 101.665 17.4318 102.155 17.0966 102.493C16.7614 102.831 16.2727 103 15.6307 103H15.3068Z" fill="black"/>
<path d="M55.0568 94.2727H56.0966V101.142H56.1818L60.9545 94.2727H61.9773V103H60.9205V96.1477H60.8352L56.0795 103H55.0568V94.2727Z" fill="black"/>
<path d="M101.472 101.994L101.352 105.062H100.261V103H99.6477V101.994H101.472ZM94.0568 103V94.2727H95.0625V102.028H99.5625V94.2727H100.568V103H94.0568Z" fill="black"/>
<path d="M139.585 94.2727V103H138.528V95.2102H134.131V103H133.074V94.2727H139.585Z" fill="black"/>
<path d="M22.5852 133.273V142H21.5284V134.21H17.1307V142H16.0739V133.273H22.5852Z" fill="black"/>
<path d="M61.5852 133.273V142H60.5284V134.21H56.1307V142H55.0739V133.273H61.5852Z" fill="black"/>
<path d="M101.472 140.994L101.352 144.062H100.261V142H99.6477V140.994H101.472ZM94.0568 142V133.273H95.0625V141.028H99.5625V133.273H100.568V142H94.0568Z" fill="black"/>
<path d="M133.415 142H132.307L135.511 133.273H136.602L139.807 142H138.699L136.091 134.653H136.023L133.415 142ZM133.824 138.591H138.29V139.528H133.824V138.591Z" fill="black"/>
</svg>
