<svg width="23" height="37" fill="none" xmlns="http://www.w3.org/2000/svg"><g filter="url(#a)"><path d="M8.43 24.138h5.328v-.528c0-5.664 8.736-5.136 8.736-13.536 0-5.088-3.84-9.12-10.272-9.12C5.55.954 1.518 5.274.99 11.994h5.856c.432-2.64 1.968-4.08 4.848-4.08 2.688 0 4.224 1.488 4.224 3.456 0 4.32-7.488 4.512-7.488 12.048v.72Zm2.832 10.608c2.208 0 3.936-1.488 3.936-3.936s-1.728-3.984-3.936-3.984-3.936 1.536-3.936 3.984 1.728 3.936 3.936 3.936Z" fill="#F8F6D0"/></g><defs><filter id="a" x=".99" y=".954" width="21.504" height="35.792" filterUnits="userSpaceOnUse" color-interpolation-filters="sRGB"><feFlood flood-opacity="0" result="BackgroundImageFix"/><feColorMatrix in="SourceAlpha" values="0 0 0 0 0 0 0 0 0 0 0 0 0 0 0 0 0 0 127 0" result="hardAlpha"/><feOffset dy="2"/><feComposite in2="hardAlpha" operator="out"/><feColorMatrix values="0 0 0 0 0 0 0 0 0 0 0 0 0 0 0 0 0 0 0.25 0"/><feBlend in2="BackgroundImageFix" result="effect1_dropShadow_601_647"/><feBlend in="SourceGraphic" in2="effect1_dropShadow_601_647" result="shape"/></filter></defs></svg>