<svg width="33" height="34" fill="none" xmlns="http://www.w3.org/2000/svg"><path d="M16.463 25.133c4.694 0 8.498-3.808 8.498-8.506S21.157 8.12 16.463 8.12c-4.693 0-8.498 3.808-8.498 8.506s3.805 8.506 8.498 8.506Z" fill="#F8F6D0"/><path fill-rule="evenodd" clip-rule="evenodd" d="M10.377 22.563c.992.929 1.314 1.63 1.434 1.967.088.253.176.548.176.548.161.554.17.746.329 1.318.12.424.177.64.285.79.233.332.566.49.833.593 1.292.493 4.5.99 6.118.088.27-.14.503-.344.68-.592.249-.374.24-.703.328-1.186.12-.53.298-1.045.53-1.536.577-1.271 1.283-1.351 1.251-1.777-.088-1.226-6.103-2.928-11.161-.62-.337.155-.609.298-.803.407ZM18.937 32.812H13.99c-.463 0-1.519-.743-1.519-1.296v-1.401a1 1 0 0 1 1-1.001h5.91a.998.998 0 0 1 1 1v1.402c0 .553-.982 1.296-1.444 1.296Z" fill="#F8F6D0"/><path d="M18.04 31.806h-3.23a.739.739 0 0 0-.738.74v.715c0 .408.33.739.739.739h3.23a.739.739 0 0 0 .738-.74v-.715c0-.408-.331-.739-.739-.739ZM4.285 15.546H1.08a1.08 1.08 0 0 0 0 2.16h3.206a1.08 1.08 0 0 0 0-2.16ZM31.921 15.546h-3.205a1.08 1.08 0 0 0 0 2.16h3.205a1.08 1.08 0 0 0 0-2.16ZM7.045 24.509l-2.267 2.269a1.078 1.078 0 1 0 1.526 1.527l2.267-2.269a1.079 1.079 0 1 0-1.526-1.527ZM26.586 4.948 24.32 7.217a1.079 1.079 0 1 0 1.526 1.527l2.267-2.269a1.079 1.079 0 1 0-1.526-1.527ZM8.483 7.305 6.216 5.036A1.079 1.079 0 1 0 4.69 6.564l2.267 2.269a1.079 1.079 0 1 0 1.526-1.528ZM28.024 26.866l-2.267-2.269a1.078 1.078 0 1 0-1.526 1.527l2.267 2.27a1.079 1.079 0 1 0 1.526-1.528ZM17.542 4.29V1.08a1.08 1.08 0 1 0-2.158 0v3.21a1.08 1.08 0 1 0 2.158 0Z" fill="#F8F6D0"/></svg>