<svg width="390" height="477" viewBox="0 0 390 477" fill="none" xmlns="http://www.w3.org/2000/svg">
<path d="M203.018 242.711L-98.7275 -48.9616L-40.6756 -97.6841C40.5479 15.7824 121.779 129.247 203.018 242.711Z" fill="#CACEF4" fill-opacity="0.4"/>
<path d="M204.038 244.481L20.1982 -132.859L91.381 -158.781C128.936 -24.3698 166.489 110.051 204.038 244.481Z" fill="#CACEF4" fill-opacity="0.4"/>
<path d="M204.397 246.5C189.806 107.333 175.217 -31.8333 160.629 -171H236.375C225.71 -31.8303 215.05 107.336 204.397 246.5Z" fill="#CACEF4" fill-opacity="0.4"/>
<path d="M204.038 248.519C237.901 112.749 271.758 -23.0178 305.61 -158.781L376.792 -132.859L204.038 248.519Z" fill="#CACEF4" fill-opacity="0.4"/>
<path d="M203.018 250.294L437.694 -97.6841L495.727 -48.9387C398.154 50.7963 300.584 150.541 203.018 250.294Z" fill="#CACEF4" fill-opacity="0.4"/>
<path d="M201.446 251.614L540.92 4.9342L578.796 70.575L201.446 251.614Z" fill="#CACEF4" fill-opacity="0.4"/>
<path d="M199.525 252.313L602.847 136.68L616 211.325L199.525 252.313Z" fill="#CACEF4" fill-opacity="0.4"/>
<path d="M197.475 252.313L616 281.675L602.846 356.32L197.475 252.313Z" fill="#CACEF4" fill-opacity="0.4"/>
<path d="M195.559 251.614L578.805 422.434L540.929 488.075L195.559 251.614Z" fill="#CACEF4" fill-opacity="0.4"/>
<path d="M193.982 250.294L495.728 541.966L437.694 590.684L193.982 250.294Z" fill="#CACEF4" fill-opacity="0.4"/>
<path d="M192.957 248.519L376.797 625.859L305.614 651.786L192.957 248.519Z" fill="#CACEF4" fill-opacity="0.4"/>
<path d="M192.603 246.5C207.197 385.67 221.788 524.836 236.375 664H160.629C171.282 524.836 181.941 385.67 192.603 246.5Z" fill="#CACEF4" fill-opacity="0.4"/>
<path d="M192.957 244.481L91.3856 651.786L20.1982 625.859L192.957 244.481Z" fill="#CACEF4" fill-opacity="0.4"/>
<path d="M193.982 242.711L-40.6756 590.684L-98.7275 541.966L193.982 242.711Z" fill="#CACEF4" fill-opacity="0.4"/>
<path d="M195.559 241.391L-143.92 488.07L-181.772 422.43L195.559 241.391Z" fill="#CACEF4" fill-opacity="0.4"/>
<path d="M197.475 240.692L-205.846 356.32L-219 281.675L197.475 240.692Z" fill="#CACEF4" fill-opacity="0.4"/>
<path d="M199.525 240.692L-219 211.325L-205.846 136.68L199.525 240.692Z" fill="#CACEF4" fill-opacity="0.4"/>
<path d="M201.446 241.391L-181.772 70.5703L-143.897 4.92957L201.446 241.391Z" fill="#CACEF4" fill-opacity="0.4"/>
<path d="M203.018 242.711L-98.7275 -48.9616L-40.6756 -97.6841C40.5479 15.7824 121.779 129.247 203.018 242.711Z" fill="#CACEF4" fill-opacity="0.4"/>
<path d="M204.038 244.481L20.1982 -132.859L91.381 -158.781C128.936 -24.3698 166.489 110.051 204.038 244.481Z" fill="#CACEF4" fill-opacity="0.4"/>
<path d="M204.397 246.5C189.806 107.333 175.217 -31.8333 160.629 -171H236.375C225.71 -31.8303 215.05 107.336 204.397 246.5Z" fill="#CACEF4" fill-opacity="0.4"/>
</svg>
