<svg width="390" height="477" fill="none" xmlns="http://www.w3.org/2000/svg"><path d="M203.018 242.711-98.727-48.962l58.051-48.722A4155401.09 4155401.09 0 0 0 203.018 242.71ZM204.038 244.481l-183.84-377.34 71.183-25.922c37.555 134.411 75.108 268.832 112.657 403.262ZM204.397 246.5c-14.591-139.167-29.18-278.333-43.768-417.5h75.746C225.71-31.83 215.05 107.336 204.397 246.5ZM204.038 248.519c33.863-135.77 67.72-271.537 101.571-407.3l71.183 25.922-172.754 381.378ZM203.018 250.294 437.694-97.684l58.033 48.745c-97.573 99.735-195.143 199.48-292.709 299.233ZM201.446 251.614 540.92 4.934l37.876 65.641-377.35 181.039ZM199.525 252.313 602.847 136.68 616 211.325l-416.475 40.988ZM197.475 252.313 616 281.675l-13.154 74.645-405.371-104.007ZM195.559 251.614l383.246 170.82-37.876 65.641-345.37-236.461ZM193.982 250.294l301.746 291.672-58.034 48.718-243.712-340.39ZM192.957 248.519l183.84 377.34-71.183 25.927-112.657-403.267ZM192.603 246.5c14.594 139.17 29.185 278.336 43.772 417.5h-75.746c10.653-139.164 21.312-278.33 31.974-417.5ZM192.957 244.481 91.386 651.786l-71.188-25.927 172.759-381.378ZM193.982 242.711-40.676 590.684l-58.052-48.718 292.71-299.255ZM195.559 241.391-143.92 488.07l-37.852-65.64 377.331-181.039ZM197.475 240.692-205.846 356.32-219 281.675l416.475-40.983ZM199.525 240.692-219 211.325l13.154-74.645 405.371 104.012ZM201.446 241.391l-383.218-170.82 37.875-65.641L201.446 241.39Z" fill="#CACEF4"/><path d="M203.018 242.711-98.727-48.962l58.051-48.722A4155401.09 4155401.09 0 0 0 203.018 242.71ZM204.038 244.481l-183.84-377.34 71.183-25.922c37.555 134.411 75.108 268.832 112.657 403.262ZM204.397 246.5c-14.591-139.167-29.18-278.333-43.768-417.5h75.746C225.71-31.83 215.05 107.336 204.397 246.5Z" fill="#CACEF4"/></svg>