<svg xmlns="http://www.w3.org/2000/svg" xmlns:xlink="http://www.w3.org/1999/xlink" viewBox="0 0 767.27 776.97">
  <defs>
    <style>
      .cls-1 {
        fill: #8084aa;
      }

      .cls-2 {
        fill: #ffe297;
      }

      .cls-3 {
        fill: #ffbf5d;
      }

      .cls-4 {
        fill: #3c4061;
      }

      .cls-5 {
        fill: #8c5836;
      }

      .cls-6 {
        fill: #292929;
      }

      .cls-7 {
        fill: #dd9553;
      }

      .cls-8 {
        fill: #706898;
      }

      .cls-9 {
        fill: #a5b8e8;
      }

      .cls-10 {
        fill: #d19d7b;
      }

      .cls-11 {
        fill: #5b3925;
      }

      .cls-12 {
        fill: #343256;
      }

      .cls-13 {
        fill: #62749f;
      }

      .cls-14 {
        fill: #232024;
      }

      .cls-15 {
        fill: #4f5b66;
      }

      .cls-16 {
        fill: url(#Безымянный_градиент_9);
      }

      .cls-17 {
        fill: url(#Безымянный_градиент_9-2);
      }

      .cls-18 {
        fill: #030729;
      }

      .cls-19 {
        fill: #8d2f08;
      }

      .cls-20 {
        fill: #fff;
      }

      .cls-21 {
        fill: #8e96a8;
      }
    </style>
    <linearGradient id="Безымянный_градиент_9" data-name="Безымянный градиент 9" x1="188.57" y1="616.7" x2="125.81" y2="616.7" gradientUnits="userSpaceOnUse">
      <stop offset="0" stop-color="#030729"/>
      <stop offset="0.3" stop-color="#030624"/>
      <stop offset="0.64" stop-color="#020417"/>
      <stop offset="0.99" stop-color="#000001"/>
      <stop offset="1"/>
    </linearGradient>
    <linearGradient id="Безымянный_градиент_9-2" x1="150.08" y1="683.46" x2="97.04" y2="683.46" xlink:href="#Безымянный_градиент_9"/>
  </defs>
  <g id="Слой_2" data-name="Слой 2">
    <g id="Слой_5" data-name="Слой 5">
      <path class="cls-1" d="M158.39,725.84l-48.5-14.36L55.64,671.42l-17.07-31.9S12.47,631.94,5.9,618.6s-.63-27.35,6.85-29.81,21-2,21-2L47,574.68l4.66-1S35.39,549.14,38.3,533.45s32.55,0,32.55,0l86.34-91.61s9.1,21.05,2.05,35.55,3.43,11.93,3.43,11.93l30.13,10.43,55,42.53,22.57-13.77s22.81.15,21.43,15.13-7.84,18-7.84,18l-19.75,10.51s24.65-6.32,26.26,11.65-9.8,22.78-9.8,22.78L250.57,616.7,224,681.46,176,719.3Z"/>
      <path class="cls-2" d="M188.19,619l5.87-17.43s-18-15-25.7-16.9-11.17,22.27-11.17,22.27Z"/>
      <path class="cls-2" d="M125.81,657.34l-5.11,22-10.55,16.7s13.27,6.9,20.34,9.71a49.89,49.89,0,0,0,11.83,3.32l6.29-8.51L150.08,678l-8.61-11.47Z"/>
      <path class="cls-3" d="M175.63,691.21l-21.4-26-11.39-21.68s9.35-6.95,24.84-2.19,38.47-1.67,38.47-1.67,18.42,4.82,19.33,12.69-2.37,16.77-2.37,16.77l-35.83,14.08Z"/>
      <path class="cls-4" d="M387.47,718.61l-8.82-21.14s-23.51-37.4-34.18-47-14.77-12.83-14.77-12.83,17.55-18.6,4.62-50.6-7.65-52.25-7.65-52.25l25.69,13.1s3.46-25.47,1.39-45.16a216.21,216.21,0,0,0-7.85-37.85l26.71,29.81,7,10.31s4-11.79,3.78-19.92,0-24.82,0-24.82,8.17-3.09,17.7,18.36,14.2,19,14.2,19l10.82-34.2s18.55,27.66,22.64,58.3,2,62.16,2,62.16l-3.66,21.33s-8,33.14-17.16,51-21.76,37.74-21.76,37.74l-15.63,18.77Z"/>
      <path class="cls-4" d="M299.83,472.15l32.93-51.83,50.36-16.43s24-28.62,30.17-35,14.39-13.52,14.39-13.52h-26l-19.62,7L410.44,320s-17.25-.78-29.09,8.57-14.78,15.84-14.78,15.84l17.89-37.95s-38.79,22.11-50.89,39.4S295.74,392,295.74,392l-11.8,3.32-5.44,8.59,5.8,7.81-8.74,37.86-2,13.82,11,10.12h13.63Z"/>
      <polygon class="cls-5" points="284.62 515.25 278.96 503.71 273.21 482.63 273.6 463.38 301.37 488.6 284.62 515.25"/>
      <path class="cls-5" d="M247.78,489.32s10.6,16.36,12.6,25.05,1.83,13.3,1.83,13.3l-12.49-9.31L239.48,512l6-18.83Z"/>
      <path class="cls-5" d="M223.41,737c5.63,18.3,20.19,30.26,50.31,35.9s76.37-1.81,90.77-11S405.21,737,405.21,737l73-55.54,37.24-11.88s2.27-14.2.08-28-8-28.76-8-28.76L426.66,665S416,683,409.84,691.21s-21.41,25.67-21.41,25.67L373.3,695.81,370,684.1s-11.77-18.63-21.43-28.63-16.09-11.94-16.09-11.94l-57.19,46.15-33.87,19.15L224,731.3Z"/>
      <path class="cls-5" d="M326.48,569.21s-14.27-1.79-20.63,0-17.19,5.46-17.19,5.46-8.5-4.49-17.85-3.46,26.46-13,26.46-13L294,545l-2.22-9.18s15.14-8.28,26.11-12.87,14.87-6.34,14.87-6.34l-3,7.58-3.31,13.06-.88,24.51Z"/>
      <polygon class="cls-5" points="353.6 527.67 348.27 531.16 338.11 526.03 332.76 516.62 343.18 514.17 352.36 512 354.4 518.36 353.6 527.67"/>
      <path class="cls-5" d="M468.1,534.45,457,537.85a143.29,143.29,0,0,0-1.54-23.48c-1.84-10.66-4.2-19.68-4.2-19.68l12.37-3-1.23,15.56,3.19,17Z"/>
      <polygon class="cls-1" points="305.85 616.75 299.83 578.93 329.13 577.93 335.6 596.34 323.71 604.39 305.85 616.75"/>
      <polygon class="cls-1" points="456.99 562.56 456.99 537.85 468.1 534.45 463 510.45 480.79 518.36 516.39 546.76 532.09 527.53 535.05 547.98 554.32 536.51 543.01 561.61 557.89 560.26 535.05 587.04 511.47 619.02 502.19 586.37 489.21 556.79 456.99 562.56"/>
      <path class="cls-3" d="M754.49,533.94l-22.73-1.53-13.27,5.44-38.3,34.73-62-25.82-52,11.94-23,4.09,11.24-26.28S589.91,515.33,602,515.7s33.84,4.45,33.84,4.45l34.37,15.68,23.27-39.27,10.32-7.48,21.08-2.28-5.62,6.37,6.23,3.39,18.28,2.4,8.9,3.77L733,512.89s6.69-.59,13.91,7.26S754.49,533.94,754.49,533.94Z"/>
      <path class="cls-3" d="M529.13,531.23l-11.28,14.29L507.44,489l-12.63-28.9s21.52-17.7,37.45-22,41.81-17,41.81-17l-36.55-52.5s5.68-14.6,13-24.87,14.22-13.1,14.22-13.1l-2.66,22.09,17.85-13.41,13.71-3-4.09,12.26,24.51-.26s-12,9.7-15.57,17.36-6.13,12.3-6.13,12.3,13.46,30.78,13.95,49.42a166.87,166.87,0,0,1-3.4,36s-32.76,3.41-42.47,7.75S535.93,481.34,533.89,489,529.13,531.23,529.13,531.23Z"/>
      <path class="cls-3" d="M284.61,529.09l-14.26-.58-35.64-75.85-4.37-41,16.06-13.85,21.7-2.55,9.91,42s-8.37,35.88-3,53,8.94,29.86,8.94,29.86Z"/>
      <polygon class="cls-3" points="259.58 529.09 243.63 535.83 223.11 512.63 235.42 510.91 250.61 520.26 259.58 529.09"/>
      <g id="Слой_6" data-name="Слой 6">
        <path class="cls-6" d="M250.61,520.27s-3-1-8.83,2.43a23.29,23.29,0,0,0-6.1,4.84l-13.28-15,9.45-1.66,11.78,4.79Z"/>
        <g id="Слой_4" data-name="Слой 4">
          <path class="cls-7" d="M130.49,659.55s-1.92,13.79-5.24,20.56-10.59,15.95-10.59,15.95S67.18,677.7,81,652.66C93.21,630.39,130.49,659.55,130.49,659.55Z"/>
          <path class="cls-7" d="M144.27,641.67a53.07,53.07,0,0,0,11,20.44,68.28,68.28,0,0,0,17,13.91l40.47-14.87s4.47-2.1,8.17,0a6.28,6.28,0,0,1,3.06,6.19l-8.22,10.19-12.2,4.24s3.12,11-5.08,18a15.77,15.77,0,0,1-17,2.45S180.64,715,166.67,711s-9.88-22.76-9.88-22.76-12.68-17.78-15.09-28,0-16,0-16Z"/>
          <path class="cls-2" d="M174.15,662.75s-13.31-8-11.48-14.69c1-3.78,10.71,0,10.71,0a54.48,54.48,0,0,1,7.66-5.74c5-3.22,17.49-10.6,29-5s13.09,12.26,13.09,12.26-2.62,5.23-10.79,2.55S174.15,662.75,174.15,662.75Z"/>
          <path class="cls-7" d="M170.83,585.47s.27,7.19-8.16,20-31.35,18.28-31.35,18.28-33.26-25.3-16.41-42.79,44.76-2.47,44.76-2.47Z"/>
          <path class="cls-8" d="M154.83,635.65s-23.39-9.21-31.27-16.66-11.84-17.65-11.84-17.65a5.81,5.81,0,0,1-4.08,2.81,17.87,17.87,0,0,1-5.24.38s-10.08-10.09-14.81-6.45,1.23,14.72,1.23,14.72-10.8-3.6-12.59.77S82.87,627,82.87,627s-1.53,3-20.68,2.8-29.11-10.72-35.75-8.55-6.65,8.45-4.46,10.46,16.59,7.8,16.59,7.8S35.09,650.24,35,658.15s-.5,17.91-3,22.85S6.06,710.48,14.27,716.3,33,713.21,33,713.21s4.34,13.18,11.11,12,16.09-8.42,16.09-8.42l9.33-18.42s22.42,24.42,56,32.46,54.85,5.51,69-5.11,41.4-32.86,53.6-64.25,16.57-48,16.57-48L278.31,611s.13,11.37,0,20.43-3.83,21.78-3.83,21.78l23.18-27.78,10.06-8.77S309,605.81,308,599s-2.2-13-2.2-13A110.43,110.43,0,0,1,320.32,583a45.31,45.31,0,0,1,10.34,0l-4.18-13.75-28.77,1.91-10.33,4s-3.06,1.53-2,6.26,5.23,10.45-4.47,16.65-26.81,2.78-34.09,8c-6.91,5-10.38,8.49-15.95,28.6A131.65,131.65,0,0,1,226,649s3.7,25.09-16.09,32c-5,1.75-5.87,1.79-5.87,1.79s.38,10.59-6.77,17.62-15.83,1.8-15.83,1.8-1.14,10.67-10.59,9.6A18.6,18.6,0,0,1,157.19,703l-.4-14.68-3.26-4.82-3.45,2.14s-1,15.56-4.08,19.07a20,20,0,0,1-6.58,4.93s-20.25-9.88-34.95-17.39-23.9-20.4-23.9-20.4-5.49-16.72.77-21.57,18.45-6.63,25.14-3.93,29.24,15.54,29.24,15.54l10,8.32s-6.42-14.74-5.2-20.32a30.3,30.3,0,0,1,4.81-10.34l10.72-.07Z"/>
          <path class="cls-9" d="M159.45,444s-2.73,23.7-13.9,43.8c-10.72,19.31-11.28,23.1-8.94,27.45,3.36,6.22,13.07-2.69,20.58-11.55,3.75-4.43,8.52-14.39,8.52-14.39s29.25,5.53,39.74,12.31,27.42,20,27.42,20l10.89,13.79,19.72-6.05s12.79-1.36,14.83,7.58-13.57,14.82-30.53,19.79-34.57,3.7-76.95-14.68-60,4.08-68.94,7.91a16.43,16.43,0,0,1-15.74-1.27L97,575.3l2.89,15.37s-6.55,5.82-13.78-2.86-11.07-35-27.15-44.94-20.17-1.23-20.17-1.23S35,520.78,47.51,518.29,66,521.68,66,521.68s10.52-20.81,29.74-32.36,19.34-19,21.21-29.06,4.9-40.42,13.58-38.52,11.33,11.94,11.33,11.94v5.79s6.51-3,9.47-1.92S159.45,444,159.45,444Z"/>
          <path class="cls-9" d="M2.54,602.76a11.64,11.64,0,0,1,13.31-2.7c7.91,3.52,12,8.43,25.28,15.07s24.43,5.11,24.43,5.11L45.72,612.8,38,604.41l-4-9.71.64-8-10.93-1.22-8.39,2L8.8,591.6Z"/>
          <path class="cls-9" d="M38,583.72s4.81,13,17.62,16.86,13.18-4.7,13.18-4.7L55.64,582.19l-6.25-8.51-7.62,3.24Z"/>
          <path class="cls-10" d="M223.11,727.72s2.1,8.95,7.46,4.73,3.58-11.55,17.36-19.24,47.94-13.71,64.6-28.63C332.19,667,340.87,649,340.87,649l-10.54-12.18s7.51-11.75,8-18.38a81.94,81.94,0,0,0-.65-14.91l-2.12-7.21s-28.46,18.48-42.36,34.79-21.55,26.39-21.55,26.39l-15.08,29.35s-21.46,10.55-25.22,17.4a106,106,0,0,0-6.57,15.51Z"/>
          <path class="cls-11" d="M369.7,681.46s-22.2,28.65-57.17,42.69-63.06,13-67.4,21.45a34.08,34.08,0,0,0-3.72,16.56l29.45,10.28h15.37s45.7-7.27,70.21-21.14,33.79-26,33.79-26L379.44,699.1Z"/>
          <path class="cls-11" d="M515.76,661.34s-26,5-47.74,17.11c-27.07,15.06-42.38,34.21-58.72,41.1s-20.46,7.4-20.46,7.4l5.05,10L382.5,751.3s28.3-7.2,36.74-12.58,33.06-25.64,38.86-29.45,40.62-23.21,40.62-23.21l11.51-7.78,6.72-8.77Z"/>
          <path class="cls-10" d="M422.23,671.42s30.21-19.14,50.13-27.89a269.68,269.68,0,0,1,41.14-13.7s-7.34-27.59-12.11-44.12-14.9-30.84-14.9-30.84l-23.45,4L457,562.56s-8.38,42.1-13,56.4-14.1,37.19-14.1,37.19Z"/>
          <path class="cls-10" d="M272.17,571.12s20.26-9.1,31.71-10.88a120.42,120.42,0,0,1,21.62-1.31l2-27.77A109,109,0,0,0,308,535.83a32.57,32.57,0,0,0-15.06,10.51l-3.47,9.14L273.6,567.61Z"/>
          <path class="cls-10" d="M339,529.09c1-3.64,14.79-3.07,14.79-3.07l-1.39,14.9S337.82,533.41,339,529.09Z"/>
          <path class="cls-8" d="M504.87,596.34a103.41,103.41,0,0,0,10.89-23.76,184.55,184.55,0,0,0,6.13-28.43L517,548.24l-10.63-28.09-14.05,23-16.58-23s-4.1,20.71-6.63,26.19-6.67,13.81-6.67,13.81l23-5s10.59,8,13.34,18.28S504.87,596.34,504.87,596.34Z"/>
          <polygon class="cls-8" points="556.58 560.26 531.69 574.89 524.57 596.34 517.85 608.48 511.47 615.97 514.94 637.64 515.55 641.56 535.05 638.14 549.16 638.28 543.59 626.36 523.32 612.8 568.42 583.71 550.52 578.93 566.13 560.26 556.58 560.26"/>
          <polygon class="cls-10" points="463.63 525.99 458.22 527.53 453.61 503.71 462.39 501.77 462.39 515.25 463.63 525.99"/>
          <path class="cls-12" d="M338.64,643.53s8.61-12,8.61-26.83-11.93-32.09-4.3-37.77,13,8.88,13,8.88S354.66,538.53,371,539s14.3,14.27,14.3,14.27,0-17.48,13.93-17.48c14.41,0,13.9,15.31,13.9,15.31s1.27-16,15.31-13.29,14.81,49.32-3.06,92.54-42.88,71.82-42.88,71.82l-19.42-31.93-17-17.92Z"/>
          <path class="cls-13" d="M326.48,545.24s10.47,14.78,18,15,7.49-9.12,7.49-9.12l1.61-10.22-12.76-9.58-9-11.12-4.58,13.23Z"/>
          <path class="cls-13" d="M347.85,471.57s9.87,6.11,16,21.6,7.15,19.74,12,19.4,6.25-5.45,6.25-5.45-4.42-17.87-12.56-29.73-14.5-18-14.5-18l-14.26-6.7Z"/>
          <path class="cls-13" d="M382.5,463.38s11.78,9.79,16.73,23.58,6.49,26.5,13.38,25.63,5.3-4.18,5.3-4.18-3.86-23.2-11.62-35.39-22.86-26-22.86-26l-2.08,5.67Z"/>
          <path class="cls-13" d="M423.89,468.41s9.92,8.25,17.32,38.8,7.92,75.49,5.87,98c8.68-18.38,9.91-77.63,9.91-77.63s-4.92-32.7-7.27-38.95-10.82-25.21-10.82-25.21l-13-16.39-1.47,13.27Z"/>
          <path class="cls-7" d="M520.72,543.07s-4.36-23.94-2.87-42.32,5.57-18.39,4-28.34-22.44-19.79-28.08-9-8.43,31.31-8.43,31.31l-3.23,34.4,10.12,14,14.05-23,10.07,26.61Z"/>
          <path class="cls-7" d="M566.13,427.25s7.08,1.24,13.72,8.64,12,8.94,14,5.11.51-35.23-3.83-49.53-12-33.45-20.42-22.72c-3.83-8.69-14.26-9.75-15.32-2.05s-.38,11.28-.38,11.28-8.2-21.3-16.42-9.39,11.68,37.18,11.68,37.18l9.7,23.44Z"/>
          <path class="cls-7" d="M561.47,558.24s29.61-20.76,51.57-22.41,67.15,27.47,67.15,27.47,22-10,30.64-20.94,8.93-16,18.38-16.28,20.17.71,28.09,7.86c3.57,8.42,2.29,11,2.29,11s-19.91-12.55-27.83-9.09c-6.12,6.28-47.59,45.15-47.59,45.15l-10.36-2.36s-41.37-22.88-54.64-20.38-34.25,10.21-34.25,10.21L564,581l-13.5-2.05,15.61-20.69Z"/>
          <path class="cls-7" d="M749.13,501.77a27.05,27.05,0,0,0-23.49,5.1c-11,8.94-10.69,18-10.69,18l13-12.34,11.45,1.88,12.8-7.53,3.33-4.11-4.76-1"/>
          <path class="cls-7" d="M723.56,487s-12.22,3.32-18.61,12.76-5.1,15-5.1,15L711.65,501l13.74-4.23,6.37-9.92Z"/>
          <path class="cls-11" d="M475.69,514.76l-12.07-4.39s-2.27-16.77,2.72-18.43S475.69,514.76,475.69,514.76Z"/>
          <polygon class="cls-11" points="297.27 485.08 281.99 512.58 284.62 529.09 291.78 535.83 313.91 523.38 338.11 515.25 318.53 503.31 297.27 485.08"/>
          <path class="cls-6" d="M249.54,490.76l-.62.17,6.74,12.78,6.4,18,.13-.09a49.27,49.27,0,0,0-1.81-7.22C258.17,507.44,253.42,498,249.54,490.76Z"/>
          <path class="cls-6" d="M284,520.22l-3.77-13-6.58-16.28a19.21,19.21,0,0,0-8.79-2.34c2.09,8.54,4.42,17.23,6.36,24.05.63,2.21,1.08,4.11,1.41,5.75.33,0,.67,0,1,0C280.62,518.36,284,520.22,284,520.22Z"/>
          <path class="cls-7" d="M261.47,529.09l10.7-.67s2.21-1,.41-10a21,21,0,0,0-10.39,3.2C263.19,527.84,261.47,529.09,261.47,529.09Z"/>
          <path class="cls-6" d="M259.58,370l-6.53,8S232.87,396.06,231,406.55c-1.64,9.05,2.07,35.63,3.12,42.75.47-1.58,3.41-9.73,13.7-8.81,5,.44,7.53,2.55,9,5.78a53.85,53.85,0,0,1,18.8,3.29l3-13.67,6-23.65Z"/>
          <path class="cls-6" d="M234.35,451.09l.12-.06-.26-.82Z"/>
          <path class="cls-7" d="M234,449.56l.21.65c0-.25-.08-.57-.13-.91Z"/>
          <path class="cls-7" d="M234.47,451c1.9,5.91,8.91,27.84,9.16,28.78.13.49,2.73,5,5.91,10.95a66.42,66.42,0,0,1,13-2.17c.81,0,1.58,0,2.32,0-2.33-9.51-4.37-18.84-5.23-25.21-.92-6.83-.93-12.92-2.82-17.11-.8,0-1.62,0-2.44.09A62.31,62.31,0,0,0,234.47,451Z"/>
          <path class="cls-14" d="M247.78,440.49c-10.29-.92-13.23,7.23-13.7,8.81,0,.34.09.66.13.91l.26.82a62.31,62.31,0,0,1,19.85-4.67c.82-.05,1.64-.08,2.44-.09C255.31,443,252.74,440.93,247.78,440.49Z"/>
          <path class="cls-14" d="M264.81,488.59c-.74,0-1.51,0-2.32,0a66.42,66.42,0,0,0-13,2.17c3.88,7.26,8.63,16.68,10.84,23.61a49.27,49.27,0,0,1,1.81,7.22,21,21,0,0,1,10.39-3.2c-.33-1.64-.78-3.54-1.41-5.75C269.23,505.82,266.9,497.13,264.81,488.59Z"/>
          <path class="cls-7" d="M187.28,729.65s5.6,4.72,11.3,5.16,18.31-2.36,18.31-2.36l4.85-2.8L228,709.09l9.34-10.76,16.2-9.89,5.61-3.1L274.64,648l3.67-16.5V611l-13.68,2.43s-14.34,48.68-25.6,65.89-29.14,35.34-29.14,35.34Z"/>
          <path class="cls-15" d="M230.41,413.13s4.19,8.47,11.37,4.89,14.07-10.72,14.07-10.72l8.68,7.91s-5.62,27.07,4.34,28.85,9.37-7.81,9.37-7.81l6.37-24-25-42.22-29.17,33.87Z"/>
          <path class="cls-13" d="M368.05,387.36s-17.73-1.76-38.41,6.92S296.7,415.47,289,410.62s-4.43-14.19-4.43-14.19,38.07-50.48,57.22-66,42.63-31.29,42.63-31.29l-4.87,14.22a262.9,262.9,0,0,0-36.93,34.47c-13.5,15.22-22,33.93-22,33.93a43.17,43.17,0,0,1,16-6.51c9.75-1.89,30.65-1.07,30.65-1.07L379.42,380l-3.65,3.36Z"/>
          <path class="cls-13" d="M361.44,360.78s15.21-17.51,28.23-25.68,18-11.16,18-11.16l10.22-14.51-23.2,2.89-21.95,18.26-11.12,24.83Z"/>
          <path class="cls-13" d="M377.21,370s.94,4.85,10.26,2.81,17.41-10.29,26.42-12,10-2.7,10-2.7l12.55-12.28s-22.12-.34-29.61,3.75-26.27,13.78-26.27,13.78Z"/>
          <path class="cls-12" d="M280.65,469.86A79,79,0,0,0,301.3,447c8.68-14.67,8.75-21.05,8.75-21.05s7.33-13.53,20.61-20.17,17.91-7.45,17.91-7.45l28.64-15.78s14,8.39,4.14,24.61-23.31,34-23.31,34l-7.57,13-9.69-1.53,4.67,12.51-7.34,17.45-11.63,24.59s-17.66-12-29.21-22.13S280.65,469.86,280.65,469.86Z"/>
          <path class="cls-14" d="M275.29,636s-3.06,2.68-15.06-1.92a186.92,186.92,0,0,1,2.63-19.17L278.31,611Z"/>
          <path class="cls-14" d="M262.27,677.17a43.83,43.83,0,0,1-14.33-2.77c-7.12-2.79-4.82-4.06-4.82-4.06s-12,19.83-16.47,25.42-11.4,13.33-11.4,13.33,2.53,2.35,10.22,5.41c4.88-5.62,11.78-16.09,11.78-16.09l19.24-10.76Z"/>
        </g>
      </g>
      <g id="Слой_3" data-name="Слой 3">
        <path class="cls-16" d="M130.74,621.51s-9.57-15.06-2-24.76,30.64-3.32,41.11,2.42a96.78,96.78,0,0,1,18.76,13.92L184.74,627l-12.25,14.67L160.8,638Z"/>
        <path class="cls-17" d="M143.25,705.77s-21.83-7.15-37.91-19-5.75-26.69,5.36-25.54,25.15,8.68,29.3,11.11a45.63,45.63,0,0,1,8,6.3l2.1,13.87-4.28,12.76Z"/>
        <g id="Слой_2-2" data-name="Слой 2">
          <path class="cls-18" d="M105.85,604.32c-2.94-12-6.3-23.84-10.06-35.56-5.5-17.13-11.88-35.88-26.54-47.42-9-7.11-26.62-11.57-31.94,2.23s2,32.46,8.54,44.68c7.9,14.8,19.52,28.33,31.56,40,2.08,2,5.27-1.17,3.18-3.18-19-18.37-40.34-43.93-40.32-71.86,0-5.92,1.5-12.49,8.11-13.85,7.55-1.54,14.86,2.44,20.26,7.39,12.66,11.58,18.21,28.72,23.24,44.61q5.37,16.92,9.63,34.19c.69,2.81,5,1.62,4.34-1.19Z"/>
          <path class="cls-18" d="M68.82,616.74c-11-1.27-23.83-3.38-29.95-13.77-6.25-10.6-1.4-24.6,11.12-27.12,2.84-.58,1.64-4.91-1.2-4.34-13.65,2.75-20.5,17.4-15.58,30,5.72,14.7,21.62,18.07,35.61,19.69,2.87.34,2.85-4.16,0-4.5Z"/>
          <path class="cls-18" d="M88.23,636.72c-21.57,4.17-45.25,4.46-65.16-6.05-9.66-5.11-19.25-13.9-18.51-25.82.88-14,16.88-19.44,28.6-15.85,2.77.85,4-3.49,1.19-4.34-11.58-3.54-26.06.1-32,11.47C-3.44,607.28,2.19,620.35,11,628c21,18.13,52.67,18.06,78.38,13.08,2.84-.55,1.64-4.89-1.19-4.34Z"/>
          <path class="cls-18" d="M36,638.39c-5.9,13.15-1.33,28-6.32,41.5a48.72,48.72,0,0,1-12.53,18.39c-3.95,3.76-8.37,8.09-7.53,14.09,1.78,12.65,18,6.3,24.36,2,10.73-7.17,18.16-18.14,23.6-29.64,1.23-2.6-2.64-4.89-3.88-2.27-4.56,9.62-10.41,18.87-18.76,25.64-4.11,3.33-9.89,7.37-15.41,7.35-5,0-6.62-4.57-4.25-8.57,1.54-2.58,4.11-4.47,6.23-6.53a51.79,51.79,0,0,0,14.12-24.54c2.83-11.5-.66-24.21,4.26-35.17,1.17-2.62-2.71-4.91-3.89-2.27Z"/>
          <path class="cls-18" d="M30,715.7c3.83,8.43,10.55,15.33,20.39,11,9.6-4.26,17.32-15.72,20.18-25.49.82-2.78-3.52-4-4.34-1.19a41.6,41.6,0,0,1-13.89,20.17c-3.44,2.74-8.26,4.88-12.38,2.14-3-2-4.64-5.7-6.08-8.86-1.2-2.63-5.08-.35-3.88,2.27Z"/>
          <path class="cls-18" d="M61.4,690.82c3.78,8.33,12.07,15.23,19.17,20.54a135.16,135.16,0,0,0,30.18,16.52c13.32,5.42,27.93,10.48,42.39,11.27,44.93,2.45,78-39.15,96.23-75.31a205.12,205.12,0,0,0,12-29.74c2-6.26,5-13.79,4.75-20.53l-2.25,2.25c11.28-1.29,25-5.4,31.92-15a19.89,19.89,0,0,0,.72-22.16c-4-6-11.28-8.49-18.13-9.34a56.48,56.48,0,0,0-16.47.37l1.2,4.33c12-3.28,27.48-10.75,31.31-23.57,2.36-7.89-.59-17.33-7.92-21.48s-17-3.14-25-1.49a94.75,94.75,0,0,0-18.86,6l3.08.8c-11.83-15.69-28.07-30.13-46.07-38.13-11.31-5-24.5-8.07-36.81-9.57-2.32-.28-6.64-1.17-7.74,1.73-1,2.71,3.31,3.88,4.34,1.2-.7,1.83-2,1.16,0,1.29a63.59,63.59,0,0,1,7.76,1c12.46,2.33,25.28,5.21,36.47,11.35,14.52,8,28.55,20.62,38.18,33.4a2.35,2.35,0,0,0,3.08.81c10.35-4.55,36.43-13.81,44,.25,9,16.68-14.24,28.56-27,32.07-2.84.78-1.61,4.82,1.2,4.33,11.82-2,32-.62,31.92,15.38-.09,14.72-20,20.6-31.16,21.88a2.29,2.29,0,0,0-2.25,2.25c.16,4.7-1.73,9.85-3,14.26A198.84,198.84,0,0,1,248.18,656c-8,17.22-18.39,33.68-31.24,47.71-14.4,15.71-33.16,29.09-55,30.82-13.49,1.07-26.63-2.76-39.29-7a149.62,149.62,0,0,1-34.2-16.13c-8.5-5.55-18.79-13.21-23.16-22.83-1.2-2.64-5.07-.35-3.88,2.27Z"/>
          <path class="cls-18" d="M67.5,522.55A80.29,80.29,0,0,1,92.82,494c12.2-8.48,22.38-16.71,26-31.87,1.84-7.8,2.69-15.78,4.2-23.64.8-4.17,2-14.95,8.1-14.5,11.71.85,8.51,25,7.64,31.83-1.93,15.29-6.28,31.92-16,44-1.8,2.23,1.36,5.43,3.19,3.18,9.14-11.3,13.84-25.78,16.27-39.89,1.47-8.57,2.57-17.46,1.59-26.14-.58-5.15-1.89-10.95-5.9-14.58-3-2.71-7.78-4-11.44-1.85-5.22,3-6.57,10.78-7.62,16.11-1.84,9.33-2.49,19-5.35,28.12s-8.89,15.44-16.4,20.85c-8.34,6-16.5,11.39-23.09,19.44a91.54,91.54,0,0,0-10.31,15.2c-1.35,2.56,2.53,4.83,3.88,2.27Z"/>
          <path class="cls-18" d="M145.41,440.73c7.76-4.77,13.17,4.84,14.17,11.22a52.16,52.16,0,0,1-1,19.12,87.32,87.32,0,0,1-15.86,34.55c-1.76,2.26,1.4,5.47,3.18,3.18,10.07-13,17.08-29.5,18.47-45.93.62-7.36.23-16.4-4.56-22.43-4-5-11-7-16.64-3.59-2.46,1.51-.2,5.41,2.27,3.88Z"/>
          <path class="cls-18" d="M194.27,595.74c-4,15.73-11,30.8-22.56,42.43-.18.19-1.6,1.27-1.64,1.58-.12.87,1.65.18,1.47-.34-.24-.69-5-1.69-5.73-1.95a191.11,191.11,0,0,1-23.93-10.24c-13.4-7-32.58-20.92-29.52-38.66,1.62-9.33,11.73-13.4,20.19-14,9.11-.67,18.19,2.13,26.33,6a117.86,117.86,0,0,1,31.89,22.55c2,2,5.24-1.13,3.18-3.18a121.66,121.66,0,0,0-32.8-23.26c-8.67-4.13-18.3-7.2-28-6.66-8.56.47-18.36,3.76-22.93,11.54-9.35,15.89,6.59,35.07,19.06,43.5,8.75,5.92,18.55,10.29,28.36,14.14q5.15,2,10.39,3.8c1.46.49,2.87,1.25,4.38.63,1.93-.8,3.79-3.6,5.06-5.07a91.19,91.19,0,0,0,11.23-15.62,111.13,111.13,0,0,0,9.92-26c.71-2.81-3.63-4-4.34-1.19Z"/>
          <path class="cls-18" d="M137.67,715.15c9.08-4.16,13.39-13,14.38-22.57.53-5,1.39-13.59-1.53-18.13s-7.75-8.38-11.66-11.84c-6.93-6.16-14.6-11.75-23.17-15.41-11.17-4.78-33.89-8.24-39.41,6.67-4.19,11.33,3.39,23.25,11.86,30.06,14.71,11.83,33.12,20.66,50.86,27,2.73,1,3.9-3.38,1.19-4.34a206.9,206.9,0,0,1-36.94-17.71c-10.51-6.34-22.55-14.09-23.45-27.53-1-15.18,18.09-15,28.49-12,14.09,4,26.24,14.39,36,24.94a24,24,0,0,1,3.07,3.46c-.24-.39-.15-1.07-.25.24-.12,1.58.45,3.52.55,5.1.71,11-1.24,23.16-12.3,28.22-2.63,1.21-.34,5.09,2.28,3.89Z"/>
          <path class="cls-19" d="M179.92,704.61c15,5.75,29.4-7.39,26-22.76l-1.57,2.76c8.25-1.89,16.34-6.18,20.93-13.55,4.76-7.61,4.36-17.49-.15-25.12-4.7-8-13.48-12.64-22.54-13.41-9.83-.84-19.32,3.9-26.82,9.86l2.19-.58a101.63,101.63,0,0,0-18.44-4.24c-6.24-.82-15.86-1.75-19.62,4.68-6.76,11.54,2.65,26.12,8.51,35.81,1.43,2.37,2.87,4.73,4.34,7.07.58.92,1.92,2.3,2.15,3.36.15.71-.51-.19-.54.09a42.59,42.59,0,0,0-.56,4.52,31.22,31.22,0,0,0,2,10.15c2.12,6.22,6.51,9.91,13.23,10.4,6.53.49,12.41-3.3,13.92-9.76.66-2.81-3.68-4-4.34-1.19-1.51,6.42-9,8-14.33,5-4.18-2.37-6.09-10-5.95-14.62.07-2.39,1.33-4.46.59-6.71a17.7,17.7,0,0,0-2-3.17c-4-6.34-8.23-12.74-11.36-19.57-2.5-5.47-6.73-18.29,1.16-21.32,8.17-3.14,19.9.77,27.89,3.14,4.12,1.22,5.12-.77,9-3.12,7.72-4.72,16.62-7,25.4-3.94,10.23,3.55,17.46,14.18,14.74,25.09-2.35,9.47-11.64,14.74-20.51,16.77a2.29,2.29,0,0,0-1.57,2.77c2.74,12.3-8.92,21.66-20.44,17.23-2.7-1-3.87,3.31-1.2,4.34Z"/>
          <path class="cls-19" d="M169.55,702.19c-9.57-.52-5.49-24.64-1.15-33.7s35.87-40.08,47-16c4.6,11.49-10.6,20.17-14.94,21.71s-19,3.57-21.7,12.12S176.32,702.56,169.55,702.19Z"/>
          <path class="cls-18" d="M221.85,740.66c6.36,22.08,29.79,31.05,50.47,34.28,16.08,2.52,32.54,2.46,48.72,1.08,14.59-1.25,29-4.6,42.2-11a90.12,90.12,0,0,0,23.95-16.56c2.78-2.72,7.05-6.45,8.54-10.19.58-1.45.2-2.35-.2-3.78-1-3.72-2.28-7.4-3.57-11a223.32,223.32,0,0,0-16.58-36.94c-8.88-15.53-20.7-29.42-33.68-41.67-4.6-4.33-9.7-9.29-15.44-12.15a2.28,2.28,0,0,0-3.08.81c-7.17,15.66-20.65,28.64-36,36.16-12,5.88-24.32,11.06-36.09,17.39-8.35,4.49-18,9.85-23.18,18.14-6,9.59-8.89,24.34-6.1,35.44.7,2.81,5.05,1.62,4.34-1.19-3.24-12.89,1.57-30.05,11.79-38.61,11.8-9.88,27.1-15.8,40.9-22.24S305,665.52,315,653.85a79,79,0,0,0,12.08-18.05l-3.08.81c3.89,1.93,7.37,5,10.6,7.87a186.21,186.21,0,0,1,29.18,32.14,183.92,183.92,0,0,1,19.89,37.52q2.88,7.15,5.31,14.47c.78,2.36,1.18,6,2.52,8.14,1,1.53-.79-.21.43-.84-.23.12-.37.69-.56.87-1.24,1.16-2.18,3-3.31,4.25a78.3,78.3,0,0,1-17.5,14.86c-24.14,15.24-54,17.77-81.85,16.25-22.83-1.24-55.11-7-62.51-32.67C225.39,736.69,221,737.87,221.85,740.66Z"/>
          <path class="cls-18" d="M310.94,654.84c14.09,12.88,28,27,38.85,42.74,11.24,16.32,21.12,38.83,23.45,57.71.35,2.84,4.85,2.87,4.5,0-2.52-20.49-12-42-23.34-58.92-11.12-16.55-25.59-31.3-40.28-44.71-2.14-1.95-5.33,1.23-3.18,3.18Z"/>
          <path class="cls-18" d="M220.6,727.71a29.45,29.45,0,0,1-30.87,1.6c-2.54-1.39-4.82,2.49-2.27,3.88a33.93,33.93,0,0,0,35.41-1.6c2.38-1.61.14-5.51-2.27-3.88Z"/>
          <path class="cls-18" d="M275.87,613.09a112.52,112.52,0,0,1-22.55,73.62c-1.74,2.31,2.17,4.56,3.89,2.27a116.42,116.42,0,0,0,23.16-75.89c-.15-2.88-4.65-2.9-4.5,0Z"/>
          <path class="cls-18" d="M261.52,528c-3.8-6.36-11-11-17.37-14.55s-13.52-5.35-20.78-3.4c-2.79.75-1.61,5.09,1.2,4.34,6.72-1.81,13.08.39,18.88,3.85,5.2,3.11,11,6.73,14.19,12,1.48,2.48,5.38.22,3.88-2.27Z"/>
          <path class="cls-18" d="M331.29,639.23A44,44,0,0,0,340,621.74c3.2-13-1.92-25.06-5.82-37.3-4.73-14.85-8.45-29.47-6-45.12.89-5.76,2-13.16,5.71-18H330c5.64,7.44,12.5,18.63,21.79,21.73,2.76.91,3.94-3.43,1.2-4.34-4.43-1.48-7.95-6-10.88-9.45s-5.59-6.73-8.23-10.21a2.29,2.29,0,0,0-3.88,0c-3.21,4.15-4.52,10.35-5.52,15.33-2.67,13.35-1.73,26.12,1.78,39.2,1.85,6.91,4.16,13.69,6.32,20.51,2.08,6.56,4.45,13.17,4.05,20.16a38.58,38.58,0,0,1-8.49,21.76c-1.86,2.2,1.31,5.4,3.18,3.18Z"/>
          <path class="cls-18" d="M353.77,553.9c3.6-18.86,4.54-37.83,1.81-56.87a217.66,217.66,0,0,0-6-27.68c-1.66-5.9-3.18-12.81-6.84-17.83l-2.54,3.31c11.53,2.18,20,11.24,25.83,20.93,6.3,10.47,11.52,21.71,14.31,33.64.66,2.82,5,1.62,4.34-1.2A117,117,0,0,0,368.31,471c-6.34-9.6-15.28-18.26-26.93-20.47-1.71-.33-3.8,1.57-2.54,3.3,3.44,4.72,4.83,11.21,6.39,16.75A221.29,221.29,0,0,1,351,496.49c2.88,18.78,2,37.59-1.54,56.22-.54,2.83,3.79,4,4.33,1.19Z"/>
          <path class="cls-18" d="M420.07,508.89c-5.09-25.37-14.5-52.14-38.37-65.53-1.35-.76-3.58.17-3.39,1.94,2.18,19.62,4,39.48,1.94,59.19-.3,2.88,4.21,2.86,4.5,0,2-19.71.24-39.57-1.94-59.19l-3.38,1.94c22.85,12.82,31.44,38.64,36.31,62.84.57,2.84,4.9,1.64,4.33-1.19Z"/>
          <path class="cls-18" d="M418,500.62c6.48-17.81,9.83-36.38,8.42-55.32l-3.84,1.59c7.3,6.42,12.78,15.44,17.18,24,12.12,23.47,16.05,50.42,14.7,76.59C451.8,599.42,435.22,654,403.85,696c-5.3,7.11-11.13,14.4-18,20.13-2.23,1.86,1,5,3.18,3.18,5.82-4.87,10.83-10.95,15.5-16.89a232,232,0,0,0,30.69-52.77c12.3-28.93,19.57-59.81,22.85-91,3-28.15.31-57.22-11.21-83.3-5-11.22-11.74-23.38-21.11-31.61-1.34-1.18-4-.5-3.84,1.59,1.38,18.55-1.92,36.69-8.26,54.13-1,2.72,3.35,3.9,4.34,1.19Z"/>
          <path class="cls-18" d="M273.76,657.74a411,411,0,0,1,27.13-31.52c10.53-10.85,23.11-19.84,35.85-27.94,2.43-1.55.18-5.45-2.28-3.89-12.67,8.07-25.3,17-35.88,27.75a392.72,392.72,0,0,0-28,32.42c-1.78,2.24,1.38,5.45,3.18,3.18Z"/>
          <path class="cls-18" d="M336.17,607.34l-12,18c-2.51,3.77-4.09,2.13-7.7,2a7.77,7.77,0,0,0-5,1.75c-3.92,3.05-5.4,8.83-7.14,13.2l-8.83,22.27c-1.07,2.69,3.28,3.86,4.34,1.19l8.1-20.41a86.65,86.65,0,0,1,3.83-9.36c1.25-2.31,2.35-4,5.56-4,1,0,2.13.69,3.13.82,4.42.54,6-2.81,8.15-6l11.45-17.23c1.61-2.42-2.28-4.67-3.88-2.27Z"/>
          <path class="cls-18" d="M322.12,554.21c-1.79,1.51-10.4-9.74-13.32-10-2.53-.26-6.16,2-8.46,3-3.74,1.6-7.4,3.36-11,5.22-2.57,1.32-.3,5.2,2.27,3.88,4.29-2.2,8.63-4.26,13.1-6.07,2.31-.94,3.1-1.9,5.22-.18a60.4,60.4,0,0,1,4.33,4.29c3.22,3.18,6.8,6.72,11.07,3.11,2.22-1.87-1-5-3.18-3.18Z"/>
          <path class="cls-18" d="M326.48,567a97.41,97.41,0,0,0-37.65,4.28c-2.75.88-1.57,5.22,1.2,4.34a94.33,94.33,0,0,1,36.45-4.12c2.89.23,2.87-4.27,0-4.5Z"/>
          <path class="cls-18" d="M353.75,510.32a139.64,139.64,0,0,0-63.11,23.57c-2.37,1.63-.12,5.53,2.28,3.89a135,135,0,0,1,60.83-23c2.84-.33,2.87-4.83,0-4.5Z"/>
          <path class="cls-18" d="M459.35,590.16l-8.17,11.92a2.31,2.31,0,0,0,.81,3.08l36.77,27.91c1.05.8,2.41.06,3.07-.81l9.2-11.91c.79-1,.06-2.43-.81-3.08l-37.79-27.91c-2.33-1.73-4.58,2.18-2.27,3.88L498,621.16l-.81-3.08L488,630l3.08-.8-36.77-27.92.81,3.08,8.17-11.92C464.88,590,461,587.79,459.35,590.16Z"/>
          <path class="cls-18" d="M383.1,753.47c16.13-2.88,33.52-8.68,46.54-18.82,4.8-3.73,9-8.16,13.79-12,5.71-4.56,11.7-8.77,17.8-12.8a301,301,0,0,1,29.12-17.24c9-4.59,19.49-8.2,25-17.29,5.68-9.44,4.09-21.92,2.69-32.3a284.67,284.67,0,0,0-9.29-41.72c-3.8-13-8.12-26-14.4-38-2-3.83-4.48-11.14-9.6-10.48a132.28,132.28,0,0,0-18.6,3.73c-4.17,1.18-9.05,2.62-12.44,5.51-2.21,1.88,1,5,3.18,3.18,3.71-3.16,10.54-4.48,15.35-5.57s9.89-2,14.88-2.68l-2.19-.58c8.65,10.68,14.11,28.35,18.31,42.15a326.1,326.1,0,0,1,8.76,35.1c1.77,9.46,3.4,19.42,2.56,29.08-.95,11.07-8.24,17-17.57,21.64-7.24,3.6-14.41,7.17-21.4,11.25a322.57,322.57,0,0,0-27.5,17.87c-8,5.85-14.91,13.17-22.95,18.9-12.42,8.84-28.27,14-43.21,16.68-2.85.51-1.64,4.85,1.2,4.34Z"/>
          <path class="cls-18" d="M263.41,530.23c3.74-7.88-1.34-19-4.87-25.9C249.65,487,241.07,470.1,236.62,451c-3.3-14.23-6.16-31.25-3.14-45.86.14-.7.3-1.39.51-2.08-.5,1.64-.23.48.64-.47,2.83-3.09,5.47-6.37,8.2-9.56l18.34-21.39-3.53-.45,12.52,21.1L279,407.09l2.59,4.37c.18.31.48,1.14.8,1.36,1.24.82-.86-.54.1-1.16-1.19.76-1.92,6.47-2.27,7.74q-2.32,8.34-4.22,16.8c-3.13,14-5.85,28.61-5.23,43,.74,16.89,11.43,31.58,11.64,48.45,0,2.89,4.54,2.9,4.5,0-.19-15.37-9.3-28.56-11.24-43.55-1.9-14.68,1.08-30.15,4.18-44.46q2-9.21,4.51-18.3c.71-2.6,2.17-5.61,2.41-8.3.19-2.08-1.16-3.61-2.21-5.38l-7.95-13.4-15-25.36a2.26,2.26,0,0,0-3.53-.46l-15.81,18.44-9.36,10.92A17.65,17.65,0,0,0,229.6,402c-1.07,2.53-1.12,5.93-1.31,8.61a123.82,123.82,0,0,0,.84,22.85,175.13,175.13,0,0,0,16.39,55.6c4.34,9.1,10.39,17.76,13.19,27.5a25,25,0,0,1,1.22,9.08c-.06.64-.67,2.87-.41,2.32-1.23,2.6,2.64,4.89,3.89,2.27Z"/>
          <path class="cls-18" d="M245.84,487.46a100,100,0,0,0-8.53,22.85c-.72,2.81,3.62,4,4.34,1.2a94.48,94.48,0,0,1,8.08-21.78c1.37-2.55-2.51-4.82-3.89-2.27Z"/>
          <path class="cls-18" d="M299.37,397.51c22.13-16.93,51.63-30.21,79-17.2l-1.12-1.94c.22,3.46-9.81,6.79-12.29,8.08-4.23,2.2-8.43,4.46-12.54,6.89a112.2,112.2,0,0,0-21.81,16.19c-2.27,2.23-5.24,4.82-6.24,8-1.23,3.89.21,8.78,0,12.83a51.65,51.65,0,0,1-10.66,28.79c-1.74,2.32,2.16,4.56,3.89,2.27a55.45,55.45,0,0,0,10.73-25.51c.68-4.7.3-9.12.26-13.82,0-5.79,5.34-9.74,9.48-13.27,7.7-6.57,16.51-11.73,25.42-16.49,4.2-2.25,8.49-4.33,12.69-6.58,3-1.63,5.79-3.6,5.55-7.35a2.26,2.26,0,0,0-1.11-1.95c-28.86-13.74-59.9-.85-83.5,17.2-2.27,1.74,0,5.65,2.27,3.89Z"/>
          <path class="cls-18" d="M281.61,405c24.24-38.4,56-72.64,93.93-97.76a115,115,0,0,1,13.06-7.82l-3.08-3.07q-7,15.8-14,31.6A297.32,297.32,0,0,0,358,364.32c-.83,2.78,3.51,4,4.34,1.19a285.83,285.83,0,0,1,13.38-36.13q6.83-15.37,13.67-30.73a2.27,2.27,0,0,0-3.08-3.08c-14.09,6.83-26.91,17.27-38.89,27.16-22.36,18.46-41.4,39.92-58.33,63.4-3.93,5.44-7.8,10.95-11.38,16.63-1.55,2.46,2.34,4.72,3.88,2.27Z"/>
          <path class="cls-18" d="M379.15,371.16c13.08-20.52,26.47-40.86,40.7-60.6,1-1.42-.36-3.39-1.94-3.38a60.44,60.44,0,0,0-24.38,4.91c-9.17,4.17-16.28,12.93-23.6,19.7-2.13,2,1.06,5.14,3.18,3.18,6.7-6.19,13.34-14.46,21.56-18.47,7-3.42,15.45-4.79,23.24-4.82l-2-3.39c-14.23,19.74-27.62,40.08-40.69,60.6-1.56,2.45,2.33,4.71,3.88,2.27Z"/>
          <path class="cls-18" d="M272,487.33c11.7,14.71,27.45,29.72,45.28,36.52,2.71,1,3.88-3.31,1.19-4.34-17.07-6.51-32.09-21.28-43.29-35.37-1.8-2.26-5,.94-3.18,3.19Z"/>
          <path class="cls-18" d="M272,465c10.92,10,21.8,20.16,32.85,30.07,9.52,8.53,20.3,17,32.12,22.16,2.62,1.15,4.92-2.73,2.27-3.89-12.1-5.28-23-14-32.67-22.78q-15.76-14.31-31.39-28.74c-2.13-2-5.32,1.21-3.18,3.18Z"/>
          <path class="cls-18" d="M328.65,507.81c5-13.25,11.32-25.7,17.82-38.27,1.33-2.57-2.55-4.85-3.88-2.27-6.68,12.91-13.12,25.73-18.28,39.35-1,2.71,3.33,3.88,4.34,1.19Z"/>
          <path class="cls-18" d="M351.56,456.87C373.89,415.46,404,379.68,438,347.44c1.52-1.44.23-3.67-1.6-3.84a79.23,79.23,0,0,0-28.36,2.25c-10.77,3.06-20.43,10.47-29.11,17.35-2.26,1.79.94,5,3.19,3.18,8.41-6.67,17.94-13.88,28.46-16.55a77.58,77.58,0,0,1,25.82-1.73l-1.59-3.84c-34.29,32.49-64.67,68.61-87.17,110.34-1.38,2.55,2.51,4.83,3.88,2.27Z"/>
          <path class="cls-18" d="M457.59,540l11.11-3.4a2.29,2.29,0,0,0,1.57-2.77c-2.53-9.26-5.13-19.07-5.45-28.69-.08-2.48-.63-7.76.79-9.88.5-.61.52-.91.07-.93a17.42,17.42,0,0,1,1.73,2.83,59.14,59.14,0,0,1,2.95,6.73c1.3,3.34,2.95,7.21,3.08,10.85.11,2.89,4.61,2.91,4.5,0-.21-5.93-3.07-12.06-5.46-17.35-1.15-2.54-3-7.33-6.27-7.9-2.48-.43-3.94,1.6-4.68,3.68-2.59,7.27-1.09,16.2.24,23.58,1.11,6.14,2.52,12.25,4.16,18.28l1.58-2.77-11.12,3.4c-2.76.85-1.58,5.19,1.2,4.34Z"/>
          <path class="cls-18" d="M453.41,496.86a109,109,0,0,1,10.81-3c2.83-.64,1.63-5-1.19-4.34a109.93,109.93,0,0,0-10.82,3c-2.73.92-1.56,5.27,1.2,4.34Z"/>
          <path class="cls-19" d="M531.63,529.09c-.76-6.67-.13-13.65.67-20.27,1.24-10.24,2-20.47,10.89-26.8,13.11-9.34,31-12.45,46.59-14.8,4.36-.66,8.74-1.24,13.13-1.59a2.28,2.28,0,0,0,2-1.11c9.57-20.52,3.21-47-3.32-67.34-1.54-4.8-3.27-9.53-5.27-14.15a21,21,0,0,0-1.84-4c-1.16-1.54.35,0-.15.47.89-.76,1.36-4.26,1.83-5.47a47.62,47.62,0,0,1,6.78-12.09,52,52,0,0,1,12.31-11.65c1.55-1,1.43-3.65-.54-4.11-13.06-3-27.1-.92-38,7-4.51,3.24-8.41,7.45-9.28,13.11s.65,12.13,2.1,17.69c.72,2.8,5.06,1.61,4.33-1.2-1.24-4.78-2.62-10.12-2.1-15.08.6-5.77,5.31-9.58,9.93-12.44,9.39-5.81,21.15-7.17,31.87-4.69l-.53-4.11c-10,6.36-17.53,16.54-21.58,27.52-.89,2.43-1.88,4.43-1.06,6.86,1.08,3.23,2.88,6.33,4.09,9.53,5.63,14.84,10.1,31.17,10.43,47.09.16,8-.57,17.86-3.84,24.86l1.94-1.11a202.11,202.11,0,0,0-37.36,6.52c-8.39,2.32-17.06,5.26-24.28,10.24-8.34,5.76-10.48,12.55-12.19,22.31-1.64,9.34-3,19.39-2,28.89.33,2.85,4.83,2.88,4.5,0Z"/>
          <path class="cls-19" d="M590.37,349.4l7-14.06a2.28,2.28,0,0,0-2.54-3.31,62.17,62.17,0,0,0-33.76,18.43c-3.85,4.09-8.17,9.2-10,14.58-2.15,6.31.71,14.77,2.76,20.74.94,2.72,5.29,1.55,4.34-1.2-2.06-6-5-14-1.9-20a50.92,50.92,0,0,1,10.08-13,58.09,58.09,0,0,1,29.69-15.15l-2.54-3.3-7,14.06c-1.29,2.58,2.59,4.87,3.89,2.27Z"/>
          <path class="cls-19" d="M563.3,351.14a204.43,204.43,0,0,1,4.1-22,2.28,2.28,0,0,0-3.3-2.55c-15.87,8.26-27,28.09-29.59,45.43-1.34,9.08,3.69,17,7.66,24.83,5.18,10.16,10.41,20.28,14,31.13.91,2.73,5.25,1.56,4.34-1.2a182.56,182.56,0,0,0-10.31-24c-2.19-4.37-4.46-8.7-6.64-13.07s-4.73-8.81-4.88-13.77c-.25-8.77,4.65-18.78,8.94-26.15,4.61-7.93,10.49-15,18.73-19.28L563.06,328a216.69,216.69,0,0,0-4.26,23.18c-.37,2.86,4.13,2.84,4.5,0Z"/>
          <path class="cls-19" d="M555.45,539.79c13.66-9.64,29.68-18.3,46.12-21.72,20.43-4.24,42,6.73,59.79,15.69,5.46,2.76,10.89,5.63,16.16,8.76,2.5,1.48,4.76-2.41,2.27-3.89a248.49,248.49,0,0,0-43.68-20.76c-9.82-3.48-20.23-6.28-30.72-5-11.28,1.4-22.09,5.94-32.15,11.07a164.18,164.18,0,0,0-20.06,11.94c-2.35,1.66-.1,5.56,2.27,3.88Z"/>
          <path class="cls-19" d="M564.39,583.45C577,574.61,591.19,566.3,606,562c19-5.48,38.25,4.83,55.1,12.78,6.16,2.91,12.73,7.09,19.43,8.65,3.94.92,7.09-1.81,10-4.14,11.71-9.35,21.87-20.89,32-31.92,3-3.3,6.33-6.52,9-10.07-1.6,2.08-1.92.12-.71.66.79.35,2.44.11,3.3.18a44.08,44.08,0,0,1,9.48,1.64c5.16,1.6,10,4.64,14.84,7.05,1.14.57,3.08.19,3.3-1.35,2-14-11.89-29.3-23.87-34.42-11.66-5-19.88,5.45-25.94,14.05-1.67,2.37,2.23,4.62,3.88,2.27,4.73-6.7,11.34-16.24,20.63-12.06,7.3,3.29,14.5,10.64,18.15,17.66a24.31,24.31,0,0,1,2.72,8.55c.07.62,0,3.52.09,2.76l3.31-1.35c-8.8-4.4-16.62-8.51-26.59-9.3-4.83-.38-5.62.33-8.63,3.7-10.1,11.29-20.37,22.55-31.45,32.9-2.59,2.41-8,8.72-11.55,9-1.86.16-4.61-1.58-6.2-2.29-4-1.78-7.92-3.71-11.88-5.58-16.08-7.62-35.5-18.33-53.91-15.09-17.27,3-34.21,13.25-48.4,23.23-2.35,1.65-.11,5.55,2.27,3.88Z"/>
          <path class="cls-19" d="M703.29,515.36c3.29-8.7,9.66-14.4,18.89-16,10.86-1.87,24.78.76,33.52,7.88l1-3.76c-2.94.61-5.89,1.3-8.76,2.17-3.42,1-6.18,2.92-9.4,4.4-2.62,1.21-.34,5.09,2.27,3.89,3.23-1.49,6-3.28,9.42-4.26,2.52-.72,5.09-1.32,7.66-1.86a2.26,2.26,0,0,0,1-3.76c-10.08-8.21-25.33-11.25-37.91-9-10.86,1.91-18.18,9-22,19.14-1,2.71,3.32,3.88,4.33,1.19Z"/>
          <path class="cls-19" d="M672.94,535.07c2.65-4.84,5.39-9.64,8.17-14.41,4.69-8,9.25-17.76,15.65-24.6,8-8.56,23.74-8.08,34.41-5.91l-1-3.76L722.26,495c-2,2.13,1.21,5.32,3.18,3.18l7.91-8.58c1.08-1.16.75-3.41-1-3.76-11.62-2.36-26.86-2.6-36.6,5.1-3.46,2.74-5.7,6.61-8.06,10.27-3,4.69-5.91,9.45-8.74,14.25-3.39,5.74-6.71,11.52-9.91,17.37-1.39,2.54,2.5,4.82,3.89,2.27Z"/>
          <path class="cls-18" d="M462.49,512.31l17.16,8c2.61,1.21,4.9-2.67,2.27-3.89l-17.16-8c-2.61-1.22-4.9,2.66-2.27,3.88Z"/>
          <path class="cls-19" d="M485,527.54a230.87,230.87,0,0,1,.78-24.25,174.32,174.32,0,0,1,3.07-22.17c1.19-5.66,2.42-12.12,5.71-17,5.53-8.23,15.56-13.44,24.23-17.68a228.65,228.65,0,0,1,30.64-12c5.73-1.84,11.51-3.59,17.35-5,2.81-.7,1.62-5-1.2-4.34a253.84,253.84,0,0,0-47.1,16.53c-9.34,4.41-19.41,9.76-26.06,17.9-7.69,9.4-9,24.07-10.34,35.68a227,227,0,0,0-1.58,32.35c.07,2.89,4.57,2.9,4.5,0Z"/>
          <path class="cls-18" d="M464.33,561.29a183.62,183.62,0,0,0,8.68-18.6c2.65-6.93,3.45-14.68,4.85-21.94l-4.11.54,16.58,23a2.28,2.28,0,0,0,3.89,0l14-23-4.11-.54,10.63,28.08a2.28,2.28,0,0,0,4.11.54l16.43-22.47-4.11-.53c3.6,16.89,1.65,35.83-2.79,52.29C525.73,588.6,522,598.4,516.14,607a44.64,44.64,0,0,1-4.92,6.13c-.39.4-2.44,2.2-1.8,1.73-2.29,1.71-.05,5.62,2.27,3.88,11.1-8.31,16.95-24.38,20.57-37.06,5.08-17.78,7.19-38.17,3.29-56.46-.44-2.08-3.07-2-4.11-.54L515,547.1l4.12.54-10.63-28.09a2.29,2.29,0,0,0-4.12-.54l-14,23h3.89l-16.58-23c-1-1.41-3.72-1.54-4.12.54-1.34,7-2.1,14.39-4.52,21.05A156.87,156.87,0,0,1,460.45,559c-1.34,2.56,2.55,4.84,3.88,2.27Z"/>
          <path class="cls-18" d="M538.09,548.7l19.15-12.82-3.08-3.08-13.53,28.6a2.28,2.28,0,0,0,2.54,3.3l23.56-3.83-2.54-3.3L548,578.5a2.27,2.27,0,0,0,1.35,3.31L569,586.15,568.5,582c-15.21,8.8-30.73,17.3-45.24,27.23-2.38,1.63-.13,5.53,2.27,3.89,14.51-9.93,30-18.43,45.24-27.24a2.27,2.27,0,0,0-.54-4.11l-19.66-4.34,1.35,3.31,16.15-20.94c1.35-1.75-.87-3.58-2.54-3.31L542,560.36l2.54,3.31,13.54-28.6c.88-1.86-1-4.44-3.08-3.08l-19.15,12.83c-2.39,1.6-.14,5.5,2.27,3.88Z"/>
          <path class="cls-18" d="M518.45,643.73a78.79,78.79,0,0,1,30.71-3.2,2.27,2.27,0,0,0,2.25-2.25c-.33-6.67-5.76-12.34-10.53-16.54-5.86-5.14-12.67-9-19.57-12.52-2.57-1.32-4.85,2.56-2.27,3.89a106,106,0,0,1,15.34,9.14c4.79,3.57,12.21,9.59,12.53,16l2.25-2.25a82.06,82.06,0,0,0-31.91,3.36c-2.76.85-1.58,5.2,1.2,4.34Z"/>
          <path class="cls-20" d="M170.51,626.05a73.77,73.77,0,0,1-12.22-5.36c-5.08-2.79-9.63,5-4.54,7.77a85.62,85.62,0,0,0,14.37,6.26c5.51,1.84,7.87-6.85,2.39-8.67Z"/>
          <path class="cls-20" d="M139.92,694.44a75.71,75.71,0,0,1-10.32-5.7,4.5,4.5,0,0,0-4.54,7.78,76.13,76.13,0,0,0,10.32,5.69c2.21,1,4.84.63,6.16-1.61,1.13-1.94.61-5.15-1.62-6.16Z"/>
        </g>
      </g>
    </g>
    <g id="Слой_7" data-name="Слой 7">
      <path class="cls-21" d="M410.2,451.09a563,563,0,0,0-14.95-116.73,294.61,294.61,0,0,0-14.79-46.43c-1.66-3.94-8.19-2.2-6.5,1.8,19.57,46.4,26.11,98.7,28.93,148.65.24,4.23.46,8.47.56,12.71s6.85,4.35,6.75,0Z"/>
      <path class="cls-21" d="M376.67,230.28c8.49,14.81,14.9,31,20.62,47.07,13.64,38.15,21.14,77.69,24.7,118,1.12,12.74,2.06,25.55,2.31,38.34.09,4.34,6.84,4.35,6.75,0C429.74,368.45,418,302.48,390.57,243c-2.51-5.44-5.09-10.9-8.07-16.1-2.16-3.77-8-.37-5.83,3.41Z"/>
      <path class="cls-21" d="M414.65,257.05a668.27,668.27,0,0,1,21.82,79.6,578.39,578.39,0,0,1,10.7,70.5c1.17,13.17,2.1,26.55,1.17,39.76a50.26,50.26,0,0,1-1.09,8.32c-.18.77-1.12,3.09-.44,1.77-2,3.86,3.85,7.28,5.83,3.4,1.44-2.83,1.72-6.34,2.08-9.43,1.34-11.59.7-23.47-.11-35.08-3.07-44.11-11.8-87.62-23.95-130.08-2.94-10.25-6-20.49-9.5-30.56-1.42-4.07-7.94-2.32-6.51,1.8Z"/>
      <path class="cls-21" d="M100.41,473.5c3.37-36.17,11.15-73,23.55-107.08a200.9,200.9,0,0,1,19-39.63c2.34-3.68-3.5-7.07-5.83-3.41-14.25,22.39-23,48.14-29.62,73.68a529.89,529.89,0,0,0-12.29,63.67c-.56,4.25-1.11,8.5-1.51,12.77s6.35,4.29,6.75,0Z"/>
      <path class="cls-21" d="M74.23,463.38c0-39,6-80,19.57-116.58,5.4-14.54,12.47-28.75,22.38-40.77,2.74-3.33-2-8.13-4.77-4.78-18,21.88-27.63,49.68-33.88,77A414.73,414.73,0,0,0,68,449.09c-.26,4.75-.47,9.53-.47,14.29,0,4.34,6.74,4.35,6.75,0Z"/>
      <path class="cls-21" d="M153.34,412.6c2.3-16.68,9.72-33.08,18.89-47,2.4-3.64-3.45-7-5.83-3.41-9.44,14.33-17.2,31.44-19.57,48.61-.59,4.25,5.91,6.09,6.51,1.8Z"/>
      <path class="cls-21" d="M668.28,368c20,29.16,33.71,64,41.55,98.31.91,3.95,7,2.28,6.08-1.68C708,430,694,394.42,673.72,364.86c-2.28-3.33-7.74-.18-5.44,3.18Z"/>
      <path class="cls-21" d="M671.34,321.57c22.87,32.54,41.3,69.36,54.83,106.67,1.37,3.78,7.46,2.14,6.08-1.68-13.72-37.82-32.28-75.17-55.47-108.17-2.31-3.29-7.78-.15-5.44,3.18Z"/>
    </g>
    <g id="Слой_8" data-name="Слой 8">
      <g>
        <circle class="cls-2" cx="60.4" cy="148.57" r="58.12"/>
        <path class="cls-19" d="M116.27,148.57C116,172,101.33,193.41,79,201.25A55.88,55.88,0,1,1,72,93.9c25.72,5.5,43.95,28.54,44.26,54.67,0,2.89,4.53,2.9,4.5,0A61.13,61.13,0,0,0,81.48,92a60.38,60.38,0,1,0-9.59,115.85c28.29-5.37,48.54-30.78,48.88-59.27C120.8,145.67,116.3,145.67,116.27,148.57Z"/>
      </g>
      <g>
        <circle class="cls-2" cx="202.82" cy="239.29" r="52.74"/>
        <path class="cls-19" d="M253.52,239.29c-.28,21.26-13.55,40.72-33.81,47.82a50.71,50.71,0,1,1-6.47-97.46c23.43,5,40,25.88,40.28,49.64,0,2.62,4.12,2.63,4.08,0A54.78,54.78,0,1,0,213,293.12c25.82-4.76,44.28-27.88,44.61-53.83C257.64,236.66,253.55,236.66,253.52,239.29Z"/>
      </g>
      <g>
        <circle class="cls-2" cx="472.2" cy="60.31" r="58.12"/>
        <path class="cls-19" d="M528.07,60.31c-.27,23.43-14.94,44.85-37.22,52.68A56.44,56.44,0,0,1,428.79,95.5a55.88,55.88,0,0,1,55-89.85c25.73,5.5,44,28.53,44.26,54.66,0,2.89,4.54,2.9,4.5,0a60.37,60.37,0,1,0-112.16,31,61,61,0,0,0,63.28,28.24c28.29-5.36,48.55-30.77,48.88-59.27C532.61,57.41,528.11,57.41,528.07,60.31Z"/>
      </g>
      <g>
        <circle class="cls-2" cx="327.5" cy="118.43" r="42.89"/>
        <path class="cls-19" d="M368.73,118.43c-.27,17.17-10.81,32.84-27.12,38.76a41.24,41.24,0,1,1-6.4-79.28c19.45,3.71,33.21,20.93,33.52,40.52,0,2.13,3.35,2.14,3.32,0a44.55,44.55,0,1,0-36,43.72c20.89-4,35.63-22.72,36-43.72C372.08,116.29,368.76,116.29,368.73,118.43Z"/>
      </g>
      <g>
        <circle class="cls-2" cx="574.07" cy="179.93" r="45.32"/>
        <path class="cls-19" d="M617.64,179.93c-.27,18.21-11.52,34.84-28.84,41a43.58,43.58,0,1,1-5.73-83.66c20.14,4.28,34.27,22.24,34.57,42.64,0,2.26,3.55,2.26,3.51,0a47.08,47.08,0,1,0-38.46,46.29c22.27-4.05,38.13-23.93,38.46-46.29C621.19,177.67,617.68,177.67,617.64,179.93Z"/>
      </g>
      <g>
        <circle class="cls-2" cx="706.9" cy="118.43" r="58.12"/>
        <path class="cls-19" d="M762.77,118.43c-.27,23.43-14.94,44.84-37.22,52.68a55.88,55.88,0,0,1-66.22-82,56.36,56.36,0,0,1,59.18-25.36c25.73,5.5,44,28.54,44.26,54.67,0,2.89,4.54,2.9,4.5,0a60.37,60.37,0,1,0-112.16,31,61,61,0,0,0,63.28,28.24c28.29-5.36,48.55-30.77,48.88-59.27C767.3,115.53,762.8,115.53,762.77,118.43Z"/>
      </g>
      <g id="Слой_9" data-name="Слой 9">
        <path class="cls-19" d="M57.39,183.55,32.22,124.33l-1.31,5,42.82-18.2-5-1.31,25.16,59.21c1.84,4.34,8.17.6,6.34-3.7L75.05,106.14c-.85-2-3.4-2-5-1.32L27.2,123c-2,.84-2,3.4-1.32,5l25.17,59.22c1.84,4.33,8.16.59,6.34-3.71Z"/>
        <path class="cls-19" d="M178.09,270.67l25.77-68.93-4.15,2.35c12.58,3.22,28.31,12.48,27.7,27.23-.21,5-1.8,10.72-6.36,13.36-3.87,2.25-8.87,2-13.12,1.25a58.14,58.14,0,0,1-17.37-6.13c-3.82-2.07-7.23,3.76-3.4,5.83,10.94,5.92,28.93,12.29,39.76,3.13,7.05-6,8.79-17.61,6.09-26.1-2.59-8.14-9-14.25-16.18-18.54a58.72,58.72,0,0,0-15.33-6.54,3.47,3.47,0,0,0-4.15,2.36l-25.77,68.94c-1.52,4.07,5,5.83,6.51,1.79Z"/>
        <path class="cls-19" d="M331.24,95c7.88.62,9.57,9.91,9.6,16.31,0,8.49-2.25,17.84-7.32,24.77-3.72,5.11-10.7,8.63-15.48,2.62-5.09-6.4-4.49-17-2.86-24.46,1.73-7.94,6.28-19.47,16.06-19.24,4.34.1,4.34-6.65,0-6.75-22.93-.54-29.49,38-19.44,53.27,5.62,8.54,16.47,9.14,23.77,2.4,8-7.42,11.51-19.8,12-30.4.49-11.15-3.4-24.25-16.31-25.27C326.9,87.87,326.93,94.62,331.24,95Z"/>
        <path class="cls-19" d="M474.11,14.74,440.62,85.6a3.46,3.46,0,0,0,1.21,4.62c11.64,6.46,28.58,13.36,41.8,8.44,8.36-3.1,13.34-12,12.4-20.78s-7.57-15.45-14.47-20.29a70.26,70.26,0,0,0-16.92-8.66c-3.57-1.25-6.09,4.57-2.6,6.17,12.57,5.76,36.48,12.22,41.43-6.27C508,32,491.65,19,477.92,13.19c-4-1.69-5.75,4.84-1.8,6.5-1.56-.66.14.07.5.25.93.47,1.86.92,2.78,1.42a55.6,55.6,0,0,1,7.71,5c6,4.68,11.68,11.51,10.11,19.63-2.75,14.25-23.26,7.23-31.77,3.32l-2.6,6.17c11.73,4.11,32.72,15.93,24.89,31.17-7.46,14.49-32.29,3.45-42.5-2.22L446.45,89l33.48-70.87C481.78,14.24,476,10.81,474.11,14.74Z"/>
        <path class="cls-19" d="M557.69,208.34l18.71-61.79h-6.51l24.7,59.75c1.63,3.95,8.17,2.22,6.5-1.8L576.4,144.76c-1.22-2.95-5.47-3.45-6.51,0l-18.71,61.78c-1.26,4.17,5.25,6,6.51,1.8Z"/>
        <path class="cls-19" d="M586.08,179.27l-21.93,1c-4.33.19-4.35,6.95,0,6.75l21.93-1c4.33-.19,4.35-6.94,0-6.75Z"/>
        <path class="cls-19" d="M706.88,155,690.54,86.54l-5,3.81,55.15,31.15c3.79,2.14,7.19-3.69,3.41-5.83L689,84.52a3.42,3.42,0,0,0-5,3.82l16.34,68.42c1,4.22,7.52,2.44,6.51-1.79Z"/>
      </g>
    </g>
  </g>
</svg>
