<svg xmlns="http://www.w3.org/2000/svg" viewBox="0 0 306.27 368.64"><g data-name="Слой 2"><g data-name="Layer 1"><path d="M5.76 59h78.73c-.4-1-.77-1.92-1.1-2.91a42.5 42.5 0 1 1 80.54 0c-.33 1-.7 2-1.1 2.91h78.73a5.76 5.76 0 0 1 5.76 5.76v70.14c1-.4 1.93-.77 2.91-1.1a42.49 42.49 0 1 1 0 80.54c-1-.33-2-.7-2.91-1.1v87.27a5.76 5.76 0 0 1-5.76 5.76h-80.34a41.73 41.73 0 0 1 1.82 3.89 42.5 42.5 0 1 1-78.76 0 41.73 41.73 0 0 1 1.82-3.89H5.76A5.76 5.76 0 0 1 0 300.51v-75.62a42.28 42.28 0 0 0 42.28-42.28A42.28 42.28 0 0 0 0 140.33V64.71A5.76 5.76 0 0 1 5.76 59Z" style="fill:#ec407a"/><path d="M1.07 303.86 244.91 60a5.77 5.77 0 0 1 2.41 4.69v70.21c1-.4 1.93-.77 2.91-1.1a42.49 42.49 0 1 1 0 80.54c-1-.33-2-.7-2.91-1.1v87.27a5.76 5.76 0 0 1-5.76 5.76h-80.34a41.73 41.73 0 0 1 1.82 3.89 42.5 42.5 0 1 1-78.76 0 41.73 41.73 0 0 1 1.82-3.89H5.76a5.77 5.77 0 0 1-4.69-2.41Z" style="fill:#d81b60;fill-rule:evenodd"/></g></g></svg>