<svg xmlns="http://www.w3.org/2000/svg" xmlns:xlink="http://www.w3.org/1999/xlink" viewBox="0 0 857.6 683.77">
  <defs>
    <style>
      .cls-1 {
        fill: #dd9553;
      }

      .cls-2 {
        fill: #8d2f08;
      }

      .cls-3 {
        fill: #ffe297;
      }

      .cls-4 {
        fill: #8084aa;
      }

      .cls-5 {
        fill: #ffbf5d;
      }

      .cls-6 {
        fill: #526b41;
      }

      .cls-7 {
        fill: #8c5836;
      }

      .cls-8 {
        fill: #706898;
      }

      .cls-9 {
        fill: #3c4061;
      }

      .cls-10 {
        fill: #a5b8e8;
      }

      .cls-11 {
        fill: #d19d7b;
      }

      .cls-12 {
        fill: #5b3925;
      }

      .cls-13 {
        fill: #343256;
      }

      .cls-14 {
        fill: #62749f;
      }

      .cls-15 {
        fill: #232024;
      }

      .cls-16 {
        fill: #292929;
      }

      .cls-17 {
        fill: #4f5b66;
      }

      .cls-18 {
        fill: url(#Безымянный_градиент_6);
      }

      .cls-19 {
        fill: url(#Безымянный_градиент_6-2);
      }

      .cls-20 {
        fill: #030729;
      }

      .cls-21 {
        fill: #f16a43;
      }

      .cls-22 {
        fill: #fff;
      }
    </style>
    <linearGradient id="Безымянный_градиент_6" data-name="Безымянный градиент 6" x1="322.45" y1="132.44" x2="322.45" y2="90.65" gradientUnits="userSpaceOnUse">
      <stop offset="0" stop-color="#030729"/>
      <stop offset="0.34" stop-color="#030626"/>
      <stop offset="0.62" stop-color="#02051b"/>
      <stop offset="0.89" stop-color="#01020a"/>
      <stop offset="1"/>
    </linearGradient>
    <linearGradient id="Безымянный_градиент_6-2" x1="392.21" y1="157.97" x2="392.21" y2="100.43" xlink:href="#Безымянный_градиент_6"/>
  </defs>
  <g id="Слой_2" data-name="Слой 2">
    <g id="Слой_10" data-name="Слой 10">
      <g>
        <path class="cls-1" d="M776.29,366.23l-20.55,19.14s-20.47,22,10.27,61.45,57.47,25.35,57.47,25.35l22.72-15.8"/>
        <path class="cls-2" d="M775.27,365.21c-6.88,6.4-14.73,12.46-20.9,19.55-6.46,7.42-7.62,19-6.19,28.25,1.67,10.89,6.91,21,13.18,29.94,7,9.94,15.47,19.3,25.87,25.74,10.09,6.23,23.15,9.77,34.72,5.66,3-1.08,5.5-3.19,8.15-5l16.83-11.7c1.51-1.05.07-3.56-1.46-2.49C838,460.3,830.68,466.68,822.69,471c-7.67,4.11-18.47,2.33-26.07-.7-10.27-4.11-18.83-11.74-26-20-8.08-9.38-15.28-20.35-18.52-32.42-2.62-9.79-2.66-22.55,4.15-30.86,2.36-2.89,5.54-5.28,8.26-7.81l12.76-11.89c1.37-1.27-.68-3.31-2-2Z"/>
      </g>
      <g>
        <path class="cls-1" d="M731,549.72l-21.78,10S670.63,571.41,649,532.61s6.27-63.94,6.27-63.94l21.19-15.75"/>
        <path class="cls-2" d="M730.31,548.58c-7.08,3.26-15.87,8.42-22.5,10.15a51.54,51.54,0,0,1-30.51-2c-33-12.58-46.83-59.55-22.24-86,5.38-5.79,15-11.43,22.07-16.69,1.35-1,0-3.29-1.33-2.27-7.29,5.42-15.61,10.36-22.17,16.65-8.91,8.53-13.86,21.85-14.14,34-.46,20.27,11.28,42.07,28.58,52.7,11.14,6.84,24.76,8.94,37.57,6.74,9.1-1.57,17.69-7.19,26-11,1.54-.71.2-3-1.33-2.28Z"/>
      </g>
      <g>
        <path class="cls-1" d="M553.38,521.58l-12.06,4.47s-41.92,19.15-25.24,70.22C530.22,639.56,579,636.11,579,636.11l18.06-5.24"/>
        <path class="cls-2" d="M553,520.32c-7.52,2.79-14.25,4.95-20.63,9.85a54.15,54.15,0,0,0-21,35.42c-2.66,19.51,4.09,41.93,18.77,55.37,10.77,9.86,25.12,14.85,39.48,16.19,3.1.28,6.61.74,9.72.21,6-1,12.15-3.52,18.06-5.24a1.3,1.3,0,0,0-.69-2.51c-7.62,2.21-14.77,5.44-22.14,5.24-12.51-.35-25.28-3.65-35.83-10.5-17.25-11.22-25.87-32.46-25.28-52.63a51.4,51.4,0,0,1,18.17-37.61c7.11-6.11,13.49-8.1,22.07-11.28,1.56-.58.89-3.09-.69-2.51Z"/>
      </g>
      <g>
        <path class="cls-1" d="M153.41,647.55l16.11,2.67s44.09,1.7,54.64-51.57c7.34-37.06-28.25-62.3-28.25-62.3L171,528.85"/>
        <path class="cls-2" d="M153.06,648.8c7.62,1.27,15,3.33,22.73,2.28a55.39,55.39,0,0,0,31.94-16c13.63-13.92,21.23-36.3,17.94-55.56-2.75-16.12-12.85-30.52-25-41.07a20.06,20.06,0,0,0-8.83-4.74l-20.44-6.17a1.3,1.3,0,0,0-.69,2.51l15.75,4.75c3.4,1,7.6,1.78,9.86,3.41a71.76,71.76,0,0,1,24.54,33.07c11.14,31.75-9.9,70.81-43.32,76.85-8.43,1.53-15.06-.44-23.76-1.89-1.64-.27-2.34,2.24-.69,2.51Z"/>
      </g>
      <g>
        <path class="cls-1" d="M71.76,465.43,90.2,478.55s28.26,29.54-2.89,72.95-67.07,14-67.07,14"/>
        <path class="cls-2" d="M71.11,466.56c5.74,4.09,14,8.79,18.32,13.08,5.35,5.26,8.54,13.8,10.09,20.9,4,18.23-3.15,36.48-13.88,51.05-10,13.57-24.61,24.15-42.17,22.09a45.31,45.31,0,0,1-22.31-9c-1.29-1-3.14.79-1.83,1.84a47.78,47.78,0,0,0,20.19,9.2c14.89,3,29-2.47,39.82-12.84,21.75-21,33.48-57.42,13.35-83.3-1.62-2.09-3.5-3.28-5.68-4.84L72.42,464.31c-1.37-1-2.67,1.28-1.31,2.25Z"/>
      </g>
      <g>
        <path class="cls-1" d="M297.22,561.5,312,562.56s43.92,12,43.15,60.77-43.71,58.59-43.71,58.59l-17.88.55"/>
        <path class="cls-2" d="M297.22,562.8c8.11.59,14,.31,21.09,3.58,12,5.54,22.42,14.61,28.67,26.34,9.42,17.7,9.36,41.43.13,59.2a58.16,58.16,0,0,1-28.34,26c-8.41,3.71-15.73,2.93-25.22,3.22-1.67.05-1.68,2.65,0,2.6,8.18-.25,16.3.54,24-2.5a61.52,61.52,0,0,0,29.73-24.34c10.53-17,12.11-40.11,5.06-58.67-5.3-13.94-15.85-25.17-28.9-32.22-3.3-1.79-7.06-3.8-10.76-4.64-4.9-1.11-10.42-.84-15.44-1.2-1.67-.12-1.67,2.48,0,2.6Z"/>
      </g>
      <g id="Слой_9" data-name="Слой 9">
        <g>
          <ellipse class="cls-3" cx="46" cy="515.49" rx="56.3" ry="40.98" transform="translate(-433.41 320.53) rotate(-62.77)"/>
          <path class="cls-2" d="M81.25,533.55c-8.75,16.6-24.68,32.79-44.51,34-20.17,1.2-32.62-16-33.85-34.66-1.4-21.12,8.56-43,24.4-56.79,13.35-11.65,34.45-18.52,49.43-5.65,18,15.48,14,44.25,4.53,63.13-.8,1.58,1.59,3,2.39,1.39,9.38-18.72,13.29-44.63-.84-62.19-12.38-15.38-33.37-14.48-49-4.89C14,480,1,503.46.05,526.5c-.78,18.76,8.12,39.57,28.39,43.28,23.82,4.36,45-15.42,55.2-34.84C84.47,533.37,82.08,532,81.25,533.55Z"/>
        </g>
        <g>
          <ellipse class="cls-3" cx="162.22" cy="588.2" rx="60" ry="52.43" transform="translate(-443.42 662.28) rotate(-81.56)"/>
          <path class="cls-2" d="M212.77,595.54c-3.54,22.25-18.09,43.46-40.67,49.56-22.09,6-44-5.88-54.26-25.63-10.87-20.86-8.57-47.46,4.82-66.63,12.6-18,35.37-28.16,56.79-20.49,25.46,9.12,36.8,37.9,33.32,63.19-.23,1.7,2.38,2.44,2.62.72,3.22-23.41-5-49-25.77-62-20.19-12.63-45.75-7.76-62.19,8.66-17.79,17.75-23.8,45.92-15.53,69.55,7.58,21.65,27.51,38.27,51.18,36.8,28.12-1.74,48.1-26.66,52.31-53C215.66,594.55,213.05,593.81,212.77,595.54Z"/>
        </g>
        <g>
          <ellipse class="cls-3" cx="295.38" cy="621.99" rx="60.51" ry="56.2" transform="translate(-335.26 898.4) rotate(-88.26)"/>
          <path class="cls-2" d="M350.24,623.69c-1,23.83-15.2,46.72-38.34,54.68-22.67,7.8-47.46-1.59-60.79-21.16-13.57-19.94-14.08-47.16-1.49-67.7,12.23-19.93,36-31.08,59-25,26.33,6.91,42.13,32.93,41.62,59.23a1.32,1.32,0,0,0,2.63,0c.48-24.74-12.75-49.26-36.06-59.18-22.84-9.73-49.24-2.14-64.69,17-16,19.76-18.69,48.31-7,70.84,11.23,21.63,35,34.89,59.33,30.7,28.46-4.9,47.27-31.48,48.41-59.31C352.94,622,350.31,622,350.24,623.69Z"/>
        </g>
        <g>
          <ellipse class="cls-3" cx="441.05" cy="621.03" rx="59.62" ry="58.47"/>
          <path class="cls-2" d="M499.37,621a57.91,57.91,0,0,1-38.56,53.8c-22.74,8-48.83,1.2-64.52-17.16a56.83,56.83,0,0,1-5.14-66.23c12.82-20.75,38.1-31.28,61.9-26.36A58.1,58.1,0,0,1,499.37,621a1.31,1.31,0,0,0,2.61,0,60.59,60.59,0,0,0-39.85-56.09c-23.89-8.71-51.76-1.42-68.1,18.1a59.47,59.47,0,0,0-5.13,68.9c13.2,21.38,38.9,32.33,63.52,27.82A60.75,60.75,0,0,0,502,621,1.31,1.31,0,0,0,499.37,621Z"/>
        </g>
        <g>
          <ellipse class="cls-3" cx="575.22" cy="576.22" rx="55.15" ry="58.85" transform="translate(-172.8 254.71) rotate(-21.79)"/>
          <path class="cls-2" d="M625.18,556.1c8.36,21.62,4.6,47.19-12.69,63.43-17,16-42.79,17.76-62.58,5.92-20.1-12-31.52-35.93-28.63-59.13C524.13,543.47,541,523.94,564,519.9c26.32-4.62,51.29,12.26,61.18,36.2.63,1.52,3.15.85,2.51-.7-9.11-22-29.9-38.53-54.28-38.84-24.18-.31-45.27,16.1-52.42,38.92-7.5,23.91.93,51.24,20.3,67.06,18.32,15,44.59,18,64.91,5.13,24.11-15.21,31.45-46.49,21.49-72.27C627.09,553.86,624.57,554.53,625.18,556.1Z"/>
        </g>
        <g>
          <ellipse class="cls-3" cx="702.73" cy="501.85" rx="48.96" ry="55.53" transform="translate(-153.79 392.02) rotate(-28.23)"/>
          <path class="cls-2" d="M744.77,479.34c9.89,18.94,10.31,43.57-4.13,60.45-13.79,16.11-36.79,18.78-55.18,9.3-19.33-10-32-31.15-32-52.85,0-20.63,12.26-40.43,32.85-45.85,23.77-6.26,47.18,8.53,58.44,28.95.79,1.42,3,.15,2.18-1.28-10.66-19.32-31.42-33.63-54.14-31.38-21.95,2.18-38.17,20-41.25,41.34-3.32,23,7.74,46.93,26.91,59.86,17.64,11.9,41.59,13,58.46-.93,20.39-16.82,21.61-46.69,10-68.89C746.2,476.62,744,477.9,744.77,479.34Z"/>
        </g>
        <g>
          <ellipse class="cls-3" cx="811.25" cy="411.3" rx="34.85" ry="57.04" transform="translate(-81.88 583.4) rotate(-37.79)"/>
          <path class="cls-2" d="M837.54,390.67c11,14.51,21.89,36.53,14.69,55.05-6.92,17.79-27.61,15.7-41.6,8.32-18.51-9.77-33.37-28.26-39.64-48.14-4.66-14.8-4.78-37.33,13.76-42.22,20.47-5.4,41.43,12.61,53,27.28,1.15,1.46,3.18-.59,2-2-11.92-15.09-31.69-31.43-52.41-28.68-18.46,2.45-24,21.22-21.37,37.37,3.67,22.58,19.23,43.95,38.35,56.13,13.48,8.58,34.82,14.61,46.59-.07,15.08-18.81,1.37-48.28-10.94-64.46C838.92,387.75,836.41,389.19,837.54,390.67Z"/>
        </g>
      </g>
      <g id="Слой_11" data-name="Слой 11">
        <path class="cls-2" d="M14.65,531.25l35.88-51.11-4.62,1.21,27.78,19.11-1.21-4.62L32.65,550c-2.58,3.5,3.28,6.87,5.83,3.4l39.83-54.12c1.14-1.55.16-3.68-1.21-4.62L49.32,475.52c-1.59-1.09-3.63-.19-4.62,1.21L8.82,527.84c-2.5,3.56,3.35,6.94,5.83,3.41Z"/>
        <path class="cls-2" d="M128.35,614l33.7-63-3.81,1.55c10.89,4.09,24,11,30,21.38,3.54,6.11,2.91,16.19-4.81,18.79-7,2.34-15.6-1.93-21.61-5.13a106.53,106.53,0,0,1-10.22-6.25c-1.12-.77-2.23-1.56-3.32-2.37a8.49,8.49,0,0,1-.75-.57c-3.37-2.67-8.18,2.07-4.77,4.77a103.3,103.3,0,0,0,15.24,10c7.79,4.19,17.84,8.68,26.85,6.13s13.65-12.68,12-21.51c-1.76-9.47-9.78-16.53-17.37-21.69A93.72,93.72,0,0,0,160,546a3.39,3.39,0,0,0-3.81,1.55l-33.71,63c-2,3.83,3.78,7.24,5.83,3.41Z"/>
        <path class="cls-2" d="M256,654.14l33.58-67.46,4.89-9.82-6.17-.8L321,654.69c1.64,4,8.18,2.22,6.51-1.79l-32.68-78.64c-1-2.4-4.73-3.69-6.17-.8l-33.58,67.45-4.89,9.82c-1.93,3.88,3.89,7.3,5.83,3.41Z"/>
        <path class="cls-2" d="M310.2,616.62h-41c-4.34,0-4.35,6.75,0,6.75h41c4.34,0,4.35-6.75,0-6.75Z"/>
        <path class="cls-2" d="M406.78,584.91l11.57,78c.3,2,2.54,2.58,4.16,2.36,16-2.19,36-6.82,47.72-18.66,7.29-7.4,8.63-18.73,1.74-27-7.2-8.64-20-8.43-30.15-6.9a106.66,106.66,0,0,0-25.66,7.4c-3.69,1.58-.93,6.9,2.6,6.17,14.16-2.91,32-8.53,41.15-20.38a18.86,18.86,0,0,0-.92-24.61c-6.89-7.37-18.28-7.5-27.56-6.28a92.51,92.51,0,0,0-22.29,5.79c-4,1.6-2.25,8.13,1.79,6.5,11.16-4.48,27.86-9.64,39.34-4.11a12.18,12.18,0,0,1,4.1,18.9c-5.13,6.4-13.65,10.13-21.14,12.91A110.94,110.94,0,0,1,417,619.73l2.6,6.17c-1.29.55.3-.12.81-.31,1.25-.48,2.51-1,3.77-1.41a121.91,121.91,0,0,1,12.12-3.57c8.54-2,20.67-4.34,28.38,1.27s5.92,15.36-.34,21c-6.89,6.2-16.48,9.41-25.24,11.88a135.5,135.5,0,0,1-18.36,4l4.15,2.36-11.57-78C412.65,578.83,406.15,580.65,406.78,584.91Z"/>
        <path class="cls-2" d="M534.1,553l40.68,72.17c1.68,3,6.22,1.58,6.29-1.7l1.77-82.43.25-11.87-6.29,1.71,37,69.44c2,3.84,7.87.43,5.83-3.41l-37-69.44c-1.62-3-6.22-1.52-6.29,1.7l-1.77,82.44-.25,11.86,6.29-1.7-40.68-72.17c-2.14-3.79-8-.39-5.83,3.4Z"/>
        <path class="cls-2" d="M702.65,547l-19.34-75-2.79-10.79-5,3.81,69.79,47.32c3.61,2.45,7-3.4,3.41-5.83L679,459.22c-2.53-1.71-5.65,1.11-5,3.81l19.35,75,2.78,10.79c1.08,4.21,7.6,2.42,6.51-1.79Z"/>
        <path class="cls-2" d="M825.54,448.18l-34.83-67.89-5-9.73-4.61,4.62,65.7,48.68c3.49,2.59,6.86-3.27,3.4-5.83l-65.7-48.68c-2.92-2.17-6,1.9-4.61,4.62l34.83,67.89,5,9.73c2,3.86,7.81.45,5.82-3.41Z"/>
        <path class="cls-2" d="M815.27,400.84a138.5,138.5,0,0,1-9.92,12.35c-2.9,3.22,1.86,8,4.77,4.77a157.28,157.28,0,0,0,11-13.71c2.52-3.54-3.33-6.92-5.83-3.41Z"/>
      </g>
    </g>
    <g id="Слой_7" data-name="Слой 7">
      <path class="cls-4" d="M269.78,192s-19.63-17.28-4.79-62.47,24.32-55,24.32-55L265,68.89l-12.74-6.52-3.58-6.1V50.22s3-7.21,22.49-2S313,46.31,313,46.31l-.51-30.39,7.63-13.18s19-5.84,27.14,11.91,9.78,13.79,9.78,13.79,7.44-8.3,19.81-1.15,8.76,8.93,8.76,8.93S399.05,17,418.71,13.46s15.71,18.42,15.71,18.42l-13,29.24,17.22-1,36.61,16.72,44.81-9.19,8.58,2.18,2.92,3L504.5,110.78l-26.81,13.11-.42,20.17-8.9,50.72-21.32,14.44-1.27,35.68-4,5.7-5.75,1.49-9.42-2.2-6.79-6.09-8-10.85-.45,11.74-2.62,7.57-4.66,7L395,263.7l-5.68,1.59s-8.53-2.59-13.75-8.08-7.44-13.45-7.44-13.45Z"/>
      <path class="cls-5" d="M357.18,138.09l-12.53,12.39-22.2,4-21.95,5.83s4.05-22.14,14.15-31.11,23.26-15,23.26-15l6.74-1,3.28,2,4.78,5.89Z"/>
      <path class="cls-6" d="M358.59,240.69l-89.75-30.14-2.7-6.07L274.2,182l16.6-43.28,14.17,4s-3.7,10.34-4.47,13.79,1.85,3.55,1.85,3.55l26.49-7,8.43-1.21,6,2,35.15,11.91,1.49,2.22L358,240Z"/>
      <path class="cls-1" d="M468,221.55l-9.22,9.23-8.06,5.56s2.39-10.3,1.59-13.44a85.87,85.87,0,0,1-1.45-9.11l15.91-8.33Z"/>
      <path class="cls-1" d="M362.12,259.15,350.84,257s3.28-7.4,2.94-9.06-8-7-13.31-9.24-15.27-1.23-15.27-1.23l-3.5,6.78-3.79-1.66,1.91-15,43,14.64Z"/>
      <path class="cls-5" d="M281.36,384.35,231,334s29.57-15.25,33-18.52,25.32-18.1,25.32-18.1l32.61-36.17,17.76,8-14.16,36.84L313,333.52,298.73,359.2Z"/>
      <path class="cls-7" d="M191.8,295.53s5.1-29,3.75-37.77S191.8,225,191.8,225L265,186.13l4.79,5.88L265,206.35l2.32,2.93,11.15,5.24,12.65,20.55s-7.77,20.27-9.23,28.54-.56,37-.56,37L273.83,307,265,312.61s-7.81-17.28-9.17-23.41-3.06-12-3.06-12l-45.17,18.5Z"/>
      <path class="cls-7" d="M568.5,233s-1,8.6-.82,11.87,4.3,38.87,0,60.3c-4.25,21.06-5,25.44-22.86,46.08S522.93,363,522.93,363,493,345.79,475.86,324.13s-30-46.19-30-46.19l-5.69-11.62,24.58-35.61,23.84-21.49S465,182,470,160.86a45.3,45.3,0,0,1,22.68-29.33L630,145l64.15-9.6s8.19,21.71,8.43,41.09-.4,30.17-.4,30.17-33.24,20.21-70.86,20S568.5,233,568.5,233Z"/>
      <polygon class="cls-7" points="311.84 371.74 304.18 368.47 297.13 362.16 302.46 355.07 307.99 360.69 311.84 371.74"/>
      <path class="cls-8" d="M468,315.5s-19.56,6.65-50,8.73-56-2.57-68.69-6.46A106.19,106.19,0,0,1,326,307s9-23.54,11.32-29a100.24,100.24,0,0,0,4.14-13.44l9.43-7.51,24.09,4.82s7,2.16,12.81,3.61,12.34-2.84,12.34-2.84l11.86-8.2,14.71-4.52,7.64,3s11.15,26,15.74,34.4S468,315.5,468,315.5Z"/>
      <path class="cls-8" d="M323,257.76a185.31,185.31,0,0,1-12.09,15.16c-5.68,6.15-13.22,13.85-13.22,13.85s-7.75-7.4-10.1-12.66-4-14-4-14l5.27-18.93,7.63-18.95A38,38,0,0,0,305.33,233,174.06,174.06,0,0,0,321,244.27l-1.87,6.79-.09,3.43Z"/>
      <path class="cls-9" d="M185.69,259.63,81.35,246.23l-21.15,6.7s-16-8.25-32.37-34.67-6.26-39.89-6.26-39.89l-.79-10.77a42.24,42.24,0,0,1-9.17-24c-.9-14.8,7.13-21.7,7.13-21.7l64.65-6.13s-.78-28.76,4-43.69,14.84-35.46,21.9-44S115.4,67,115.4,67l21.31,66.25,22.47,18.51-1,20.69L149.35,199l23.11,17.87,14.25-2.43,3.54,5.38,2.89,11.09Z"/>
      <path class="cls-5" d="M574.63,128.18s-9.75-.77-16.17-1.5-12.64-1.57-12.64-1.57,25.38-27.1,32.71-41l16.1-30.62s16,18.14,28.89,23.07,36.54,11.06,45.4,8.8S691.4,70.74,691.4,70.74a23.27,23.27,0,0,1-4.59,15.91A72.27,72.27,0,0,1,674.2,99.58l-16.17,12-55.49-16Z"/>
      <path class="cls-9" d="M779.19,166.86s30.51-24,45.4-45.87S844.66,81.4,844.66,81.4L818.8,91.5l4.07-7.37s8.92-15.47,10.48-23.91a78.9,78.9,0,0,0,1.58-12L799.14,78s8.16-17.31,9.45-25a54.28,54.28,0,0,0,.92-12l-77.65,66.89-41.26,19s6.54,9.81,8.2,20.53,3.49,23.36,3.49,23.36Z"/>
      <g id="Слой_5" data-name="Слой 5">
        <path class="cls-3" d="M340.67,120.61c-9.09,1.82-18.11,8.35-23.37,15.85-3.34,4.75,4.46,9.26,7.77,4.54a31,31,0,0,1,18-11.71c5.67-1.15,3.27-9.82-2.39-8.68Z"/>
        <path class="cls-1" d="M356,135.67s-1.78,4.72-9.7,9.45a94.6,94.6,0,0,1-15.7,7.4h8.42l26.17,8.17s-.63-5.11-3.19-6.77a34.32,34.32,0,0,1-4.85-3.95Z"/>
        <path class="cls-6" d="M374.93,172.44s1.53-6.26,5.61-5c2.19.68,2.43,4.47,2.43,4.47l5.11,2,3.59.45,2.53-2,5.42,2-17.16,67.73L379.91,245l-3.45,1.28-6.41-1.85-11.46-3.69s-2.68-2-.51-8.45C358.81,230.05,374.93,172.44,374.93,172.44Z"/>
        <path class="cls-5" d="M382.71,176,364,235.63s3.57,4.21,6.25,4.34,7.26,0,7.26,0l16.74-62.68s-5.36,1.4-7.4.76A18.22,18.22,0,0,1,382.71,176Z"/>
        <polygon class="cls-1" points="374.66 220.73 369.52 239.85 376.46 240.69 381.56 226.39 374.66 220.73"/>
        <path class="cls-10" d="M390.29,49.16c5.79,6.18,39-16.16,29.45-28.38C411.79,10.56,384.5,43,390.29,49.16Z"/>
        <path class="cls-10" d="M371.57,29.46c10.52.42,3.91,26-7.32,26C358.49,55.49,359.72,29,371.57,29.46Z"/>
        <path class="cls-10" d="M345.69,47.84c-7.49,9.36-36.28-34.18-14.17-36.94,16.41-2,15.75,31.3,15.75,31.3Z"/>
        <path class="cls-8" d="M326.62,1.14S314,4.44,315.05,25,327,62.65,332.25,70s15.66,18.55,11.4,23.66-8.35-3.94-8.35-3.94l-3.78-7.34-5.62-4.83-8.18-.7A65.69,65.69,0,0,1,308.25,64,55.82,55.82,0,0,1,303,48.17l8.38-2.49s-6.7-15-5.49-19.63,5.79-16,5.79-16l6.74-6.36Z"/>
        <path class="cls-8" d="M366,24.18c-6.87,3.74-10.44,9.8-11.64,21.5s5.51,15.44-1.24,18.5-6.33-20.29-6.33-20.29l2.57-9.23,4.72-6.18,4.79-3.12,6.34-1.18S366.19,24.09,366,24.18Z"/>
        <path class="cls-8" d="M425.85,13.46s7.67,8.68-1.52,23.49-29.45,36.37-50,46.8c-16,8.13-1.19,15.32-1.19,15.32l3.76-6.63,8.33-4.71,6.63-2.4L399,86.65l6,2.63s11.37-5.44,18.52-12.46S438.66,60.1,438.66,60.1l-12.12-4.61,9-14.56,3.08-9.43-1.91-10.45-4.25-5.21Z"/>
        <path class="cls-10" d="M259.57,46s2.21,12.2,13.27,13.48,23.07-.1,27.28-9.28c-9.23.05-25.24-1.53-25.24-1.53Z"/>
        <path class="cls-10" d="M443.94,62.37s16.63,23,40.38,23S520.5,72.43,522,67.8c-9.28-.9-28.68,4-28.68,4h-20.6L458.2,69Z"/>
        <path class="cls-8" d="M530,70.74s-4.4,13.61-17.34,18.54-34.38,6.79-41.36,5.91-9.53,7.67-9.53,11.39,4.25,25.34,5.27,32.15,3,27.58,3,27.58,1.93-15.66,6.7-21.62,8.81-10.17,8.81-10.17l-2.49-10.63s27.43-3.3,34.66-7.71,13-9.36,15.14-14.42-1.83-9.32-1.83-9.32l-4.25-4.26s6.1-6.6,6.08-8.68a54.75,54.75,0,0,0-.55-5.65Z"/>
        <path class="cls-8" d="M470,168s-2.64,12.6-8.26,18.72a47.93,47.93,0,0,1-17.53,12.09c-5.79,2.38-3.31,7.53-2.05,14.49,1.2,6.56,2.9,16.16.51,27.38-1.52,7.16-2,8.68-7.66,11.4,9.54-1.19,15-12.07,15-12.07a80.33,80.33,0,0,0,1.8-13.29,103.46,103.46,0,0,0-.94-12.94s11.52-5.53,14.61-8S476.75,194,476.75,194l-3.23-8.33Z"/>
        <path class="cls-8" d="M401.27,230.71s1.89,2.33-1.65,15.52-10.33,19.06-10.33,19.06,9.77,2,15.64-8.27,6.39-9.2,6.72-14.89.34-11.35.34-11.35Z"/>
        <path class="cls-8" d="M249.84,47.57s-1.68,10.77,7.17,14.8,21.11,4.7,28.43,3.68C293,65,293,68.11,293,68.11l-12,21.4s-12.15,2-17.92-.82a29,29,0,0,1-9.18-7.23l-.55-4.64,1.51-4.3L257.22,71s-6.48-4.58-7.51-6.08-3.06-5-3.06-5l-.87-5.43Z"/>
        <path class="cls-1" d="M299.23,111.54s10.26-2.93,18.49-1.91,18.92,1.91,18.92,1.91.81-17.67-1.34-21.85A102.25,102.25,0,0,0,328,78.76l-6.86-1.64-7.35,2.07-4.23,4.09L305,89.51l-3.44,10.92Z"/>
        <path class="cls-1" d="M366.84,118.52s19.7.64,28.73,6.43a169.25,169.25,0,0,1,18.63,14.48s5.86-25,1.74-34.1-8.29-15.5-15.86-18.2-11.89-.48-11.89-.48l-11.33,5.79s-5.29,10.28-7,16.46S366.84,118.52,366.84,118.52Z"/>
        <path class="cls-3" d="M310.29,131.84l-12.06,2s0-13.51.5-17.91,1.39-8.63,1.39-8.63,10.34-2.28,16.81-.75S310.29,131.84,310.29,131.84Z"/>
        <path class="cls-3" d="M406.8,162.44s-11-10.54-18.83-13.1-22.23-4-22.23-4-1.93-13.7-.52-18.72,2.35-10.18,2.35-10.18,17.61,2,30.72,7.42c9.67,4,16.45,13.08,16.45,13.08l-5.56,17.42Z"/>
        <path class="cls-1" d="M564.21,127.13S583,109.93,587.57,102s13.27-21.51,19.74-18.79S624.5,96.52,637.1,98.73a132.36,132.36,0,0,0,25.48,1.62L674.37,98l7.39.52,14-3s-6.34,7.92-12.2,11.06-8.17,4-8.17,4l12.07,2.21-6,5.73-6.53,3-12.53,1.13s-14.77-.26-24.75-4.22S606,101.12,606,101.12l-9,11.32L581.77,128.9Z"/>
        <path class="cls-11" d="M185.69,213.05l4.33,5.89,3.71,14s28.9-3.49,45.07-16.94a290.23,290.23,0,0,0,27.34-25.87l-6.21-13-7.13,2.56L243.4,189l-8.35,9.53-10.55,6.58-14.13,4.65-13.82,2.9Z"/>
        <path class="cls-12" d="M153.62,277.14,195,275.27l-1.31,16.2s14-.06,37.81-11.8c16.8-8.28,20.41-13.11,20.41-13.11l3.93,20.94S243.19,303,230.4,309.15s-33.85,13.12-33.85,13.12L173,328s-7.1,1-9.62-1.73-8.24-12.33-9-27.27S153.62,277.14,153.62,277.14Z"/>
        <path class="cls-12" d="M296.15,221.7l-6.7,17.78s-9.63-8.21-12.86-15.84-2.73-11.32-2.73-11.32l20.82,6.94Z"/>
        <path class="cls-12" d="M283.41,259.15s2.18,11,5.27,15.92,10.05,10.76,10.05,10.76l-17.22,16-1.62-20.42Z"/>
        <polygon class="cls-12" points="311.5 372.5 303.49 362.16 300.17 356.83 314.71 328.62 325.14 306.95 343.71 315.75 358.8 320.59 349.1 323.58 335.82 333.29 326.46 345.2 317.27 360.52 311.5 372.5"/>
        <path class="cls-1" d="M316.59,266.56a27.59,27.59,0,0,1,11.06,2.73,40.61,40.61,0,0,1,9.62,7l4.83-14,1.17-4.47L336,253.4l-8.49-2.24-11.76,15.4Z"/>
        <path class="cls-12" d="M441.86,270s10.51-1.35,19.41-15.55c7.43-11.86,5.86-19.34,5.86-19.34s2.91-.17,7.75-4.36c2.32-2,4.43-4,4.43-4s3.74,6.81,9,5.27c5.93-1.72,3.24-8.4,3.24-8.4s4.47,6.2,7.54,3.13-1.23-7.63-1.23-7.63-13.38-11.94-14.83-15.35a89.69,89.69,0,0,0-5.53-9.71l-1.18,1.71.45,9.27,1.7,4.2-12.2,14.38-14.46,12.67s-3.6,8.3-8.48,12.15a21.58,21.58,0,0,1-9.06,4.49l2.82,6.72Z"/>
        <path class="cls-12" d="M557.44,228.77s-4.6,11.24-3.92,23.32,2.41,23.12-6,23.9-20.69-16.61-25.63-27.57S516.42,233,516.42,233s-10.22,2.55-12.26-4.26,6.81-10.2,6.81-10.2-10.38-8.52-1.53-16.86,34.06,6.17,60.86,11.6,42.8,7.47,76.33,3.38,55.94-15.14,55.94-15.14L700,234.05s-17.31,10.85-68.22,10.85C588.08,244.9,557.44,228.77,557.44,228.77Z"/>
        <path class="cls-13" d="M699.74,154s14-7,24.34-10.54,28.25-.51,41.87-8.85,22.78-21.07,22.78-21.07l21.75-3.68s-3.76,13.11-9.73,19a116.17,116.17,0,0,1-10.48,9.3s1.8,3.75-3.56,15.84a44,44,0,0,1-13,16.64L740,188.14l-22.84,6.52-13,1.26L702,165.8Z"/>
        <path class="cls-14" d="M693.78,134.37s49.87-23.55,77.79-47.89,38.3-41.21,38.3-41.21l.61-16.83a352.72,352.72,0,0,1-36.36,37.44c-20.26,17.7-37.32,27.84-44.79,33.5s-31.65,16.23-31.65,16.23l-10.87,4.21,4.41,7.17Z"/>
        <path class="cls-14" d="M793,87.26s17.71-9.12,26.74-15.76a69.46,69.46,0,0,0,14.22-14l1.51-14.46-3,.84s-7.74,8.85-13.61,13-14,9-14,9l-3.53,9.15Z"/>
        <path class="cls-14" d="M807.78,101.43s13.66-3.72,21.83-8.14a86.07,86.07,0,0,0,14.77-10.4l2.23-12.13L840,76.09l-9.19,6.8-10.66,5Z"/>
        <path class="cls-11" d="M483.08,138.22s-2.07,4.26,4.4,4.09,8-5.27,39.49,0,80,13.44,110.3,12.25,59.88-10.42,59.88-10.42l-5-14.41L686,118.56a340.84,340.84,0,0,1-38.71,9.29c-21.12,3.73-59.1,3-72,1.05s-49.86-6.34-58.51-5-21.49,5.84-21.49,5.84Z"/>
        <path class="cls-14" d="M10.79,137.88s3-6.64,14.56-7.32,14.14,7.32,14.14,7.32,7-6.13,19.56-5.79S77.54,140,77.54,140l6.93-21-1.08-15a25.12,25.12,0,0,0-16.85-2.48c-9.53,2-11.89,6.37-11.89,6.37s-5.51-6.49-20.38-5.53S13.89,121.9,13.89,121.9Z"/>
        <path class="cls-14" d="M91.91,152.58s22.8-19.8,43.23-11.63,19.74,17.1,14.81,29.48-13.11,27.86-5.28,36.72,30.64,20.6,41,8.86c-11.57-5.45-18.38-1.19-26.72-15.32s2.2-22.86,5.7-35.77,1.43-23.44-10-30.31-12.22-6.26-12.22-6.26-15.21-40.28-16.24-56.06-.5-41.17.19-50.69S127.48,7,127.48,7L109.37,27.36s-5,30,.41,55.2a263.8,263.8,0,0,0,13.27,43.49s-12.52,2.1-21.41,8.71a190.89,190.89,0,0,0-15.17,12.51l-5.12,7.63Z"/>
        <path class="cls-13" d="M18.81,187.42s1.78,14,16.76,14.46,21.1-7,21.1-7,3.07,6,15.32,5.63c.87,5.61,2.88,10.38,11.4,10.72s12.6-4.59,13.79-9.53,5.45-20.76,14.64-28.08S128.66,164,128.66,164l-5.93-5.63-9.26-3.46L107.14,153l-15.23-.4-11.75,2-4.42,2.73,2.89,18.21s-6,3.74-11.58,2.87-13.6-4.86-13.6-4.86-3.76,4.14-12.61,3.66-19.54-9-19.54-9l-2.09,9Z"/>
        <path class="cls-13" d="M187,214.82s3.47,13.1.92,24.85-5.11,12.77-18.39,11.23-56.85-11.23-71.83-17.76c-29.5-12.87-45.7-3.47-46.47,3.3-1.34,11.91,26.79,28,42.81,32.1s48.09,9.12,69.54,8.6,30-1.81,30-1.81l1.61-2s.48-23-.25-30.29-2.21-15.15-2.21-15.15l-2.65-9Z"/>
        <path class="cls-15" d="M321.92,228.61a20.91,20.91,0,0,0-1.93,8.68,63,63,0,0,0,0,7l-17-13.49-8.29-11.52Z"/>
        <path class="cls-15" d="M360,241.16a61.81,61.81,0,0,0,0,10.93c.56,5.62,1.56,7.54,1.56,7.54l20,3.1L374,255.67l-5.77-11.4Z"/>
        <path class="cls-15" d="M336.94,253.31a26.62,26.62,0,0,0-9.44-2.15l-2.74,5.8-4.32-1.75-1.8-3.87,1.8-5.11,5.62-8.72s10.63-.36,15.8,2a65.49,65.49,0,0,1,10.92,6.75l-1.4,9.1-3.3,6.78-5.28,1.5L344,257Z"/>
        <path class="cls-15" d="M426.65,250.6a71.69,71.69,0,0,1-9.37,4.59c-4.41,1.66-13.14,3.78-13.14,3.78s5.72-7.56,6.83-12.92a97.36,97.36,0,0,0,1.4-13l8.56,12.26Z"/>
        <path class="cls-15" d="M464.72,206.35s.8,4.55,1.23,8.55a43.76,43.76,0,0,1,0,8l7.32-8.38,4.86-6.19-1.9-6.36.4-7.05-5.21,5.63Z"/>
        <path class="cls-16" d="M317.5,322.83s-6.79-8.18-15.34-12.39-21.37-8.05-21.37-8.05L302,283.5l7.82-9.39a42.13,42.13,0,0,1,12.07,4.41A47.59,47.59,0,0,1,333.11,287Z"/>
        <path class="cls-3" d="M295.35,318.87s-7.36-5.1-11.27-2.75c-2.31,1.38-23.56,12.65-41.09,22.14a100.45,100.45,0,0,1,16.53,14.27c6.06,6.57,12.07,13.68,16.6,19.21,11.56-18.9,24.05-45.72,24.05-45.72S303.18,324.49,295.35,318.87Z"/>
        <path class="cls-16" d="M263.82,388.15c-12.25,10.38-50.21,5.62-55.15,3.06s8.51-37.44,10.73-39.66c.91-.91,11.34-6.66,23.59-13.29a80.94,80.94,0,0,0-9.29-5.64l-24.6,12.76-10.31,26.95-12.08,36.5h4.9l16.69-1.27,62.25-10.67,13.28-15.53s-3.09-4-7.71-9.62C271.62,379.09,267.25,385.24,263.82,388.15Z"/>
        <path class="cls-17" d="M243,338.26c-12.25,6.63-22.68,12.38-23.59,13.29-2.22,2.22-15.66,37.11-10.73,39.66s42.9,7.32,55.15-3.06c3.43-2.91,7.8-9.06,12.3-16.41-4.53-5.53-10.54-12.64-16.6-19.21A100.45,100.45,0,0,0,243,338.26Z"/>
        <g id="Слой_6" data-name="Слой 6">
          <path class="cls-18" d="M308.76,131.84s-1.36-19,3.4-29.81,11.6-12.32,17.8-11a7.85,7.85,0,0,1,6.37,7.15L336,114.09l-8.51,4.43-10.81,8.78-5.57,5.14Z"/>
          <path class="cls-19" d="M373,145s-.17-27.87,8.56-37.62,23.68-10.38,28.8,5.11c4.92,14.86-9.18,45.45-9.18,45.45l-7.44-5.45-7.89-4.34Z"/>
          <g id="Слой_3" data-name="Слой 3">
            <path class="cls-20" d="M294.29,136.84c4.93-2.39,11-3.89,16.45-3.1,1.7.24,2.43-2.36.72-2.61-6.27-.9-12.88.64-18.53,3.37-1.57.76-.2,3.09,1.36,2.34Z"/>
            <path class="cls-20" d="M299.58,133.85c-.73-16.31.9-34.77,10.3-48.65,2.6-3.83,6-6.4,10.71-6.91,6-.66,9.76,3.79,12.17,8.77,2.91,6,3.37,12.45,3,19-.1,1.8-.5,3.7-.45,5.49a13,13,0,0,0-.28,1.57l-.07.24c.26-.63.93-.71,2-.23-1.35-1.07-3.27.82-1.91,1.91,4,3.24,3.52-16.33,3.44-17.09-1-10.54-7.27-24.83-20.06-22.08-11.2,2.41-16.2,16.62-18.77,26.35-2.68,10.15-3.24,21.16-2.77,31.62.08,1.73,2.78,1.74,2.7,0Z"/>
            <path class="cls-20" d="M345.7,256.6a36.4,36.4,0,0,0-20.94-6.89,1.35,1.35,0,0,0,0,2.7,33.91,33.91,0,0,1,19.58,6.52c1.41,1,2.76-1.33,1.36-2.33Z"/>
            <path class="cls-20" d="M324.19,236.64c-2.93,3-4.83,8.34-6.28,12.2-1.51,4.07.72,6.82,3.83,9.32,1.34,1.08,3.27-.82,1.91-1.91-1.63-1.31-4-3-3.56-5.56.24-1.34,1.33-2.9,1.88-4.16,1.16-2.7,2-5.83,4.13-8,1.21-1.25-.7-3.16-1.91-1.91Z"/>
            <path class="cls-20" d="M342.8,265c4.25.22,7.1-2.43,8.78-6.14,1.57-3.48,4.59-10,2.16-13.55-2.73-4-9.24-6.65-13.66-8.1-4.18-1.36-10.85-3.31-14.81-.66-1.44,1-.09,3.3,1.36,2.33,5.1-3.41,16,1.77,20.39,4.53,4.05,2.53,5.09,4.63,3.79,9.1-1.2,4.13-2.43,10.08-8,9.79-1.74-.1-1.73,2.61,0,2.7Z"/>
            <path class="cls-20" d="M327.76,251.14a391.05,391.05,0,0,1-34.07,37.79C275,307.16,252.88,320.52,230,332.88c-6.71,3.62-14.2,6.56-20.63,10.66-2.18,1.39-2.59,3.93-3.53,6.36-5.71,14.74-11.39,29.51-16.48,44.47-1.28,3.73-4.52,9.91-4,14,.39,2.94,3.86,2.36,6.14,2.25,14.58-.76,29.21-3.77,43.56-6.23q11.53-2,23-4.07c4-.72,8.92-.87,12.7-2.35,1.91-.74,3.19-2.7,4.55-4.24a222.15,222.15,0,0,0,14-17.9c16.46-23.2,28.79-48.77,39.82-74.9,5.62-13.31,11.77-27.15,15-41.3.12-.51.26-1,.37-1.53.35-1.7-2.25-2.42-2.6-.72-1.74,8.35-5,16.55-8,24.48-9.68,25.52-20.84,50.88-34.95,74.27a291.1,291.1,0,0,1-28.21,38.6c-.92,1.07-.6.62-.58.61a23.61,23.61,0,0,1-3.75.7q-8.6,1.6-17.18,3.14c-15.66,2.79-31.35,5.58-47.12,7.63-4.55.59-9.5,1.56-14.11,1.13-.86-.09,0,.71,0,.32a8.34,8.34,0,0,1,.44-2.2c.61-2.55,1.45-5,2.27-7.53,4.82-14.69,10.41-29.14,16-43.56.89-2.33,1.79-4.65,2.7-7,.23-.61.46-1.23.71-1.84.43-1,.15-.18-.29.12,4.58-3.18,10.48-5.25,15.42-7.85,20.7-10.89,41.82-22.41,59.61-37.75,15.49-13.35,29.36-28.73,42.29-44.55.84-1,1.68-2,2.5-3.09,1.06-1.35-.83-3.27-1.91-1.91Z"/>
            <path class="cls-20" d="M294.37,221.41a65.91,65.91,0,0,0,25.39,23.51c1.53.81,2.9-1.52,1.36-2.33a63.16,63.16,0,0,1-24.41-22.54c-.93-1.47-3.26-.12-2.34,1.36Z"/>
            <path class="cls-20" d="M410.41,231.52c.85,11.3-1.35,24.85-12.58,30.49-6.86,3.44-13,1.66-18.51-3.28-4.26-3.82-7.85-8.1-9.47-13.67a1.35,1.35,0,0,0-2.61.71c3.39,11.63,16.07,24.23,28.94,19.87,14.21-4.83,17.93-20.79,16.93-34.12-.13-1.72-2.83-1.73-2.7,0Z"/>
            <path class="cls-20" d="M410.77,232.74c4.66,10.41,16.6,25.95,29.78,19.23s14.91-26,11.65-38.54a1.35,1.35,0,0,0-2.61.72c2.9,11.13,1.73,28-9.21,34.82-11.95,7.42-23.11-8.27-27.28-17.59-.7-1.59-3-.22-2.33,1.36Z"/>
            <path class="cls-20" d="M426,249.44A82.33,82.33,0,0,1,403.78,258c-1.69.39-1,3,.72,2.61a85,85,0,0,0,22.83-8.82,1.35,1.35,0,0,0-1.36-2.33Z"/>
            <path class="cls-20" d="M380,260.88a111.49,111.49,0,0,1-27.38-5.16c-1.65-.53-2.36,2.08-.71,2.6A114.32,114.32,0,0,0,380,263.58c1.73.11,1.73-2.59,0-2.7Z"/>
            <path class="cls-20" d="M451.44,238.19A102,102,0,0,0,478,210.85c1-1.45-1.38-2.81-2.33-1.36a98.47,98.47,0,0,1-25.55,26.37c-1.41,1-.06,3.34,1.37,2.33Z"/>
            <path class="cls-20" d="M475.4,194A39.4,39.4,0,0,0,485,225.36c1.14,1.31,3.05-.61,1.91-1.91A36.8,36.8,0,0,1,478.1,194c.22-1.72-2.48-1.7-2.7,0Z"/>
            <path class="cls-20" d="M475.06,193.51c-5.55,9-14.37,14.59-23.91,18.63-1.6.68-.22,3,1.36,2.33,10-4.23,19.09-10.22,24.88-19.6.92-1.48-1.42-2.84-2.33-1.36Z"/>
            <path class="cls-2" d="M546.77,126.06c9.41-9.37,18.58-19.31,26.28-30.15,9.09-12.78,15.46-27.89,22.74-41.77l-2.12.27c13.24,14.67,29.29,25.47,48.64,30,9.2,2.15,20.5,4.42,29.81,1.61,7.72-2.32,15-8.79,21-14l-2.31-1a33.69,33.69,0,0,1-6,17.7c-4.73,6.42-15.21,11.69-23.4,10.11-1.7-.33-2.42,2.27-.72,2.6,8.6,1.66,19.43-3.11,25-9.48,4.89-5.59,7.47-13.56,7.86-20.93a1.36,1.36,0,0,0-2.3-.95c-5.82,5-13.1,11.57-20.68,13.53-9.57,2.48-21.13-.14-30.42-2.57C622.42,76.44,607.75,66,595.58,52.5a1.36,1.36,0,0,0-2.12.28C586.35,66.32,580.12,81,571.4,93.59c-7.65,11-17,21.1-26.54,30.57a1.35,1.35,0,0,0,1.91,1.9Z"/>
            <path class="cls-2" d="M657,113.79c15.71-.59,31.2-3.05,39.9-17.59a1.36,1.36,0,0,0-1.52-2,50.72,50.72,0,0,1-20.24,3c-1.74-.09-1.73,2.61,0,2.7a52.84,52.84,0,0,0,21-3.06l-1.53-2c-8.17,13.64-22.93,15.7-37.57,16.25-1.73.07-1.74,2.77,0,2.7Z"/>
            <path class="cls-2" d="M676.59,111.63a25.33,25.33,0,0,0,12,2.5l-1-2.31c-4.74,5.7-12.23,7.11-19.18,8.39a49.11,49.11,0,0,1-24.08-1.09A108,108,0,0,1,607,99.4c-1.34-1.09-3.26.8-1.91,1.91a111.34,111.34,0,0,0,41.77,21.39c7.71,2,15.49,1.43,23.24,0,7.16-1.37,14.61-3.07,19.47-8.92a1.37,1.37,0,0,0-1-2.3A22.39,22.39,0,0,1,678,109.3c-1.56-.73-2.93,1.59-1.36,2.33Z"/>
            <path class="cls-2" d="M608.46,92.91c-6.36,12.91-16.2,23.49-26.13,33.77-1.21,1.26.7,3.17,1.91,1.91,10.09-10.45,20.08-21.2,26.55-34.32.77-1.55-1.56-2.92-2.33-1.36Z"/>
            <g id="Слой_2-2" data-name="Слой 2">
              <path class="cls-20" d="M374.31,93.74c12.86-3.93,24.6-12,34.95-20.39,10.91-8.81,22.05-19.54,27.87-32.55,4.2-9.41,4.15-20.86-5.27-27.14-10.4-6.93-24.06.86-32.52,7.35-14.09,10.8-26.73,27-30.78,44.51-.39,1.69,2.21,2.42,2.61.72C374.46,51.92,383.72,39,394.2,29,402.06,21.46,416.1,10,428,14.64,439.22,19,438.43,32.16,434,41.12c-5.62,11.36-15.19,20.79-24.82,28.82-10.4,8.68-22.49,17.2-35.59,21.19-1.66.51-.95,3.12.72,2.61Z"/>
              <path class="cls-20" d="M349.71,58c-3-10.24-2.27-24,7.62-30.28,9.39-6,21.17-2,26.7,7.14a1.35,1.35,0,0,0,2.33-1.37c-6-10-18.52-14.5-29.12-8.84-12.07,6.43-13.63,22.14-10.13,34.07a1.35,1.35,0,0,0,2.6-.72Z"/>
              <path class="cls-20" d="M339.16,85.69a153.91,153.91,0,0,1-23-32.87c-4.43-8.57-8.33-18.31-8-28.13.38-11.57,9.71-24.53,22.57-21.83,13.09,2.75,18.85,15.07,21.1,26.88.33,1.71,2.93,1,2.61-.72-2.1-11-6.39-20.79-16.77-26.4-11.22-6.06-23.36-1.12-29.17,9.92-10.09,19.18,5.25,43.8,16.13,59.14A164,164,0,0,0,337.25,87.6c1.17,1.29,3.08-.63,1.91-1.91Z"/>
              <path class="cls-20" d="M290,71.08C280.26,72,270,73,260.46,69.93c-5.1-1.66-10.26-4.52-11.88-10-1.87-6.35.94-13.25,8.35-12.84,9.75.53,19.25,3.84,29.06,4.42a50.66,50.66,0,0,0,24.29-4c1.58-.72.21-3.05-1.36-2.33C296,51,281.84,48.81,268.38,46.28c-7.69-1.45-18.79-5-22.23,4.79-2.9,8.27,1.81,16.25,9.33,19.78,10.75,5.06,23.06,4,34.53,2.93,1.72-.16,1.74-2.86,0-2.7Z"/>
              <path class="cls-20" d="M256.54,69.87c-5.82,3.47-5.94,11.16-1.45,15.84,6.29,6.58,16.57,5.17,24.75,4.81,1.73-.08,1.74-2.78,0-2.7-5.37.23-11.22,1.05-16.46-.44C257.31,85.67,249.84,77,257.9,72.2a1.35,1.35,0,0,0-1.36-2.33Z"/>
              <path class="cls-20" d="M292.44,66.39a244.37,244.37,0,0,0-20,38.27,192.25,192.25,0,0,0-11.48,35.14c-2.55,11.94-4.23,25-1.16,37,1.51,5.88,4.35,12.53,9.32,16.36,1.37,1,2.72-1.29,1.36-2.34-7.07-5.43-9.51-18.32-9.54-27.26-.07-15.19,3.75-30.31,8.77-44.55a239.36,239.36,0,0,1,25.08-51.27c1-1.46-1.38-2.82-2.33-1.37Z"/>
              <path class="cls-20" d="M425.49,56.79c3.76,1.15,7.46,2.5,11.11,3.93,6.08,2.39,11.67,5.83,17.72,8.19,11.29,4.41,24.63,5.28,36.6,4.44,11.4-.8,25.12-8.15,36.18-2.79,7,3.39,4.28,11.42-.18,15.86s-10.53,7-16.35,9c-10.83,3.65-23.22,6-34.66,5.2-1.74-.12-1.73,2.58,0,2.7,11,.76,23-1.43,33.57-4.71,9.71-3,23.49-8.83,24.67-20.58,1.22-12.1-14.77-12.48-22.92-11.25-7.61,1.15-14.6,3.62-22.38,4a99.9,99.9,0,0,1-23.42-1.61c-8.15-1.56-14.69-5.27-22.19-8.58a152.36,152.36,0,0,0-17-6.39c-1.66-.51-2.37,2.09-.72,2.6Z"/>
              <path class="cls-20" d="M528,90.44c8.41,4.71,2.52,14.78-2.74,19.34-4.83,4.2-10.88,6.71-17,8.39a117.49,117.49,0,0,1-37,4.19c-1.74-.1-1.73,2.6,0,2.7,8.54.51,17-.63,25.45-1.86,7.75-1.12,15.57-2.76,22.61-6.31,6-3,12.49-8,14.77-14.67,1.84-5.36.33-11.26-4.77-14.11A1.35,1.35,0,0,0,528,90.44Z"/>
              <path class="cls-20" d="M481.91,125.62a29.52,29.52,0,0,1,2.31,8.9c.17,1.72,2.87,1.74,2.7,0a33.58,33.58,0,0,0-2.68-10.27c-.69-1.58-3-.21-2.33,1.37Z"/>
              <path class="cls-20" d="M304.18,141l-13.28-3.58a1.39,1.39,0,0,0-1.66.94L268.9,192.62c-1.74,4.64-6.31,12.35-2.85,17.21,1.51,2.13,4.22,2.72,6.57,3.5l10.75,3.58,69,23c7.18,2.39,14.34,5.13,21.62,7.2a8.2,8.2,0,0,0,5.8-.27c3.53-1.45,4.05-4.56,4.9-7.84,5.47-21.33,11.13-42.61,16.73-63.9a1.41,1.41,0,0,0-.62-1.52c-2-1.46-4.62-2.95-7.1-1.93-2.18.89-2.66,1.6-5.42,1a28.27,28.27,0,0,1-3.89-1.22c-1.62-.63-2.33,2-.72,2.6,2.52,1,5.68,2.14,8.41,1.74,1.1-.16,1.8-1.14,2.61-1.32,1.9-.42,3.22.39,4.74,1.49l-.62-1.53q-7.18,27.32-14.32,54.64c-1.3,5-2.32,16.9-8.94,15.77-5.66-1-11.56-3.85-17-5.66l-66.17-22.06c-6.87-2.29-13.79-4.48-20.62-6.87-7-2.46-3.14-9.08-1.32-13.92l21.44-57.18-1.66.95,13.27,3.57a1.35,1.35,0,0,0,.72-2.6Z"/>
              <path class="cls-20" d="M336.91,153.82c13.94,4.48,28.23,8.38,41.95,13.49,5.65,2.1.82,12.72-.47,17.13-2.95,10.12-6,20.23-9,30.33q-3.15,10.44-6.32,20.88a1.35,1.35,0,0,0,.35,1.31c3.86,4,8.78,5.91,14.33,4.69a1.33,1.33,0,0,0,.94-.94l16.86-62.55a1.37,1.37,0,0,0-1.67-1.66c-2.83.53-7.72.79-9.79-1.7-1.11-1.34-3,.58-1.91,1.91,2.71,3.26,8.7,3.09,12.42,2.39l-1.66-1.66-9.71,36.05L377.4,235a44.91,44.91,0,0,1-1.28,4.75c-.28.69.62-.65.63-.65a13.92,13.92,0,0,1-5.42,0c-1.95-.51-3.21-1.75-4.82-2.82-1.38-.93-.79-1.22-.85.05.07-1.52,1-3.37,1.46-4.81l3.12-10.3q4.08-13.5,8.11-27c1.85-6.23,3.95-12.47,5.41-18.8,1.19-5.17.56-9.11-4.51-10.75-13.86-4.5-27.75-8.92-41.62-13.38-1.66-.53-2.37,2.07-.72,2.6Z"/>
              <path class="cls-20" d="M374.9,172.08l-17.62,60.51a1.35,1.35,0,0,0,2.61.71l17.62-60.51a1.35,1.35,0,0,0-2.61-.71Z"/>
              <path class="cls-2" d="M349.27,149.64c-16.75-.7-33.66,5-49.51,9.75l1.71,1.3A67.81,67.81,0,0,1,306.94,143c5.14-10.92,14.11-18.91,24.79-24.37a33.7,33.7,0,0,1,11-3.84c3.81-.46,5.71,2.85,7.67,5.78,5.95,8.91,5.73,19,5.86,29.32a1.33,1.33,0,0,0,.66,1.17c3.59,1.78,6.71,4.74,7.55,8.76.36,1.7,3,1,2.61-.71-.84-4-3.5-7-6.85-9.25-.52-.34-1.06-.62-1.58-.95s.28,1.42.3.49c.06-2.35-.12-4.73-.21-7.07-.45-10.56-2-21.44-10.65-28.8-4.33-3.68-11.59-.13-16,1.92-10.67,5-20.35,12.9-26,23.31a64.56,64.56,0,0,0-7.3,22,1.35,1.35,0,0,0,1.71,1.3c15.62-4.68,32.29-10.34,48.79-9.65,1.73.07,1.73-2.63,0-2.7Z"/>
              <path class="cls-20" d="M414.52,171.75a64.28,64.28,0,0,0-16.36-18c-5.54-4-12-6.05-18.62-7.63-2.75-.65-5.53-1.18-8.33-1.57-1.2-.17-3.58-.94-4.72-.51s.1.89.46.41-.29-3.24-.32-3.94a94.65,94.65,0,0,1,1.4-19.16c1.7-10.36,6.14-20,11.42-29A1.35,1.35,0,0,0,377.12,91c-5.21,8.88-9.79,18.54-11.53,28.75-1.42,8.29-2.78,17.59-1.16,26a1.37,1.37,0,0,0,1.31,1c9.67.31,21.32,2.92,29.4,8.24a59.16,59.16,0,0,1,17.05,18.16c.91,1.47,3.25.12,2.33-1.37Z"/>
              <path class="cls-20" d="M388.89,87.8A21.25,21.25,0,0,1,402,89.56c9.74,4.61,13.43,15,13.72,25.11s-1.59,20.19-4.16,29.84c-1.55,5.84-3.46,12.29-7.08,17.25-1,1.41,1.32,2.75,2.33,1.36,4.35-6,6.47-14,8.13-21,2.58-10.83,4.63-22.52,2.94-33.65-2.12-14-14.74-26.59-29.73-23.25-1.7.38-1,3,.71,2.6Z"/>
              <path class="cls-20" d="M499.71,219c-15.52-14.61-30.23-33.57-28.11-56.08,2-21.73,20.71-33.91,40.73-37.09,19.7-3.13,40.77,1.57,60.43,3.57,19.4,2,39.36,4.17,58.86,2.32,18.39-1.74,37.09-6.51,54.77-11.83l-1.52-.62c9.47,14.26,14,32.75,16,49.49,2.45,21.44.22,43.6-2.11,65-.08.71-.57,1.38-.1.82s.69-.15-.14-.13a18.24,18.24,0,0,0-3.59.93,288.81,288.81,0,0,1-36.33,6.59c-15.87,1.84-32.19,2.58-48,.18-12.72-1.92-25.2-5.44-37.43-9.38a479.53,479.53,0,0,1-54.26-21.11c-1.56-.73-2.94,1.6-1.36,2.33a495,495,0,0,0,47.84,19,279.63,279.63,0,0,0,40.18,11c15.58,2.84,31.51,2.73,47.24,1.25A292,292,0,0,0,693,238.56c2.39-.57,6.57-.62,8-2.92,1.57-2.56,1.24-7.68,1.48-10.49,1.26-14.29,2.28-28.89,1.95-43.22-.49-21.42-5.13-45.83-17.23-64.05a1.39,1.39,0,0,0-1.53-.62c-17.43,5.24-35.92,10-54,11.73-21,2-42.44-.58-63.28-2.77-20.42-2.16-42.1-6.84-62.41-1.88-17.85,4.35-33.46,16.18-36.6,35.18C465.29,184,481,205,497.8,220.88c1.27,1.19,3.18-.72,1.91-1.91Z"/>
              <path class="cls-20" d="M514.39,228l18.66-7.64c1.58-.65.89-3.26-.72-2.6l-18.66,7.63c-1.58.65-.89,3.26.72,2.61Z"/>
              <path class="cls-20" d="M432.73,252.62c16.25,41.91,42.88,82.17,81.21,106.77,3.84,2.46,9.39,6.62,14.14,7.21,2.69.33,5.11-2.53,7.09-4.17,17.58-14.64,30.44-35.07,33.93-57.84,2.17-14.14,3.37-28.54,1.84-42.81-1-9-3.38-18.43-1-27.37a1.35,1.35,0,0,0-2.6-.72c-1.9,7-.93,14.42,0,21.49a145.22,145.22,0,0,1,1.29,28.34c-.86,15.17-2.86,30.53-9.55,44.32a101.59,101.59,0,0,1-27.51,34c-.56.45-3.69,2.54-2.78,2.38s-1.35-.68-1.92-.9a57.08,57.08,0,0,1-7.22-3.59c-22.83-13-42.36-33.36-56.79-55.1a279.19,279.19,0,0,1-27.59-52.73c-.62-1.6-3.23-.91-2.6.72Z"/>
              <path class="cls-20" d="M459.14,230.15c7.57,13.88,15.75,27.36,24.28,40.67l.21-1.64-20.81,17.71a1.36,1.36,0,0,0,.59,2.25l32.9,9.36-.94-1.66-7.2,40.92c-.3,1.7,2.3,2.43,2.6.72l7.2-40.92a1.37,1.37,0,0,0-.94-1.66l-32.9-9.36.59,2.25,20.82-17.7a1.33,1.33,0,0,0,.21-1.63c-8.53-13.31-16.71-26.79-24.28-40.67-.83-1.53-3.16-.17-2.33,1.36Z"/>
              <path class="cls-20" d="M520.22,268.25l-1.53,7.15a1.38,1.38,0,0,0,.62,1.52c9.61,5.54,20.15,8.81,31.32,8.22a1.38,1.38,0,0,0,1.3-1l1.87-7.56a1.35,1.35,0,0,0-1.3-1.71c-10,.94-21.39-4.28-30.62-7.58-1.64-.58-2.34,2-.72,2.61,9.55,3.41,21,8.64,31.34,7.67l-1.3-1.71c-.47,1.9-1.7,4.46-1.58,6.38,0,.51-.77,1.59.31.62s.23-.14-.45-.38c-1.29-.46-3.74,0-5.08-.12-8.51-.54-16.39-3.55-23.73-7.78l.62,1.52,1.53-7.15C523.19,267.27,520.59,266.55,520.22,268.25Z"/>
              <path class="cls-20" d="M466.77,314.38c-23.34,7.95-48,9.33-72.5,9.09-24.16-.23-47.33-5.78-68.45-17.69a1.35,1.35,0,0,0-1.36,2.33c20.88,11.78,43.92,17.58,67.84,18,25.32.48,51.06-.95,75.19-9.17,1.63-.56.93-3.16-.72-2.6Z"/>
              <path class="cls-20" d="M295.64,221.53c-6.34,11.5-10.13,24.33-13.77,36.89-4,13.92-3.72,27.9-1.9,42.16.22,1.7,2.92,1.72,2.7,0-1.79-14-2.17-27.74,1.8-41.44,3.57-12.33,7.28-25,13.5-36.25.84-1.52-1.49-2.88-2.33-1.36Z"/>
              <path class="cls-20" d="M282.11,259.51c1.88,10.38,6.13,20.11,14.06,27.27,1.29,1.16,3.21-.74,1.91-1.91-7.61-6.87-11.57-16.13-13.37-26.08-.3-1.7-2.91-1-2.6.72Z"/>
              <path class="cls-20" d="M358.44,319.29c-25,6.88-38.3,30.38-48.1,52.53l2.12-.27A55.42,55.42,0,0,1,302.3,357c-.76-1.56-3.09-.2-2.33,1.36a57.64,57.64,0,0,0,10.58,15.08,1.36,1.36,0,0,0,2.12-.28c9.5-21.46,22.17-44.6,46.49-51.29a1.35,1.35,0,0,0-.72-2.6Z"/>
              <path class="cls-20" d="M310.88,370.94a29.37,29.37,0,0,1-11.55-9.46c-1-1.39-3.35-.05-2.33,1.37a32,32,0,0,0,12.52,10.42c1.56.73,2.93-1.59,1.36-2.33Z"/>
              <path class="cls-20" d="M276.23,213.84c-6.46,12-11,24.93-15.07,37.9a1.35,1.35,0,0,0,.62,1.52l11.49,5.67-.28-2.12-17.36,16a1.37,1.37,0,0,0-.35,1.32c4,12.12,7.57,25.81,15.68,35.94,1.08,1.36,3-.56,1.91-1.91-8.08-10.09-9.74-22.93-14.86-34.39-.27-.61-.87,1.14-.13.64a15.12,15.12,0,0,0,1.61-1.49l6-5.55,9.4-8.68a1.35,1.35,0,0,0-.27-2.12l-11.49-5.67.62,1.52c4-12.74,8.45-25.46,14.8-37.25.82-1.53-1.51-2.9-2.33-1.36Z"/>
              <path class="cls-20" d="M260.78,193.51c-10.28,16.41-12.58,38.88-11.67,57.66,1,20.78,5.06,43.42,14.71,62.12.8,1.54,3.13.18,2.33-1.37-9.41-18.24-13.36-40.51-14.34-60.75-.89-18.34,1.26-40.26,11.3-56.3.93-1.48-1.41-2.83-2.33-1.36Z"/>
              <path class="cls-20" d="M254.47,194.9v11.49a1.35,1.35,0,0,0,2.7,0V194.9a1.35,1.35,0,0,0-2.7,0Z"/>
              <path class="cls-20" d="M259.93,175.82c-13.38,1.8-18.21,16.5-28.64,23.26-13,8.43-30.93,13.37-46.36,11.85-1.73-.17-1.72,2.53,0,2.7,14.36,1.41,29.34-2.79,42.17-9.11a45.55,45.55,0,0,0,15.25-11.86c4.85-5.83,9.38-13,17.58-14.14,1.7-.23,1.72-2.93,0-2.7Z"/>
              <path class="cls-20" d="M184.92,212l-.15-.33a1.37,1.37,0,0,0-1.53-.62l-.41.11a1.37,1.37,0,0,0-.94,1.66c.22,1.21.77,1.1,1.65,1.68,1.38.91,3.19,1.09,4.29,2.7s1.73,4.26,2.33,6.17c2.22,7.13,3.05,14.59,3.53,22,1,15.14.8,30.55-2.23,45.46-1.91,9.39-11.26,45.56-26.75,34.72-6.52-4.56-7.57-14.86-8.49-22.11A163.88,163.88,0,0,1,155,278.89c0-1.74-2.66-1.73-2.7,0a164.89,164.89,0,0,0,1.06,23.62c.76,6.26,1.58,12.75,4.39,18.47,5,10.22,16.06,11.74,23.39,2.75,8.34-10.22,12-25.37,13.94-38.11,2.13-13.87,2.17-28,1.15-42-.58-7.93-1.63-15.94-4.34-23.45-.87-2.41-1.76-5.38-3.71-7.14-.47-.43-4-2.38-3.73-1l-.94,1.67.41-.12-1.52-.62.15.33c.74,1.57,3.07.21,2.33-1.36Z"/>
              <path class="cls-20" d="M253.63,287.67c-18.57,25.13-53.14,33.45-82.13,39.38-1.7.35-1,2.95.71,2.6C202,323.56,236.89,314.84,256,289c1-1.4-1.31-2.74-2.34-1.36Z"/>
              <path class="cls-20" d="M203.28,212.68c6.39,19.29,9.24,40.94,7.33,61.15-1.18,12.53-3.94,25.37-9.06,36.92-1.59,3.6-3.39,7.52-6,10.56-1.11,1.33.79,3.25,1.91,1.91,10.09-12,13.55-30.85,15.41-45.76,2.68-21.51-.21-44.9-7-65.5-.55-1.64-3.15-.94-2.61.72Z"/>
              <path class="cls-20" d="M131.17,166c-2-6.28-9.33-10.21-15-12.19-11.32-3.93-24.83-3.75-36.34-.5l1.53,2c12-16.46,33.47-31.09,54.6-27.2,8.7,1.59,18.58,6.33,24.44,13.09s5.32,15.67,2.89,23.81C160,176,150.5,189.85,157,201.3c5.5,9.73,18,14.32,28.7,14.87,1.74.09,1.73-2.61,0-2.7-10.87-.56-27.15-6.53-28.2-19.18-.59-7.08,3.21-14.43,5.66-20.86,2.57-6.77,5.19-14,4.57-21.39-1.29-15.42-19-24.9-32.81-26.9-13.5-2-26.69,3.06-37.52,10.88A82.67,82.67,0,0,0,79,153.88c-.72,1,.46,2.28,1.52,2a62,62,0,0,1,31.9-.41c5.61,1.5,14.15,4.92,16.14,11.22.52,1.65,3.13.94,2.61-.72Z"/>
              <path class="cls-20" d="M110.61,153.6C99.43,156.69,90,165.24,83.07,174.25c-7.33,9.49-11.69,20.84-11.55,32.9a1.35,1.35,0,0,0,2.7,0c-.14-11.9,4.35-23.08,11.78-32.28,6.54-8.12,15.1-15.84,25.33-18.67a1.35,1.35,0,0,0-.72-2.6Z"/>
              <path class="cls-20" d="M144.86,128.41c-7.4-18-14.46-37.2-17.41-56.54-2-13-1-26.69-.36-39.8.42-8.37,1-16.74,1.74-25.08.12-1.25-1.51-1.67-2.3-1C96.85,32.81,78.72,73.2,82.34,113.44c.33,3.63.69,7.87,2.44,11.17.82,1.53,3.15.17,2.33-1.37-1.16-2.2-1.61-5.68-1.91-8.3C84,104.78,85,94.31,86.54,84.25c3.67-24.67,14.71-46,30.91-64.79a127.11,127.11,0,0,1,11-11.52l-2.3-1c-.77,8.34-1.32,16.71-1.74,25.08-.66,13-1.55,26.48.29,39.41,2.81,19.73,10,39.27,17.58,57.65.65,1.58,3.26.89,2.6-.72Z"/>
              <path class="cls-20" d="M82.46,119.28a90.64,90.64,0,0,0-5.06,57.09l.94-1.66C68,178.87,57.68,176.82,50,168.65c-7.37-7.89-9.7-17.55-9.08-28.11.6-10.13,3.63-20.4,10.63-28s20.21-13.22,29.77-7.2c1.47.93,2.83-1.41,1.36-2.33-9.17-5.77-21.87-2-29.7,4.47C43.69,115.2,39.41,127,38.39,138.79c-1,12.13,1.52,23.38,10.23,32.3,8.26,8.45,19.51,10.62,30.44,6.23a1.38,1.38,0,0,0,.94-1.66,87.49,87.49,0,0,1,4.8-55c.68-1.57-1.65-3-2.34-1.36Z"/>
              <path class="cls-20" d="M56.27,106a33.84,33.84,0,0,0-19-5.32c-11.35.45-19.46,8.77-23.82,18.69-8.81,20-3.47,48.21,18.24,57.36,6.8,2.86,15.8,3.29,21.83-1.67,1.34-1.1-.57-3-1.91-1.91-7.52,6.18-19.3,2.07-26.11-3.1-10.16-7.72-14-21.34-13.31-33.63.69-12.62,6.84-28.58,20.24-32.29,7.4-2,16.08.1,22.46,4.2,1.47.94,2.82-1.39,1.36-2.33Z"/>
              <path class="cls-20" d="M20,167.79c-3.56,8.89-3.17,19.82-1.44,29,4,21.29,18,40.21,35,53.12,24.56,18.6,56,26.12,86.29,28a396.83,396.83,0,0,0,53.64-.69c1.73-.12,1.74-2.82,0-2.7-26.31,1.89-53.21,2.37-79.24-2.45-38.46-7.13-78.51-28.3-91.08-68-3.46-10.92-5-24.63-.6-35.6.65-1.61-2-2.32-2.6-.72Z"/>
              <path class="cls-20" d="M668.64,123.24c7.59,18.88,13.08,39.42,15,59.67,1.33,14.08.44,28.65-1.6,42.62a72,72,0,0,1-3,14c-.6,1.64,2,2.34,2.6.72,1.74-4.79,2.45-10.06,3.15-15.07,2-13.89,2.87-28.3,1.55-42.28a218.72,218.72,0,0,0-15.08-60.39c-.64-1.59-3.25-.89-2.6.72Z"/>
              <path class="cls-20" d="M712.13,171.21c10.62,1,18.15-3.78,25.48-10.87,4.82-4.66,9.49-7.53,16.19-8.67,5.77-1,11.51-1.66,17.17-3.26,18.89-5.36,36.09-18.31,40.81-38.15.41-1.69-2.2-2.41-2.6-.72-5,20.9-24.09,33.16-44,37.54-8.6,1.89-17.68,1.59-24.92,7.23-4,3.09-7.06,7.18-11.19,10.05a25.09,25.09,0,0,1-16.94,4.15c-1.73-.17-1.72,2.54,0,2.7Z"/>
              <path class="cls-20" d="M809.15,108.37a502.71,502.71,0,0,1-81,10.1c-1.73.07-1.74,2.77,0,2.7A507.15,507.15,0,0,0,809.87,111c1.7-.35,1-3-.72-2.6Z"/>
              <path class="cls-20" d="M687.17,121.12c14.15-4.57,27.76-11.73,40.53-19.21,25.41-14.88,47.67-33.74,67.92-55,5.41-5.69,10.75-11.48,15.82-17.49l-2.31-.95a85.19,85.19,0,0,1-11,48.6,169.24,169.24,0,0,1-20.62,27.62,69.26,69.26,0,0,1-7.16,7.12c-1.37,1,0,3.38,1.37,2.33a56.56,56.56,0,0,0,7.7-7.54,174.29,174.29,0,0,0,21-28.16c8.45-14.55,12.82-33.1,11.34-50-.09-1.05-1.48-1.94-2.3-1-29.82,35.37-65.7,65.87-108.08,85a144,144,0,0,1-15,6c-1.64.54-.94,3.14.72,2.61Z"/>
              <path class="cls-20" d="M805.56,67.08c12.07-6.42,21.33-15.47,30.79-25.18l-2.3-.95c.88,11.38-2.4,23.67-7.34,33.8A85.42,85.42,0,0,1,808.2,99.21a45,45,0,0,1-9.74,7.46c-1.55.8-.18,3.13,1.36,2.34a48.12,48.12,0,0,0,10.29-7.89,87.61,87.61,0,0,0,18.93-25c5.14-10.54,8.63-23.3,7.71-35.16a1.37,1.37,0,0,0-2.31-1c-9.28,9.52-18.4,18.46-30.24,24.76-1.54.82-.17,3.15,1.36,2.33Z"/>
              <path class="cls-20" d="M822.65,88a124.5,124.5,0,0,0,26.23-17.45l-2.26-1.31c-7.21,33.16-27.67,61.12-52.47,83.65-25,22.7-56.11,38.78-90,42.31-1.71.18-1.72,2.88,0,2.7,34-3.55,65.25-19.33,90.59-42,25.7-22.95,47-51.89,54.44-86A1.36,1.36,0,0,0,847,68.67a121.33,121.33,0,0,1-25.68,17c-1.56.78-.19,3.1,1.36,2.34Z"/>
            </g>
          </g>
          <g id="Слой_8" data-name="Слой 8">
            <path class="cls-21" d="M374.93,222.21s12.21,6.79,19.27,7.65,22.93,0,22.93,0l13.71-6.94-15.44-3.66,6.38-10.35s-14.11,4.88-20.26,5.61-14.66-1.7-14.66-1.7l-8-6.47Z"/>
            <g id="Слой_4" data-name="Слой 4">
              <path class="cls-2" d="M378.6,202.29,371.71,226a1.35,1.35,0,0,0,2.6.72l6.9-23.74a1.35,1.35,0,0,0-2.61-.72Z"/>
              <path class="cls-2" d="M377.88,207.3c11.52,14.51,30.69,8.5,45.28,2.9l-1.53-2-6.89,11.11a1.36,1.36,0,0,0,.81,2l14.93,2.43-.59-2.26c-7.36,5.77-19.32,8.48-29.11,7.85-6.3-.4-22.17-2.39-24.55-9.89-.52-1.65-3.13-.95-2.6.71,2.64,8.34,16.86,10.68,23.77,11.55,11.6,1.45,25-.93,34.4-8.31a1.36,1.36,0,0,0-.6-2.26l-14.94-2.42.81,2,6.9-11.11c.58-.94-.41-2.41-1.53-2-13.64,5.24-31.83,11.43-42.65-2.21-1.08-1.36-3,.57-1.91,1.91Z"/>
            </g>
          </g>
        </g>
      </g>
    </g>
    <g id="Слой_12" data-name="Слой 12">
      <path class="cls-22" d="M308.16,100.71a37.28,37.28,0,0,0-1.73,13.83c.36,5.75,9.37,5.79,9,0a30,30,0,0,1,1.41-11.44c1.78-5.52-6.91-7.89-8.68-2.39Z"/>
      <path class="cls-22" d="M373.83,111.28a32,32,0,0,0-3.37,14.86c.12,5.78,9.12,5.8,9,0a22.14,22.14,0,0,1,2.14-10.32,4.61,4.61,0,0,0-1.62-6.15c-2-1.16-5.09-.59-6.15,1.61Z"/>
    </g>
  </g>
</svg>
