<svg width="390" height="112" fill="none" xmlns="http://www.w3.org/2000/svg"><path d="M340.954 33.35H49.046L0 86.205c0 13.779 12.48 24.951 27.856 24.951 15.377 0 27.86-11.172 27.86-24.95 0 13.778 12.48 24.95 27.856 24.95 15.376 0 27.856-11.172 27.856-24.95 0 13.778 12.48 24.95 27.857 24.95 15.376 0 27.859-11.172 27.859-24.95 0 13.778 12.48 24.95 27.856 24.95 15.376 0 27.856-11.172 27.856-24.95 0 13.778 12.48 24.95 27.857 24.95 15.376 0 27.859-11.172 27.859-24.95 0 13.778 12.48 24.95 27.856 24.95 15.377 0 27.857-11.172 27.857-24.95 0 13.778 12.48 24.95 27.859 24.95 15.379 0 27.856-11.172 27.856-24.95L340.954 33.35Z" fill="#D9D9D9" style="mix-blend-mode:multiply"/><path d="M55.715 65.548c0 17.093-12.48 30.942-27.859 30.942C12.477 96.49 0 82.636 0 65.548h55.715Z" fill="#13268B"/><path d="M111.428 65.548c0 17.093-12.48 30.942-27.856 30.942-15.377 0-27.857-13.854-27.857-30.942h55.713Z" fill="#E9E9E9"/><path d="M167.144 65.548c0 17.093-12.48 30.942-27.859 30.942-15.379 0-27.857-13.854-27.857-30.942h55.716Z" fill="#13268B"/><path d="M222.856 65.548c0 17.093-12.48 30.942-27.856 30.942-15.376 0-27.856-13.854-27.856-30.942h55.712Z" fill="#E9E9E9"/><path d="M278.572 65.548c0 17.093-12.48 30.942-27.859 30.942-15.379 0-27.857-13.854-27.857-30.942h55.716Z" fill="#13268B"/><path d="M334.285 65.548c0 17.093-12.48 30.942-27.857 30.942-15.376 0-27.856-13.854-27.856-30.942h55.713Z" fill="#E9E9E9"/><path d="M390 65.548c0 17.093-12.48 30.942-27.856 30.942-15.377 0-27.859-13.854-27.859-30.942H390Z" fill="#13268B"/><path d="M0 65.548h55.715L90.748 0H49.046L0 65.548Z" fill="#3743AC"/><path d="M55.715 65.548h55.713L132.449 0H90.748L55.715 65.548Z" fill="#fff"/><path d="M111.428 65.548h55.716L174.151 0h-41.702l-21.021 65.548Z" fill="#3743AC"/><path d="M167.144 65.548h55.712L215.849 0h-41.698l-7.007 65.548Z" fill="#fff"/><path d="M222.856 65.548h55.716L257.551 0h-41.699l7.004 65.548Z" fill="#3743AC"/><path d="M278.572 65.548h55.713L299.252 0h-41.701l21.021 65.548Z" fill="#fff"/><path d="M334.285 65.548H390L340.954 0h-41.702l35.033 65.548Z" fill="#3743AC"/></svg>