<svg xmlns="http://www.w3.org/2000/svg" viewBox="0 0 856.65 1878.1"><defs><linearGradient id="a" data-name="Безымянный градиент 2" x1="428.07" y1="1861.47" x2="428.07" y2="27.36" gradientUnits="userSpaceOnUse"><stop offset=".38" stop-color="#3e4160"/><stop offset=".43" stop-color="#505067"/><stop offset=".54" stop-color="#7f7678"/><stop offset=".62" stop-color="#a98"/><stop offset=".89" stop-color="#2e86e5"/></linearGradient></defs><g data-name="Слой 2"><path data-name="задник вверх вниз" style="fill:url(#a)" d="M7.12 0h841.89v1878.1H7.12z"/><path d="M856.65 1513.48a478.43 478.43 0 0 1-138.38-15.2c-125.2-33-153.77-96.78-246.35-103.41-72.7-5.21-87 31.87-184.76 55.31-63.41 15.2-158.39 23.82-286.65-14.25l6.61-117.09a521.15 521.15 0 0 0 112 24.33c185.64 19.16 240.66-78.4 390.81-53.22 87.62 14.69 109.56 54.72 209.86 53.22 55.17-.83 100.11-13.71 129.22-24.33l7.64 194.64Z" style="opacity:.5;fill:#264963"/><path d="M856.13 337.77a478.57 478.57 0 0 1-138.38-15.21C592.56 289.62 564 225.79 471.41 219.16c-72.71-5.21-87 31.86-184.76 55.3C223.24 289.67 128.26 298.29 0 260.22l6.61-117.1a520.54 520.54 0 0 0 112 24.33c185.64 19.17 240.65-78.39 390.81-53.22C597 128.92 619 169 719.27 167.45c55.17-.82 100.12-13.71 129.23-24.33q3.83 97.34 7.63 194.65Z" style="fill:#6fabc9;opacity:.5"/></g></svg>