<svg width="223" height="328" fill="none" xmlns="http://www.w3.org/2000/svg"><ellipse cx="95.5" cy="301.5" rx="71.5" ry="13.5" fill="#3A4970"/><ellipse cx="156.931" cy="308.77" rx="23.5" ry="10" fill="#3A4970"/><ellipse cx="43.5" cy="310" rx="23.5" ry="10" fill="#3A4970"/><ellipse cx="104.431" cy="310.77" rx="40" ry="17" fill="#3A4970"/><g clip-path="url(#a)"><path d="m46.616 47.826-2.572-24.111v-4.067l4.98 4.545 7.269 6.551 2.126-3.064 4.064-12.489 1.455-.682 3.737 4.681 5.94 7.432 1.611.778 1.317-2.436 2.27-6.565 2.352-4.443 1.725 1.201 6.234 8.34 3.298 3.617 1.355.013 3.136-4.108 3.907-5.999.803 1.379 2.038 10.134 2.421 12.953-1.029 2.757-5.03 3.2-8.874 3.174-31.225 2.696-9.94-1.61-3.036-2.287-.332-1.59Z" fill="#F7A566"/><path d="m106.082 41.486-1.781-2.163-4.61-2.02h-4.697l-15.534-.369-10.461 1.065-8.962 2.34-12.706 5.788-.615 2.51 1.518 2.328 3.318 1.283h19.592l24.54-3.112 8.648-3.965 1.75-3.685Z" fill="#B36341"/><path d="M77.237 53.027c16.424-1.913 29.392-6.985 28.965-11.329-.427-4.343-14.088-6.313-30.512-4.4-16.424 1.913-29.392 6.985-28.965 11.328.427 4.344 14.088 6.314 30.512 4.4Z" stroke="#6D1300" stroke-width="2" stroke-miterlimit="10"/><path d="M106.082 41.192s-3.939-23.346-5.017-24.158c-1.08-.812-5.5 10.107-7.902 10.339-2.402.232-10.085-13.881-12.01-13.417-1.926.464-4.553 13.588-6.272 13.588-1.718 0-9.909-13.124-11.777-12.967-1.87.157-4.46 15.812-6.385 16.133-1.925.32-11.345-11.09-12.543-10.742-1.198.348 2.509 28.663 2.509 28.663" stroke="#6D1300" stroke-width="2" stroke-miterlimit="10"/><path d="M42.634 17.614c1.738 0 3.148-1.534 3.148-3.426 0-1.892-1.41-3.426-3.148-3.426-1.74 0-3.149 1.534-3.149 3.426 0 1.892 1.41 3.426 3.149 3.426ZM63.938 10.503c1.718 0 3.11-1.516 3.11-3.385 0-1.87-1.392-3.385-3.11-3.385s-3.11 1.515-3.11 3.385c0 1.87 1.392 3.385 3.11 3.385ZM82.32 9.397c1.437 0 2.602-1.268 2.602-2.832 0-1.564-1.165-2.832-2.603-2.832-1.437 0-2.602 1.268-2.602 2.832 0 1.564 1.165 2.832 2.602 2.832ZM100.82 14.509c1.569 0 2.841-1.384 2.841-3.092 0-1.707-1.272-3.091-2.841-3.091-1.57 0-2.841 1.384-2.841 3.091 0 1.708 1.272 3.092 2.841 3.092Z" fill="#F7A566" stroke="#6D1300" stroke-width="2" stroke-miterlimit="10"/><path d="M33.346 7.118s2.722 44.393 5.6 47.396c2.879 3.002 21.618 12.413 38.431 9.636 16.814-2.778 30.103-10.558 35.315-16.693 5.212-6.135-.978-37.145-3.976-42.202-2.998-5.057-12.361-3.829-13.126 0C94.825 9.083 89.375.19 82.156 0c-7.218-.191-6.077 6.476-9.758 6.551C68.717 6.627 68.729-.34 63.286 0c-5.444.341-7.363 9.022-11.527 9.397-4.165.376-8.153-4.504-12.97-4.156-4.816.348-5.443 1.877-5.443 1.877Z" fill="#73EDFB" opacity=".53"/><path d="m85.706 258.415-12.92-3.249-2.984 16.434-1.45 10.284 1.45 8.244 1.442 4.648-4.898-3.037-2.327-3.058-1.887-2.375-2.19-.416-1.993 1.85-2.158-1.973-2.847-.73-2.29 2.395-1.542-1.665-4.403-.143-3.091 3.392-2.051 4.483-.803 6.852 2.427 7.896 2.452-5.112 3.845-4.524.934 5.876 1.091 3.76 3.43-4.142 3.65-2.71 1.355 4.757 2.083 2.928.802-6.409 3.77 3.187 6.735 3.222h14.286l-2.803-7.337-3.236-12.727-1.035-7.835 2.032-8.36 5.124-14.406ZM127.443 252.143l-10.674 3.023 3.631 14.373 3.719 17.225 3.324 23.578h10.993l7.526-2.559 3.362-2.9 2.144 2.197 2.02 5.582 1.593-3.582.89-4.662 2.628 1.359 3.719 3.985 1.562 2.409v-5.2l-.276-3.092 5.901 3.14 3.732 5.643-1.349-7.295-2.928-7.268-3.255-4.886-2.609-1.474-3.092 1.876-1.819-1.433-4.12 2.007-1.963-2.45-5.124 1.76-7.475 5.692-1.844.457-1.167-8.394-4.032-17.969-5.017-21.142Z" fill="#F7A566"/><path d="M118.587 265a385.49 385.49 0 0 1 8.473 45.922c.004.201.08.393.211.535.13.142.306.224.491.23 4.697.226 9.4-.261 13.973-1.447a21.63 21.63 0 0 0 3.894-1.427c1.255-.607 2.358-2.047 3.531-2.518.797-.334.471-.211 1.192.403.828.682 1.417 2.491 1.768 3.508.359 1.053.634 2.137.822 3.241a.77.77 0 0 0 .221.345.657.657 0 0 0 .736.108.729.729 0 0 0 .297-.268c1.719-3.768 2.904-8.306 2.465-12.523-.307-2.942-1.254-8.299-4.208-9.787-2.076-1.044-4.898 1.365-6.579 2.437-3.173 2.047-7.526 6.087-11.395 5.937-.903 0-.903 1.501 0 1.535 5.644.219 10.617-6.06 15.603-8.189 3.355-1.44 4.472 4.279 4.961 6.825.828 4.333-.27 9.076-2.064 12.966l1.292.184c-.551-3.275-1.806-7.09-4.597-8.817a.654.654 0 0 0-.444-.1.68.68 0 0 0-.408.216c-4.353 5.999-14.632 6.06-21.066 5.815l.708.771a388.575 388.575 0 0 0-8.522-46.332.756.756 0 0 0-.342-.417.653.653 0 0 0-.511-.056.713.713 0 0 0-.412.334.822.822 0 0 0-.096.549l.006.02Z" fill="#6D1300"/><path d="M128.753 261.035c3.349 12.858 6.585 25.551 8.228 38.818.119.976 1.48.56 1.361-.403-1.643-13.273-4.879-25.967-8.228-38.824a.75.75 0 0 0-.342-.417.657.657 0 0 0-.511-.057.721.721 0 0 0-.412.334.83.83 0 0 0-.096.549ZM154.566 294.735a5.803 5.803 0 0 1 1.656-1.652c1.956-.935 2.828.723 3.625 2.259a33.957 33.957 0 0 1 2.64 6.661c.922 3.412.916 7.152.972 10.659l1.311-.389c-1.832-3.316-4.792-8.005-8.718-8.189-.909-.034-.903 1.501 0 1.536 3.287.129 5.971 4.633 7.526 7.404.082.14.203.247.345.307.142.06.298.069.445.025a.714.714 0 0 0 .372-.266.821.821 0 0 0 .155-.455c-.088-5.459-.52-10.448-2.602-15.478-.753-1.822-1.932-5.33-3.901-6.067-1.813-.682-3.726 1.147-4.798 2.532-.583.751.408 1.843.997 1.085l-.025.028Z" fill="#6D1300"/><path d="M161.358 294.352c3.418-5.084 8.153 6.047 9.125 8.763a47.017 47.017 0 0 1 2.076 9.752l1.286-.594c-2.07-4.627-5.413-7.868-10.035-9.138a.662.662 0 0 0-.504.105.763.763 0 0 0-.307.448.834.834 0 0 0 .051.557.735.735 0 0 0 .384.371c4.265 1.167 7.319 4.197 9.213 8.435.382.853 1.392.192 1.292-.593-.747-5.794-2.214-11.111-5.087-16.092-1.962-3.413-5.556-7.459-8.692-2.792-.539.799.684 1.563 1.217.778h-.019ZM83.825 261.82c-2.798 7.316-6.504 16.256-5.45 24.323 1.053 8.066 3.894 15.901 6.647 23.353l.684-.969c-3.805.512-7.647.62-11.47.321-4.529-.458-8.78-3.092-12.543-5.794-.76-.546-1.468.784-.715 1.33 3.656 2.648 7.883 5.262 12.298 5.89 4.076.573 8.322.252 12.399-.212.4-.047.865-.464.677-.969-2.622-7.097-5.205-14.522-6.453-22.063-1.361-8.237 2.389-17.314 5.255-24.8.345-.908-1.016-1.311-1.36-.41h.03Z" fill="#6D1300"/><path d="M70.567 262.803c-.941 5.521-2.051 11.056-2.747 16.618-.627 5.159 1.254 10.721 2.747 15.559.288.928 1.65.533 1.36-.409-1.53-4.941-3.386-10.496-2.59-15.737.797-5.242 1.706-10.421 2.59-15.622.164-.969-1.197-1.364-1.36-.409Z" fill="#6D1300"/><path d="M76.286 296.591c-4.738-1.298-8.92-4.335-11.84-8.599-1.8-2.614-4.39-4.415-6.748-1.222-1.92 2.614-1.794 7.228-1.806 10.401 0 4.729.796 9.363 3.587 13.103.426.573 1.154.048 1.204-.539.514-5.374 2.294-10.513 5.168-14.919.526-.812-.697-1.576-1.255-.778-2.985 4.648-4.818 10.054-5.324 15.697l1.204-.546c-2.703-3.624-3.274-8.292-3.136-12.823.063-2.73.314-12.182 4.616-9.241 1.254.881 2.233 3.167 3.28 4.402a17.975 17.975 0 0 0 4.039 3.481 26.996 26.996 0 0 0 6.61 3.064.663.663 0 0 0 .505-.105.767.767 0 0 0 .307-.448.833.833 0 0 0-.052-.556.73.73 0 0 0-.384-.372h.025Z" fill="#6D1300"/><path d="M58.557 287.351c-1.16-1.645-3.249-3.297-5.262-2.942-2.609.464-4.654 4.395-5.412 6.825-1.593 5.057-1.01 12.645 1.022 17.429a.748.748 0 0 0 .263.296c.11.071.236.109.364.109a.673.673 0 0 0 .365-.109.749.749 0 0 0 .262-.296c1.745-2.768 4.088-5.027 6.824-6.578.802-.465.087-1.788-.715-1.324-2.948 1.677-5.472 4.116-7.35 7.104h1.254c-1.662-3.911-1.681-8.742-1.386-12.967.307-4.333 4.39-12.693 8.598-6.783.545.778 1.775 0 1.217-.771l-.044.007Z" fill="#6D1300"/><path d="M46.886 298.413c-2.509 2.778-5.112 5.965-6.378 9.629l1.291-.177a17.292 17.292 0 0 1-2.238-7.935 17.45 17.45 0 0 1 1.655-8.103 17.805 17.805 0 0 1 2.822-4.545c1.65-1.754 4.83-2.115 6.008.539.395.894 1.612.116 1.217-.771-.796-1.788-2.941-2.832-4.685-2.777-2.596.068-4.183 2.579-5.487 4.729-1.813 2.872-2.826 6.253-2.916 9.735-.09 3.483.746 6.921 2.408 9.899.071.128.175.23.3.295a.666.666 0 0 0 .767-.11.787.787 0 0 0 .218-.369c1.186-3.412 3.7-6.367 6.015-8.954.627-.682-.364-1.795-.997-1.085Z" fill="#6D1300"/><path d="m131.343 137.363 6.924-3.542 5.03.491 7.306 4.777 15.202 15.567 7.419 3.514 7.77.205 3.105-1.481 2.163-2.586 3.845-.874 5.838-1.044 3.431-1.965 3.167-4.136 1.85-4.559 1.925 5.173-1.404 7.882-4.923 7.971-3.763 2.744 4.045.348 9.808-.826 7.501-2.975 4.703-3.993-.915 4.614-5.644 6.237-2.867 8.722-5.274 5.364-8.278 4.722-9.439 2.355-12.781-1.037-9.752-3.03-6.052-3.815-6.165-4.832-4.402-6.101-6.849-8.899-8.523-14.755-4.001-10.236Z" fill="#4B4A6B"/><path d="M206.193 146.289s-2.038 6.319-5.281 8.585c-3.242 2.266-7.751 1.918-10.26 2.921-2.508 1.003-6.165 3.917-7.005 4.661-.84.744-2.427 1.078-2.759.13-.483-1.399 1.925-3.706 2.797-4.532a3.462 3.462 0 0 0 1.041-1.481l2.32-2.791 5.488-.955 5.481-1.365 3.562-3.542 2.753-6.046 1.292 2.095.571 2.32Z" fill="#88CAFD"/><path d="m222.21 158.778-7.049 4.722-12.405 2.696-6.34-.819 3.418.819a10.283 10.283 0 0 0-5.406.512 22.199 22.199 0 0 1-4.804 1.453s-6.203-.484-9.633-2.327c-3.431-1.842-3.688-2.525-4.729-3.18-1.041-.655-2.922-.348-3.562.833-.64 1.18-.627 2.695 0 3.31-1.041-.437-3.518 0-4.039.914-.52.914-1.524 3.412 1.254 5.268 2.779 1.857 10.806 7.275 14.97 8.019 4.164.744 18.532 1.133 24.139-3.098 5.055-3.808 7.476-8.005 8.04-10.558.564-2.552.326 1.413.326 1.413l2.998-2.573 2.822-7.404Z" fill="#88CAFD"/><path d="m131.343 137.854 5.921-4.02 6.409.389 5.475 3.631 2.954 3.139s-.201 8.237.959 14.721c1.016 5.664 3.218 12.591 8.78 20.473 2.998 4.258 10.354 8.107 10.662 11.206a53.43 53.43 0 0 0-8.448-2.914l-7.67-6.197-7.701-9.049-7.883-9.363-9.157-16.788-.301-5.228Z" fill="#43375D"/><path d="M131.701 138.025c2.979-2.191 6.974-4.095 10.617-3.215 4.227 1.01 7.921 4.73 10.931 7.869 5.977 6.231 11.107 14.256 19.718 16.215 2.979.682 6.591 1.01 9.476-.164a9.148 9.148 0 0 0 2.672-1.72c2.044-1.856 2.809-2.73 5.644-3.064 3.462-.45 7.281-.996 9.953-3.692 2.163-2.177 3.537-5.46 4.39-8.462l-1.28.157c5.318 9.008-4.521 25.161-13.96 24.977a.686.686 0 0 0-.457.249.81.81 0 0 0-.185.519.81.81 0 0 0 .185.519.686.686 0 0 0 .457.249c10.436.204 21.078-17.287 15.183-27.298a.737.737 0 0 0-.303-.286.656.656 0 0 0-.396-.066.69.69 0 0 0-.368.175.79.79 0 0 0-.225.361c-1.223 4.184-3.342 8.189-7.293 9.786-3.299 1.318-7.652.389-10.486 2.812-1.091.935-1.882 2.129-3.136 2.866-1.743 1.031-3.763 1.051-5.694.99-3.545-.067-7.009-1.162-10.035-3.173-7.896-5.235-12.486-14.762-20.696-19.669-5.192-3.118-10.661-1.815-15.459 1.707-.752.546-.044 1.876.709 1.323l.038.035Z" fill="#18013D"/><path d="M144.187 164.128c5.726 8.811 13.007 18.324 22.42 22.384 14.312 6.142 30.963 6.552 43.367-4.517 4.635-4.143 6.059-10.005 7.068-16.243a.83.83 0 0 0-.01-.577.745.745 0 0 0-.376-.407.657.657 0 0 0-.53-.01.74.74 0 0 0-.388.394c-4.917 8.981-16.475 10.919-25.33 9.984-.904-.096-.897 1.44 0 1.536 9.369 1.01 21.366-1.277 26.547-10.749l-1.292-.587a56.478 56.478 0 0 1-1.951 8.421c-1.398 4.361-4.245 7.091-7.795 9.514-8.611 5.889-18.049 7.138-27.921 5.166-8.78-1.754-16.117-5.303-22.495-12.154a94.328 94.328 0 0 1-10.091-12.933c-.521-.798-1.743-.034-1.254.778h.031Z" fill="#18013D"/><path d="M196.673 166.571c8.567.539 19.968-.539 26.114-7.8l-1.204-.546c-.427 3.897-2.691 7.568-5.575 9.882-.722.58 0 1.911.715 1.324a16.132 16.132 0 0 0 4.197-4.9 17.546 17.546 0 0 0 2.074-6.306c.075-.682-.815-.996-1.204-.539-5.883 6.947-16.933 7.862-25.086 7.35-.909-.055-.903 1.481 0 1.535h-.031Z" fill="#18013D"/><path d="M130.754 136.687s9.407 10.612 11.583 16.16c2.176 5.549 3.575 17.116 3.092 24.316-.483 7.2-8.78 47.771-21.95 58.833 3.794 6.504 8.378 28.342 8.378 28.342l-5.494-7.895-.482 10.857-5.601-9.056-1.881 11.963s-4.591-17.061-7.1-21.783c-5.713 1.167-15.158 2.498-20.444.232-2.24 4.245-3.519 19.224-3.519 19.224l-4.139-8.551-6.271 6.825-1.436-7.958-6.034 6.914s1.255-15.622 4.002-21.9c-7.15-3.597-25.086-27.878-28.924-36.702-3.838-8.824-5.13-19.6-4.91-27.803.219-8.203 3.21-16.454 5.606-19.709a34.75 34.75 0 0 1 5.864-5.93l26.967-21.047 44.859-1.631 7.834 6.299Z" fill="#71578D"/><path d="M130.252 137.226c3.863 4.381 7.958 9.077 10.712 14.386 1.881 3.59 2.546 7.916 3.104 11.95a63.08 63.08 0 0 1 .627 13.969c-.451 5.153-1.7 10.305-2.891 15.301a177.876 177.876 0 0 1-6.566 21.838c-2.816 7.446-6.322 15.628-12.242 20.774a.82.82 0 0 0-.113.928c2.81 5.029 4.196 11.178 5.644 16.802.966 3.76 1.882 7.547 2.672 11.356l1.292-.587-5.5-7.903a.732.732 0 0 0-.345-.307.656.656 0 0 0-.445-.025.71.71 0 0 0-.372.266.821.821 0 0 0-.155.455l-.477 10.858 1.311-.383-5.601-9.062c-.307-.492-1.179-.519-1.291.184l-1.882 11.963h1.361c-1.963-7.302-3.763-15.28-7.168-21.961a.744.744 0 0 0-.345-.321.665.665 0 0 0-.452-.034c-6.346 1.263-13.797 2.655-20.068.232a.652.652 0 0 0-.454.029.728.728 0 0 0-.343.326c-2.766 5.678-3.073 13.301-3.618 19.607l1.317-.382-4.165-8.538a.756.756 0 0 0-.22-.25.66.66 0 0 0-.616-.087.714.714 0 0 0-.274.18l-6.271 6.825 1.179.334-1.461-7.985a.787.787 0 0 0-.187-.338.702.702 0 0 0-.316-.194.648.648 0 0 0-.362.002.69.69 0 0 0-.314.196l-6.033 6.906 1.204.546c.57-7.063 1.185-15.013 3.907-21.51a.84.84 0 0 0 .07-.581.773.773 0 0 0-.321-.47c-5.883-3.14-10.662-9.964-14.795-15.28-4.822-6.183-9.764-12.735-13.301-19.914-5.017-10.237-6.899-24.37-4.566-35.706 1.198-5.882 3.268-11.212 7.4-15.327a44.213 44.213 0 0 1 4.058-3.501l13.327-10.408c3.97-3.091 7.852-6.653 12.035-9.39.407-.266.489-.341.15-.239a5.32 5.32 0 0 1 1.255-.041l5.713-.205 18.551-.682 17.56-.635c1.819-.068 1.323-.259 2.508.683l6.774 5.459c.727.587 1.436-.744.708-1.324l-6.208-5.009c-1.042-.832-1.474-1.29-2.666-1.365-4.81-.334-9.877.355-14.688.533l-20.288.73-7.024.252c-.79 0-1.818-.122-2.577.191-1.192.492-2.446 1.911-3.468 2.73l-7.545 5.828-14.6 11.404c-4.936 3.849-8.742 8.121-10.868 14.441-3.763 11.246-2.822 24.458.627 35.671 2.74 8.872 8.222 16.379 13.578 23.599a149.248 149.248 0 0 0 9.87 12.066c2.302 2.49 4.792 5.207 7.74 6.783l-.251-1.051c-2.835 6.784-3.512 14.918-4.102 22.282a.824.824 0 0 0 .127.421c.079.124.189.22.317.277a.658.658 0 0 0 .405.045.7.7 0 0 0 .362-.204l6.027-6.906-1.18-.341 1.443 7.957a.79.79 0 0 0 .187.336.7.7 0 0 0 .315.194.662.662 0 0 0 .361.002.7.7 0 0 0 .316-.191l6.272-6.824-1.104-.157 4.158 8.537c.357.73 1.254.314 1.317-.389a114.282 114.282 0 0 1 1.925-13.867c.226-1.065.395-2.887 1.004-3.795.608-.907-.176-.511 1.103-.327.627.095 1.305.314 1.963.423 3.367.461 6.774.461 10.141 0a87.028 87.028 0 0 0 4.183-.58c.489-.082 1.882-.642 2.396-.437.244.102.263.41.533.758 1.505 1.938 2.164 5.882 2.916 8.257a298.635 298.635 0 0 1 3.512 12.086c.182.683 1.254.785 1.361 0l1.882-11.963-1.292.177 5.606 9.063c.082.14.203.248.345.307.142.06.298.069.445.025a.705.705 0 0 0 .372-.266.821.821 0 0 0 .155-.455l.477-10.857-1.311.389 5.494 7.895a.72.72 0 0 0 .388.334.656.656 0 0 0 .494-.023.744.744 0 0 0 .36-.369.833.833 0 0 0 .05-.535c-1.675-7.93-3.543-15.969-6.272-23.551-.338-.956-1.931-4.163-1.881-4.402.163-.526 1.649-1.645 2.026-2.082a31.21 31.21 0 0 0 2.044-2.654 66.856 66.856 0 0 0 6.861-13.144 175.28 175.28 0 0 0 8.962-30.103c1.881-8.872 2.352-16.986.978-26.063-.953-6.339-2.703-11.267-6.309-16.33a120.27 120.27 0 0 0-7.72-9.664c-.583-.676-1.58.389-.953 1.126Z" fill="#18013D"/><path d="M91.225 248.001c-3.04-.847-6-2.008-8.837-3.467-.815-.423-1.536.901-.715 1.324a48.807 48.807 0 0 0 9.176 3.624.663.663 0 0 0 .504-.105.767.767 0 0 0 .307-.448.831.831 0 0 0-.051-.556.731.731 0 0 0-.384-.372Z" fill="#18013D"/><path d="M119.961 137.369c8.152-.225 11.376 4.873 13.138 8.074 1.763 3.2 6.272 12.878 5.444 14.399-.828 1.522-13.609 4.286-17.29.901-3.682-3.385-9.132-7.875-9.69-15.3-.558-7.425 8.398-8.074 8.398-8.074Z" fill="#847AA6"/><path d="M51.276 157.16c-2.942-6.892-9.125-4.818-9.125-4.818l-19.335 7.507-10.455 6.825-5.97 6.251-3.995 8.483-1.637 7.834 1.505 8.258 4.008 6.237 8.849 6.415 21.442 9.555 1.806 6.708 3.8 5.876 2.51 1.01s1.918 1.699 2.119 1.999c.2.301 5.72 4.238 5.72 4.238l5.286 1.365 3.393-.129 3.97.88 5.519.819-.113-1.167-4.522-3.31-4.126-7.507-2.038-7.582-.402-10.1-2.565-6.142-5.017-4.183-10.034-3.57-5.206-5.009-2-5.139.52-4.313 2.804-5.459 4.32-6.627 6.51-6.701 2.509-4.982-.05-3.522Z" fill="#4B4A6B"/><path d="M59.297 211.647c-.627-2.436-2.973-4.286-5.055-4.095-2.082.191-4.327.956-5.368 3.658-5.92-2.525-27.137-12.721-32.342-17.682-5.205-4.961-10.567-5.753-12.731-4.88-2.164.874-3.173 2.437-2.872 4.006.3 1.57 3.762 10.182 3.762 10.182l15.591 10.039 13.007 5.644 3.581.867 1.204 6.36 3.136 4.975 3.45 1.843 5.017 5.377 6.327 2.962 5.645-.082 7.488 1.843 1.775-.444-1.123-1.317-3.7-2.955-4.001-6.101-1.926-9.063-.545-8.796-.32-2.341Z" fill="#43375D"/><path d="M46.077 157.358c-1.882-3.903-16.701 1.843-20.42 4.266-9.207 6.012-19.774 15.771-17.134 19.518 2.64 3.746 6.566.32 9.608-2.048 3.042-2.368 17.215-12.925 22.74-14.577 5.525-1.651 6.403-4.675 5.206-7.159Z" fill="#2A769F"/><path d="M40.483 223.74c-.189 9.936 12.473 19.791 21.072 17.743.884-.211.508-1.692-.377-1.481-7.726 1.85-19.441-7.343-19.284-16.249a.796.796 0 0 0-.229-.497.675.675 0 0 0-.477-.201.675.675 0 0 0-.477.201.795.795 0 0 0-.228.497v-.013Z" fill="#18013D"/><path d="M48.435 223.426c2.094 8.612 7.444 16.747 15.678 18.972.928.252 7.482 2.573 7.526-.362 0-1.624-3.136-3.064-3.92-3.787-6.271-5.91-6.672-13.765-7.206-22.187-.376-5.93-1.83-10.653-7.055-13.26-5.481-2.729-12.016-3.678-15.998-9.11-4.17-5.685-.71-12.175 2.834-17.061 3.763-5.248 13.07-11.377 11.803-19.027-.564-3.412-3.537-5.555-6.566-5.924-4.033-.484-8.234.867-11.985 2.368-7.068 2.839-14.08 6.279-20.27 10.988-8.823 6.708-16.43 20.262-11.915 32.143 4.497 11.752 18.256 16.624 28.334 20.746a53.51 53.51 0 0 0 5.557 2.171c.382.072.751.206 1.097.395-.915-.682-.294 0-.112.792.997 4.552 3.593 10.919 7.814 12.803.84.368 1.21-1.113.376-1.481-4.44-1.952-5.287-8.272-7.03-12.434-.627-1.488-1.593-1.488-3.06-2.048-8.517-3.228-17.498-6.824-24.905-12.536-4.71-3.631-8.065-9.391-7.958-15.819.107-6.825 3.349-14.502 7.814-19.259 6.272-6.688 14.926-10.967 23.035-14.331 4.83-2.007 14.261-6.142 17.63.047 3.568 6.572-6.391 13.697-9.866 18.222-5.218 6.824-9.169 15.532-1.825 22.411 3.65 3.412 8.36 4.689 12.75 6.531 2.596 1.085 5.187 2.389 6.585 5.187 1.574 3.153 1.455 7.111 1.637 10.591.358 6.982 1.436 13.52 6.052 18.734a19.462 19.462 0 0 0 4.29 3.767c.74.45.759.286.213.238-6.635-.525-12.167-3.2-15.93-9.308a33.727 33.727 0 0 1-4.057-9.554.755.755 0 0 0-.342-.418.657.657 0 0 0-.511-.056.714.714 0 0 0-.412.334.827.827 0 0 0-.096.549l-.006-.027Z" fill="#18013D"/><path d="M80.155 130.224a31.476 31.476 0 0 0-12.09 3.413c-2.961 1.487-.841 6.476 2.175 5.609a53.535 53.535 0 0 1 7.294-1.604l-.753-6.026a78.25 78.25 0 0 0-13.74 4.941c-2.91 1.365-.803 6.9 2.176 5.61a33.834 33.834 0 0 1 7.789-2.552l-2.176-5.61-12.543 6.319 2.847 5.31a26.98 26.98 0 0 1 3.462-1.925l-2.76-5.173a43.437 43.437 0 0 1-9.35 6.279l3.418 4.825c2.508-2.573 5.054-4.552 4.49-8.592-.22-1.604-2.145-2.593-3.468-2.143a3.97 3.97 0 0 0-1.481.782c-.44.367-.807.828-1.078 1.354-1.969 3.337 2.916 6.422 4.873 3.098l.314-.532-1.687 1.413.558-.191-3.468-2.15c-.07-.485-2.816 2.375-3.048 2.614-2.465 2.545.627 6.217 3.424 4.825a48.787 48.787 0 0 0 10.517-7.221c2.12-1.883-.17-6.285-2.747-5.132a38.78 38.78 0 0 0-4.81 2.539c-3.192 2.047-.395 6.94 2.847 5.309l12.543-6.326c3.136-1.583.715-6.101-2.176-5.616a33.838 33.838 0 0 0-7.783 2.552l2.17 5.616a71.212 71.212 0 0 1 12.392-4.326c3.03-.765 2.453-6.477-.746-6.033a64.499 64.499 0 0 0-8.78 1.822l2.17 5.617a24.297 24.297 0 0 1 9.244-2.553c3.606-.266 3.631-6.415 0-6.142h-.019Z" fill="#F7A566"/><path d="m50.655 145.764-.991.737 3.863 4.197.144-.335c1.505-3.535-3.223-6.66-4.873-3.098l-.232.491 5.162 2.382c.539-2.211-.565-3.931-.364-6.067.2-2.136 1.179-4.265 1.819-6.251 1.085-3.371-3.525-5.248-5.162-2.368a18.958 18.958 0 0 0-1.963 5.043l5.444 1.638a8.296 8.296 0 0 1 .414-1.747l-5.162-2.368c-.708 2.614-1.298 5.248-1.028 7.984.389 3.884 6.033 3.931 5.644 0-.22-2.265.245-4.197.828-6.353.884-3.242-3.876-5.624-5.155-2.361a16.653 16.653 0 0 0-.985 3.207c-.67 3.835 4.54 5.514 5.444 1.638a12.826 12.826 0 0 1 1.398-3.597l-5.161-2.368a47.927 47.927 0 0 0-1.831 6.231 12.37 12.37 0 0 0-.214 2.962c.05.846.778 2.361.59 3.132-.803 3.276 3.681 5.555 5.161 2.368l.226-.491-4.873-3.098-.144.334c-1.072 2.512 1.304 6.142 3.863 4.204l.985-.737c2.979-2.225.157-7.548-2.847-5.303v-.006ZM70.767 131.712l-1.066-.423v5.924c4.817-1.939 9.627-3.884 14.512-5.597 5.074-1.774 10.28-3.705 15.679-3.412l-.753-6.033a138.2 138.2 0 0 0-19.918 7.494c-3.136 1.446-.734 6.183 2.176 5.609a93.49 93.49 0 0 1 9.2-1.324l-1.423-5.718a18.767 18.767 0 0 1-3.468 1.528l3.186 4.511.439-.682-1.687 1.406.727-.28c3.4-1.317 1.938-7.255-1.499-5.924-1.193.378-2.212 1.23-2.853 2.389-1.405 2.231.922 5.255 3.186 4.511a25.934 25.934 0 0 0 4.816-2.15c2.396-1.365 1.38-5.985-1.424-5.726-3.595.332-7.161.849-10.699 1.549l2.177 5.61a127.553 127.553 0 0 1 18.563-6.824c3.167-.901 2.358-5.856-.753-6.033-5.512-.314-10.843 1.447-16.042 3.228-5.199 1.781-10.46 3.897-15.64 5.985a2.87 2.87 0 0 0-1.445 1.125 3.294 3.294 0 0 0-.552 1.837c0 .66.193 1.304.552 1.836.36.533.865.927 1.444 1.125l1.066.424c3.418 1.364 4.892-4.58 1.5-5.924v-.041Z" fill="#F7A566"/><path d="M96.787 133.036c5.061-3.003 11.289-2 16.833-3.003 2.872-.525 2.508-5.145 0-5.923a83.563 83.563 0 0 0-12.813-2.853v6.142c2.864-.255 5.73-.482 8.598-.683 2.565-.177 5.695-.907 8.153.076 3.418 1.364 4.892-4.566 1.505-5.924-2.696-1.078-5.694-.56-8.497-.375-3.249.218-6.498.473-9.746.764-3.7.334-3.55 5.623 0 6.142a74.372 74.372 0 0 1 11.288 2.634v-5.923c-6.221 1.132-12.436.211-18.187 3.623-3.192 1.898-.345 7.2 2.847 5.303h.02Z" fill="#F7A566"/><path d="M119.333 130.593h-.125v-5.924c-.728.184-1.882-.252-2.615-.321a22.025 22.025 0 0 0-2.089-.095c-1.486 0-2.966.334-4.446.266v6.142l-.922-.252c1.254.996 3.136.218 3.863-1.099.853-1.549.207-3.221-1.016-4.204a2.75 2.75 0 0 0-1.925-.587c-3.638.102-3.625 5.965 0 6.142 1.712.082 3.418-.307 5.142-.259 1.882.054 3.669.641 5.507.191 2.985-.73 2.358-4.9 0-5.924a2.715 2.715 0 0 0-1.374-.205c-3.593.328-3.625 6.47 0 6.142v-.013Z" fill="#F7A566"/><path d="M118.493 132.005a10.247 10.247 0 0 1 4.71.505v-5.923c-1.254.232-2.797-.341-4.026-.58l-.753 6.033c1.701.104 3.396.318 5.074.641 1.429.28 2.916.908 4.39.88a2.66 2.66 0 0 0 1.405-.409c.427-.267.784-.65 1.034-1.112 1.474-3.024-1.091-7.425-3.223-9.329-2.728-2.43-7.212-2.437-10.518-2.014-3.568.458-3.606 6.606 0 6.142a15.358 15.358 0 0 1 5.745.144 2.444 2.444 0 0 1 1.581.873c.308.425.576.883.802 1.365.251 1.106.496 1.003.74-.293l2.434-1.522c-1.43 0-3.086-.724-4.522-.956a54.457 54.457 0 0 0-4.923-.566c-3.136-.225-3.901 5.459-.753 6.033 2.383.457 4.622 1.017 7.037.58 2.922-.526 2.427-5.078 0-5.924a14.07 14.07 0 0 0-6.215-.723c-3.575.402-3.613 6.544 0 6.142l-.019.013Z" fill="#F7A566"/><path d="m131.418 133.377-.313-1.965c-.282-1.781-2.697-1.242-2.772.402-.038.8-.013 1.601.075 2.396l2.408-1.085a17.813 17.813 0 0 0-4.27-2.983 1.353 1.353 0 0 0-1.067-.141 1.471 1.471 0 0 0-.865.694 1.678 1.678 0 0 0-.139 1.164c.095.392.327.729.647.938a15.2 15.2 0 0 1 3.7 2.498c.815.757 2.565.362 2.408-1.085a15.214 15.214 0 0 1-.075-2.396l-2.772.41.314 1.965c.099.393.337.727.662.928a1.31 1.31 0 0 0 1.072.147c.361-.108.667-.367.853-.721.185-.354.233-.773.134-1.166Z" fill="#F7A566"/><path d="M125.686 121.926s3.537 1.883 4.252 4.449c.715 2.566.815 10.06.815 10.06l-5.286-3.037-5.795-1.481s-.395-8.763-2.051-10.831c-1.656-2.067 8.065.84 8.065.84ZM107.906 121.475s.91 7.2.803 8.77c-.107 1.569-3.951.955-3.951.955l-9.664 1.781-1.781-4.231s-.665-4.135 0-4.893c.664-.757 4.39-1.365 4.39-1.365l10.203-1.017ZM79.898 127.433s-.627 5.733 0 9.002c-3.136.941-12.267 5.971-12.267 5.971a17.582 17.582 0 0 1-1.292-5.971c-.063-3.181 1.537-6.607 1.537-6.607l12.022-2.395ZM55.816 143.218s-.345 3.221.828 5.603a27.13 27.13 0 0 0-5.607 4.231l-3.763-3.596-.627-5.521 2.458-9.016 5.174 2.867 1.537 5.432Z" fill="#3D383C"/><path d="M125.686 121.475s1.568 5.146-.269 6.927c-1.838 1.781-6.899.956-10.129.567-3.23-.389-16.99-.348-19.924.3-2.935.648-19.63 6.06-22.577 7.63-2.948 1.569-3.983 2.675-5.017 1.999-1.035-.675-.47-5.364-.47-5.364l-19.01 3.351A39.802 39.802 0 0 0 47 140.98c0 .477.238 7.923.238 7.923l3.255 4.149 9.796-6.326 9.953-5.746 10.736-4.778 24.459-5.384 10.21.334 8.723 2.136 6.604 3.59.126-4.879-1.28-6.033-2.446-3.228-1.687-1.263Z" fill="#18013D" opacity=".49"/><path d="M114.881 123.523c-7.407 0-14.958.252-22.264 1.597-7.306 1.344-14.468 4.511-21.323 7.582-1.65.743-.928 3.719.753 2.961 6.61-2.975 13.515-6.019 20.57-7.445 7.256-1.467 14.863-1.618 22.239-1.624 1.812 0 1.818-3.078 0-3.071h.025Z" fill="#73EDFB" opacity=".49"/><path d="M125.228 122.206c5.017 2.211 5.645 9.588 5.086 14.679l1.06-.683c-8.046-6.182-18.783-6.339-28.221-5.718-.903.061-.91 1.597 0 1.535 9.225-.607 19.673-.519 27.519 5.507.489.376 1.01-.15 1.066-.682.627-5.896-.433-13.649-6.121-16.16-.847-.376-1.21 1.112-.376 1.481l-.013.041ZM80.764 135.697a98.735 98.735 0 0 0-21.129 11.029 212.291 212.291 0 0 1-6.898 4.463c-.628.375-1.255.737-1.882 1.133s.214.573-.15-.089c-.364-.662-1.192-1.365-1.637-2.115a10.77 10.77 0 0 1-1.342-5.269c.008-2.6.496-5.171 1.436-7.561.357-.894-.86-1.679-1.217-.772-2.264 5.74-2.646 13.322 2.44 17.41a.682.682 0 0 0 .715 0c5.425-3.208 10.448-7.193 15.91-10.299a98.165 98.165 0 0 1 14.13-6.455c.853-.314.49-1.802-.376-1.475Z" fill="#18013D"/><path d="m60.946 187.365 8.103-7.882 3.204 8.387 6.899-9.847 4.804 9.363 2.007-7.043 1.536-11.376v-3.836h2.722l3.706-2.047 1.694 7.091 3.468 6.851 1.699.683 1.493-6.552 1.499-1.044 1.643 2.675s6.773 21.566 13.703 28.329c6.93 6.763 16.77 13.301 16.77 13.301v-1.495l-4.026-10.687 9.633 2.429-4.786-10.107 7.363.867-6.579-6.251-6.898-8.742-4.547-8.456-3.449-5.855-3.042-3.856-2.471-1.365-2.214 2.204-2.728 2.689-2.91-3.931-2.314-6.572-1.48-7.759-1.029-7.705-.94-6.64-1.618-3.671h-2.145l-3.337 2.49-2.508-3.268-2.879.518-3.524 4.32-2.39-1.112-2.546.436-1.423 2.853-1.104 7.964-.985 5.303-5.995 1.453-4.547.178-2.308 2.518-.86 8.108-1.473 14.037-2.891 12.052Z" fill="#F7A566"/><path d="M102.181 170.325a3.177 3.177 0 0 1-.565.614l.577-.478c-.196.147-.407.27-.627.369l.671-.307-.088.041 3.569 2.961a1.619 1.619 0 0 1 0-.197l-.101.812c.017-.129.046-.254.088-.376l-.282.731c.047-.12.108-.233.182-.335l-.445.621a1.7 1.7 0 0 1 .263-.273l-.571.478.076-.055-3.864-4.204a3.743 3.743 0 0 1-.175.273l.445-.621c-.186.252-.396.48-.627.683l.571-.478-.082.068a2.137 2.137 0 0 0-.79.792 2.349 2.349 0 0 0-.508 1.044 3.309 3.309 0 0 0 .267 2.33c.369.708.981 1.227 1.702 1.444.362.116.743.149 1.118.096.375-.053.735-.19 1.058-.403a8.678 8.678 0 0 0 1.06-.962c.308-.372.589-.769.84-1.188l.283-.737c.119-.394.137-.817.05-1.221a3.017 3.017 0 0 0-.772-1.768 3.405 3.405 0 0 0-1.254-.785 2.592 2.592 0 0 0-1.117-.087 2.672 2.672 0 0 0-1.059.394 4.482 4.482 0 0 0-1.464 1.668 4.943 4.943 0 0 0-.543 2.229c.001.469.103.93.296 1.348.194.419.475.782.82 1.061.338.303.738.512 1.167.609.428.096.872.077 1.292-.056a5.637 5.637 0 0 0 2.508-1.815 2.32 2.32 0 0 0 .584-.99c.175-.363.259-.771.244-1.181a3.297 3.297 0 0 0-.828-2.177 2.733 2.733 0 0 0-1.994-.894 2.558 2.558 0 0 0-1.084.224 2.751 2.751 0 0 0-.916.67l.025.028Z" fill="#F7A566"/><path d="m84.389 187.365-5.017-8.871-6.786 8.871-3.901-8.107-8.203 8.107 3.487-12.659 1.166-9.5.088-6.196c3.409.223 6.83.069 10.21-.457 5.28-.874 7.689-1.939 9.163-2.109 1.473-.171 2 .723 2 .723l1.254 9.514-.928 7.568-2.533 13.116ZM136.047 213.305l-9.364-5.541-7.72-6.408-6.271-9.678s6.485-2.395 10.285-5.009c3.801-2.613 6.767-7.588 6.767-7.588l5.155 7.909 5.155 4.777 3.619 3.317-6.811-.758 1.881 4.491 2.509 5.33-9.614-2.805 4.409 11.963ZM122.92 167.506a23.507 23.507 0 0 1-5.964 5.706c-3.844 2.572-9.771 4.415-9.771 4.415l-1.304-3.535-1.374 2.047-3.901 1.235 1.882-6.79 6.522-3.098 5.839-4.661 2.364-2.048 2.402 1.536 3.305 5.193ZM96.355 144.856s-4.566 2.088-7.45 2.307c-2.886.218 0 1.699 0 1.699l1.16 3.583 2.433 5.971 2.214 2.887 2.12.321.89-1.365.27-5.46-1.637-9.943Z" fill="#3D383C"/><path d="M103.955 138.714s-3.662-.983-5.964.355l.314 1.201a2.92 2.92 0 0 0-1.95.403c-1.004.607.558 5.616.558 5.616l.758 8.715-.163 4.838a6.709 6.709 0 0 1 3.606-1.092c2.12 0 2.885-1.091 3.845-1.364a7.945 7.945 0 0 1 2.584 0l-1.982-5.747-.627-7.909-.979-5.016Z" fill="#3D383C"/><path d="M92.924 129.132a6.527 6.527 0 0 0-2.928 1.597 7.75 7.75 0 0 0-1.255 1.59c-.232.389-.708 1.932-1.003 2.048-.765.232-1.882-1.16-2.634-1.447a3.45 3.45 0 0 0-1.638-.276c-.559.044-1.1.225-1.586.528-1.599.942-.175 3.59 1.424 2.655.91-.539 2.508 1.235 3.324 1.583.37.201.777.312 1.19.324.415.011.826-.076 1.206-.255.733-.464 1.097-1.481 1.48-2.239.777-1.563 1.48-2.675 3.135-3.119 1.769-.47 1.023-3.412-.746-2.961l.031-.028ZM99.327 134.906c.27-.348.54-.683.828-1.024.113-.129.232-.252.351-.375.326-.328-.175.109.163-.15a4.293 4.293 0 0 1 1.487-.683c1.718-.614.984-3.576-.747-2.962a7.917 7.917 0 0 0-2.163 1.031 10.241 10.241 0 0 0-1.913 2.047c-.257.292-.4.681-.4 1.085 0 .405.143.793.4 1.085.265.286.624.447.997.447s.732-.161.997-.447v-.054ZM116.731 161.378c-3.046 3.668-6.911 6.419-11.22 7.985-1.718.627-.978 3.596.746 2.961 4.781-1.71 9.075-4.732 12.468-8.776 1.223-1.454-.765-3.631-1.994-2.17ZM84.037 147.408a45.882 45.882 0 0 1-17.033 3.89c-1.812.062-1.819 3.133 0 3.071a48.34 48.34 0 0 0 17.786-3.999c1.668-.723.94-3.692-.753-2.962Z" fill="#73EDFB" opacity=".49"/><path d="m86.584 146.289-1.142 3.016.571 7.589 1.455 8.217 3.16-.567 5.281-2.306-1.718-1.495-2.276-3.153-2.032-5.719-1.606-3.985-1.693-1.597Z" fill="#18013D" opacity=".49"/><path d="M96.354 133.411s3.412 22.664 5.018 27.721c1.605 5.057 3.091 8.538 3.091 8.538l1.148 4.183-1.681 2.307-3.518 1.754-2.107-1.365-3.763-10.36-.401-3.241 3.066-1.891.76-3.48-.76-8.272-1.586-7.977-1.399-6.409 2.132-1.508ZM97.703 137.574a274.379 274.379 0 0 0 4.911 17.689c.294.935 1.655.532 1.361-.402a267.234 267.234 0 0 1-4.886-17.689.755.755 0 0 0-.342-.418.653.653 0 0 0-.51-.056.714.714 0 0 0-.413.334.826.826 0 0 0-.096.549l-.025-.007ZM88.98 142.85a11.201 11.201 0 0 1-.628-3.938.809.809 0 0 0-.18-.494.69.69 0 0 0-.433-.249.664.664 0 0 0-.477.114.77.77 0 0 0-.296.424l-.627 2.894c-.138.621-.338 1.255.251 1.665.771.532 1.48-.799.715-1.324l-.063-.048.351.683c.053-.572.171-1.133.352-1.672l.382-1.768-1.386-.205c-.028 1.485.21 2.962.703 4.347.326.915 1.693.512 1.36-.409l-.025-.02Z" fill="#18013D" opacity=".49"/><path d="M103.422 170.994c4.678-1.241 8.931-3.915 12.255-7.705 1.285-1.406 1.461-2.15 3.537-.355.577.566 1.104 1.19 1.574 1.863a48.122 48.122 0 0 1 4.007 6.333c3.356 6.081 6.184 11.875 10.756 17.02a75.153 75.153 0 0 0 8.153 7.944l.357-1.433-7.344-.846c-.57-.069-.834.682-.627 1.16l4.804 10.1.797-1.126-9.922-3.221c-.476-.157-1.078.389-.872.942l4.723 12.543 1.041-.867c-5.908-3.303-12.11-7.234-16.764-12.434-5.268-5.876-9.212-14.236-11.859-21.872-.934-2.696-1.16-6.763-3.324-8.736-1.21-1.112-2.339-1.03-3.041.478-.822 1.761-.439 8.66-2.892 4.497-2.067-3.507-3.394-7.469-3.888-11.601-.088-.976-1.505-.983-1.411 0a32.745 32.745 0 0 0 3.136 10.523c.627 1.317 2.02 4.736 3.832 4.531 1.981-.225 1.937-3.937 2.157-5.391.188-1.194 0-2.777 1.794-1.051.84.806 1.103 3.003 1.411 4.156a42.864 42.864 0 0 0 1.285 4.136c2.822 7.507 6.554 15.567 11.809 21.436 4.742 5.288 11.051 9.322 17.053 12.679.482.267 1.291-.198 1.034-.866l-4.722-12.55-.866.948 9.916 3.187a.66.66 0 0 0 .405-.023c.13-.05.244-.14.329-.259a.832.832 0 0 0 .062-.844l-4.772-10.121-.628 1.154 7.363.873c.784.089.84-1.03.358-1.433a71.68 71.68 0 0 1-9.696-9.82c-4.666-5.699-7.2-12.694-11.251-18.843-1.323-2.006-4.24-7.104-6.899-5.828-1.304.621-2.558 2.73-3.631 3.761-2.82 2.7-6.222 4.578-9.89 5.459-.884.225-.514 1.706.37 1.481l-.019.021Z" fill="#18013D"/><path d="M84.94 188.055a98.003 98.003 0 0 0 3.105-17.696c.26-4.46.003-8.938-.765-13.328-.34-2.198-.803-4.402-.991-6.62-.12-1.365-.094-4.177 1.31-2.279 1.405 1.897 1.882 4.913 2.728 7.077.847 2.163 1.7 4.558 3.293 6.142.847.839 2.44 1.726 3.569.941 1.335-.928 1.185-3.903 1.254-5.364a64.232 64.232 0 0 0-2.013-16.597c-.534-2.211-1.16-4.381-1.694-6.592-.15-.621-.796-2.28-.539-2.839.332-.737 1.725.095 1.963 1.051.049.196.168.363.33.464a.653.653 0 0 0 .535.075.718.718 0 0 0 .427-.359.828.828 0 0 0 .069-.583c-.401-1.624-1.944-3.835-3.763-2.88-1.593.84-.884 3.324-.57 4.777 1.304 5.904 3.091 11.547 3.624 17.642.236 2.366.285 4.749.144 7.124-.144 2.048-.627 3.788-2.508 1.911-2.089-2.095-2.998-5.869-4.001-8.64-.59-1.631-1.255-4.538-2.684-5.555-4.924-3.412-1.731 12.332-1.6 13.26 1.342 9.589-.138 19.238-2.602 28.486a.829.829 0 0 0 .096.549.721.721 0 0 0 .412.334c.17.051.353.031.51-.057a.75.75 0 0 0 .343-.417l.018-.027Z" fill="#18013D"/><path d="M86.395 145.552c-4.96 2.013-10.034 3.822-15.308 4.34-3.073.301-5.356 1.174-6.008 4.682-1.167 6.272-.483 12.83-1.643 19.163a96.778 96.778 0 0 1-3.632 13.936c-.263.75.703 1.242 1.18.743l8.403-8.796-1.179-.342 3.368 8.804c.04.141.118.267.222.363a.687.687 0 0 0 .367.175.657.657 0 0 0 .396-.066.74.74 0 0 0 .3-.288l6.9-9.847h-1.217l4.803 9.363c.44.86 1.662.088 1.217-.778l-4.804-9.363a.75.75 0 0 0-.261-.267.68.68 0 0 0-.347-.097.68.68 0 0 0-.347.097.75.75 0 0 0-.261.267l-6.899 9.847 1.292.185-3.368-8.797a.794.794 0 0 0-.187-.337.708.708 0 0 0-.315-.194.662.662 0 0 0-.36-.001.7.7 0 0 0-.317.191l-8.404 8.796 1.18.751c3.392-9.82 4.433-19.607 5.017-29.993.094-1.741 0-4.232 1.291-5.515 1.405-1.399 4.064-1.092 5.84-1.365 4.602-.641 9.143-2.422 13.477-4.176.846-.341.476-1.829-.377-1.481h-.019ZM96.003 161.057a50.398 50.398 0 0 1-3.21 1.693c-1.349.682-3.6 2.006-5.143 1.59a.66.66 0 0 0-.5.111.768.768 0 0 0-.301.447.834.834 0 0 0 .052.552c.08.17.215.302.379.371 1.712.464 3.763-.594 5.274-1.297a49.737 49.737 0 0 0 4.158-2.143c.803-.464.094-1.795-.709-1.324Z" fill="#18013D"/><path d="M96.09 129.153c-3.687-3.371-7.456.996-9.237 4.381l.966-.273c-8.46-6.579-8.36 9.37-9.119 14.659-.144.962 1.217 1.365 1.361.403.426-2.948.865-5.897 1.198-8.872.08-1.322.29-2.631.627-3.904 1.029-3.18 3.03-2.668 5.212-.969.162.102.355.13.536.077a.715.715 0 0 0 .43-.357c1.204-2.293 4.164-6.674 7.017-4.094.69.634 1.693-.451.997-1.085l.013.034ZM112.064 165.22c-2.546-2.955-3.825-7.507-4.735-11.294-1.448-6.061-1.881-12.346-2.74-18.522-.289-2.095-.822-6.695-3.311-6.913-2.346-.205-5.538 3.992-7.068 5.582-.627.683.345 1.775.997 1.085a61.969 61.969 0 0 1 2.878-2.825c.628-.587 1.53-1.761 2.371-1.952 1.474-.341 1.743 1.024 2.145 2.361.878 2.921.984 6.142 1.367 9.145.997 7.869 1.781 18.249 7.099 24.418.627.724 1.618-.362.997-1.085Z" fill="#18013D"/><path d="m95.326 131.767.05-.062-.313.198h.075-.376c.195.162.344.379.433.628l.206-.546-.05.048.502-.225c.15 0 .063 0 0-.103-.063-.102-.113-.15-.17-.239-.056-.088-.269-.375-.269-.525l-.094.389.038-.082-.42.355h.068l-.545-.075.069.048-.251-.273a2.083 2.083 0 0 1 .063 1.712l1.034-.457-.081-.061.25.273a4.695 4.695 0 0 1-.282-.935l-.313-1.072-1.361.403c.152.354.217.744.188 1.133l1.286-.184-.107-.157a.732.732 0 0 0-.433-.345.675.675 0 0 0-.533.072.765.765 0 0 0-.324.469.832.832 0 0 0 .074.582l.106.157a.745.745 0 0 0 .302.296.675.675 0 0 0 .773-.106.771.771 0 0 0 .217-.375 3.94 3.94 0 0 0-.188-1.945.782.782 0 0 0-.335-.456.677.677 0 0 0-.53-.083.73.73 0 0 0-.424.362.837.837 0 0 0-.072.58l.433 1.488c.065.479.288.915.627 1.228a.662.662 0 0 0 .62.046.712.712 0 0 0 .26-.199.797.797 0 0 0 .155-.304c.186-.564.24-1.169.156-1.761a2.196 2.196 0 0 0-.18-.789 2.046 2.046 0 0 0-.447-.651.758.758 0 0 0-.395-.117.758.758 0 0 0-.397.11.843.843 0 0 0-.295.31.928.928 0 0 0-.117.427c.052.572.272 1.111.627 1.536.13.233.304.431.513.581a1.6 1.6 0 0 0 .691.286.768.768 0 0 0 .382-.116.84.84 0 0 0 .285-.299.937.937 0 0 0 .048-.834c-.25-.799-1.354-2.423-2.2-1.365-.628.73.388 1.822.996 1.085l-.025-.061ZM86.86 141.321l.896-4.354h-.545l1.662 5.835c.106.375.627.218.545-.164l-1.662-5.835a.316.316 0 0 0-.1-.165.269.269 0 0 0-.345 0 .315.315 0 0 0-.1.165l-.897 4.354c-.082.382.464.553.546.164ZM96.881 135.807c1.687 6.824 3.136 14.188 6.015 20.541.156.355.627.048.483-.307-2.848-6.299-4.284-13.649-5.952-20.398a.304.304 0 0 0-.133-.186.263.263 0 0 0-.215-.029.29.29 0 0 0-.171.145.332.332 0 0 0-.027.234ZM105.028 174.303c-1.154 1.795-2.465 2.321-4.39 2.56-.89.109-.903 1.644 0 1.535a9.002 9.002 0 0 0 3.274-.832 6.931 6.931 0 0 0 2.351-2.491c.521-.813-.702-1.577-1.216-.772h-.019Z" fill="#18013D"/><path d="M118.53 67.275s10.568 14.632 11.208 27.7c.639 13.07-4.309 26.5-4.309 26.5a108.332 108.332 0 0 0-36.588 3.221c-19.058 5.228-22.1 9.411-22.1 9.411s-1.838 8.975-5.525 9.5c-3.688.525-2.96-7.323-2.96-7.323s-1.186 8.613-5.457 9.138c-4.27.526-2.401-7.93-2.401-7.93s-11.452-6.619-12.249-25.093c-.796-18.474 1.117-25.176 1.117-25.176s-9.683 3.747-10.963 0c-1.28-3.746 7.444-5.05 7.444-5.05l6.723-2.443s-18.331 7.753-19.855 1.747c-1.524-6.005 11.608-1.365 19.441-8.626 7.834-7.261 9.69-11.328 14.255-12.966 4.566-1.638 19.135-8.627 36.588-6.102 17.453 2.526 20.577.785 25.939-3.917 5.362-4.702 6.723-4.272 8.002-3.05 1.279 1.221.803 5.31-.878 7.145-1.681 1.836.778-1.16 1.612-.437 1.467 1.276 4.484 4.511-3.293 9.93-2.784 1.938-4.202 2.866-5.763 3.835" fill="#71578D"/><path d="M118.029 67.815c5.688 7.936 10.786 18.173 11.05 28.41.182 7.282-1.179 14.631-3.211 21.545a35.235 35.235 0 0 1-1.123 3.473c.627-1.487.866-.075.119-.58a4.375 4.375 0 0 0-1.586-.123c-11.638-.78-23.318.37-34.637 3.413a98.902 98.902 0 0 0-15.993 5.562c-1.919.894-4.208 1.863-5.782 3.412-1.16 1.146-1.185 2.654-1.743 4.272-.627 1.829-3.8 8.64-5.72 4.238-.627-1.502-.59-3.535-.458-5.173.076-.853-1.254-1.058-1.38-.205-.388 2.628-1.254 6.654-3.549 8.067-3.945 2.463-3.43-4.095-2.941-6.436a.843.843 0 0 0-.027-.491.763.763 0 0 0-.293-.375c-6.899-4.047-10.7-13.274-11.64-21.286a110.12 110.12 0 0 1-.107-21.422c.103-2.26.418-4.504.941-6.695a.837.837 0 0 0-.001-.397.79.79 0 0 0-.183-.344.697.697 0 0 0-.316-.199.653.653 0 0 0-.365-.001 26.49 26.49 0 0 1-5.319 1.453c-1.166.184-5.644.778-4.716-2.047.427-1.27 2.735-1.884 3.763-2.211 3.299-1.058 6.585-1.993 9.872-3.187l-.377-1.481a66.733 66.733 0 0 1-7.005 2.477c-2.71.805-8.78 3.092-11.289.799-2.333-2.123.979-3.29 2.547-3.57 2.282-.41 4.603-.532 6.898-.996 5.858-1.188 9.708-4.559 13.91-8.988 3.243-3.412 5.92-6.824 10.254-8.503a104.46 104.46 0 0 1 12.844-4.327 59.142 59.142 0 0 1 21.354-1.501c5.645.682 11.389 1.78 17.084 1.146 3.107-.316 6.078-1.534 8.604-3.528 2.019-1.583 3.838-3.617 6.121-4.777 4.359-2.15 3.493 4.586 1.342 6.742l1.004 1.085c2.006-2.17 3.179 1.365 2.427 3.201-1.606 3.883-6.899 6.292-10.16 8.326a.779.779 0 0 0-.279.467.828.828 0 0 0 .082.55c.09.165.233.288.401.345a.658.658 0 0 0 .511-.038c3.449-2.15 11.997-6.142 11.169-11.738-.451-3.078-3.035-4.484-5.155-2.198-.627.683.332 1.754 1.004 1.085 2.176-2.183 4.126-8.721-.113-9.786-3.763-.948-7.564 4.477-10.455 6.388-4.032 2.668-8.78 2.648-13.377 2.34-8.585-.552-16.738-2.142-25.349-.914a81.784 81.784 0 0 0-18.187 5.125c-4.309 1.693-7.093 3.925-10.354 7.466-2.61 2.826-5.28 6.02-8.467 8.074-3.186 2.054-7.15 2.627-10.824 3.091-2.409.307-7.526.376-6.987 4.354 1.054 7.698 17.278.758 20.815-.73.828-.348.502-1.802-.376-1.48-2.283.825-4.572 1.849-6.899 2.47-2.326.62-5.914.962-7.413 3.412-1.498 2.45.628 4.36 2.735 4.674 2.86.424 6.077-.6 8.78-1.617l-.866-.949c-.99 3.542-1.09 7.548-1.254 11.2-.37 9.301-.627 19.381 3.136 27.98 1.718 3.958 4.954 9.554 8.836 11.465.333.164.897.887.552.075s-.42 1.18-.477 1.754c-.181 1.911-.307 4.777 1.299 6.087 4.503 3.774 7.714-5.807 8.222-9.056l-1.386-.205c-.245 2.928.2 9.316 4.346 7.937 2.22-.73 3.455-3.542 4.27-5.671.427-1.126.734-2.293 1.08-3.453.231-.799.05-.498.087-.553 1.882-2.6 6.516-3.972 9.131-5.009a107.983 107.983 0 0 1 30.329-7.227 94.534 94.534 0 0 1 18.639-.062.683.683 0 0 0 .424-.162.79.79 0 0 0 .253-.404c3.456-9.452 5.732-21.156 3.763-31.229-1.656-8.544-5.927-16.856-10.843-23.708-.559-.778-1.549.314-.998 1.085l-.018-.013Z" fill="#18013D"/><path d="M124.952 53.968c-3.583 3.377-7.848 5.785-12.448 7.029a.732.732 0 0 0-.384.372.832.832 0 0 0-.052.556.768.768 0 0 0 .307.448c.15.103.331.14.505.105 4.833-1.322 9.31-3.866 13.07-7.425.689-.642-.314-1.727-.998-1.085Z" fill="#18013D"/><path d="m76.349 51.764.22 4.094 1.385-.205-.86-4.053a.764.764 0 0 0-.29-.436.658.658 0 0 0-.481-.12.688.688 0 0 0-.435.256.805.805 0 0 0-.173.504l.27 4.627 1.386-.204-2.007-6.142a.754.754 0 0 0-.342-.424.657.657 0 0 0-.516-.057.719.719 0 0 0-.414.341.83.83 0 0 0-.089.556l1.129 6.292.865-.942c-.225-.068-.733-2.047-.834-2.36l-.897-2.526c-.32-.9-1.605-.566-1.36.41a81.356 81.356 0 0 0 1.498 5.295l1.255-.587a75.296 75.296 0 0 0-2.202-4.927.718.718 0 0 0-.385-.316.655.655 0 0 0-.482.026.736.736 0 0 0-.355.356.832.832 0 0 0-.063.521l1.656 5.289c.288.928 1.649.532 1.36-.41a40.797 40.797 0 0 0-3.468-8.68c-.414-.683-1.568-.266-1.292.593.897 2.73 1.825 5.46 3.437 7.821.082.14.203.248.345.307a.66.66 0 0 0 .445.026.713.713 0 0 0 .372-.267.82.82 0 0 0 .155-.455 35.743 35.743 0 0 0-.972-7.506l-1.36.409c.582 1.945 1.153 3.89 1.755 5.828.226.75.496 1.76 1.405 1.631a.688.688 0 0 0 .493-.228.814.814 0 0 0 .21-.536 54.956 54.956 0 0 0-.828-7.166l-1.292.587c.984 2.252 1.31 4.907 1.83 7.323.05.175.155.325.296.423.142.099.311.14.478.115a.693.693 0 0 0 .432-.25.81.81 0 0 0 .18-.493 68.709 68.709 0 0 0-.695-8.872l-1.292.594c1.336 2.266 1.348 5.207 1.574 7.814.088.962 1.417 1.003 1.411 0 0-2.648-.086-5.29-.257-7.923h-1.411c.282 2.592.376 5.205.282 7.814h1.411c.056-1.952.07-3.904.05-5.856l-1.386.205.27 1.303c.176.908 1.31.601 1.386-.204.056-.626.069-1.256.038-1.884h-1.424c.184 2.114.224 4.24.12 6.36h1.41a13.861 13.861 0 0 1-.094-2.047.798.798 0 0 0-.228-.498c-.13-.129-.301-.2-.477-.2a.678.678 0 0 0-.477.2.798.798 0 0 0-.229.498c-.02.684.012 1.369.094 2.047a.798.798 0 0 0 .229.498c.13.13.3.201.477.201a.677.677 0 0 0 .477-.2.798.798 0 0 0 .228-.498c.105-2.12.065-4.247-.119-6.36-.082-.97-1.461-1.004-1.411 0 .031.627.019 1.257-.038 1.883l1.386-.205-.263-1.303a.767.767 0 0 0-.296-.424.663.663 0 0 0-.477-.115.693.693 0 0 0-.432.25.81.81 0 0 0-.181.493c0 1.952 0 3.904-.05 5.856 0 .99 1.38.982 1.41 0 .095-2.61 0-5.222-.281-7.814-.1-.963-1.468-1.004-1.412 0 .164 2.634.25 5.275.258 7.923h1.41c-.244-2.873-.288-6.088-1.768-8.585a.705.705 0 0 0-.381-.265.655.655 0 0 0-.45.04.733.733 0 0 0-.337.328.829.829 0 0 0-.086.483c.39 2.8.6 5.625.627 8.456l1.386-.205c-.558-2.566-.928-5.289-1.975-7.684-.358-.826-1.437-.218-1.255.587.417 2.233.687 4.495.81 6.77l.708-.771s-1.65-5.828-1.8-6.333a.753.753 0 0 0-.342-.418.657.657 0 0 0-.51-.056.717.717 0 0 0-.413.334.828.828 0 0 0-.096.549c.545 2.318.842 4.698.884 7.09l1.317-.389c-1.542-2.252-2.44-4.824-3.298-7.452l-1.292.594a38.834 38.834 0 0 1 3.33 8.312l1.36-.41-1.655-5.295-1.292.587a77.526 77.526 0 0 1 2.201 4.927c.32.792 1.55.232 1.292-.587a81.66 81.66 0 0 1-1.499-5.302l-1.36.409c.52 1.467 1.04 2.948 1.567 4.415.264.724.408 1.365 1.148 1.543.122.036.25.037.372.003a.707.707 0 0 0 .324-.2.8.8 0 0 0 .19-.347.852.852 0 0 0 .005-.405l-1.13-6.285-1.379.423 2.007 6.142c.25.764 1.442.716 1.386-.205l-.257-4.654-1.386.205.853 4.053c.049.175.154.325.295.424.142.099.311.14.478.115a.693.693 0 0 0 .432-.25.81.81 0 0 0 .18-.493l-.219-4.095c-.056-.976-1.467-.983-1.41 0l-.013.02ZM81.378 70.497s12.066-16.12 14.33-26.05c2.264-9.929.565-11.758-3.681-13.416-4.246-1.659-9.526 4.006-11.044 10.632-1.518 6.627-1.524 15.765-1.524 15.765" fill="#71578D"/><path d="M81.88 71.043a127.616 127.616 0 0 0 9.865-15.294c1.881-3.48 3.7-7.152 4.647-11.097.753-3.132 1.762-7.397.47-10.537-.834-2.047-2.753-3.228-4.647-3.821-3.299-1.038-6.321 1.092-8.41 3.746-4.835 6.142-5.017 15.697-5.055 23.388a.798.798 0 0 0 .229.498c.13.129.3.2.477.2a.678.678 0 0 0 .477-.2.798.798 0 0 0 .229-.498c0-6.504.094-14.332 3.198-20.064 2.044-3.774 5.594-7.186 9.727-5.05 2.615 1.365 3.08 3.699 2.841 6.68-.928 11.541-8.53 22.249-15.052 30.957-.57.764.42 1.856.998 1.092h.006Z" fill="#18013D"/><path d="M73.056 73.458s-15.936-9.492-21.95-21.346c-6.014-11.855-1.524-13.417-.564-13.588.796-.143 10.404-1.42 18.369 9.711A36.993 36.993 0 0 1 71.1 51.71c.939 1.7 1.777 3.465 2.508 5.282" fill="#71578D"/><path d="M73.407 72.796a75.545 75.545 0 0 1-11.32-8.482c-5.644-5.05-12.543-12.55-13.258-20.951-.357-4.252 2.377-4.464 5.432-4.054 9.137 1.228 15.202 9.493 18.776 18.071.377.9 1.593.123 1.217-.771-3.136-7.473-7.858-14.434-15.09-17.498-2.545-1.078-6.578-2.286-9.331-1.16-3.136 1.283-2.66 5.637-1.85 8.421 2.189 7.61 7.206 13.731 12.762 18.747A76.91 76.91 0 0 0 72.7 74.12c.796.478 1.505-.846.708-1.324Z" fill="#18013D"/><path d="M71.15 50.617s-3.28-8.524 1.687-9.827c4.967-1.304 6.898 8.537 6.898 8.537" fill="#71578D"/><path d="M71.833 50.412c-1.003-2.634-2.364-9.172 1.995-8.974 3.135.143 4.66 5.33 5.211 8.094.195.962 1.555.553 1.361-.41-.734-3.685-2.91-9.745-7.225-9.172-4.91.683-4.057 7.302-2.703 10.872.34.9 1.706.505 1.361-.41Z" fill="#18013D"/><path d="M59.955 63.379S49.777 70.005 48.04 74.182c-1.737 4.176-3.135 17.43-2.797 27.066.339 9.636 1.6 19.866 3.519 24.281 1.336 2.826 3.371 5.19 5.876 6.824 0 0-1.254 5.89-1.18 8.244.076 2.355 0 3.658.835 3.31.401-.17 2.076-2.402 2.42-3.412.424-1.314.729-2.669.91-4.047.063-.566.533-2.225 1.813-2.197 1.279.027 1.498 1.167 1.58 2.047.081.88-.056 3.692.213 4.852.27 1.16.54 1.454.897 1.324 1.304-.478 2.71-3.276 3.236-4.661.453-1.234.81-2.508 1.066-3.808.2-1.228.295-3.542 1.418-4.879 1.122-1.338 12.304-6.143 15.904-7.228 3.6-1.085 18.118-6.039 23.004-6.421 4.885-.383 11.715.15 13.289-1.597 1.574-1.747 4.484-7.726 2.885-19.047-1.6-11.322-6.899-19.109-8.053-21.955-1.154-2.845-2.038-3.139-1.555-5.405.483-2.265 4.321-3.828 6.403-4.961 2.082-1.133 5.199-2.266 5.726-3.576.527-1.31 0-3.835 0-3.835l-3.782 2.416a2.374 2.374 0 0 1-.693-1.106 2.552 2.552 0 0 1-.028-1.338c.32-1.651 2.477-1.945 2.803-4.456a4.612 4.612 0 0 0-.076-2.011 4.367 4.367 0 0 0-.915-1.75l-3.894 2.997-2.841 2.272-6.14 3.153-6.403.683-7.369-1.42-3.6-.744 2.722-9.847s-.238-3.747-3.286-4.703a5.465 5.465 0 0 0-3.612.089c-1.166.438-2.177 1.26-2.892 2.355-1.097 1.651-4.703 6.701-5.744 13.846-.239-4.265-.483-7.213-.483-7.213a3.922 3.922 0 0 0-1.341-1.285 3.558 3.558 0 0 0-1.732-.476c-2.045 0-4.672.526-5.017 3.665-.345 3.14.627 1.925.627 1.925l2.251 5.172s-4.001-6.967-10.034-9.404c-6.033-2.436-8.567 0-9.044 1.74-.476 1.74-1.555 4.662.559 8.012a36.627 36.627 0 0 0 4.471 5.706Z" fill="#847AA6"/><path d="M71.833 50.76c-1.003-2.64-2.364-9.179 1.995-8.974 3.135.143 4.66 5.323 5.211 8.087.195.97 1.555.56 1.361-.41-.753-3.678-2.91-9.738-7.225-9.199-4.91.683-4.057 7.302-2.703 10.878.34.901 1.706.505 1.361-.409v.027Z" fill="#18013D"/><path d="M73.407 72.796a75.545 75.545 0 0 1-11.32-8.482c-5.644-5.05-12.543-12.55-13.258-20.951-.357-4.252 2.377-4.464 5.432-4.054 9.137 1.228 15.202 9.493 18.776 18.071.377.9 1.593.123 1.217-.771-3.136-7.473-7.858-14.434-15.09-17.498-2.545-1.078-6.578-2.286-9.331-1.16-3.136 1.283-2.66 5.637-1.85 8.421 2.189 7.61 7.206 13.731 12.762 18.747A76.91 76.91 0 0 0 72.7 74.12c.796.478 1.505-.846.708-1.324ZM81.88 71.043a127.616 127.616 0 0 0 9.865-15.294c1.881-3.48 3.7-7.152 4.647-11.097.753-3.132 1.762-7.397.47-10.537-.834-2.047-2.753-3.228-4.647-3.821-3.299-1.038-6.321 1.092-8.41 3.746-4.835 6.142-5.017 15.697-5.055 23.388a.798.798 0 0 0 .229.498c.13.129.3.2.477.2a.678.678 0 0 0 .477-.2.798.798 0 0 0 .229-.498c0-6.504.094-14.332 3.198-20.064 2.044-3.774 5.594-7.186 9.727-5.05 2.615 1.365 3.08 3.699 2.841 6.68-.928 11.541-8.53 22.249-15.052 30.957-.57.764.42 1.856.998 1.092h.006Z" fill="#18013D"/><path d="M80.739 65.099c1.655.88 9.45-14.639 10.492-16.993 1.04-2.355 2.508-6.238.163-7.37-2.346-1.134-4.49 4.497-5.475 6.353-.985 1.856-6.648 17.225-5.18 18.01ZM74.097 66.88c1.68-1.72-5.5-12.632-7.143-14.741-1.499-1.918-3.393-3.938-4.948-4.777-1.556-.84-4.001-1.809-5.525-.587-1.524 1.221-1.562 4.518-.74 6.142 1.16 2.306 6.86 7.793 9.043 9.452 2.182 1.658 7.45 6.38 9.313 4.51ZM77.904 56.015a43.774 43.774 0 0 1-.527-5.821c-.15-1.952-2.972-1.972-2.822 0 .06 2.227.27 4.446.627 6.64.414 1.925 3.136 1.112 2.722-.819Z" fill="#88CAFD"/><path d="m60.5 69.05-3.235 1.488-3.067 4.79-1.48 5.712-.301 6.388.42 6.504 1.48 8.367.345 2.368 5.839-6.32 6.453-3.037 2.628.075-.038-6.565-.608-9.472-1.73-5.78-2.71-3.447L60.5 69.05Z" fill="url(#b)"/><path d="m110.628 92.02-6.509-1.923-7.902-.553-4.315 1.01-2.822-6.538-2.841-8.906-.64-6.442 1.85-4.873 4.127-2.675 4.296.491 3.82 2.47 4.37 4.935 3.205 5.923 1.612 6.763 1.749 10.319Z" fill="url(#c)"/><path d="M106.239 89.892c-1.098-7.084-2.459-15.294-7.37-20.555-1.68-1.795-4.609-4.095-7.118-2.956-2.721 1.263-2.42 5.18-2.082 7.773.126.976 1.487.56 1.361-.402-.244-1.843-.627-5.316 1.543-6.06 1.374-.471 3.098.819 4.083 1.624 2.659 2.156 4.459 5.569 5.569 8.92a75.573 75.573 0 0 1 2.653 12.065c.15.976 1.511.56 1.361-.41ZM91.224 81.552a41.871 41.871 0 0 0 3.588 8.06c.489.833 1.706.061 1.223-.778a39.904 39.904 0 0 1-3.45-7.691c-.3-.928-1.668-.526-1.36.41ZM65.48 82.317c.458 4.076.713 8.177.765 12.284a.797.797 0 0 0 .229.498c.13.129.3.2.477.2a.678.678 0 0 0 .477-.2.797.797 0 0 0 .228-.498 124.086 124.086 0 0 0-.765-12.284c-.113-.97-1.524-.983-1.41 0ZM65.944 77.99a5.048 5.048 0 0 0-1.146-1.984 4.503 4.503 0 0 0-1.855-1.19 4.21 4.21 0 0 0-2.15-.134c-.716.142-1.39.47-1.967.953-4.69 3.959-4.264 12.4-2.678 17.805.276.935 1.637.54 1.361-.409-1.298-4.416-1.656-9.5.433-13.73 1.304-2.635 5.38-5.133 6.641-.902.276.935 1.637.533 1.361-.41Z" fill="#0097AC"/><path d="M70.29 95.385c.063-5.637.245-11.601-.827-17.17-1.104-5.876-6.197-13.28-12.242-8.606-4.083 3.167-5.174 9.37-5.4 14.448-.326 7.39.665 13.874 1.925 21.04.17.975 1.53.559 1.361-.403-.978-5.569-2.025-10.844-1.981-16.543.043-5.152.144-10.345 2.84-14.815 2.421-4.006 7.006-4.9 9.847-.683 1.843 2.73 2.433 6.142 2.709 9.404.326 4.436.445 8.886.357 13.335a.797.797 0 0 0 .229.498c.13.13.3.2.477.2a.678.678 0 0 0 .477-.2.798.798 0 0 0 .228-.498v-.007Z" fill="#18013D"/><path d="M69.337 94.478c-7.15-.444-13.797 6.606-17.109 12.864a.844.844 0 0 0-.066.595.775.775 0 0 0 .34.473.673.673 0 0 0 .546.073.735.735 0 0 0 .435-.37c3.023-5.746 9.231-12.51 15.854-12.1.91.055.903-1.48 0-1.535ZM92.19 89.769a114.638 114.638 0 0 1-4.352-11.424c-1.323-4.245-2.427-11.254.746-14.898 2.477-2.832 6.98-1.577 9.646.211 3.048 2.048 5.287 5.399 6.898 8.825 2.791 5.985 3.826 12.666 4.842 19.217.15.97 1.511.56 1.361-.41-1.255-8.052-2.597-16.467-7.031-23.27-3.135-4.778-10.034-10.538-15.622-6.634-3.982 2.791-3.92 9.97-3.004 14.4 1.048 5.084 3.274 10.059 5.312 14.76.383.895 1.6.11 1.217-.777h-.013Z" fill="#18013D"/><path d="M90.936 91.728c7.005-2.566 16.249-1.195 22.765 2.627.797.464 1.512-.86.709-1.33-6.83-4-16.481-5.46-23.832-2.778-.859.307-.489 1.794.377 1.48h-.02Z" fill="#18013D"/><path d="M92.008 98.395s3.06-1.153 4.39.764c1.33 1.918-1.198 5.405-2.64 6.709-1.442 1.303-2.509 8.715-7.287 10.455a11.19 11.19 0 0 1-6.42.2c-2.118-.562-4.058-1.735-5.615-3.394-2.246-2.614-6.617-.116-7.896-4.299-1.28-4.184 3.198-5.051 3.198-5.051s2.001-17.86 7.927-18.821c5.927-.963 14.343 13.437 14.343 13.437Z" fill="#F7A566" stroke="#6D1300" stroke-width="2" stroke-miterlimit="10"/><path d="M93.482 100.108c-2.114 4.217-6.641 5.507-10.662 6.633-4.164 1.174-8.228.785-12.398-.143-.884-.198-1.254 1.283-.37 1.481 4.81 1.071 9.332 1.303 14.085-.137 4.133-1.255 8.367-2.729 10.55-7.063.432-.867-.785-1.645-1.224-.771h.019Z" fill="#6D1300"/><path d="M76.392 90.574a42.784 42.784 0 0 1 2.183 8.38c.257 1.632 2.107 2.553 3.468 2.143 1.593-.477 2.233-2.136 1.975-3.78a43.166 43.166 0 0 0-2.182-8.353c-.57-1.536-1.881-2.621-3.468-2.143-1.342.402-2.546 2.231-1.976 3.774v-.02Z" fill="#FFEFBC"/><path d="m166.645 88.472 3.236-.068.144 3.515 1.223 3.357-2.665 8.469-1.374 11.616-.884 9.759 1.593 7.425 3.65 6.169 3.004 1.215-7.67-1.741-5.782-4.374-3.431-6.135-.784-6.736 1.687-10.687 2.151-9.698 2.973-7.33 2.929-4.756Z" fill="#18013D"/><path d="m176.817 86.207-7.475 2.197 1.016 4.893 3.016 4.955 5.162 4.504 5.732 5.596 2.533 3.822 2.183 7.431-1.229 6.088-2.264 7.056-3.663 4.614 5.3-1.365 5.713-3.965 2.082-5.385.903-6.981-1.129-8.258-2.082-6.21-4.302-4.566-6.642-4.49-3.894-4.245-.96-5.691Z" fill="#2A769F"/><path d="M168.872 88.882c-.27 6.824 4.76 10.81 9.162 14.57 3.136 2.689 6.535 5.685 8.31 9.697 1.775 4.013 1.329 9.439.332 13.724-.972 4.177-2.878 8.661-6.51 10.81-4.145 2.45-7.883 1.556-12.11 0-4.095-1.494-7.35-4.333-8.73-8.871-1.561-5.201-.865-11.465-.163-16.775 1.016-7.602 2.954-17.198 8.059-22.91.734-.819-.42-2.047-1.154-1.255-4.848 5.425-7.018 14.331-8.153 21.551-1.423 8.954-2.953 21.415 4.892 27.462 6.102 4.702 15.566 6.374 21.122-.143 4.848-5.685 7.031-16.918 4.001-24.07-2.038-4.818-6.083-8.231-9.852-11.397-3.769-3.167-7.783-6.709-7.563-12.366.05-1.147-1.587-1.147-1.631 0l-.012-.027Z" fill="#18013D"/><path d="M175.996 86.739c0 4.497 2.44 8.06 5.763 10.428 3.211 2.279 7.206 4.094 9.32 7.752 2.094 3.578 3.412 7.627 3.857 11.841.382 4.203-.17 9.254-1.882 13.096-1.254 2.811-3.28 3.978-5.794 5.118-3.475 1.583-7.081 2.88-10.662 4.095-1.003.341-.577 2.047.433 1.713a105.231 105.231 0 0 0 11.74-4.586c5.324-2.546 6.899-7.419 7.607-13.492.79-6.927-.803-15.758-5.512-20.924-4.503-4.92-13.227-6.66-13.239-15.014a.924.924 0 0 0-.264-.581.784.784 0 0 0-.555-.235.788.788 0 0 0-.555.235.928.928 0 0 0-.263.581l.006-.027Z" fill="#18013D"/><path d="M170.094 95.481a101.774 101.774 0 0 0-4.565 27.004c-.201 7.848 2.678 18.283 11.288 18.338a.798.798 0 0 0 .534-.287.938.938 0 0 0 .216-.604.938.938 0 0 0-.216-.604.798.798 0 0 0-.534-.287c-9.764-.061-9.984-13.915-9.332-21.483a104.488 104.488 0 0 1 4.184-21.606c.332-1.085-1.255-1.556-1.575-.471Z" fill="#18013D"/><path d="M170.885 87.803c10.3 0 18.651-9.184 18.651-20.514s-8.351-20.514-18.651-20.514c-10.301 0-18.652 9.184-18.652 20.514s8.351 20.514 18.652 20.514Z" fill="#6D1300"/><path d="M188.771 67.29c-.22 10.632-7.89 19.68-17.887 19.68-9.833 0-17.861-9.048-17.861-19.68 0-10.633 8.053-19.683 17.887-19.683 9.977 0 17.641 9.036 17.861 19.682a.86.86 0 0 0 .246.54c.141.14.325.217.516.217a.732.732 0 0 0 .516-.217.865.865 0 0 0 .246-.54c-.182-8.83-4.986-16.897-12.7-20.03a17.953 17.953 0 0 0-11.847-.508c-3.901 1.177-7.367 3.65-9.915 7.074-11.094 14.952 1.072 37.998 18.607 34.45 9.288-1.884 15.679-10.92 15.855-20.986a.865.865 0 0 0-.246-.54.731.731 0 0 0-.516-.217.731.731 0 0 0-.516.218.86.86 0 0 0-.246.54Z" fill="#6D1300"/><path d="M168.564 88.472c8.797 0 15.929-9.184 15.929-20.514s-7.132-20.514-15.929-20.514c-8.798 0-15.93 9.184-15.93 20.514s7.132 20.514 15.93 20.514Z" fill="#F7A566"/><path d="M183.791 67.958c-.176 9.377-5.644 19.668-15.227 19.743-9.407.075-15.221-10.482-15.221-19.743 0-9.26 5.789-19.743 15.221-19.743 9.57 0 15.051 10.428 15.227 19.743a.797.797 0 0 0 .229.498c.13.129.3.2.477.2a.675.675 0 0 0 .476-.2.797.797 0 0 0 .229-.498c-.15-8.19-3.763-16.727-11.044-20.044-6.717-3.057-14.042 0-18.225 6.197-4.697 6.975-5.255 16.904-1.731 24.568 3.192 6.975 9.991 11.854 17.291 10.237 8.83-1.993 13.54-11.806 13.709-20.944a.8.8 0 0 0-.224-.5.68.68 0 0 0-.476-.206.675.675 0 0 0-.478.196.794.794 0 0 0-.233.496Z" fill="#6D1300"/><path d="M176.56 67.712c-.163 4.9-2.797 10.783-7.996 10.783-5.017 0-8.028-5.876-7.99-10.783.038-4.907 2.879-10.79 7.99-10.79 5.111 0 7.833 5.863 7.996 10.79.031 1.14 1.668 1.14 1.63 0-.188-5.862-3.499-12.598-9.626-12.564-5.971 0-9.639 6.64-9.621 12.564.019 5.924 3.625 12.557 9.621 12.557 6.127 0 9.438-6.674 9.626-12.557.038-1.146-1.599-1.146-1.63 0Z" fill="#FFEFBC"/><g opacity=".6" fill="#73EDFB"><path d="M170.885 91.612c12.971 0 23.486-11.08 23.486-24.746 0-13.666-10.515-24.745-23.486-24.745-12.972 0-23.487 11.078-23.487 24.745 0 13.667 10.515 24.746 23.487 24.746Z"/><path d="M159.759 78.481s-6.271 18.48-7.124 27.537c-.853 9.056-3.845 22.254 0 28.663 3.844 6.408 12.812 15.348 26.045 10.762 13.233-4.586 21.994-8.674 23.913-11.602 1.919-2.927 2.778-14.331.853-19.429-1.925-5.098-3.136-14.017-8.824-19.21-5.688-5.194-14.042-16.72-14.042-16.72h-20.821Z"/></g></g><defs><radialGradient id="b" cx="0" cy="0" r="1" gradientUnits="userSpaceOnUse" gradientTransform="matrix(13.0697 0 0 14.2222 61.003 86.855)"><stop stop-color="#fff"/><stop offset=".14" stop-color="#FBFEFE"/><stop offset=".27" stop-color="#F0F9FA"/><stop offset=".39" stop-color="#DEF2F4"/><stop offset=".51" stop-color="#C4E7EC"/><stop offset=".63" stop-color="#A3D9E1"/><stop offset=".74" stop-color="#7AC9D4"/><stop offset=".86" stop-color="#49B5C4"/><stop offset=".97" stop-color="#129EB2"/><stop offset="1" stop-color="#0097AC"/></radialGradient><radialGradient id="c" cx="0" cy="0" r="1" gradientUnits="userSpaceOnUse" gradientTransform="matrix(13.3833 0 0 14.5634 98.11 76.57)"><stop stop-color="#fff"/><stop offset=".14" stop-color="#FBFEFE"/><stop offset=".27" stop-color="#F0F9FA"/><stop offset=".39" stop-color="#DEF2F4"/><stop offset=".51" stop-color="#C4E7EC"/><stop offset=".63" stop-color="#A3D9E1"/><stop offset=".74" stop-color="#7AC9D4"/><stop offset=".86" stop-color="#49B5C4"/><stop offset=".97" stop-color="#129EB2"/><stop offset="1" stop-color="#0097AC"/></radialGradient><clipPath id="a"><path fill="#fff" d="M0 0h223v314H0z"/></clipPath></defs></svg>