<svg width="23" height="29" fill="none" xmlns="http://www.w3.org/2000/svg"><g filter="url(#a)"><path d="M18.054 7.103C18.054 3.18 14.976 0 11.178 0 7.381 0 4.302 3.18 4.302 7.103c0 3.922 4.698 7.102 6.876 7.102 2.179 0 6.876-3.18 6.876-7.102Z" fill="#F8F6D0"/></g><g filter="url(#b)"><path d="M8.644 15h5.712c1.004 0 1.998.202 2.925.594.928.392 1.77.967 2.48 1.691a7.817 7.817 0 0 1 1.657 2.532c.384.946.582 1.961.582 2.986v1.023c0 .842-.328 1.65-.91 2.244a3.077 3.077 0 0 1-2.199.93H4.11a3.077 3.077 0 0 1-2.198-.93A3.207 3.207 0 0 1 1 23.826v-1.023c0-2.07.805-4.054 2.239-5.518A7.566 7.566 0 0 1 8.644 15Z" fill="#F8F6D0"/></g><defs><filter id="a" x="4.302" y="0" width="13.752" height="16.205" filterUnits="userSpaceOnUse" color-interpolation-filters="sRGB"><feFlood flood-opacity="0" result="BackgroundImageFix"/><feColorMatrix in="SourceAlpha" values="0 0 0 0 0 0 0 0 0 0 0 0 0 0 0 0 0 0 127 0" result="hardAlpha"/><feOffset dy="2"/><feComposite in2="hardAlpha" operator="out"/><feColorMatrix values="0 0 0 0 0 0 0 0 0 0 0 0 0 0 0 0 0 0 0.25 0"/><feBlend in2="BackgroundImageFix" result="effect1_dropShadow_601_129"/><feBlend in="SourceGraphic" in2="effect1_dropShadow_601_129" result="shape"/></filter><filter id="b" x="1" y="15" width="21" height="14" filterUnits="userSpaceOnUse" color-interpolation-filters="sRGB"><feFlood flood-opacity="0" result="BackgroundImageFix"/><feColorMatrix in="SourceAlpha" values="0 0 0 0 0 0 0 0 0 0 0 0 0 0 0 0 0 0 127 0" result="hardAlpha"/><feOffset dy="2"/><feComposite in2="hardAlpha" operator="out"/><feColorMatrix values="0 0 0 0 0 0 0 0 0 0 0 0 0 0 0 0 0 0 0.25 0"/><feBlend in2="BackgroundImageFix" result="effect1_dropShadow_601_129"/><feBlend in="SourceGraphic" in2="effect1_dropShadow_601_129" result="shape"/></filter></defs></svg>