<svg width="280" height="346" fill="none" xmlns="http://www.w3.org/2000/svg"><g style="mix-blend-mode:overlay" clip-path="url(#a)"><path d="M146.33 16.996c.099-.168 0-5.61 0-5.61s42.529-1.895 44.67-2.31c2.14-.415 54.99-4.073 54.99-4.073v5.004M67.338 76.005s7.797-5.8 23.633-8.043c15.835-2.244 41.338.93 41.338 5.609 0 4.678-1.417 6.36-13.226 6.54-11.809.18-50.795 1.313-51.745-4.106ZM19.72 105.364l.028-4.633 58.053 4.633" fill="#A5826A"/><path d="M28.778 109.761c-1.417 0-16.303-4.206-4.607-8.133 11.696-3.926 35.796-15.145 45.72-14.584 9.923.561 54.224-1.683 64.502 1.683 10.278 3.365 31.189 15.986 31.543 18.791.354 2.804 2.835 10.377-3.544 13.462-6.38 3.085-32.252 7.853-44.302 7.012-12.05-.842-28.353-2.805-28.353-2.805M19.847 186.047l1.886 9.726 21.264 10.837 188.548-33.274 1.843-9.726-1.361-7.101-43.65 7.516M118.615 206.24v8.224l18.897 16.827 112.462-8.223 17.962-16.828v-7.168" fill="#A5826A"/><path d="m118.615 206.24 22.682-11.218s86.945-22.437 90.248-21.685c3.303.751 36.391 25.735 36.391 25.735s-15.594 15.773-17.48 16.895c-1.885 1.122-113.412 7.101-113.412 7.101l-18.429-16.828Z" fill="#BCA18F"/><path d="m110.109 241.971-2.991 7.876 11.965 20.428 110.69 17.782 23.32-12.015 2.623-6.877" fill="#A5826A"/><path d="m110.109 241.971 25.815-5.609s91.425-1.649 94.317-.18c2.892 1.47 25.517 32.938 25.517 32.938s-20.683 11.555-22.895 12.194c-2.211.64-111.186-19.071-111.186-19.071l-11.568-20.272Z" fill="#BCA18F"/><path d="m83.726 314.409-1.134 8.178 22.413 18.87L253.221 346l25.801-14.696.978-7.124" fill="#A5826A"/><path d="m83.727 314.409 31.188-8.582s117.126-.113 121.351 1.009C240.49 307.958 280 324.214 280 324.214s-22.555 13.911-25.177 14.819c-2.623.909-149.307-5.845-149.307-5.845l-21.79-18.779ZM0 126.028V145.1s47.137 17.669 49.618 17.949c2.48.281 84.704-10.096 84.704-10.096l52.099-6.171s-28.948-17.108-67.806-19.351C79.757 125.187 23.037 107.798 0 126.028Z" fill="#BCA18F"/><path d="M2.835 154.916 0 145.1l49.618 17.949 136.803-16.267-11.696 14.023-122.98 12.509-48.91-18.398Z" fill="#A5826A"/><path d="M240.348 27.62v14.382s-35.54 13.316-37.411 13.53c-1.872.213-63.795-7.618-63.795-7.618L99.874 43.27s21.817-12.902 51.106-14.584c29.288-1.683 72.002-14.798 89.368-1.066Z" fill="#BCA18F"/><path d="m238.208 49.395 2.14-7.393-37.397 13.53L99.831 43.27l8.818 10.567 92.686 9.435 36.873-13.877Z" fill="#A5826A"/><path d="M19.847 186.047c3.303-1.873 163.98-36.269 167.283-35.529 3.303.741 44.897 5.991 44.897 5.991l-4.253 11.768-183.827 33.106-24.1-15.336ZM28.778 105.835c-1.417 0-16.303-4.207-4.607-8.133 11.696-3.927 35.796-15.145 45.72-14.584 9.923.56 54.224-1.683 64.502 1.682 10.278 3.366 31.189 15.987 31.543 18.791.354 2.805 2.835 10.377-3.544 13.462-6.38 3.086-32.252 7.853-44.302 7.012-12.05-.841-28.353-2.805-28.353-2.805" fill="#BCA18F"/><path d="M67.338 70.676v5.33l64.971-1.863v-5.901" fill="#A5826A"/><path d="M67.338 70.676s7.797-5.8 23.633-8.043c15.835-2.244 41.338.93 41.338 5.609 0 4.678-1.417 6.36-13.226 6.54-11.809.18-50.795 1.313-51.745-4.106Z" fill="#BCA18F"/><path d="M140.744 80.347s8.79-4.824 24.866-5.206c16.076-.381 40.729 5.733 39.864 10.355-.865 4.622-2.58 6.125-14.304 4.936-11.724-1.19-50.497-4.61-50.426-10.085Z" fill="#A5826A"/><path d="m141.737 75.074-.993 5.273 64.617 5.71 1.105-5.834" fill="#A5826A"/><path d="M141.765 75.074s8.789-4.824 24.865-5.205c16.077-.382 40.73 5.732 39.865 10.354-.865 4.622-2.595 6.126-14.304 4.936-11.71-1.189-50.525-4.61-50.426-10.085Z" fill="#BCA18F"/><path d="M151.334 12.868s21.463-7.674 56.918-7.853c35.456-.18 35.938 3.545 37.356 3.96 1.417.415-.709 3.175-1.886 3.926-1.177.752-39.694 7.472-57.656 7.663-17.961.19-52.694-.37-34.732-7.696Z" fill="#A5826A"/><path d="M151.334 7.853S172.797.19 208.252 0c35.456-.19 35.938 3.545 37.356 3.926 1.417.382-.709 3.175-1.886 3.927-1.177.752-39.694 7.471-57.656 7.662-17.961.19-52.694-.359-34.732-7.662Z" fill="#BCA18F"/></g><defs><clipPath id="a"><path fill="#fff" d="M0 0h280v346H0z"/></clipPath></defs></svg>