<svg xmlns="http://www.w3.org/2000/svg" xmlns:xlink="http://www.w3.org/1999/xlink" viewBox="0 0 790.14 904.61">
  <defs>
    <style>
      .cls-1 {
        fill: #8e96a8;
        stroke: #fff;
        stroke-miterlimit: 10;
        stroke-width: 2px;
      }

      .cls-2 {
        fill: #8084aa;
      }

      .cls-3 {
        fill: #ffbf5d;
      }

      .cls-4 {
        fill: #ffe297;
      }

      .cls-5 {
        fill: #292929;
      }

      .cls-6 {
        fill: #8c5836;
      }

      .cls-7 {
        fill: #3c4061;
      }

      .cls-8 {
        fill: #a5b8e8;
      }

      .cls-9 {
        fill: #706898;
      }

      .cls-10 {
        fill: #dd9553;
      }

      .cls-11 {
        fill: #62749f;
      }

      .cls-12 {
        fill: #343256;
      }

      .cls-13 {
        fill: #5b3925;
      }

      .cls-14 {
        fill: #d19d7b;
      }

      .cls-15 {
        fill: #4f5b66;
      }

      .cls-16 {
        fill: #232024;
      }

      .cls-17 {
        fill: url(#Безымянный_градиент_11);
      }

      .cls-18 {
        fill: url(#Безымянный_градиент_11-2);
      }

      .cls-19 {
        fill: #030729;
      }

      .cls-20 {
        fill: #8d2f08;
      }

      .cls-21 {
        fill: #fff;
      }
    </style>
    <linearGradient id="Безымянный_градиент_11" data-name="Безымянный градиент 11" x1="327.36" y1="208" x2="327.36" y2="133.4" gradientUnits="userSpaceOnUse">
      <stop offset="0" stop-color="#030729"/>
      <stop offset="0.3" stop-color="#030624"/>
      <stop offset="0.64" stop-color="#020417"/>
      <stop offset="0.99" stop-color="#000001"/>
      <stop offset="1"/>
    </linearGradient>
    <linearGradient id="Безымянный_градиент_11-2" x1="416.9" y1="173.16" x2="416.9" y2="101.79" xlink:href="#Безымянный_градиент_11"/>
  </defs>
  <g id="Слой_2" data-name="Слой 2">
    <g id="Слой_7" data-name="Слой 7">
      <path class="cls-1" d="M34.51,889.24c9.7,17.13,153,4.6,153,4.6s6.91,8.17,25.76,9.7,256.8-21.45,322.16-38.81,27.66-22.47,27.66-22.47,112.19-17,89.28-28.45-86.06,0-86.06,0l-37.69,8.49a60.09,60.09,0,0,0-29.11-.21c-16.16,3.83-286.24,34.07-286.24,34.07s-144,11.12-163.45,13.68S31.46,883.86,34.51,889.24Z"/>
    </g>
    <g id="Слой_6" data-name="Слой 6">
      <path class="cls-2" d="M385.81,273.55s-15.44,5.75-20.23,14.35-7.16,9.34-7.16,9.34l-30,5.53-5.13-9.3-9.62,9.38-2.81-.08s-3.24-10.27-12.7-10.74a85.44,85.44,0,0,0-15.62.46l-9.26-43.25-29.89-76.89-4.21-29.56-46.2-7.46-12.78-19,29.62-2.83h24l39.46-34.1,1.44-12.79L264.12,42.06l8.17-10.69s17.95-7.6,23.1-2.44S312.3,41.28,312.3,41.28,327,26.11,334.71,28a56.81,56.81,0,0,1,14.84,6.37S352.83-2,377.41,2.43s21.18,39.63,21.18,39.63L412,31l32.17,11.07,28.25-14.84L483,9.93s12.91-13.79,17.54-4.09-9.86,36.22-9.86,36.22L466.34,85,490,141.25l3.55,39.5-17,44.66-43.07,31-33.7,18.66Z"/>
      <path class="cls-3" d="M383.65,224.08,361,208.56s1.83-21.71,7.36-30.36a87.7,87.7,0,0,1,11.34-14.29s13.55,7.2,20.22,12.32,14.93,13.05,14.93,13.05l3,9.6L400.47,224Z"/>
      <polygon class="cls-4" points="362 194.26 341.98 197.74 321.56 206.31 312.1 213.91 293.64 180.62 303.46 166.37 336.5 152.12 352.96 154.12 357.4 173.26 360.57 185.19 362 194.26"/>
      <polygon class="cls-4" points="415.21 173.13 407.14 179.02 394.56 169.55 389.31 155.84 385.97 144.94 415.21 130.29 443.05 124.22 447.96 151.89 447.96 165.9 432.79 167.14 415.21 173.13"/>
      <path class="cls-5" d="M468.08,245.62l3.18,7.69,15.93-9.71,24.23,2.92A32.8,32.8,0,0,0,515,228c-1.2-10.32-7.37-22.22-7.37-22.22l-9-12.29-7,20-12.38,19.86Z"/>
      <path class="cls-3" d="M423.87,302.77l-5.48-10.61-8.61-11.75s20.47-7.71,29.66-15,28.64-19.77,28.64-19.77l4,6.6-11,11.43L452,280.41Z"/>
      <path class="cls-6" d="M196.39,347.12s7.44,6.07,15.31,3.42,15.82-9.38,15.82-9.38l12.26-14,12-6.82,17.71-7.85,4.44-8.63,6.31-8.52L273,293.47H262.76l-9,3.53-9,5.77-7.47,7.64-8.76,13.68-7.9,10.65-13,8.08Z"/>
      <polygon class="cls-6" points="265.82 360.89 264.24 349.63 256.73 354.98 249.85 363.06 240.94 370.81 233.19 374.13 237.29 391.2 258.65 381.92 265.82 360.89"/>
      <path class="cls-6" d="M323.75,342.15l-11.67,2.15-5.66,10.3-12,8s-20,67.17-24.3,118.82,8.48,110.46,8.48,110.46l23.61,4.94H308L303,546.09l8.57-110.71Z"/>
      <path class="cls-7" d="M134.91,348.48l-26.36,2.73L21.23,344.9S5.3,336,3.8,320.3a92.36,92.36,0,0,1,1.6-28.14l63.75-8.54,76.69-11.57,25.39,13.58,11.62,28.87L180,324.09l-24.46,40.14Z"/>
      <polygon class="cls-5" points="161.86 347.12 154.51 353.5 144.25 354.44 138.42 349.63 131.75 342.15 130.28 331.37 132.46 318.85 146.07 320.3 145.06 338.01 150.76 342.82 158.85 345.16 161.86 347.12"/>
      <path class="cls-5" d="M296.32,345.92l-9.81,9.67-13.11-4.83s-6.34-13.26-5-21.94A106.92,106.92,0,0,1,273,311l35.75-1.63,104.42-14.67,6.51,9.08s2.29,20.3-3.7,30.92a81.75,81.75,0,0,1-11.85,16.47l-14.7,3.87-13.27-3.87-9.41-7.63L363,332.74,297.72,347.1Z"/>
      <path class="cls-3" d="M145.32,333.41s-1.81-8.61.75-13.11a42.38,42.38,0,0,1,5.86-7.85s24.48,3.09,29.23,11.64a96.38,96.38,0,0,0,10.39,15s5.08,12.71,15,11.68,21.29-7.62,26.6-16.32,15.6-14.15,15.6-14.15l22.14-8.41s-3.95,10-2.57,19.47,3.1,18.27,3.1,18.27a14.87,14.87,0,0,0-13.31,4c-5.86,5.84-11,14.55-17.21,17.2s-8.81,3.6-8.81,3.6l-27.9,191.44s-20.16-6.32-30.83-5.46-23.33,5.46-23.33,5.46l32.78-192.33s-4.72-4.81-9.13-10.46S167,352.54,164,349.23s-9.57-6.41-9.57-6.41l-6.78-1.07Z"/>
      <path class="cls-5" d="M204.23,565.85s-14.72-6.63-26.8-5.45a262.91,262.91,0,0,0-26.24,4.33L130.76,676.82l1.79,4.77,8.67,3.73-9.62,6.86-.84,3.53L116.46,697l-4.24,9.39-9.54,4.92-1.28,5.13L47.74,796.63s1.76,21.86,6.87,32.58,14.81,22.63,14.81,22.63l104,9.57-50.62-16-7.59-7.21L112.12,833,99,799.45l.41-18.67,11.38-22.19L126,740.28l2.1,45.78-7.79,14.84L167,816.22l-.55,19.42-7.72,9.17h43.76l-9.18-31.14-10.78-11.39,5-12.38,9.94-9.58h10.41l-4.25,43.3,25.95,12s15-16.68,17.16-25.58,2.21-28.49,2.21-28.49l-9.16-26.63L217.83,726.6l-21.09-14-2.65-8.22-5.57-3.85-6-.61v-7.75l-6-5.71,10.09-.21,3.79-26L236,738.57l36.39,75s65.28,14.81,157.29.55S542.13,788.9,542.13,788.9l28,36.77s56.78-16.6,58.9-33.7-1-40-9.35-49-27.09-14.57-27.09-14.57l-20.86-.77-1.6-8.68-13.62-2.41s-33.11,20.71-33.87,23.18-18.9,28.34-18.9,28.34L477.3,778.17l-174.54,9.69L213.91,609.12l-12.76-23.45Z"/>
      <polygon class="cls-5" points="160.89 805.38 149.11 820.3 137.28 827.67 120.29 832.26 105.74 833.84 96.55 816.23 153.75 793.78 159.61 805.38 160.89 805.38"/>
      <polygon class="cls-5" points="166.47 835.64 156.55 844.81 138.66 850.96 141.22 860.39 190.47 856.56 188.52 841.24 166.47 835.64"/>
      <path class="cls-3" d="M341.14,772.79l-25.27,5.38-14-2.69-11.46-13.11L281.91,744s5-4.35,8.51-5.62,7.14,1.36,7.14,1.36l1.37,2.7s8.49-9.7,12.6-10.28,10.28,1.81,10.28,1.81,11.26-7.77,16.91-7.34,13.09,4.49,13.09,4.49,7.91-1.25,12.2.45,20.71,9.79,20.71,9.79l-21.05-74.48,9-8.93,15.24,8.17,20.38-5.87L428.46,672l8.43-11.75,23.74,109.26-5.87,8.69L417,784.39Z"/>
      <path class="cls-2" d="M436.63,632.39l-15,27.29-21-15.45-3.86,10.42-7.44-2.85L322.71,546.86l-9.65-53.14,4.53-62.27,11.55,2.61L347,469.48,378.55,456l23.36-16.73s-1.28,60.38-.25,61.92,33.19,113.36,33.19,113.36Z"/>
      <path class="cls-6" d="M452,616.9s33.58.69,63.85-11.57,60.37-44.22,60.37-44.22l21.55-29.83s-27.5-42.77-37.27-73.21S552,395.2,552,395.2l22-35s-6.33-17.1-6.41-27.32,0-51.36,0-51.36l-65.17-15.15-25.45-6-19.61,8.39s-18.38,20.31-29,78.34S416.57,462.74,417,469.82s6.31,61.83,6.31,61.83l10.35,42.26,10.1,26.76Z"/>
      <path class="cls-3" d="M351.33,464s-17.41-25.82-16.95-30,16.95-50.35,16.95-50.35l14.33-32.45,26,30.51-2.3,53.66-8.17,6.85Z"/>
      <path class="cls-7" d="M575,336l-8.43-11.88s1.61-42.25,4.21-52.21,9.55-32.51,9.55-32.51,23.14-19,28.3-39.77,9.19-58.13,3-91.35,5.27-27.6,5.27-27.6l53.62,83.48,71.23,2.05,18.64,74L780,276s12,36.57-8.87,48.14-56.39,22.53-56.39,22.53l-111.17-2.74Z"/>
    </g>
    <g id="Слой_4" data-name="Слой 4">
      <path class="cls-8" d="M289.09,38.52c-18.67,9.19,18.1,45.7,29.84,40.34S300.13,33.09,289.09,38.52Z"/>
      <path class="cls-8" d="M338.85,38c11.42,0,17.87,27.82,8.68,29.6S326.42,38,338.85,38Z"/>
      <path class="cls-8" d="M374.67,17.68c14.67,2,7.85,48.92-8.25,48.92C358.68,66.6,350.32,14.36,374.67,17.68Z"/>
      <path class="cls-8" d="M201.49,113.88s3.57,15.61,28.08,12.51,36.51-38.85,36.51-38.85l-17.36,12.51L237,109l-19,4.11Z"/>
      <path class="cls-8" d="M418.07,33.63s19.59,18.93,39.76,10.25S489,24,483.87,11.71a61.83,61.83,0,0,0-19.8,15.51L450.34,34l-14.47,2.44Z"/>
      <path class="cls-9" d="M377,2.09a43.71,43.71,0,0,1,14.31,33.09c-.27,24.57-4.64,41.92-18.53,60-9.35,12.19,5.41,21.52,11.81,16.38s18-13.68,24-45.23C412,48,412,42.06,412.34,32.52c.08-2.33-9.33-.38-9.33-.38l-3.9-.13L392.67,13.7,388,7.47Z"/>
      <path class="cls-9" d="M275.15,29.84S265.06,43.11,277.06,63s40.71,37,59.6,42.38,13.25,24.2,2.87,26.53-37.19-4.68-54-18.92-19.41-25.48-19.41-25.48l8.43-6s-12.8-14.92-13.92-22.86a51,51,0,0,1,.9-16.43l9.95-8.61Z"/>
      <path class="cls-9" d="M328.89,28.93s-5.87,3.19-4.34,17.23,2.55,17.21,2.55,17.21L312.3,41.28l8.29-9.3,8.3-4.63"/>
      <path class="cls-9" d="M185.17,115.16s.74,15.84,16.32,17.22,41-4.1,49.53-5.58,14.29,13.22,11.49,32.43-2.3,56.74,12.25,76.65,17.94,18.89,14.33,26.3-8.17,17.1-8.17,17.1-20.88-10.14-26.49-17.4-15.16-18.34-19-50.77-3.22-44.81-3.22-44.81-27,2.43-35.76-2.17-7.37-12.54-7.37-12.54l5.86-8.8s-12.17-2.22-15.85-7.59a48.84,48.84,0,0,1-5.38-10.13l4.28-8.25Z"/>
      <path class="cls-9" d="M291.87,291.19s-1.79.86,1-9.61S298,266,295.7,259.88s-4.09-2-20.94-24,4.87,42.76,4.87,42.76l-1.78,8,.49,9.35Z"/>
      <path class="cls-9" d="M326.81,286.62s.8-7.08,6.68-4.53,1.38,10.08,2,14.91,2,4.62,2,4.62l-9.11,1.15L326,298Z"/>
      <path class="cls-9" d="M493.55,2.09s8.41,7.07,0,21.62S471.61,47,460.38,52.86s-12.42,14.25-10,21.66,34.8,54.27,37.36,84.71-6.44,53.86-32.53,73.84c-16.72,12.81-32.41,20.94-49.94,25.79-28.43,7.86-27.52,17.75-27.52,17.75l14.5-3.71L412,280.41s46.63-23.62,58-36.81,26.12-30.44,28.93-59.55-11-63.57-20.68-82.72-2.55-18.64-2.55-18.64,27.15-14.33,32.66-26.52A63.08,63.08,0,0,0,514,33.66l-3.09-4.73-5.74-1.71-4.64,1.71,4.64-13.39-1-7.23L499,2.8Z"/>
      <path class="cls-4" d="M379.84,185.3c3.15,3,7.32,7.56,7.84,11.95.4,3.39,2.62,6.32,6.32,6.32,3.1,0,6.71-2.91,6.31-6.32-1-8.11-5.68-15.31-11.54-20.88s-14.84,3.32-8.93,8.93Z"/>
      <path class="cls-10" d="M362.42,207.55s16.8,13.35,35.2,6.7,18.82-23.34,18.82-23.34l1.64-4.49,7.9,1.19,5.22,7-1.74,9.08L420.29,214s-6.36,25.24-17.38,30.17-31.37-8.38-31.37-8.38-21.44,2-23.63-8.27S349,211.84,349,211.84l12-4.39Z"/>
      <path class="cls-10" d="M353,158.87a67.19,67.19,0,0,0-31.4,6.43,117.08,117.08,0,0,0-27.92,18.51s-21-41.41,1.88-56.62,37.8,0,37.8,0L348.69,144Z"/>
      <path class="cls-10" d="M386.85,150.35s14-14.55,28.85-19.92,30.17-4,30.17-4-5-21.94-14.77-29.76-18.92-9.73-27.63-6.22-18.58,15.88-18.58,15.88-5.21,19.09-3.42,26.09S386.85,150.35,386.85,150.35Z"/>
      <path class="cls-10" d="M269.4,324.94s-5.36-.72-15.57,6.94S231.56,362,207.59,359.45s-23.91-17.36-33.87-25.27-27.88-9.24-27.88-9.24v12.81l.58,2.7,17,6.67s10.22,15.42,16.85,18.74,8.43-1.2,18.9-1.63c4.16-.18,16.34,1.63,16.34,1.63l-30.9,194.53,10,1.78L226,367.88s13.27-.05,21.7-11.13,11.23-12.94,21.7-13.93C269.59,333.2,269.4,324.94,269.4,324.94Z"/>
      <path class="cls-4" d="M200.34,371.45c4.08-.31,4.21,3.32,3.83,5.75s-32.3,183.19-32.3,183.19l-9.14.86s32.5-182.52,33-185.71A4.72,4.72,0,0,1,200.34,371.45Z"/>
      <path class="cls-11" d="M2.89,297s2.51,7.43,14.77,6.86,18.2-5.38,18.2-5.38,7.63,5.51,21.65,5.41S79,297,79,297s1.42,10.62,18,10.88,20.43-3.76,28.34-16.69,20.54-17.15,30.38-5.33A142.53,142.53,0,0,0,160,272.05l11,6.53s-16.49-33-36.87-33.74-26.68,3.73-26.68,3.73a38.35,38.35,0,0,0-24-8.18c-14.13.34-24.51,10.55-24.51,10.55S51.29,243,43.7,244.29s-18.23,7.19-18.23,7.19L14.85,261.84,7.29,279.28Z"/>
      <path class="cls-11" d="M157.7,286.62s12.77,4.66,16,15.13a55.63,55.63,0,0,1,2.65,18.64l11.68,11.94h3.32s3.23-16.12-1.88-29.48-14.45-19-14.45-19l-14.76-9.74Z"/>
      <path class="cls-12" d="M7.22,330.43s11.71,10.39,20.9,9.88,12.4-3.47,12.4-3.47,11.53,6,24.84,6S81.74,339,81.74,339s3.06,4.51,24,4.68,24.54-6.64,24.54-6.64l5,11.91,10.56,6.42,11.24-2.47,5.26-4.45,7.94,10.75,3.44,9.93,9.13,4.59-12.28,71.81s-19.77,0-45.9-15.71a358.62,358.62,0,0,1-45.95-33.14L65.36,378.3l-7.85-21.55-5.64-5.21-6.38-.26s-5.46,4.66-17.79.54-17.27-15.36-17.27-15.36Z"/>
      <path class="cls-12" d="M241.81,435.38l-19.39,8.17,9.41-67s7.91,26.14,10,33.51,1.51,25.35,1.51,25.35Z"/>
      <path class="cls-13" d="M132.56,434.24s-1.39,29.81,6.24,43.26,20.58,27.8,20.58,27.8l11.44-61.18s-4.82,1.21-16.31-1.9A155.24,155.24,0,0,1,132.56,434.24Z"/>
      <path class="cls-13" d="M222.42,443.55l-8.71,69.57s16.86-19.08,20.95-32.05,6.65-24.85,6.65-24.85l2-22.16Z"/>
      <path class="cls-13" d="M245.76,421.66,234.65,383.3s15.54-6.6,24-17.44C253.05,385.16,245.76,421.66,245.76,421.66Z"/>
      <path class="cls-13" d="M296.32,362.18s-16.45,69-15.4,146.64c1,71,7.12,84.51,7.12,84.51s-22-1.43-36.13-13.61S241.81,554,241.81,554l-2.67-76.6,4-36.76,5.54-32.85,16.54-56.44,7.72-2.13s2.35,7.93,5.3,10.48,10.35,2.89,10.35,2.89Z"/>
      <path class="cls-13" d="M330.52,575.15l-14.89,3.68L307,588l-3.9-39.6s3.35,11.6,9.58,14.74,14.13,8.25,14.13,8.25l5.21,3.78Z"/>
      <path class="cls-13" d="M553.31,581.57s-34.21-46.46-53.79-118.46-13.1-92.93-7.23-97c-7.4-7.4-13.27-31-.25-39s27.83,10.29,49.53,16.59,28.58,5.52,28.58,5.52l52.1,5.85s0,50.08-20.42,52.37S552.12,393,552.12,393l-7.65-4.59s-4.76,41.95,10,81.46a295.38,295.38,0,0,0,36.93,68.61l-9.7,17.88Z"/>
      <path class="cls-14" d="M567.73,297.44s-29.22,6.17-50.67-6.25-26.6-24.8-39.57-24.8c-20.18,0-27.78,15.15-27.78,15.15l13.55-20.42,18.68-13.3L502.42,244l19.24,7.05h34.93l23.76-11.72L573,263.65,567.83,296Z"/>
      <path class="cls-15" d="M270.15,320.3s-.17,9.28,10.77,9.28a48.26,48.26,0,0,0,2-9.28s14.44,4.15,39.77.59,38.86-6.39,38.86-6.39v12.62s3.88,8.32,8.94,7.57,3.68-5,3.68-5l-.36-5.56,35.35-15.45s1.13,9.71,7.78,9.45,3.33-9.45,3.33-9.45-2.55-36.25-28.08-35.74S362.37,296,362.37,296s-19.24,6.72-34,6.8-20.68.08-20.68.08-5.36-12.16-13.79-11.61-15.71,5.92-15.71,5.92l-5.11,8Z"/>
      <path class="cls-16" d="M360.55,324.09s-43.41,5-56.94,7.53-19.84,4.28-19.84,4.28l4.66,7.81s-1.09,4.78-7.51,4.77a13.22,13.22,0,0,1-10-4.77s6.82,20.1,19.5,19.33,16-8.44,16-8.44l3.83-9.19,25.53-6.32,27-2.36Z"/>
      <path class="cls-15" d="M132.9,317.15s.07,11.67,11.35,11.67a73.84,73.84,0,0,1,7.39-16.93L170.82,317s2-17.75-9.42-20-17.15.34-17.15.34l-9.9,15.11Z"/>
      <path class="cls-4" d="M364.36,378.6S346.25,419.71,345,426.35s6.11,19,9.7,19.21,19.92-12.57,24-17.42,2-35.49,2-35.49a31.09,31.09,0,0,1-9.19-4.85A21.58,21.58,0,0,1,364.36,378.6Z"/>
      <path class="cls-10" d="M362.77,358.69S367,370,377.4,376.9c9.19,6,14.17,6,14.17,6l2.77-27s-7.58.27-13.11-2.38-14.45-11.84-14.45-11.84Z"/>
      <polygon class="cls-10" points="366.48 671.2 374.08 663.79 383.02 675.28 402.63 746.85 425.14 749.07 407.25 686.47 398.87 649.77 394.76 659.46 391.7 649.77 386.59 656.65 368.46 639.03 360.29 653.07 366.48 671.2"/>
      <path class="cls-10" d="M321.81,774.28s26.48-21.16,37.46-19.36,68.85,30.66,87.66,21.47-.59-44.42-4.42-63.83-9.71-42.38-9.71-42.38-3.06,8.93-7.66,9.44S404,664.05,404,664.05l-5.08-14.28,2.48-7.68,20.94,18.13,11.89-18.13,12.75,11,30.81,126.57-48.66,6.64-44,1.68-67.65.94H302.24L301,780.78s8.76-14.24,15.4-21.32a48.43,48.43,0,0,1,14.3-10.39Z"/>
      <path class="cls-10" d="M313.83,744s-9.1,3.06-12.85,8.42-9.29,13-9.29,13L301,780.78l4-16.55Z"/>
      <path class="cls-9" d="M457.36,657.92l-23.18-15.83L430.25,620s-7.39,3-11.86-2.78S396.72,558,392.72,504.9s-1-57.53-1-57.53S359.78,474.26,349.91,477s-21.54-19.13-25.19-31.42c-5.94-20-2.72,54.91,0,75.33s17,41.27,17,41.27l27.91,19.4,22.69,70.23-5.75,4.85L368.46,639,355.7,656.9l-23.65-83.23s-15.36-3.39-19.34-10.55S301,542.69,301,542.69s-2.78-76,0-94.64,21.73-105.72,21.73-105.72L353,337.07h11.49l2.3,6.64L334.38,431l6,17.36,10.21,16.17L388.42,437s2.24-15.27,3.15-24.9S394.34,356,394.34,356s18.38-9.89,21.36-17.71,7.06-27.57,7.06-27.57l15.52-5.77-4.87,20S414.57,396,417,464.56s11.64,91.75,11.64,91.75L442,596.82l10,20.08,3.74.29Z"/>
      <path class="cls-12" d="M567.59,324.09s39.68,3.45,59.43,2.77,31.43-2.77,31.43-2.77-10-8.47-10-18.06c0-12,7.15-15.94,7.15-15.94s-15.32-2.72-18-17.36C634.16,254.38,642,243.6,642,243.6a22.81,22.81,0,0,1-7.83-21.25,35.16,35.16,0,0,1,16.1-25.19l9.29,11,3.2,4s-6.49,21.64-3.43,31.07a95.48,95.48,0,0,0,9.07,18.83l3.55,4.34s-7.13,19.28,5.12,35.62,17.24,15.45,17.24,15.45-10.44-22.94,30.75-22.6,32.81,19.34,30.64,24.85c-7.81,19.83-55.43,32.51-99.71,34.64s-85.84-5.12-85.84-5.12Z"/>
      <path class="cls-11" d="M608,92.13s24.43,13.11,32.94,32.18a141.33,141.33,0,0,1,11.24,46.39l-1.91,18s10.38-10.54,32.89-14.31c21.78-3.65,42.23-3.5,43.58,5.91s-21.11,13.12-21.11,13.12,39.48,9.56,39.14,26.59-41.53,26.55-41.53,26.55,42.9,4.08,56.17,17,23.13,39.42,18.38,53.92c18.39-23.28,8.82-46.73,8.82-46.73l-.52-1.56L775,255.48l5.22-4.39s7.61-16.07,2-29.16-12.84-18.77-12.84-18.77,6.7-15.55,3.26-25.11-10.94-18.57-10.94-18.57l-15.13-6.43-21.46-4.69H702.25l-26.55,3.86.91-7.64a111.41,111.41,0,0,0-21.06-44.84c-17-21.39-35.67-30.33-35.67-30.33L594,61.25l8.84,16.08Z"/>
      <path class="cls-10" d="M418.39,292.16s11.35-1,18.5-5.54A112.3,112.3,0,0,0,450.7,276l-6.41,13.29-6,15.68-11,4.11h-4.47Z"/>
      <path class="cls-15" d="M496,217.34a33.06,33.06,0,0,1-9.16,14.85c-4.24,4,2.14,10.32,6.37,6.36a42.28,42.28,0,0,0,11.47-18.82c1.69-5.55-7-7.93-8.68-2.39Z"/>
      <polygon class="cls-15" points="161.4 562.17 138.9 685.11 151.44 686.26 173.4 560.39 161.4 562.17"/>
      <path class="cls-15" d="M131.36,722.26s3.33-8.8-14.64-9.7S95,711.28,95,711.28s-36.57,19.16-42,45.21S47.51,791,47.51,791s1,14.29,15.59,14.55S82.05,798,82.05,798s1-32.36,13-45.38a329.54,329.54,0,0,1,25.27-24.32Z"/>
      <path class="cls-15" d="M151,780.32s.95,7.52,7.21,7.54,8.23-3.55,8.26-14-2.13-51.58,4.06-56.68,24.75-1.66,24.75-1.66l-1.19-8L189,700.56,116.46,697l-1.23.7-3,8.69,24.67,3.14,8.16,1.78,4.56,9.07.57,28.72Z"/>
      <path class="cls-15" d="M242.08,782.39c-10.23,0-11.74-4-14.81-14.31s-7.15-18.22-16.34-27.8-15.28-10.87-15.28-10.87l0-17.61s30.06,21.59,35.59,28.48,10.64,17.09,10.64,17.09l4.58,18.11S248.46,782.39,242.08,782.39Z"/>
      <path class="cls-15" d="M213.91,780l-7.8-1.84-7.48,1.51s1.73,12.4.46,17-5.76,15.25-5.76,15.25l2.32,10.42,1.09,13.34S207.3,822,209,818.22s4.92-15,4.92-15Z"/>
      <path class="cls-15" d="M140.54,802.28s4.57,6.82.68,9.34S126.56,819,126.56,819l-17.24,3.06-7.44-5.87-2.52-11V798l7.51,4.25,8.57,1.81,5.63-4.64H129Z"/>
      <path class="cls-16" d="M130.42,738.57s-1.57,19,0,25.66,2.13,20.09,2.13,20.09l-7.5,2.91-4-19.15L119,748.3Z"/>
      <path class="cls-16" d="M178.44,807.64s8.22,6.51,8.23,19.29a43,43,0,0,1-6.68,22.4,22.39,22.39,0,0,0,15.66-12.17c5.32-10.73-2.32-20.94-2.32-20.94l-8.7-10.72-2.08-2.25Z"/>
      <polyline class="cls-16" points="208.14 758.39 197.2 758.39 193.33 761.19 194.09 743.97 200.16 749.07 208.96 759.82"/>
      <path class="cls-16" d="M62.59,841.75s3.07,6.13,16.34,5.36,12.27-10,12.27-10,29.86,18,65.35,17.16,28.59-6.72,28.59-6.72,19.66-16.4,25-29.38c1.53-3.79,3.11-12.84,3.11-12.84s-3.62,13.14,12.21,14.92,21.24-10.24,21.24-10.24-14.61,70-79.71,73.85-94-26.77-94-26.77Z"/>
      <polygon class="cls-16" points="190.47 660.22 233.66 743.5 245.74 764.23 248.94 781.57 265.82 784.32 193.33 640.62 190.47 660.22"/>
      <polygon class="cls-16" points="184.63 560.39 165.49 687.12 167.02 697.67 177.43 699.56 173.4 687.12 177.43 686.26 194.67 562.17 184.63 560.39"/>
      <path class="cls-16" d="M302.24,788.9s-.47.07-1.26.24c-3.7.81-14.26,4-14.22,14.11.06,12.24,12.17,14.35,12.17,14.35l-50-7.55V781.57Z"/>
      <path class="cls-15" d="M473.23,764l4.85,16.78,52.16-10.93s8.24-21.39,11.28-26.89,16.9-19.47,16.9-19.47l9.05-5.78-28.62-3.11s-15,9.11-18.5,16.94-9.42,23.38-9.42,23.38a34,34,0,0,1-14.3,6.49C488,763.11,473.23,764,473.23,764Z"/>
      <path class="cls-15" d="M555.87,752.81l-2.38-13.36,18.28-11,1-1.85s20.18-4.78,32.94,4.94,18.63,18.64,18.63,18.64-7.46,11.36-18.41,4.74-15.11-12-15.11-12l-16,1.26-14,6.38Z"/>
      <path class="cls-16" d="M522.68,795.8l28.25-8.57s3.15,23.88,19.24,27.46,28,1.11,34.52-9.28,10.41-24,10.41-24,.36,9.27,6.64,9.16,7.33-6.64,7.33-6.64-6.08,45.59-45.13,48.54-52.7-18.09-52.7-18.09Z"/>
    </g>
    <g id="Слой_5" data-name="Слой 5">
      <path class="cls-17" d="M321.21,208s-13.38-17.55-18.43-36.18c-6.19-22.88,1.68-40.63,20.59-38.2S347,165.46,350.1,174.73,354,196.5,354,196.5L338.68,200Z"/>
      <path class="cls-18" d="M409.41,173.16s-12.16-16.75-16-37.78,6.25-34.44,19.06-33.55c18.63,1.31,24.23,19.88,26.13,38.12s2.55,22.16,2.55,22.16l-15.61,4Z"/>
    </g>
    <g id="Слой_3" data-name="Слой 3">
      <path class="cls-19" d="M377.3,306.86c0-8.72,4.7-19.9,15.2-18.94,11.67,1.08,14.69,15.77,14.57,25.17-.14,10.21-4.27,22.74-15.2,25.85-9.36,2.67-15.63-4.56-15.79-13.44-.06-2.89-4.56-2.9-4.5,0,.16,8.43,4.45,16.61,13.34,18.22s17-3.8,21.52-11c6.39-10.28,6.91-25.39,2.2-36.41-3.38-7.9-10.85-14.16-19.86-12.67-11.07,1.83-16,13.08-16,23.24,0,2.89,4.51,2.9,4.5,0Z"/>
      <path class="cls-19" d="M362.8,307.37a37.52,37.52,0,0,1,6.05-20.26c7.95-11.79,26.22-14.65,37.74-6.38,11,7.87,13.13,23.46,12.25,36-1,14.18-6.63,30.8-21.78,35.16-17.62,5.08-33.15-10.24-33-27.63,0-2.9-4.48-2.9-4.5,0-.16,16.72,12.22,32.34,29.37,33.09,18.36.8,29.75-14.78,33.1-31.16,2.94-14.38,2.24-32-7.39-43.88-10-12.38-30.35-14.18-43-4.65-8.85,6.69-13.38,18.84-13.4,29.75,0,2.9,4.49,2.9,4.5,0Z"/>
      <path class="cls-19" d="M361.64,292.71c-17.21,7.57-37.51,8.76-56.22,9-7.69.09-15-1.85-20.2,5.13-4.68,6.28-5.27,15.46-4.72,23,.48,6.64,2.64,13.68,8.71,17.25,6.6,3.89,13.65,2,20.49.21,17.29-4.46,35-9.34,53.07-8.26,2.9.18,2.89-4.33,0-4.5-14.68-.88-29.06,2.23-43.23,5.66-6.87,1.66-14.9,5.18-22.18,4.7-6-.39-9.95-4.22-11.53-9.94-2-7.33-1.83-18.42,2.66-24.94,1.33-1.94,4.07-3.79,5.42-3.91,5.08-.48,10.48.19,15.59.06,18.3-.48,37.44-2.05,54.41-9.51,2.64-1.17.36-5.05-2.27-3.89Z"/>
      <path class="cls-19" d="M310.63,301.92a18.56,18.56,0,0,0-15.34-12.79c-10.8-1.34-19.76,5-24,14.63-5.45,12.26-5.39,28.06-2.16,40.88,2.3,9.14,7.83,19.21,18.13,20.5,13.38,1.67,24.47-7.33,25.85-20.51.29-2.88-4.21-2.86-4.5,0-.76,7.23-4.89,12.9-11.92,15.12-4.49,1.42-9.73,1.71-13.86-.84-10.85-6.7-11.56-24.35-11.09-35.48.45-10.71,3.29-25.14,14.93-29.05,7.69-2.58,17.18.45,19.66,8.74.83,2.76,5.18,1.59,4.34-1.2Z"/>
      <path class="cls-19" d="M270.33,309.72a73.89,73.89,0,0,0-17.58,5.93C243.2,320.17,236.48,327,229.82,335c-6.83,8.24-14.25,15.21-25.88,13.25-9.29-1.56-10.82-12.93-15.6-19.55A46.73,46.73,0,0,0,163,311.53c-3.72-.95-10.09-2.08-13.67.2-4.59,2.92-6.65,11.91-7.15,16.74-.44,4.31-.47,13,4.56,15.22,2.22,1,5.12.57,7.5,1.45,6.24,2.3,10.28,7.72,13.25,13.46,1.8,3.49,2.73,7.56,5.24,10.65a22.12,22.12,0,0,0,9.53,6.67c2.75.93,3.93-3.41,1.19-4.34-8-2.69-9.13-10-12.71-16.44-4-7.18-9.74-13.32-18-15.12a17.54,17.54,0,0,0-3.39-.49c-1.75,0-1.07-.46-.33.26-2.13-2.07-2.46-5.13-2.46-8a27.38,27.38,0,0,1,3.95-14.19,12.57,12.57,0,0,1,1.51-2.24c-.87.91-.84.21.28.14,7.64-.55,13.89,1.15,20.56,5.26A39.65,39.65,0,0,1,186,333.23c2.13,3.4,3.52,7.15,5.42,10.66,7.93,14.71,27.46,9.74,37.06-.42,7.65-8.1,13.42-16.94,23.52-22.38a68.64,68.64,0,0,1,19.56-7c2.84-.53,1.63-4.87-1.2-4.34Z"/>
      <path class="cls-19" d="M223,363.69a99.83,99.83,0,0,0-25.86-3.33c-2.9,0-2.9,4.5,0,4.5A95.57,95.57,0,0,1,221.82,368c2.8.74,4-3.6,1.19-4.33Z"/>
      <path class="cls-19" d="M182.46,362.44l-6.18,36.28L161.7,484.3,145,582.53l-12.88,75.59L129,676.33c-1.72,10,11.24,11.44,18.58,11.86,2.82.17,5.66.27,8.49.32s2.9-4.45,0-4.5c-6.17-.1-16.74,1.17-21.42-3.49-.6-.6-1.16-1.94-1.82-2.37,1.4.91,0,2.08.14,1.53,0-.1,0-.2.05-.3.1-.52.16-1.06.27-1.59,1.19-5.68,2-11.48,2.93-17.2l12.33-72.32,30.88-181.2,7.4-43.43c.49-2.84-3.85-4.05-4.34-1.2Z"/>
      <path class="cls-19" d="M167,688.51h19.66a2.27,2.27,0,0,0,2.17-1.65l15.42-105.8,24.41-167.45L234.3,375l-1.57,1.57a36.48,36.48,0,0,0,17.83-10.92c5.51-6.09,10.32-14.75,19.59-14.92,2.89-.05,2.9-4.55,0-4.5-7.27.13-12.73,4.39-17.31,9.68-6.3,7.28-11.54,13.67-21.3,16.32a2.22,2.22,0,0,0-1.58,1.57l-15.42,105.8L190.13,647.07l-5.62,38.6,2.17-1.66H167c-2.9,0-2.9,4.5,0,4.5Z"/>
      <path class="cls-19" d="M205.82,564.26c-7.59-6.1-20.81-6.12-29.87-6.12-7.16,0-14.87.33-21.68,2.81-1.93.71-4.45,1.64-5.8,3.31-1.8,2.24,1.37,5.44,3.19,3.19.93-1.17,3-1.88,4.5-2.4,6.29-2.14,13.22-2.41,19.79-2.41,7,0,14.15.43,20.88,2.41a30.2,30.2,0,0,1,4.72,1.8c.32.16,2,1.32,1.09.6,2.23,1.79,5.44-1.37,3.18-3.19Z"/>
      <path class="cls-19" d="M148.84,639.8a260.58,260.58,0,0,1,4.53-27.92c.3-1.31.53-4,1.54-5,1.39-1.34,4.92-1,6.76-1.07a100.3,100.3,0,0,1,13.52.77L173,603.71,162.8,666l2.17-1.66c-7.84.66-15.92,1-23.74,0-2.86-.36-2.84,4.14,0,4.5,7.83,1,15.9.66,23.74,0a2.27,2.27,0,0,0,2.17-1.65l10.22-62.3a2.3,2.3,0,0,0-2.17-2.84,84.58,84.58,0,0,0-16-.67c-5,.38-7.92,1.49-9.43,6.38-3.15,10.23-4.13,21.43-5.44,32-.35,2.86,4.15,2.84,4.5,0Z"/>
      <path class="cls-19" d="M137.77,684.53a22.12,22.12,0,0,0-8.35,8.81c-1.34,2.57,2.54,4.85,3.88,2.27a17.77,17.77,0,0,1,6.74-7.2c2.49-1.48.22-5.37-2.27-3.88Z"/>
      <path class="cls-19" d="M176.29,689.06a9.15,9.15,0,0,1,4,8.18c-.13,2.89,4.37,2.89,4.5,0a13.77,13.77,0,0,0-6.21-12.07c-2.4-1.62-4.66,2.28-2.27,3.89Z"/>
      <path class="cls-19" d="M114.37,707.45c.13-1.93.43-7,2.3-8.08a17.55,17.55,0,0,1,3.67-.15c5.87-.05,11.76.21,17.63.45,14.37.58,28.75,1.33,43.09,2.4,5.51.41,11.15,0,12.21,6.93.37,2.51,0,5.33-.18,7.85-.63,11-1.54,22.07-2.82,33.06-1.65,14.09-3.77,28.31-7.82,41.93-2,6.59-6,21.8-15,22.13-10.37.39-12.44-18-13.36-25-1.93-14.68-1.72-29.62-1.67-44.4,0-6.75.16-13.53-.24-20.27-.27-4.39-.56-8.92-3.77-12.27-8.27-8.66-25.36-8-36.32-6.86-2.85.29-2.88,4.79,0,4.5a91.21,91.21,0,0,1,14.69-.21c6.21.4,17.42,1.28,20,8.31,1.51,4.1,1.05,9.36,1.11,13.63.1,7,0,14,0,21,0,15.51-.11,31.6,3.46,46.79,2,8.36,6.77,20.8,17.6,19.06,9.93-1.59,14.4-14.66,17-22.82,4.56-14.11,6.75-29,8.52-43.69C196,739.91,197,728,197.63,716c.17-3.05.52-6.15-.23-9.15-1.57-6.38-6.12-8.37-12-8.9-16.41-1.48-32.92-2.2-49.38-2.83-6.14-.23-12.61-.91-18.75-.29s-7.06,7.6-7.39,12.65C109.68,710.35,114.18,710.33,114.37,707.45Z"/>
      <path class="cls-19" d="M174.34,798c-.26,4.89-7.63,4.93-7.63,0s7.37-4.89,7.63,0c.16,2.88,4.66,2.9,4.5,0a8.32,8.32,0,1,0-8.64,8.3c4.83.19,8.39-3.66,8.64-8.3C179,795.14,174.5,795.14,174.34,798Z"/>
      <path class="cls-19" d="M111.53,705.29C91.74,709,72.45,721.8,60.65,737.83c-12,16.28-16.18,36.56-15.28,56.49,1,21.57,7.21,43,21.52,59.6,12.52,14.49,30,23.62,48.39,28.34,19.86,5.1,42.16,6.46,62.29,2.28,44.12-9.15,72.67-49,73.41-93.1.57-34.23-21-64-50.71-79.57-.66-.34-1.32-.69-2-1-2.61-1.2-4.9,2.67-2.27,3.89,23.3,10.78,43.31,33.34,48.82,58.52,9.08,41.5-14.52,87.62-54.32,102.81-19.15,7.31-40.77,7.54-60.85,4.5-18.27-2.77-36.52-9.15-50.81-21.19-15.19-12.8-24.08-30.78-27.42-50.18-3.5-20.27-2.24-42.38,7.76-60.72,10.6-19.44,31.59-34.79,53.53-38.88,2.84-.53,1.64-4.86-1.19-4.33Z"/>
      <path class="cls-19" d="M132,720.09c-15.66,5.29-29.77,17.61-38.68,31.25-9.1,13.93-12.94,30.49-13.43,47-.37,12.85,1.65,26.17,8,37.53,2.72,4.89,6.41,10.07,11.18,13.21,2.42,1.6,4.68-2.3,2.27-3.89-12-7.9-16.52-27.29-16.92-41.09-.83-28.38,10-55.55,33.91-71.76a63.5,63.5,0,0,1,14.9-7.89c2.73-.92,1.56-5.27-1.2-4.34Z"/>
      <path class="cls-19" d="M141.82,737.67a40.42,40.42,0,0,1,7.07-1.41,2.32,2.32,0,0,0,2.25-2.25,2.26,2.26,0,0,0-2.25-2.25,47.33,47.33,0,0,0-8.27,1.57c-2.78.8-1.6,5.14,1.2,4.34Z"/>
      <path class="cls-19" d="M215.45,768.88a61.85,61.85,0,0,0-18.58-27c-2.21-1.85-5.4,1.32-3.18,3.19a57.34,57.34,0,0,1,17.42,25c1,2.71,5.31,1.54,4.34-1.2Z"/>
      <path class="cls-19" d="M195.23,761.76a16.44,16.44,0,0,1,10.28-2c2.83.39,4.05-3.94,1.19-4.34A21.54,21.54,0,0,0,193,757.87c-2.54,1.4-.27,5.29,2.27,3.89Z"/>
      <path class="cls-19" d="M141.74,782.61c-7.11-.49-13.47-1.63-18,5-2.32,3.36-3.16,7.72-5.89,10.8-4.34,4.89-10.8,1.91-15.35-.88-2.48-1.52-4.74,2.37-2.27,3.88,6.41,3.94,14.94,6.54,20.8.18,2.59-2.81,3.66-6.57,5.46-9.85,3.52-6.36,9-5,15.25-4.59,2.89.19,2.88-4.31,0-4.5Z"/>
      <path class="cls-19" d="M141.68,800.34a28.94,28.94,0,0,0-22-1.61c-2.75.9-1.57,5.24,1.19,4.34a24.34,24.34,0,0,1,18.52,1.15c2.59,1.26,4.88-2.62,2.27-3.88Z"/>
      <path class="cls-19" d="M136,781.67c-1.27-6.82-2.31-13.7-3-20.59s-.9-16.25-.1-22.13c.25-1.8-1.46-3.68-3.3-2.54-12.09,7.43-21.81,20.12-27.28,33a73.12,73.12,0,0,0-4.77,39.74c1.57,10,6.47,15.7,16.77,15.33,10.54-.38,19.41-5,28-10.92,2.37-1.64.12-5.54-2.27-3.89-6.41,4.43-14.24,9.66-22.18,10.17-3,.19-6.64.7-9.53-.29-5.22-1.8-6.13-8.79-6.67-13.46a69.5,69.5,0,0,1,20.13-57.47,55.9,55.9,0,0,1,10.07-8.34l-3.31-2.54c-2,14.91.34,30.43,3.07,45.11.52,2.84,4.86,1.64,4.34-1.19Z"/>
      <path class="cls-19" d="M116.75,748.3a127.92,127.92,0,0,0,4,34c.66,2.51,4,11.67,7.78,6.4,1.68-2.36-2.22-4.61-3.88-2.27.46-.65,2.19-.56,2.19-.57s-1.23-3-1.28-3.1a92.51,92.51,0,0,1-3.11-16.5,129.73,129.73,0,0,1-1.17-17.94c0-2.9-4.45-2.9-4.5,0Z"/>
      <path class="cls-19" d="M186.58,794.92c5.56-8.21,15.93-19.72,26.79-12.65l-1.11-1.95a90.91,90.91,0,0,1-1.93,27.73c-2.51,10.2-8.81,20.14-16.27,27.52l3.84,1.59c.62-6.54.79-14.06-1.64-20.26s-7.39-11.66-12.12-16.21c-2.08-2-5.27,1.17-3.18,3.18,4.42,4.26,9.32,9.41,11.36,15.3,1.91,5.55,1.62,12.2,1.08,18-.19,2,2.55,2.87,3.84,1.59a69,69,0,0,0,16.07-25c3.56-9.84,4.07-21.2,3.55-31.58-.11-2.15-.24-3.25-2.21-4.39-3.92-2.25-9.94-2.55-14.17-1.36-7.55,2.11-13.57,10-17.79,16.18-1.63,2.4,2.27,4.66,3.89,2.27Z"/>
      <path class="cls-19" d="M184.36,818.82a25.62,25.62,0,0,1,1,16.22c-.75,2.8,3.59,4,4.34,1.2a29.82,29.82,0,0,0-1-18.62c-1-2.67-5.39-1.51-4.34,1.2Z"/>
      <path class="cls-19" d="M195.27,812c5-8.57,9.25-20.32,6-30.21-.89-2.74-5.24-1.57-4.33,1.19,2.84,8.7-1.15,19.24-5.57,26.75-1.48,2.5,2.41,4.77,3.88,2.27Z"/>
      <path class="cls-19" d="M155.12,809.73c-8,15.15-28.3,21-44.27,21.09a2.28,2.28,0,0,0-1.95,3.39c8.15,14.52,24.37,19.54,40.22,16.46,7.67-1.49,14.61-4.9,17.7-12.47,2.83-7,2.45-15.59-.19-22.57-1-2.69-5.36-1.52-4.34,1.19a28.85,28.85,0,0,1,1,17.82c-2.39,8.19-9.68,11-17.52,12-13.32,1.82-26.24-2.73-33-14.74l-1.94,3.38c17.5-.09,39.4-6.75,48.15-23.32,1.35-2.56-2.53-4.83-3.88-2.27Z"/>
      <path class="cls-19" d="M185.53,845.66a69.07,69.07,0,0,1-29,6.41c-2.9,0-2.9,4.51,0,4.5a74.7,74.7,0,0,0,31.25-7c2.63-1.22.34-5.1-2.27-3.89Z"/>
      <path class="cls-19" d="M172.05,317.13c2-5.24,2.13-11.95-.85-16.84-5.11-8.39-18.38-10.45-26.57-5.85-8.89,5-12.6,16.14-14.73,25.46-2.52,11-3.29,23.92,5.44,32.56,8.23,8.14,21.47,6.27,28.59-2.39,1.82-2.22-1.34-5.42-3.18-3.18-8.38,10.18-22.6,7-26.8-5.23-3.4-9.94-.2-23,4-32.34,4.65-10.3,15.64-17.32,26.4-9.78,5.26,3.69,5.49,10.86,3.32,16.4-1.06,2.7,3.29,3.86,4.34,1.19Z"/>
      <path class="cls-19" d="M143.11,353.14c-12.09,6.06-28.42,7.95-40.77,1.89-26.81-13.13-26.63-48.82-15.92-72.36a88.81,88.81,0,0,1,11.46-19.24c1.82-2.23-1.35-5.43-3.18-3.18-13,16-21.9,38.53-19.57,59.23,1.59,14.1,8.43,28.41,20.27,36.68,9.06,6.32,20.34,7.9,31.1,6.44A61.06,61.06,0,0,0,145.38,357c2.59-1.3.32-5.18-2.27-3.89Z"/>
      <path class="cls-19" d="M48.75,260.25C26.51,288.75,23.3,353.09,68,361.68a44.46,44.46,0,0,0,28.78-4.15c2.57-1.33.3-5.22-2.27-3.88a39.46,39.46,0,0,1-30.06,2.47c-12.16-4-20.41-14.18-24.1-26.17-4.68-15.2-3.63-31.89,1.56-46.81a81.35,81.35,0,0,1,6.76-14.65c.79-1.34,1.62-2.64,2.49-3.93.18-.26,1.51-2,.8-1.13,1.76-2.26-1.4-5.47-3.18-3.18Z"/>
      <path class="cls-19" d="M49.6,348.94a29.43,29.43,0,0,1-14.34,2.32c-12.9-1.14-21.83-11.83-26.57-23.08-10.16-24.07-1.59-59,18.88-75.53,7.51-6.08,23.1-9.91,29.33-.57a2.28,2.28,0,0,0,3.89,0c4.34-6.84,14.31-9.28,21.74-9.42,6.53-.13,18.09.83,21.69,7.72a2.27,2.27,0,0,0,3.08.8c12.61-7.93,30.45-6,41.79,3.15,8.47,6.8,15.36,16.33,20.2,26,1.29,2.59,5.18.31,3.89-2.27-5.59-11.21-13.94-22.4-24.32-29.52-12.29-8.44-31-9.35-43.83-1.28l3.08.81c-4.39-8.4-17.36-10.12-25.58-10-9.16.18-20.38,3.4-25.63,11.65h3.89c-5.95-8.92-19-9.13-28-5.52-12.61,5.07-21.09,18.51-26.15,30.48C.42,289.57-2.09,306.61,2,322.34c3.53,13.64,12.6,27.87,26.71,32.2a32.7,32.7,0,0,0,23.18-1.72c2.6-1.27.32-5.15-2.27-3.88Z"/>
      <path class="cls-19" d="M144.25,284.26a37,37,0,0,0-10.49,21.82c-.36,2.87,4.15,2.84,4.5,0a31.92,31.92,0,0,1,9.17-18.63c2-2.07-1.14-5.25-3.18-3.19Z"/>
      <path class="cls-19" d="M141.21,354.8c-12,5.24-16.4,18.05-20.61,29.47-1,2.72,3.34,3.89,4.34,1.19,3.83-10.38,7.6-22,18.55-26.77,2.64-1.15.36-5-2.28-3.89Z"/>
      <path class="cls-19" d="M156.68,294.9l5.44-22.25-3.3,1.34a60.41,60.41,0,0,1,24.8,21.88,49.57,49.57,0,0,1,7,27.75c-.17,3.55-.72,7.8-2.67,10.91-1.55,2.46,2.34,4.72,3.88,2.27,7.16-11.39,2.81-30.09-3-40.87-5.92-11-16.5-20.46-27.76-25.82a2.29,2.29,0,0,0-3.31,1.34l-5.44,22.25c-.69,2.81,3.65,4,4.34,1.2Z"/>
      <path class="cls-19" d="M55.26,355.59c1,16.22,12,32.21,22.69,43.6,13.21,14.11,29.85,24.45,46.9,33.28,10.84,5.62,22.46,11,34.58,13.16,3.63.63,8.46,1.53,12.07.17,2.68-1,1.52-5.36-1.2-4.34-2.1.8-5.29.45-7.91.11-10.41-1.37-20.54-5.76-29.9-10.29-27.38-13.25-55.83-31.65-68.4-60.61-2-4.62-4-10.39-4.33-15.08-.18-2.88-4.68-2.9-4.5,0Z"/>
      <path class="cls-19" d="M130.31,433.81c-.23,13.16,1,27,4.77,39.65,2.77,9.35,8,17.38,14.16,24.86,2.83,3.43,6,7.2,9.91,9.54,2.48,1.51,4.74-2.38,2.27-3.88-3.51-2.13-6.43-5.73-9-8.84-6.28-7.62-11.17-15.73-13.68-25.31a134.41,134.41,0,0,1-3.93-36c.05-2.9-4.45-2.9-4.5,0Z"/>
      <path class="cls-19" d="M229.88,377.65c7.7,15.58,10.77,34.4,11.18,51.56.6,25.45-5.21,54.47-21.59,74.76-2.53,3.14-5.47,6.55-8.91,8.7-2.45,1.53-.19,5.43,2.27,3.88,11.11-6.95,18.39-20.92,23.1-32.57,11.31-28,12.44-60,4.76-89a104.5,104.5,0,0,0-6.92-19.58c-1.28-2.59-5.17-.32-3.89,2.27Z"/>
      <path class="cls-19" d="M225.17,445.28a106,106,0,0,0,17.77-8c2.52-1.42.26-5.31-2.27-3.89A99.19,99.19,0,0,1,224,440.94c-2.73.94-1.56,5.28,1.19,4.34Z"/>
      <path class="cls-19" d="M526.69,530.66,517.16,545l3.53-.46L472,503.3l.35,2.73,10.57-14.63-3.54.45L527,533.39c2.18,1.89,5.37-1.28,3.18-3.19l-47.65-41.53a2.3,2.3,0,0,0-3.54.46l-10.56,14.63a2.23,2.23,0,0,0,.35,2.72l48.69,41.2a2.29,2.29,0,0,0,3.53-.45l9.54-14.3C532.19,530.51,528.29,528.26,526.69,530.66Z"/>
      <path class="cls-19" d="M503.56,378.84l14.64-7.14c2.6-1.28.32-5.16-2.28-3.89L501.29,375c-2.61,1.27-.33,5.15,2.27,3.88Z"/>
      <path class="cls-19" d="M579.46,238.23c-9.69,18.65-13.06,41.56-14.16,62.22-1.13,21.11,1,42.45,4.86,63.2,2.22,12,5,25.3,12.13,35.52a26.54,26.54,0,0,0,19.54,11.64l-.6-4.42c-3.1.63-8.8-.12-12.58-.89-13.15-2.66-25.46-8.67-36.95-15.4-17.11-10-34.06-22.07-47.69-36.61-2-2.12-5.16,1.07-3.18,3.18,14.69,15.68,33.24,28.73,51.86,39.2,11.34,6.37,23.63,12.05,36.54,14.31,4.22.74,8.92,1.42,13.19.55,2.69-.55,1.73-4.15-.59-4.42-19.44-2.22-24.09-26.88-27.07-42.47-6.57-34.46-8-70.66,1.73-104.67,1.8-6.31,3.81-12.82,6.85-18.66,1.34-2.57-2.55-4.85-3.88-2.28Z"/>
      <path class="cls-19" d="M620,355.08a115.54,115.54,0,0,1-3.78,27.82c-1.87,7-4.77,14.24-9.64,19.66-1.36,1.51-3.21,3.54-5.35,3.83-2.86.39-1.64,4.72,1.19,4.34,8.89-1.2,14.58-15.55,16.89-22.47,3.51-10.51,5-22.11,5.19-33.18,0-2.89-4.45-2.89-4.5,0Z"/>
      <path class="cls-19" d="M549.87,393.92c-2.07,18.37,1.13,38.11,5.86,55.79,4.43,16.58,11.48,32.21,19.1,47.54a226.63,226.63,0,0,0,15.43,27.23c1.83,2.68,3.76,5.71,6.23,7.88l-.35-2.72c-7.89,15.15-19.58,28.88-31.81,40.65-24.57,23.64-56,39.81-90,43.76a101.25,101.25,0,0,1-22.28.6l1.94,1.12a131.66,131.66,0,0,1-9.8-19.63c-8.09-19-13.71-39.15-17.68-59.43-6.29-32.12-8.2-65-6.91-97.68,1.38-35,5.42-70.34,13.66-104.4,5-20.54,11.55-41.27,22.61-59.42,5.95-9.76,13.61-19.52,24-24.87,9.72-5,20.32-5.39,30.52-1.82,10.74,3.75,21.29,6.79,32.77,6.55,27.33-.57,49.08-18.85,61.93-42,13.72-24.67,14.48-55.44,11.87-82.87-2.07-21.78-5.52-47.64-18.69-65.84a24.9,24.9,0,0,0-4.35-5l-1.59,3.84c-.35-.05.07-.11.49.07a15.93,15.93,0,0,0,3,.55c3.11.62,6.18,1.41,9.22,2.32a97.45,97.45,0,0,1,27.61,13.07c11.73,8.13,20.26,19.66,27.68,31.7,5.32,8.65,10,17.88,12.7,27.7,1,3.55,2,7.46,1.8,11.19-.15,2.89,4.35,2.88,4.5,0,.64-12.67-6.72-26.69-12.76-37.2-7.21-12.55-15.85-25-27.31-34.06A98.36,98.36,0,0,0,610,63a89.58,89.58,0,0,0-17.66-4.29c-1.87-.24-3,2.66-1.59,3.84,3,2.44,5.22,6.18,7.08,9.52a93.18,93.18,0,0,1,8.56,22.43,233.8,233.8,0,0,1,6.78,44.86c2.17,37.79-5.28,81.1-40.38,102.55-12.08,7.38-26.19,9.87-40.15,8-8.11-1.06-15.45-4-23.17-6.52a39.4,39.4,0,0,0-23.57-.21c-14.36,4.11-24.69,15.29-32.54,27.54-14.6,22.82-22.1,50.09-27.45,76.37-9,44.06-12.92,90-10.51,135C417.13,515,422.47,548,433,579.26A245.41,245.41,0,0,0,443.72,606c1.76,3.72,3.48,8.25,6.08,11.51,2.77,3.5,11.2,1.94,15.07,1.76a152.25,152.25,0,0,0,53.29-12.52c32.41-14,60.17-39.43,78.67-69.39,1.12-1.8,2.22-3.61,3.19-5.49a2.3,2.3,0,0,0-.35-2.73,30.38,30.38,0,0,1-4.33-5.26,188,188,0,0,1-13.66-23.09c-14.37-27.72-25.61-56.61-27.45-88.05a112.06,112.06,0,0,1,.14-18.86c.33-2.87-4.17-2.85-4.5,0Z"/>
      <path class="cls-19" d="M569.62,351.88a444.72,444.72,0,0,0,107.07,3.42,271.45,271.45,0,0,0,72.62-16.86c13.87-5.39,28-13,34.93-26.87,3.27-6.55,4.75-13.75,5.38-21s1.2-15.61-1.59-22.66c-5.22-13.19-19.5-20-32.4-23.4a116.41,116.41,0,0,0-49.15-1.82c-12.66,2.19-26.63,6.57-33.07,18.58-9.48,17.68-6.24,40.42,10.17,52.82,14.37,10.86,36.86,12,48.81-2.94a21.14,21.14,0,0,0,2.44-3.58c1.32-2.57-2.56-4.85-3.88-2.27-7.22,14.08-26.08,15-38.83,8.78C672.93,304.72,667.58,281,677.61,263c6-10.79,19.64-14.23,31-16.08a112.16,112.16,0,0,1,44.47,1.62c11.94,3,26.18,8.89,30.9,21.31,2.49,6.55,1.75,14.42,1.12,21.26-.62,6.65-2.09,13.36-5.26,19.29-6.81,12.72-20.4,19.51-33.37,24.39a269.8,269.8,0,0,1-66.67,15.75,435,435,0,0,1-109-2.95c-2.83-.43-4,3.9-1.19,4.34Z"/>
      <path class="cls-19" d="M747.11,304.9a96.52,96.52,0,0,0-40.68.08c-2.83.61-1.64,4.95,1.19,4.33a91.07,91.07,0,0,1,38.3-.07c2.82.6,4-3.74,1.19-4.34Z"/>
      <path class="cls-19" d="M674.59,264.45c-16.66-10.69-18.16-39.87-6.05-54.24,8.1-9.61,23-12.47,34.78-13.78a145.66,145.66,0,0,1,43.85,1.89c8.82,1.73,22.42,4.25,27.9,12.36,8,11.8,10.18,33,0,44.44-1.93,2.15,1.25,5.35,3.18,3.18,9.57-10.69,9.56-27.68,5-40.42-2.38-6.66-5-11.95-11-15.67-5.39-3.32-11.64-5.32-17.73-6.87a146,146,0,0,0-50.63-3.46c-13.26,1.4-29.31,4.52-38.48,15.15-14.25,16.5-12.11,49.07,6.95,61.3,2.45,1.57,4.71-2.32,2.28-3.88Z"/>
      <path class="cls-19" d="M665.61,210.21c-7.18-4.42-12.58-12.8-13.05-21.22-.88-15.88,11.1-29.49,25.47-34.13,13.55-4.37,28.39-4.85,42.48-3.87,12.76.9,27.18,2.83,38.41,9.43,13.11,7.71,15.69,29,8.47,41.6-1.44,2.52,2.45,4.79,3.89,2.27,7.36-12.86,5.75-33.26-4.89-43.88-9.3-9.28-25.7-11.65-38.06-13.17-29.44-3.6-74.91-1.48-80,36.36-1.61,12,4.8,24.2,15,30.49,2.48,1.52,4.74-2.37,2.28-3.88Z"/>
      <path class="cls-19" d="M554.42,250.49C546,275.57,541.17,301,542.48,327.57a228.88,228.88,0,0,0,6,43.6c2,8.16,4.63,16.52,9,23.75,1.5,2.47,3.27,5.23,5.71,6.88s4.66-2.27,2.27-3.89c.54.36-1.16-1.16-1.6-1.68a34.32,34.32,0,0,1-4.27-6.81c-6-12-8.6-25.84-10.45-39-2.46-17.45-3.34-35.2-1.39-52.74,1.75-15.74,5.94-31,11-46,.93-2.75-3.42-3.93-4.34-1.2Z"/>
      <path class="cls-19" d="M481.43,244.93c-12.08,14-21.07,31.4-27.5,48.59s-8.93,34.62-10.55,52.74c-1,11.37-2.05,22.83-2,34.25,0,2.59-.3,6,.86,8.42l.8-3.08-12.93,9.87a2.3,2.3,0,0,0-.46,3.54l15.66,16.34-.58-2.19-28.54,79.71c-1,2.73,3.37,3.91,4.34,1.2l28.54-79.71a2.22,2.22,0,0,0-.58-2.19l-15.66-16.34-.45,3.53,12.93-9.87a2.33,2.33,0,0,0,.81-3.08c.56,1.17,0-.46,0-.34-.12-.94-.22-3.17-.25-4.56a291.3,291.3,0,0,1,1.42-29.24c1.44-17.51,3.19-34.73,8.71-51.5a174.59,174.59,0,0,1,17.2-36.78,123.25,123.25,0,0,1,11.36-16.13c1.88-2.18-1.29-5.38-3.18-3.18Z"/>
      <path class="cls-19" d="M320.54,342.22c-8.85,28.08-14.89,57.37-18.93,86.5-6.35,45.9-4.55,92.65.35,138.63,1.07,10,2.23,20.1,3.91,30.06l2.17-2.84c-17.27-.44-36.93-3.88-51.29-13.94C250,575.9,244.26,569.38,244,560.86c0,.44,0-.81,0-1.41-.16-2.14-.41-4.28-.59-6.42-4.28-51.66-2.8-104.11,9.83-154.53a421.06,421.06,0,0,1,15-48.91c1-2.71-3.31-3.88-4.34-1.2a410,410,0,0,0-26.7,134.06A620.34,620.34,0,0,0,238.87,553c.18,2.14.39,4.28.59,6.42,0,.31.08.61.09.92-.06-1.3-.08.67-.07,1.06.13,7.11,4,13.44,9,18.26,15.07,14.45,39.29,18.87,59.52,19.38a2.29,2.29,0,0,0,2.17-2.85c-4.73-28.12-6.74-56.91-7.7-85.37-.83-24.38-.49-48.67,2.41-72.91a556.48,556.48,0,0,1,11.65-63.68c2.48-10.34,5.11-20.69,8.31-30.84.87-2.77-3.47-3.95-4.34-1.2Z"/>
      <path class="cls-19" d="M286.75,362.43l-8,34.64a2.32,2.32,0,0,0,1,2.54l12.47,7.83-.8-3.08-10.2,14.19c-1,1.35-2.31,2.67-2.58,4.34-.36,2.14.46,5.09.7,7.21,1.09,9.76,2.38,19.79,5.61,29.1a117.17,117.17,0,0,0,12.9,25.73c1.59,2.41,5.49.16,3.89-2.27A112.77,112.77,0,0,1,289.33,458c-3.15-9.1-4.46-18.9-5.51-28.42-.23-2.07-.86-4.59-.64-6.68-.16,1.44-.33.85.46,0a33.42,33.42,0,0,0,2.46-3.43l9.24-12.86a2.28,2.28,0,0,0-.8-3.08l-12.48-7.83,1,2.55,8-34.64c.65-2.82-3.69-4-4.34-1.2Z"/>
      <path class="cls-19" d="M386,99.85c3.89-3.91,6.63-9.25,8.81-14.24,6-13.68,7.82-28.92,7.21-43.75-.53-13.06-2.18-29.33-13.65-37.76-7.53-5.52-17.42-5.17-25.37-.71a31.45,31.45,0,0,0-15.67,28c.05,2.89,4.55,2.9,4.5,0A27,27,0,0,1,363.3,8.49C370,3.88,379,2.73,385.86,7.83c10.67,8,11.46,24.47,11.73,36.5.29,13-1.37,26.37-6.45,38.47-2,4.81-4.6,10.1-8.33,13.87-2,2.06,1.14,5.24,3.18,3.18Z"/>
      <path class="cls-19" d="M329,62.23c-7.88-16.92-24.56-39.42-45.64-37.08-14.65,1.62-28,14.42-25.91,29.71,2.17,15.72,15.07,29.3,26.54,39.24,11.69,10.12,26.34,20.28,41.59,24.08,2.81.7,4-3.64,1.2-4.34-11.85-3-23.3-10.39-32.94-17.55-11.75-8.73-23.63-20.19-29.54-33.81-2.68-6.19-3.88-13.35-.65-19.58,3.44-6.66,11.1-11.58,18.35-13,12.06-2.4,22.62,5.93,30,14.5a88,88,0,0,1,13.1,20.12c1.22,2.62,5.1.34,3.88-2.28Z"/>
      <path class="cls-19" d="M316.17,40.23c5.75-10,18.56-12.71,28.3-6.83,10.47,6.32,13.94,18.88,11.56,30.37-.58,2.82,3.76,4,4.34,1.19,2.88-13.9-1.71-29.23-14.89-36.16C333.73,22.62,319,26.27,312.29,38c-1.44,2.52,2.44,4.79,3.88,2.27Z"/>
      <path class="cls-19" d="M272,79.51c-15,7.26-24.21,22.83-40.28,28.3-8.59,2.92-17.78,3.43-26.78,3.62-8.22.18-17.42-.79-25,3.21-5.51,2.92-9,8.57-7.23,14.86,1.81,6.46,7.68,10.5,13.75,12.53,8.49,2.83,18.3,2.77,27.14,2.27a117.51,117.51,0,0,0,27.51-5c2.94-.89,1.69-5.52-1.28-4.62-15.27,4.64-33,7.11-48.82,3.58-6.83-1.53-19.93-9.61-11.52-17.55,6-5.65,16.1-4.37,23.65-4.49,13.92-.23,28.51-1.21,40.54-9,10.94-7,18.84-17.91,30.7-23.66,2.77-1.34.35-5.47-2.42-4.13Z"/>
      <path class="cls-19" d="M193.26,141.1c-4.26,4-7.87,9.41-6.65,15.55,1.33,6.69,7.26,9.72,13.45,10.88,15.74,2.93,32.52,1.17,47.68-3.71,2.92-.94,1.67-5.57-1.27-4.62A98.79,98.79,0,0,1,212.86,164c-5.35-.18-11.57-.24-16.5-2.54-8.27-3.87-4.86-12.15.29-17,2.25-2.12-1.14-5.5-3.39-3.39Z"/>
      <path class="cls-19" d="M400.31,34.51c14.81-1.6,28.8,6,43.69,3.44,14.08-2.38,26.1-11.15,35.81-21.22,4.39-4.54,13.79-17.95,20.86-10,5.8,6.5-.22,17.75-4,23.88-7.39,12.07-18.93,20.89-31.4,27.22-2.59,1.31-.31,5.19,2.27,3.88,13.58-6.89,26.1-16.79,33.8-30.14C505,25.23,508.94,16.83,507,9.38,505.46,3.7,500.69-.47,494.64.06c-7.48.64-12.14,7.27-16.86,12.29-6.4,6.79-13.59,13-22,17.09-9.35,4.51-19,5.44-29.13,3.62-8.77-1.57-17.3-4-26.29-3.05-2.85.31-2.88,4.81,0,4.5Z"/>
      <path class="cls-19" d="M503.52,30.77c4.37-3.95,8.35,2,8.76,5.88a22.77,22.77,0,0,1-1.48,9.76,48.48,48.48,0,0,1-10.15,16.12C492.54,71.42,482.14,78,471.33,83c-2.62,1.24-.34,5.12,2.27,3.89,15.91-7.5,31.93-18.69,39.73-35,3-6.29,5.47-14.9,1.77-21.44-3.05-5.4-10-7.18-14.77-2.9-2.15,1.94,1,5.12,3.19,3.18Z"/>
      <path class="cls-19" d="M453.84,62.12c16.33,25,30.53,52.83,39.06,81.47,6.28,21,7.57,42.38-.7,63.1-6.84,17.16-18.9,32-33,43.79a153.9,153.9,0,0,1-50,27.76c-2.74.89-1.57,5.24,1.2,4.34,33.27-10.8,65.47-33.86,81.87-65.3a91.77,91.77,0,0,0,8.23-62.3c-4.45-21-13.2-41.09-22.87-60.16a369.73,369.73,0,0,0-19.88-35c-1.58-2.41-5.48-.16-3.89,2.27Z"/>
      <path class="cls-19" d="M230,166.46c-1.13,19.81,1.27,40.34,5.62,59.63,4.59,20.34,13.36,39.73,32.94,49.39a40.58,40.58,0,0,0,11.75,4.07l-.58-4.38c-6.2,2.93-4.3,16.05-3.77,20.8.34,3,5.13,3.07,4.79,0-.5-4.56-1.24-9.92.25-14.39a9.28,9.28,0,0,1,1.15-2.27c1.77-.83,1.45-4.08-.57-4.38-16.13-2.37-29.34-16.28-35.51-30.56-7-16.23-9.41-35.29-10.74-52.8a189.61,189.61,0,0,1-.53-25.11c.17-3.08-4.62-3.07-4.8,0Z"/>
      <path class="cls-19" d="M314.84,304.92a42.46,42.46,0,0,0,14-17.09l-4.46-1.21c-.62,5.22-2.26,11.36.87,16.07,1.7,2.56,5.86.16,4.14-2.42-2.46-3.7-.71-9.55-.22-13.65.28-2.32-3.52-3.32-4.47-1.21a37.92,37.92,0,0,1-12.32,15.37c-2.48,1.8-.09,6,2.42,4.14Z"/>
      <path class="cls-19" d="M498.62,195.16A46.05,46.05,0,0,1,510.05,243c-1,2.92,3.63,4.18,4.63,1.27A50.84,50.84,0,0,0,502,191.77c-2.22-2.15-5.61,1.23-3.39,3.39Z"/>
      <path class="cls-19" d="M422.76,313.09a36.4,36.4,0,0,0,17.89-7c2.41-1.85,0-6-2.42-4.14a33.69,33.69,0,0,1-15.47,6.31c-3,.34-3.06,5.14,0,4.8Z"/>
      <path class="cls-19" d="M364.45,343.07q-8.88,22.57-17.45,45.27c-3.84,10.16-7.66,20.33-11.21,30.59-2.08,6-4.86,11.95-3,18.33,3,10.21,9.65,19.85,15.7,28.51a2.44,2.44,0,0,0,3.28.86q10.44-6.39,20.51-13.39A154.61,154.61,0,0,0,385.82,443c2.37-2.07,5-4.38,6.05-7.45,2.36-7.06,2-15.84,2.44-23.17.74-11.65,1.25-23.32,1.69-35q.42-10.71.73-21.43c.09-3.09-4.7-3.09-4.79,0-.46,16.32-1.09,32.64-2,48.94-.49,8.88-.71,18-2.17,26.78-1.21,7.22-10.23,12-15.72,15.88-7.37,5.24-15,10.2-22.69,14.92l3.28.86c-5.28-7.55-10.51-15.6-14-24.13-1.28-3.12-2.22-5.93-1.36-9.21s2-6.33,3-9.45c6.88-20,14.58-39.65,22.2-59.33,2.19-5.64,4.37-11.26,6.58-16.88,1.13-2.87-3.5-4.12-4.62-1.28Z"/>
      <path class="cls-20" d="M397.05,652.43c7,32.78,14.74,65.59,25.78,97.28l2.31-3a165.28,165.28,0,0,1-29.24-3.51c-7.38-1.65-13.69-4.85-20.21-8.62-5-2.89-10.43-6.14-16.4-6.13-6.39,0-12.45,4.31-17.3,8.09a61.37,61.37,0,0,0-14.62,16.31c-6.47,10.62-8.64,23.67-12.28,35.45-.6,1.93,1.78,3.89,3.52,2.71,13.67-9.25,29-19.17,45.13-23.25,3-.75,1.72-5.38-1.28-4.62-16.54,4.18-32.25,14.24-46.27,23.73l3.52,2.71c3.36-10.87,5.37-23.06,11-33,6.32-11.11,21.29-27.76,35.41-21.67,6.2,2.68,11.67,6.82,17.87,9.54a69.87,69.87,0,0,0,16.53,4.49,197.22,197.22,0,0,0,24.6,2.55,2.42,2.42,0,0,0,2.32-3c-11-31.69-18.76-64.49-25.79-97.27-.65-3-5.27-1.74-4.62,1.27Z"/>
      <path class="cls-20" d="M358,653.71c7.27,30,14.65,60,24.76,89.2,1,2.9,5.63,1.65,4.62-1.27-10.11-29.2-17.49-59.2-24.76-89.21-.72-3-5.34-1.72-4.62,1.28Z"/>
      <path class="cls-20" d="M387.91,784.83c-14.42-1.67-28.93-4-41.66-11.42-2.68-1.55-5.09,2.59-2.42,4.14,13.49,7.83,28.8,10.3,44.08,12.08,3.06.35,3-4.44,0-4.8Z"/>
      <path class="cls-20" d="M353.5,729.4c-11.18-10.68-26.41-3.06-35,6.82a86.22,86.22,0,0,0-19.84,43.92c-.44,3,4.17,4.32,4.62,1.28a83.83,83.83,0,0,1,13.91-35.73c6.61-9.53,21.18-24.1,32.91-12.9,2.23,2.13,5.63-1.26,3.39-3.39Z"/>
      <path class="cls-20" d="M323.5,732.24c-17.83-14.2-31.59,18.68-34.12,31.36-.6,3,4,4.3,4.63,1.27a61.26,61.26,0,0,1,7.33-19.52c3.42-5.76,11.16-15.78,18.77-9.72,2.39,1.91,5.81-1.46,3.39-3.39Z"/>
      <path class="cls-20" d="M301,740.5c-2.3-3.91-6.19-6.75-10.91-6.24s-8,4.75-10.25,8.5c-1.6,2.64,2.54,5,4.14,2.42,1.27-2.09,3.23-5.11,5.7-6,3.06-1.06,5.74,1.26,7.18,3.7,1.56,2.66,5.71.25,4.14-2.42Z"/>
      <path class="cls-19" d="M299.93,546.73c3.15,9.2,9.27,18.85,18.26,23.14,4.73,2.26,12.09,4.52,14.2,10-.05-.12.48,2.14.65,2.77l15.15,55.81,5.2,19.14a2.43,2.43,0,0,0,4.38.57l12.76-17.87-3.76.48,18.89,18.9a2.44,2.44,0,0,0,3.77-.49l4.34-6.13c1.78-2.52-2.37-4.91-4.14-2.41l-4.34,6.12,3.76-.48-18.89-18.9a2.44,2.44,0,0,0-3.77.49l-12.76,17.87,4.38.57L345.2,609.1l-7.05-26c-.27-1-.55-2-.81-3-.11-.43-.47-1.59-.18-.45a12.64,12.64,0,0,0-4.34-7.07c-6.41-5.57-15-6.85-20.6-13.54a43.72,43.72,0,0,1-7.66-13.62c-1-2.91-5.63-1.66-4.63,1.27Z"/>
      <path class="cls-19" d="M330.52,572.75c-10.5,1.25-21.39,3.89-25.8,14.6-1.17,2.85,3.46,4.09,4.62,1.27,3.46-8.39,13.2-10.13,21.18-11.07,3-.36,3.07-5.16,0-4.8Z"/>
      <path class="cls-19" d="M199.51,585.25l34.09,69.37L287.69,764.7l12.48,25.41c1.37,2.77,5.5.34,4.14-2.42l-34.08-69.37-54.1-110.08-12.48-25.41c-1.36-2.77-5.5-.35-4.14,2.42Z"/>
      <path class="cls-19" d="M188.4,661.43l41.06,77.17,5.81,10.91c1.45,2.72,5.59.31,4.14-2.42l-41.06-77.17L192.54,659c-1.45-2.72-5.59-.3-4.14,2.42Z"/>
      <path class="cls-19" d="M204,670.54l52.28,100.68,7.44,14.31c1.42,2.74,5.56.32,4.14-2.42L215.61,682.43l-7.43-14.31c-1.43-2.74-5.56-.32-4.14,2.42Z"/>
      <path class="cls-19" d="M258.37,783.18,246.21,760c-1.43-2.74-5.57-.32-4.14,2.42l12.16,23.2c1.43,2.73,5.57.31,4.14-2.42Z"/>
      <path class="cls-19" d="M531.89,766l-19.75-9.46,1.1,2.71a128.76,128.76,0,0,1,8.6-22.41A53,53,0,0,1,532.6,722a32.81,32.81,0,0,1,5.33-4.14c.55-.34,2.68-1.13,1.51-1-1.32.19.43.22.75.3a27.92,27.92,0,0,0,3.55.38l10.77,1.17,15.66,1.7-.64-4.7c-9.87,2.51-19,9.53-25,17.57-5.36,7.19-9,16-12.51,24.23a86,86,0,0,0-3.67,9.91c-.84,3,3.78,4.25,4.62,1.28a116.11,116.11,0,0,1,14-30.56c5.32-8.18,14.21-15.37,23.82-17.81,2.8-.71,1.91-4.43-.63-4.71l-17.62-1.91c-4.38-.48-10.86-2.51-15.13-1.07-3.18,1.08-6.38,4.15-8.71,6.42a57.46,57.46,0,0,0-11,15.35A136.09,136.09,0,0,0,508.62,758a2.42,2.42,0,0,0,1.1,2.71l19.75,9.46C532.24,771.45,534.67,767.31,531.89,766Z"/>
      <path class="cls-19" d="M477.74,766.36c11.92.8,24.2-4.65,35-9.12,2.81-1.17,1.58-5.81-1.27-4.63-10.37,4.31-22.23,9.73-33.69,9-3.08-.21-3.07,4.59,0,4.79Z"/>
      <path class="cls-20" d="M444.62,655.29c9.61,41.26,18.09,82.94,30.37,123.52.89,2.94,5.52,1.69,4.62-1.28C467.34,737,458.85,695.28,449.24,654c-.7-3-5.32-1.73-4.62,1.28Z"/>
      <path class="cls-19" d="M336.08,558c7.92,9.61,17.94,16.1,28.61,22.25a9.52,9.52,0,0,0,2.45,1.4c1.6.23-.28,1.66-.26-.93a9.79,9.79,0,0,0,.74,2.38c1.28,4.08,2.54,8.16,3.81,12.25,3.64,11.78,7.29,23.57,10.75,35.41,3.05,10.43,6.29,21,11.23,30.67,1,1.94,3.78,1.27,4.38-.57l5.87-18.13-4,1.06,20.93,18.13a2.44,2.44,0,0,0,3.77-.49l11.23-18.64-3.76.49,24,18.64c1.46,1.13,4.25.61,4.09-1.7l-3.08-43.12c-.22-3.06-5-3.08-4.79,0l3.07,43.12,4.1-1.69-24-18.64a2.45,2.45,0,0,0-3.77.48L420.22,659l3.76-.48L403.05,640.4a2.43,2.43,0,0,0-4,1.06l-5.87,18.12,4.38-.57c-5.07-10-8.17-20.8-11.32-31.49-3.5-11.87-7.16-23.69-10.82-35.51-1.53-4.94-2.09-12.35-6.88-15.08-10.82-6.15-21.06-12.61-29.06-22.32-2-2.38-5.34,1-3.39,3.39Z"/>
      <path class="cls-19" d="M248.3,783.88a301.93,301.93,0,0,0,30.48,4.84,617.11,617.11,0,0,0,82.78,4.14c37.51-.53,74.93-4.28,112-9.87a664.28,664.28,0,0,0,73.85-15c6.14-1.65,12.24-3.43,18.27-5.43,2.29-.76,4.63-1.92,7-2.47a7.68,7.68,0,0,1,9.07,4.24c2.46,5.41-1.24,9.35-6,11.32-2.34,1-4.83,1.7-7.22,2.51-51.13,17.31-104.55,28.76-157.89,36.5-31.53,4.57-63.67,3.77-95.34,1.24-20.92-1.68-41.81-4.15-62.51-7.63l-3.16-.55c-3-.54-4.31,4.08-1.27,4.63,15.51,2.81,31.2,4.78,46.86,6.46,31.72,3.39,63.9,5.26,95.75,2.84,35.74-2.72,71.59-10.39,106.43-18.57,22.64-5.32,45.14-11.37,67.24-18.59,8.48-2.76,23.21-5.7,22.78-17.09a12.73,12.73,0,0,0-16-11.92c-2.62.7-5.19,1.89-7.76,2.73-17.47,5.73-35.45,9.91-53.45,13.53A865.22,865.22,0,0,1,402.37,786.3c-49.72,3.59-101.62,3.39-150.7-6.6-.7-.14-1.4-.28-2.1-.44-3-.68-4.28,3.94-1.27,4.62Z"/>
      <path class="cls-19" d="M520.37,796.43c1.21,8.3,6.06,16.5,11.68,22.52,13.68,14.68,35.83,18.38,55,15.47,18.38-2.8,32.85-14.69,39.82-31.81,5.84-14.33,7.08-31.74,2.44-46.6-6.92-22.19-32.18-41.17-55.65-32.82-2.88,1-1.64,5.66,1.28,4.62,20.59-7.33,42.86,9.06,49.42,28.45,4.35,12.87,3.68,27.8-.48,40.61-5.14,15.87-17,28.11-33.41,32-17.79,4.24-40.07,1.32-53.58-11.89-5.8-5.67-10.65-13.67-11.85-21.84-.45-3-5.07-1.75-4.62,1.27Z"/>
      <path class="cls-19" d="M567.85,718.65l2.56,9.87,1.1-2.71-19.23,11.58a2.47,2.47,0,0,0-1.11,2.7l3.92,22c.54,3,5.16,1.75,4.62-1.27l-3.91-22-1.11,2.7L573.93,730a2.46,2.46,0,0,0,1.1-2.71l-2.55-9.87c-.77-3-5.4-1.72-4.63,1.28Z"/>
      <path class="cls-19" d="M538.24,791.16c1.91,11.63,7.31,24.21,17.1,31.21,2.51,1.8,4.91-2.35,2.42-4.13-8.72-6.24-13.21-18.08-14.9-28.36-.5-3-5.12-1.75-4.62,1.28Z"/>
      <path class="cls-19" d="M559.09,754.77c-1,.74.74-.53,1-.73,1.35-.9,2.71-1.78,4.12-2.58a47.89,47.89,0,0,1,12.64-5.18c15.32-3.7,26.79,5.69,32.21,19.7,5.72,14.78,2.11,31.67-10.34,41.85-10.19,8.32-25.28,10.61-35.14.66-5.27-5.32-8.85-12.9-10.37-20.23-.62-3-5.24-1.74-4.62,1.28a46,46,0,0,0,11.27,22c10.31,10.73,26.16,10.43,38.21,2.66a40.89,40.89,0,0,0,17.64-42.59c-3.24-15.7-14.83-31.37-32.16-31-10,.2-20.1,4.73-27.87,10.81-2.43,1.89,1,5.27,3.38,3.39Z"/>
      <path class="cls-19" d="M569.46,781.56c2.66,7.63,11.63,11.42,18.52,6.53,6.16-4.38,7.51-15.24-.43-18.6-2.8-1.19-5.25,2.93-2.42,4.14,4.78,2,3.64,8.13-.08,10.65-4.09,2.77-9.4.51-11-4-1-2.9-5.65-1.65-4.63,1.27Z"/>
      <path class="cls-20" d="M362.3,219.66a4.09,4.09,0,0,1-.93-.13l.53,4.1c-1,.73-.65.14.5.23,1,.07,2,0,3-.05,3.09-.06,6.18-.17,9.26-.36,7.88-.5,15.92-1.39,23.51-3.67,8.41-2.53,16.37-7.38,23.31-12.68,2.76-2.12,5.74-4.46,7.69-7.4,1.61-2.41-2.28-4.66-3.87-2.27s-5.59,5.52-8.4,7.51c-7.47,5.29-15.55,9.7-24.53,11.71a124.91,124.91,0,0,1-22.31,2.55c-2.37.09-8.32-1-10.42.56a2.27,2.27,0,0,0,.54,4.09,7.92,7.92,0,0,0,2.12.29c2.86.3,2.84-4.19,0-4.48Z"/>
      <path class="cls-19" d="M306.51,220.7c16.25-11.61,35.08-22.11,55.49-23,1.23-.05,2.68-1.12,2.51-2.52-3.38-28.73-9.45-64.05-39.91-76.13-16.72-6.64-33.56,3.64-39.23,20.1-5.12,14.85.42,31.5,6.9,45a147.57,147.57,0,0,0,18.52,29.33c2,2.51,5.59-1.07,3.56-3.55a140.86,140.86,0,0,1-13-19.36c-6.88-12-13.18-25.89-12.85-40,.37-16.18,14.27-32.72,31.54-27.77,13.8,4,25.59,17,30.38,30.2,4.88,13.43,7.41,28,9.07,42.2l2.52-2.51c-21.33.89-41,11.5-58,23.65-2.61,1.87-.1,6.23,2.54,4.34Z"/>
      <path class="cls-19" d="M457.83,161.84c-10.2-1-21.25-.4-31.06,2.64A66.92,66.92,0,0,0,410.19,172c-1.38.9-2.87,1.88-3.5,3.47-1.14,2.87,3.5,4.11,4.63,1.27-.33.83-.52.68.18.18a32.51,32.51,0,0,1,3.17-2,65.93,65.93,0,0,1,17.78-7,82.81,82.81,0,0,1,25.38-1.32c3.07.29,3.05-4.51,0-4.8Z"/>
      <path class="cls-19" d="M452.24,162.24c.25-20.17-3.35-44.2-15.68-60.66-8.46-11.29-23.85-19.26-37.71-13.21-14.55,6.36-20.63,23.57-20.18,38.43a87.26,87.26,0,0,0,13.68,43.55c1.67,2.58,5.83.18,4.14-2.42-12.72-19.6-22.81-58.37,1.4-73.65,13.12-8.29,28.84.82,36.38,12.37,6.56,10,9.64,22.16,11.47,33.91a132.23,132.23,0,0,1,1.7,21.68c0,3.09,4.76,3.09,4.8,0Z"/>
      <path class="cls-20" d="M416.64,190.37c4.63-5.87,13,1.18,12.59,7.18-.37,5.62-5.47,10.54-9.49,14-1.57,1.34-2,3.29-2.95,6.13a84.82,84.82,0,0,1-7.32,16.81c-3.59,6-7.23,8.7-14.35,7.48-6.39-1.09-12.62-3.6-18.5-6.27-2.37-1.08-4.59-2.77-7.19-2.5-4.17.42-7.87,1.57-12.11.35-7.2-2.07-11.29-12.64-6.19-18.7,2.26-2.69,6.24-3.9,9.68-3.89a2.3,2.3,0,0,0,2.24-2.24c1.84-15,5.12-32.78,17.24-43.15l-2.18.57c15.34,3.15,28.91,14.75,37,27.68,1.53,2.44,5.41.19,3.87-2.26a68.28,68.28,0,0,0-25-23.9c-3.78-2.07-10.4-6.12-15-5.88-2.55.14-4.63,3.3-6.1,5.12a52.81,52.81,0,0,0-8.62,15.26c-3.06,8.47-4.62,17.63-5.71,26.56l2.24-2.24c-12.76,0-19.91,12-14.25,23.58,3.08,6.29,9.68,8.74,16.35,8.58a23.6,23.6,0,0,0,6.89-.91c1.8-.63,1,.4-.4-.54a19.5,19.5,0,0,0,2.51,1.24c7,3.34,14.37,6.5,22,7.87,7.36,1.31,12.64-.08,17.18-6.18s7.34-13.42,9.76-20.52a29.64,29.64,0,0,0,1.17-3.64c.07-.36.82-2.36-.09-.72-.79,1.43.43-.1,1-.52a33.73,33.73,0,0,0,3.73-3.54c5.38-5.77,10-14.15,4.58-21.42-4.2-5.67-12.59-9.09-17.75-2.54-1.77,2.24,1.38,5.43,3.17,3.17Z"/>
      <path class="cls-19" d="M196.39,349.37c4.1-.21,8.25-2.23,11.72-4.23,10.2-5.89,18.22-15.2,24.87-24.76,7.62-10.95,16.09-21.32,29.88-24,4.7-.93,10.14-1,14.74.57,2.74,1,3.91-3.38,1.2-4.34-14.75-5.2-31.38,3.08-41.11,13.91-5.42,6-9.33,13.22-14.53,19.44a71.45,71.45,0,0,1-14.27,13.41c-3.48,2.37-8.89,5.36-12.5,5.54-2.88.15-2.9,4.65,0,4.5Z"/>
    </g>
    <g id="Слой_8" data-name="Слой 8">
      <path class="cls-21" d="M300.86,172.47c1,5.86,3.09,11.1,4.93,16.68,2.71,8.21,15.75,4.7,13-3.59-1.85-5.58-3.92-10.82-4.93-16.68-.63-3.59-5-5.61-8.31-4.71-3.8,1-5.33,4.69-4.71,8.3Z"/>
      <path class="cls-21" d="M391.84,142.32l3.05,13.41c.81,3.56,4.9,5.65,8.3,4.72a6.87,6.87,0,0,0,4.72-8.3l-3.06-13.42c-.8-3.56-4.9-5.65-8.3-4.72a6.87,6.87,0,0,0-4.71,8.31Z"/>
    </g>
  </g>
</svg>
