<svg width="21" height="21" viewBox="0 0 21 21" fill="none" xmlns="http://www.w3.org/2000/svg">
<path d="M2.85085 19V11.7273H5.72017C6.26941 11.7273 6.73816 11.8255 7.12642 12.022C7.51705 12.2161 7.81416 12.492 8.01776 12.8494C8.22372 13.2045 8.3267 13.6224 8.3267 14.103C8.3267 14.5859 8.22254 15.0014 8.0142 15.3494C7.80587 15.6951 7.50402 15.9602 7.10866 16.1449C6.71567 16.3295 6.23982 16.4219 5.68111 16.4219H3.75994V15.1861H5.43253C5.72609 15.1861 5.96993 15.1458 6.16406 15.0653C6.35819 14.9848 6.5026 14.8641 6.5973 14.7031C6.69437 14.5421 6.7429 14.3421 6.7429 14.103C6.7429 13.8615 6.69437 13.6579 6.5973 13.4922C6.5026 13.3265 6.35701 13.201 6.16051 13.1158C5.96638 13.0282 5.72135 12.9844 5.42543 12.9844H4.38849V19H2.85085ZM6.77841 15.6903L8.58594 19H6.88849L5.12003 15.6903H6.77841Z" fill="white"/>
<path d="M15.0725 19H12.4944V11.7273H15.0938C15.8254 11.7273 16.4551 11.8729 16.983 12.1641C17.511 12.4529 17.917 12.8684 18.2011 13.4105C18.4875 13.9527 18.6308 14.6013 18.6308 15.3565C18.6308 16.1141 18.4875 16.7652 18.2011 17.3097C17.917 17.8542 17.5086 18.272 16.9759 18.5632C16.4456 18.8544 15.8112 19 15.0725 19ZM14.032 17.6825H15.0086C15.4632 17.6825 15.8455 17.602 16.1556 17.4411C16.4681 17.2777 16.7025 17.0256 16.8588 16.6847C17.0174 16.3414 17.0967 15.8987 17.0967 15.3565C17.0967 14.8191 17.0174 14.38 16.8588 14.0391C16.7025 13.6982 16.4693 13.4472 16.1592 13.2862C15.849 13.1252 15.4667 13.0447 15.0122 13.0447H14.032V17.6825Z" fill="white"/>
<path d="M2.87966 9L1.00679 2.45455H2.51851L3.60196 7.00249H3.65629L4.85161 2.45455H6.146L7.33811 7.01207H7.39564L8.47909 2.45455H9.99081L8.11794 9H6.76922L5.52277 4.72053H5.47164L4.22838 9H2.87966Z" fill="white"/>
<path d="M18.9042 5.36364C18.9042 6.15672 18.7539 6.83144 18.4532 7.38778C18.1549 7.94413 17.7477 8.36908 17.2316 8.66264C16.7179 8.95384 16.1402 9.09943 15.4987 9.09943C14.8524 9.09943 14.2723 8.95265 13.7586 8.65909C13.2449 8.36553 12.8389 7.94058 12.5406 7.38423C12.2423 6.82789 12.0931 6.15436 12.0931 5.36364C12.0931 4.57055 12.2423 3.89583 12.5406 3.33949C12.8389 2.78314 13.2449 2.35937 13.7586 2.06818C14.2723 1.77462 14.8524 1.62784 15.4987 1.62784C16.1402 1.62784 16.7179 1.77462 17.2316 2.06818C17.7477 2.35937 18.1549 2.78314 18.4532 3.33949C18.7539 3.89583 18.9042 4.57055 18.9042 5.36364ZM17.3453 5.36364C17.3453 4.84991 17.2683 4.41667 17.1144 4.06392C16.9629 3.71117 16.7487 3.44366 16.4717 3.26136C16.1947 3.07907 15.8704 2.98793 15.4987 2.98793C15.127 2.98793 14.8026 3.07907 14.5257 3.26136C14.2487 3.44366 14.0332 3.71117 13.8794 4.06392C13.7278 4.41667 13.6521 4.84991 13.6521 5.36364C13.6521 5.87737 13.7278 6.31061 13.8794 6.66335C14.0332 7.0161 14.2487 7.28362 14.5257 7.46591C14.8026 7.6482 15.127 7.73935 15.4987 7.73935C15.8704 7.73935 16.1947 7.6482 16.4717 7.46591C16.7487 7.28362 16.9629 7.0161 17.1144 6.66335C17.2683 6.31061 17.3453 5.87737 17.3453 5.36364Z" fill="white"/>
</svg>
